<svg xmlns="http://www.w3.org/2000/svg" width="22.127" height="22.1" viewBox="0 0 22.127 22.1">
    <g data-name="Group 37795">
        <path data-name="Path 36375" d="M339.866 106.206a.78.78 0 0 0 .78-.78V103.1a.78.78 0 1 0-1.559 0v2.328a.78.78 0 0 0 .779.778z" transform="translate(-328.718 -102.269)" style="fill:#445072;stroke:#f5f7fa;stroke-width:.1px"/>
        <path data-name="Path 36376" d="M223.349 155.616a.78.78 0 0 0 1.093-1.093l-1.646-1.646a.779.779 0 0 0-1.093 1.093z" transform="translate(-218.195 -149.519)" style="fill:#445072;stroke:#f5f7fa;stroke-width:.1px"/>
        <path data-name="Path 36377" d="M433.793 363.57a.78.78 0 0 0-1.093 1.093l1.646 1.646a.779.779 0 1 0 1.093-1.093z" transform="translate(-416.652 -347.231)" style="fill:#445072;stroke:#f5f7fa;stroke-width:.1px"/>
        <path data-name="Path 36378" d="M172.106 271.641h2.328a.78.78 0 0 0 0-1.559h-2.328a.78.78 0 0 0 0 1.559z" transform="translate(-171.115 -259.645)" style="fill:#445072;stroke:#f5f7fa;stroke-width:.1px"/>
        <path data-name="Path 36379" d="M472.626 270.08h-2.32a.78.78 0 1 0 0 1.559h2.32a.78.78 0 0 0 0-1.559z" transform="translate(-451.329 -259.643)" style="fill:#445072;stroke:#f5f7fa;stroke-width:.1px"/>
        <path data-name="Path 36380" d="M432.239 153.607a.776.776 0 0 0 .55-.23l1.646-1.646a.78.78 0 1 0-1.093-1.093l-1.646 1.647a.779.779 0 0 0 .55 1.33z" transform="translate(-415.648 -147.284)" style="fill:#445072;stroke:#f5f7fa;stroke-width:.1px"/>
        <path data-name="Path 36381" d="M185.615 195.368a6.018 6.018 0 1 0-11.074-3.256 3.827 3.827 0 0 0 .026.543 4.077 4.077 0 0 0-2.157 2.339 4.062 4.062 0 0 0 .364 8.014.775.775 0 0 0 .2.025h7.426a.775.775 0 0 0 .2-.025 4.051 4.051 0 0 0 3.217-5.854 6.03 6.03 0 0 0 1.8-1.785zm-5.264 6.109h-7.344a2.5 2.5 0 0 1 .051-4.994.78.78 0 0 0 .729-.626 2.506 2.506 0 0 1 4.921.055.78.78 0 0 0 .936.623 2.5 2.5 0 1 1 .729 4.943zm2.506-5.548a4.044 4.044 0 0 0-2.674-1.013h-.142a4.054 4.054 0 0 0-3.8-2.63h-.149v-.186a4.459 4.459 0 1 1 6.768 3.825z" transform="translate(-169.092 -180.982)" style="fill:#445072;stroke:#f5f7fa;stroke-width:.1px"/>
    </g>
</svg>
