<svg xmlns="http://www.w3.org/2000/svg" width="18" height="18" viewBox="0 0 18 18">
    <g transform="translate(-808 -458)">
        <rect data-name="Rectangle 10385" width="18" height="18" rx="2" transform="translate(808 458)" style="fill:#a7afc0"/>
        <rect data-name="Rectangle 10386" width="16" height="14" rx="1" transform="translate(809 461)" style="fill:#fff"/>
        <path data-name="Rectangle 10387" transform="translate(821 464.832)" style="fill:#a7afc0" d="M0 0h2v2H0z"/>
        <path data-name="Rectangle 10388" transform="translate(818 464.832)" style="fill:#a7afc0" d="M0 0h2v2H0z"/>
        <path data-name="Rectangle 11167" transform="translate(815 464.832)" style="fill:#a7afc0" d="M0 0h2v2H0z"/>
        <path data-name="Rectangle 10389" transform="translate(821 467.832)" style="fill:#a7afc0" d="M0 0h2v2H0z"/>
        <path data-name="Rectangle 10390" transform="translate(818 467.832)" style="fill:#a7afc0" d="M0 0h2v2H0z"/>
        <path data-name="Rectangle 10391" transform="translate(815 467.832)" style="fill:#a7afc0" d="M0 0h2v2H0z"/>
        <path data-name="Rectangle 10393" transform="translate(818 470.832)" style="fill:#a7afc0" d="M0 0h2v2H0z"/>
        <path data-name="Rectangle 10394" transform="translate(815 470.832)" style="fill:#a7afc0" d="M0 0h2v2H0z"/>
        <path data-name="Rectangle 11168" transform="translate(812 467.832)" style="fill:#a7afc0" d="M0 0h2v2H0z"/>
        <path data-name="Rectangle 11169" transform="translate(812 470.832)" style="fill:#a7afc0" d="M0 0h2v2H0z"/>
    </g>
</svg>
