<svg xmlns="http://www.w3.org/2000/svg" width="9.062" height="13.263" viewBox="0 0 9.062 13.263">
    <g data-name="Group 26224">
        <path data-name="Path 31617" d="M117.51 19.191h-.621V17.86a.862.862 0 0 0-.851-.86h-3.116a.862.862 0 0 0-.851.86v1.331h-.621a1.452 1.452 0 0 0-1.45 1.456v7.1a1.454 1.454 0 0 0 1.332 1.454v.71a.258.258 0 0 0 .249.249h1.495a.249.249 0 0 0 .239-.249v-.7h2.331v.7a.249.249 0 0 0 .239.249h1.495a.258.258 0 0 0 .249-.249V29.2a1.454 1.454 0 0 0 1.332-1.454v-7.1a1.452 1.452 0 0 0-1.451-1.456zm-4.965-1.331a.388.388 0 0 1 .377-.386h3.116a.388.388 0 0 1 .377.386v1.331h-3.87zm.3 11.83h-1.036v-.474h1.036zm3.278 0v-.474h1.036v.474zm2.368-1.932a.985.985 0 0 1-.985.985h-6.045a.985.985 0 0 1-.985-.985v-7.109a.985.985 0 0 1 .985-.985h6.039a.985.985 0 0 1 .985.985z" transform="translate(-109.95 -16.95)" style="fill:#687189;stroke:#687189;stroke-width:.1px"/>
        <path data-name="Path 31618" d="M175.575 195h-3.117a1.454 1.454 0 0 0-1.458 1.452v4.793a.23.23 0 0 0 .236.23h5.564a.23.23 0 0 0 .236-.23v-4.793a1.454 1.454 0 0 0-1.461-1.452zm-3.117.474h3.117a.979.979 0 0 1 .984.978v.532h-5.085v-.532a.979.979 0 0 1 .984-.978zm-.984 5.526v-3.544h5.085V201z" transform="translate(-169.485 -191.015)" style="fill:#687189;stroke:#687189;stroke-width:.1px"/>
    </g>
</svg>
