<svg xmlns="http://www.w3.org/2000/svg" width="15.303" height="12.219" viewBox="0 0 15.303 12.219">
    <g style="fill:#1db2f5;stroke-miterlimit:10">
        <path d="M165.265 232.885c-.062 0-.114-.04-.147-.072l-5.037-5.037 5.036-5.035c.033-.034.086-.074.148-.074.061 0 .114.04.148.074.034.033.074.086.074.148 0 .061-.04.114-.074.148l-2.81 2.81-1.707 1.707h11.852c.075 0 .126.036.156.066.03.03.066.082.066.156 0 .12-.101.222-.222.222H160.895l1.708 1.707 2.81 2.81c.034.034.074.087.074.148 0 .062-.04.115-.074.149-.033.033-.086.073-.148.073z" style="stroke:none" transform="translate(-158.667 -221.667)"/>
        <path d="M165.265 221.667c.305 0 .61.122.855.366a1.18 1.18 0 0 1 0 1.71l-2.81 2.811h9.438c.672 0 1.222.55 1.222 1.222 0 .672-.55 1.222-1.222 1.222h-9.438l2.81 2.81a1.18 1.18 0 0 1 0 1.71 1.181 1.181 0 0 1-1.71.001l-5.743-5.743 5.743-5.743c.244-.244.55-.366.855-.366z" style="fill:#1db2f5;stroke:none" transform="translate(-158.667 -221.667)"/>
    </g>
</svg>
