<svg xmlns="http://www.w3.org/2000/svg" width="14.433" height="13.675" viewBox="0 0 14.433 13.675">
    <path d="M5.235 13.829a2.279 2.279 0 0 1 4.406 0h6.723a.57.57 0 0 1 0 1.139H9.648a2.279 2.279 0 0 1-4.421 0H3.07a.57.57 0 0 1 0-1.139h2.165zm4.557-4.558a2.279 2.279 0 0 1 4.406 0h2.165a.57.57 0 0 1 0 1.139h-2.157a2.279 2.279 0 0 1-4.421 0H3.07a.57.57 0 0 1 0-1.139h6.722zM5.235 4.713a2.279 2.279 0 0 1 4.406 0h6.723a.57.57 0 0 1 0 1.139H9.648a2.279 2.279 0 0 1-4.421 0H3.07a.57.57 0 0 1 0-1.139h2.165zm2.2 1.709a1.139 1.139 0 1 0-.806-.334 1.14 1.14 0 0 0 .808.335zM12 10.98a1.139 1.139 0 1 0-.806-.334 1.14 1.14 0 0 0 .806.334zm-4.563 4.558a1.139 1.139 0 1 0-.806-.334 1.14 1.14 0 0 0 .806.334z" transform="translate(-2.5 -3.018)" style="fill:#1db2f5;fill-rule:evenodd"/>
</svg>
