<svg xmlns="http://www.w3.org/2000/svg" width="19.592" height="19.592" viewBox="0 0 19.592 19.592">
    <path data-name="Path 36958" d="M217.221 135.839a2.159 2.159 0 0 0-1.526.632l-1.573 1.572-4.774-1.059a.571.571 0 0 0-.437.082l-1.691 1.131a.566.566 0 0 0 .031.961l3.669 2.092-1.305 1.305-1.948-.488a.57.57 0 0 0-.534.149L206 143.347a.561.561 0 0 0 .139.9l3.217 1.608 1.608 3.217a.574.574 0 0 0 .421.313.278.278 0 0 0 .092 0 .564.564 0 0 0 .4-.164l1.131-1.131a.57.57 0 0 0 .149-.534l-.488-1.948 1.305-1.3 2.092 3.669a.565.565 0 0 0 .473.283h.021a.552.552 0 0 0 .468-.252l1.131-1.691a.57.57 0 0 0 .1-.437l-1.074-4.774 1.572-1.572a2.174 2.174 0 0 0-1.531-3.7zm-8.618 2.785.735-.488 3.839.848-1.429 1.429zm7.991 7.991-1.793-3.14 1.429-1.429.853 3.834zm1.357-7.883-6.3 6.3a.57.57 0 0 0-.149.534l.488 1.948-.349.349-1.346-2.682a.568.568 0 0 0-.252-.252l-2.682-1.341.349-.349 1.948.488a.571.571 0 0 0 .534-.149l6.305-6.3a1.029 1.029 0 0 1 1.454 1.454z" transform="rotate(45 271.531 -168.61)" style="fill:#1db2f5;stroke:#fff;stroke-width:.3px"/>
</svg>
