<svg xmlns="http://www.w3.org/2000/svg" width="22.532" height="18.972" viewBox="0 0 22.532 18.972">
    <g data-name="图层 1">
        <path data-name="Path 36392" d="M155.21 163.583a5.434 5.434 0 0 1 10.082 2.817.5.5 0 0 1 1 0 6.431 6.431 0 1 0-12.236 2.769h1.122a5.506 5.506 0 0 1 .032-5.586z" transform="translate(-148.592 -155.134)" style="fill:#424f75;stroke:#424f75;stroke-width:.5px"/>
        <path data-name="Path 36393" d="M331.77 249.912a.5.5 0 0 0 1 0 .5.5 0 0 0-1 0z" transform="translate(-315.07 -238.646)" style="fill:#424f75;stroke:#424f75;stroke-width:.5px"/>
        <path data-name="Path 36394" d="M320.941 256.69a5.548 5.548 0 0 1-.771 2.769h1.119a6.489 6.489 0 0 0 .65-2.769.5.5 0 0 1-.998 0z" transform="translate(-304.241 -245.424)" style="fill:#424f75;stroke:#424f75;stroke-width:.5px"/>
        <path data-name="Path 36395" d="M243.5 93.654v-2.237a.5.5 0 0 0-1 0v2.236a.5.5 0 0 0 1 .001zm-.5-2.237z" transform="translate(-231.732 -90.685)" style="fill:#424f75;stroke:#424f75;stroke-width:.5px"/>
        <path data-name="Path 36396" d="m165.177 114.172-1.119-1.937a.5.5 0 0 0-.864.5l1.119 1.937a.5.5 0 0 0 .864-.5zm-.431.252-1.119-1.937z" transform="translate(-157.633 -110.343)" style="fill:#424f75;stroke:#424f75;stroke-width:.5px"/>
        <path data-name="Path 36397" d="m105.542 170.853 1.937 1.119a.5.5 0 0 0 .5-.864l-1.937-1.113a.5.5 0 0 0-.5.858zm.252-.431 1.937 1.119z" transform="translate(-103.651 -164.424)" style="fill:#424f75;stroke:#424f75;stroke-width:.5px"/>
        <path data-name="Path 36398" d="M84.727 250.187h2.236a.5.5 0 0 0 0-1h-2.236a.5.5 0 0 0 0 1zm0-.5z" transform="translate(-83.995 -238.422)" style="fill:#424f75;stroke:#424f75;stroke-width:.5px"/>
        <path data-name="Path 36399" d="M370.333 249.19H368.1a.5.5 0 0 0 0 1h2.236a.5.5 0 0 0-.003-1zm-2.236.5z" transform="translate(-348.532 -238.422)" style="fill:#424f75;stroke:#424f75;stroke-width:.5px"/>
        <path data-name="Path 36400" d="m351.456 171.917 1.937-1.119a.5.5 0 0 0-.5-.864l-1.937 1.118a.5.5 0 0 0 .5.865zm1.685-1.549-1.937 1.119z" transform="translate(-332.752 -164.37)" style="fill:#424f75;stroke:#424f75;stroke-width:.5px"/>
        <path data-name="Path 36401" d="m305.848 114.672 1.119-1.937a.5.5 0 0 0-.864-.5l-1.112 1.937a.5.5 0 0 0 .857.5zm.688-2.189-1.118 1.937z" transform="translate(-290.003 -110.341)" style="fill:#424f75;stroke:#424f75;stroke-width:.5px"/>
        <path data-name="Path 36402" d="M292.709 298.35h-7.677a.5.5 0 0 0 0 1h7.677a.5.5 0 0 0 0-1z" transform="translate(-270.988 -284.315)" style="fill:#424f75;stroke:#424f75;stroke-width:.5px"/>
        <path data-name="Path 36403" d="M91.16 299.347h2.434a.5.5 0 0 0 0-1h-7.677a.5.5 0 0 0 0 1h5.243z" transform="translate(-85.106 -284.315)" style="fill:#424f75;stroke:#424f75;stroke-width:.5px"/>
        <path data-name="Path 36404" d="M134.721 301.167h-5.339l-.579-.554-1.686-1.613-.361-.346a.508.508 0 0 0-.705 0l-.361.346-1.673 1.6-.591.566h-5.339a.5.5 0 0 0 0 1h4.1c.475 0 .962.033 1.436 0a1.027 1.027 0 0 0 .613-.393l.066-.062.039-.039.712-.682.118-.112 1.23-1.176c.442.432.881.872 1.329 1.3.233.225.465.447.706.665l.138.124c.082.074.164.148.248.219.332.29 1.055.155 1.462.155h4.441a.5.5 0 0 0-.004-.998z" transform="translate(-115.138 -283.466)" style="fill:#424f75;stroke:#424f75;stroke-width:.5px"/>
    </g>
</svg>
