<svg xmlns="http://www.w3.org/2000/svg" width="23.9" height="22.229" viewBox="0 0 23.9 22.229">
    <g data-name="Group 37796">
        <path data-name="Path 36406" d="M46.209 87.1a7.1 7.1 0 1 0-7.1 7.1h8.358a4.6 4.6 0 1 0 0-9.194 4.441 4.441 0 0 0-1.494.251" transform="translate(-31.25 -72.73)" style="fill:none;stroke:#424f75;stroke-linecap:round;stroke-linejoin:round;stroke-width:1.5px"/>
        <path data-name="Path 36407" d="M18.9 30.273a6.7 6.7 0 0 0 3.908-4.649h0a7.136 7.136 0 0 1-1.5.167 6.7 6.7 0 0 1-6.693-6.691 7.136 7.136 0 0 1 .167-1.5h0A6.687 6.687 0 0 0 9.6 24.12c0 .1 0 .209.01.313" transform="translate(.344 -16.85)" style="fill:none;stroke:#424f75;stroke-linecap:round;stroke-linejoin:round;stroke-width:1.5px"/>
    </g>
</svg>
