<svg width="16" height="16" viewBox="0 0 16 16" fill="none" xmlns="http://www.w3.org/2000/svg">
<g id="fast-forward">
<g id="Icon">
<path d="M8.66665 10.9578C8.66665 11.7112 8.66665 12.0879 8.81882 12.2725C8.95103 12.433 9.15051 12.5226 9.35825 12.5148C9.59737 12.5058 9.8789 12.2556 10.442 11.7551L13.7698 8.79705C14.0799 8.52132 14.235 8.38346 14.2922 8.22067C14.3424 8.07771 14.3424 7.92192 14.2922 7.77896C14.235 7.61617 14.0799 7.4783 13.7698 7.20258L10.442 4.24454C9.8789 3.74404 9.59737 3.49379 9.35825 3.48484C9.15051 3.47707 8.95103 3.56665 8.81882 3.72708C8.66665 3.91175 8.66665 4.28843 8.66665 5.04178V10.9578Z" stroke="#363F72" stroke-width="1.33333" stroke-linecap="round" stroke-linejoin="round"/>
<path d="M1.33331 10.9578C1.33331 11.7112 1.33331 12.0879 1.48549 12.2725C1.61769 12.433 1.81717 12.5226 2.02491 12.5148C2.26404 12.5058 2.54557 12.2556 3.10863 11.7551L6.43642 8.79705C6.74661 8.52132 6.90171 8.38346 6.95887 8.22067C7.00906 8.07771 7.00906 7.92192 6.95887 7.77896C6.90171 7.61617 6.74661 7.4783 6.43642 7.20258L3.10863 4.24454C2.54557 3.74404 2.26404 3.49379 2.02491 3.48484C1.81717 3.47707 1.61769 3.56665 1.48549 3.72708C1.33331 3.91175 1.33331 4.28843 1.33331 5.04178V10.9578Z" stroke="#363F72" stroke-width="1.33333" stroke-linecap="round" stroke-linejoin="round"/>
</g>
</g>
</svg>
