<svg xmlns="http://www.w3.org/2000/svg" width="16.47" height="15.605" viewBox="0 0 16.47 15.605">
    <path d="M5.621 15.355a2.6 2.6 0 0 1 5.028 0h7.671a.65.65 0 0 1 0 1.3h-7.663a2.6 2.6 0 0 1-5.045 0H3.15a.65.65 0 0 1 0-1.3h2.471zm5.2-5.2a2.6 2.6 0 0 1 5.028 0h2.47a.65.65 0 0 1 0 1.3h-2.461a2.6 2.6 0 0 1-5.045 0H3.15a.65.65 0 0 1 0-1.3h7.672zm-5.2-5.2a2.6 2.6 0 0 1 5.028 0h7.671a.65.65 0 0 1 0 1.3h-7.663a2.6 2.6 0 0 1-5.045 0H3.15a.65.65 0 1 1 0-1.3h2.471zM8.134 6.9a1.3 1.3 0 1 0-.919-.381 1.3 1.3 0 0 0 .919.381zm5.2 5.2a1.3 1.3 0 1 0-.919-.381 1.3 1.3 0 0 0 .921.381zm-5.2 5.2a1.3 1.3 0 1 0-.919-.381 1.3 1.3 0 0 0 .919.386z" transform="translate(-2.5 -3.018)" style="fill:#fff;fill-rule:evenodd"/>
</svg>
