<svg width="17" height="16" viewBox="0 0 17 16" fill="none" xmlns="http://www.w3.org/2000/svg">
<path id="Vector" fill-rule="evenodd" clip-rule="evenodd" d="M3.121 12.3368C3.26743 11.7817 3.59345 11.2907 4.04822 10.9404C4.50299 10.59 5.06092 10.4 5.635 10.4C6.20908 10.4 6.76701 10.59 7.22178 10.9404C7.67655 11.2907 8.00257 11.7817 8.149 12.3368H15.82C15.9924 12.3368 16.1577 12.4053 16.2796 12.5272C16.4015 12.6491 16.47 12.8144 16.47 12.9868C16.47 13.1592 16.4015 13.3245 16.2796 13.4464C16.1577 13.5683 15.9924 13.6368 15.82 13.6368H8.157C8.01646 14.1995 7.69185 14.699 7.23478 15.0559C6.77771 15.4129 6.21443 15.6067 5.6345 15.6067C5.05457 15.6067 4.49129 15.4129 4.03422 15.0559C3.57715 14.699 3.25254 14.1995 3.112 13.6368H0.65C0.477609 13.6368 0.312279 13.5683 0.190381 13.4464C0.0684819 13.3245 0 13.1592 0 12.9868C0 12.8144 0.0684819 12.6491 0.190381 12.5272C0.312279 12.4053 0.477609 12.3368 0.65 12.3368H3.121ZM8.321 7.13682C8.46743 6.58173 8.79345 6.09072 9.24822 5.74036C9.70299 5.39 10.2609 5.2 10.835 5.2C11.4091 5.2 11.967 5.39 12.4218 5.74036C12.8765 6.09072 13.2026 6.58173 13.349 7.13682H15.819C15.9914 7.13682 16.1567 7.20531 16.2786 7.3272C16.4005 7.4491 16.469 7.61443 16.469 7.78682C16.469 7.95921 16.4005 8.12454 16.2786 8.24644C16.1567 8.36834 15.9914 8.43682 15.819 8.43682H13.358C13.2175 8.99947 12.8928 9.49897 12.4358 9.85592C11.9787 10.2129 11.4154 10.4067 10.8355 10.4067C10.2556 10.4067 9.69229 10.2129 9.23522 9.85592C8.77815 9.49897 8.45354 8.99947 8.313 8.43682H0.65C0.477609 8.43682 0.312279 8.36834 0.190381 8.24644C0.0684819 8.12454 0 7.95921 0 7.78682C0 7.61443 0.0684819 7.4491 0.190381 7.3272C0.312279 7.20531 0.477609 7.13682 0.65 7.13682H8.321ZM3.121 1.93682C3.26743 1.38173 3.59345 0.890716 4.04822 0.540357C4.50299 0.189998 5.06092 0 5.635 0C6.20908 0 6.76701 0.189998 7.22178 0.540357C7.67655 0.890716 8.00257 1.38173 8.149 1.93682H15.82C15.9924 1.93682 16.1577 2.0053 16.2796 2.1272C16.4015 2.2491 16.47 2.41443 16.47 2.58682C16.47 2.75921 16.4015 2.92454 16.2796 3.04644C16.1577 3.16834 15.9924 3.23682 15.82 3.23682H8.157C8.01646 3.79947 7.69185 4.29897 7.23478 4.65592C6.77771 5.01286 6.21443 5.20675 5.6345 5.20675C5.05457 5.20675 4.49129 5.01286 4.03422 4.65592C3.57715 4.29897 3.25254 3.79947 3.112 3.23682H0.65C0.564641 3.23682 0.480117 3.22001 0.401256 3.18734C0.322394 3.15468 0.250739 3.1068 0.190381 3.04644C0.130022 2.98608 0.0821439 2.91443 0.0494783 2.83557C0.0168127 2.75671 0 2.67218 0 2.58682C0 2.50146 0.0168127 2.41694 0.0494783 2.33808C0.0821439 2.25922 0.130022 2.18756 0.190381 2.1272C0.250739 2.06685 0.322394 2.01897 0.401256 1.9863C0.480117 1.95364 0.564641 1.93682 0.65 1.93682H3.121ZM5.634 3.88182C5.93477 3.88193 6.22627 3.77775 6.45883 3.58703C6.6914 3.39631 6.85064 3.13084 6.90941 2.83587C6.96819 2.54091 6.92287 2.23468 6.78118 1.96938C6.63948 1.70408 6.41018 1.49612 6.13234 1.38094C5.85451 1.26575 5.54532 1.25047 5.25748 1.33769C4.96964 1.42491 4.72094 1.60924 4.55377 1.85927C4.3866 2.1093 4.3113 2.40956 4.3407 2.70889C4.3701 3.00822 4.50238 3.28809 4.715 3.50082C4.9587 3.74465 5.28927 3.8817 5.634 3.88182ZM10.834 9.08182C11.1348 9.08193 11.4263 8.97775 11.6588 8.78703C11.8914 8.59631 12.0506 8.33084 12.1094 8.03587C12.1682 7.74091 12.1229 7.43468 11.9812 7.16938C11.8395 6.90408 11.6102 6.69612 11.3323 6.58094C11.0545 6.46575 10.7453 6.45047 10.4575 6.53769C10.1696 6.62491 9.92094 6.80924 9.75377 7.05927C9.58661 7.3093 9.5113 7.60956 9.5407 7.90889C9.5701 8.20822 9.70238 8.48809 9.915 8.70082C10.0359 8.82179 10.1795 8.91771 10.3375 8.98309C10.4956 9.04847 10.665 9.08202 10.836 9.08182H10.834ZM5.634 14.2818C5.93477 14.2819 6.22627 14.1778 6.45883 13.987C6.6914 13.7963 6.85064 13.5308 6.90941 13.2359C6.96819 12.9409 6.92287 12.6347 6.78118 12.3694C6.63948 12.1041 6.41018 11.8961 6.13234 11.7809C5.85451 11.6657 5.54532 11.6505 5.25748 11.7377C4.96964 11.8249 4.72094 12.0092 4.55377 12.2593C4.3866 12.5093 4.3113 12.8096 4.3407 13.1089C4.3701 13.4082 4.50238 13.6881 4.715 13.9008C4.83526 14.0225 4.97833 14.1192 5.13603 14.1854C5.29374 14.2516 5.46296 14.2861 5.634 14.2868V14.2818Z" fill="#00A1D4"/>
</svg>
