<svg xmlns="http://www.w3.org/2000/svg" width="16" height="12" viewBox="0 0 16 12">
  <defs>
    <style>
      .cls-1 {
        fill: #808da7;
      }
    </style>
  </defs>
  <g id="Group_38755" data-name="Group 38755" transform="translate(-320 -297.419)">
    <path id="flight_2_" data-name="flight (2)" class="cls-1" d="M12.57,2.26c-.65.29-1.66.85-2.8,1.5L4.31,3a2.172,2.172,0,0,0-.916.064L2.209,3.4c-.1,0-.1.1,0,.14l4.56,2c-1.54.92-2.91,1.76-3.51,2.14a.858.858,0,0,1-.726.088L1.339,7.39a.864.864,0,0,0-.586,0L0,7.7l2.52,2.1a.879.879,0,0,0,.926.128c1.2-.538,4.374-2,6.734-3.228C15.419,3.92,16,3.44,16,3c0-.69-2-1.4-3.43-.74Z" transform="translate(320.001 295.421)"/>
    <rect id="Rectangle_11510" data-name="Rectangle 11510" class="cls-1" width="16" height="2" rx="1" transform="translate(320 307.418)"/>
  </g>
</svg>
