<svg width="92" height="19" viewBox="0 0 92 19" fill="none" xmlns="http://www.w3.org/2000/svg">
<g id="Group 48794">
<rect id="Rectangle 11809" y="8.58203" width="90" height="1" fill="#C0C5D1"/>
<path id="Path" d="M43.5989 15.4545L44.925 15.4545C45.0039 15.4545 45.0907 15.4151 45.1065 15.3519L48.4374 10.3319C48.4768 10.2451 48.54 10.2293 48.6189 10.2293L52.4076 10.2293C53.0548 10.2293 53.5757 9.70839 53.5757 9.06116C53.5757 8.41393 53.0548 7.89299 52.4076 7.89299L48.4926 7.89299C48.4137 7.89299 48.3505 7.87721 48.3111 7.79038L44.8618 2.76252C44.7987 2.69937 44.7592 2.65991 44.6803 2.65991L43.2911 2.67569C43.1332 2.67569 43.007 2.83355 43.0701 2.97563L44.8618 7.59306C44.925 7.73513 44.7987 7.89299 44.6408 7.89299L41.327 7.89299C41.2481 7.89299 41.1613 7.85353 41.1455 7.79038L40.0562 6.13284C40.0168 6.04602 39.9536 6.03023 39.8747 6.03023L39.0696 6.03023C38.9117 6.03023 38.8012 6.17231 38.8486 6.33017L39.559 8.36657C39.5353 8.39025 39.559 8.41393 39.559 8.4455L39.559 9.61368C39.559 9.66103 39.559 9.66103 39.5432 9.67682L38.8565 11.7685C38.7933 11.9105 38.9196 12.0684 39.0775 12.0684L39.7563 12.0684C39.8352 12.0684 39.9221 12.0289 39.9378 11.9658L41.0429 10.2925C41.0823 10.2057 41.1455 10.1899 41.2244 10.1899L44.7908 10.1899C44.9486 10.1899 45.0591 10.3319 45.0118 10.4898L43.4016 15.1309C43.3306 15.3124 43.4411 15.4545 43.5989 15.4545Z" fill="#C0C5D1"/>
<circle id="Ellipse 2037" cx="87.75" cy="9.08203" r="3.5" fill="#C0C5D1"/>
<circle id="Ellipse 2038" cx="3.5" cy="9.08203" r="3.5" fill="#C0C5D1"/>
</g>
</svg>
