<svg xmlns="http://www.w3.org/2000/svg" width="10.288" height="13.771" viewBox="0 0 10.288 13.771">
    <path data-name="Path 31315" d="M5.576 2.971a1.429 1.429 0 1 1 1.01-.418 1.429 1.429 0 0 1-1.01.418z" style="fill:#e68d32" transform="translate(-.857 -.114)"/>
    <path data-name="Path 31316" d="M7.225 8.171V5.314A1.644 1.644 0 0 0 5.576 3.6c-1.649 0-1.885 1.143-1.885 2.057v2.972c0 .686.236 1.829 2.12 1.829h3.181l.708 2.856a.885.885 0 0 0 .825.571.707.707 0 0 0 .589-.914l-.825-4c0-.113-.236-.571-.589-.571z" style="fill:#e68d32" transform="translate(-.857 -.114)"/>
    <path data-name="Path 31317" d="M5.341 13.2h1.884a.572.572 0 1 0 0-1.143H5.341c-2.238 0-3.3-1.257-3.3-3.543V5.771a.589.589 0 0 0-1.178 0v2.743C.746 11.257 2.16 13.2 5.341 13.2z" style="fill:#e68d32" transform="translate(-.857 -.114)"/>
</svg>
