<svg xmlns="http://www.w3.org/2000/svg" width="34" height="15.491" viewBox="0 0 34 15.491">
    <g data-name="Group 26260" transform="translate(-366 -1030)">
        <circle data-name="Ellipse 2035" cx="1.5" cy="1.5" r="1.5" transform="translate(372 1036.246)" style="opacity:.69;fill:#cad1de"/>
        <circle data-name="Ellipse 2036" cx="1.5" cy="1.5" r="1.5" transform="translate(392 1036.246)" style="opacity:.69;fill:#cad1de"/>
        <circle data-name="Ellipse 2037" cx="1.5" cy="1.5" r="1.5" transform="translate(366 1036.246)" style="opacity:.35;fill:#cad1de"/>
        <circle data-name="Ellipse 2038" cx="1.5" cy="1.5" r="1.5" transform="translate(397 1036.246)" style="opacity:.35;fill:#cad1de"/>
        <path d="m9.209 10.2.8-.8a.157.157 0 0 0 .048-.172l-1.02-5.057A.146.146 0 0 1 9.085 4l2.292-2.292a1 1 0 0 0 0-1.413 1 1 0 0 0-1.413 0L7.595 2.662a.146.146 0 0 1-.172.048l-5.128-.955a.207.207 0 0 0-.172.048l-.831.85a.193.193 0 0 0 .048.315l3.877 1.709a.193.193 0 0 1 .048.315l-2 2a.157.157 0 0 1-.172.048L1.426 6.7a.146.146 0 0 0-.172.048l-.487.487a.194.194 0 0 0 .048.315l1.662.8c0 .029.029.029.048.048l.707.707c.029.029.029.029.029.048l.85 1.681a.193.193 0 0 0 .315.048l.411-.411a.157.157 0 0 0 .048-.172L4.54 8.62a.146.146 0 0 1 .048-.172l2.157-2.157a.194.194 0 0 1 .315.048l1.834 3.782a.187.187 0 0 0 .315.079z" transform="rotate(45 -1051.567 976.225)" style="fill:#c3cad8"/>
    </g>
</svg>
