<svg xmlns="http://www.w3.org/2000/svg" width="19.033" height="19.033" viewBox="0 0 19.033 19.033">
    <path d="m11.153 12.528.986-.986a.193.193 0 0 0 .059-.211l-1.256-6.206A.179.179 0 0 1 11 4.913L13.816 2.1a1.225 1.225 0 0 0 0-1.737 1.225 1.225 0 0 0-1.737 0L9.17 3.271a.179.179 0 0 1-.211.059l-6.3-1.173a.254.254 0 0 0-.211.059L1.426 3.259a.237.237 0 0 0 .059.387l4.764 2.1a.237.237 0 0 1 .059.387L3.844 8.6a.193.193 0 0 1-.211.059l-2.042-.426a.179.179 0 0 0-.211.059l-.6.6a.239.239 0 0 0 .059.387l2.042.986c0 .035.035.035.059.059l.868.868c.035.035.035.035.035.059l1.044 2.065a.237.237 0 0 0 .387.059l.5-.5a.193.193 0 0 0 .059-.211l-.422-2.065a.179.179 0 0 1 .059-.211l2.656-2.659a.239.239 0 0 1 .387.059l2.253 4.646a.23.23 0 0 0 .387.094z" transform="rotate(45 5.108 10.624)" style="fill:#c0c5d1"/>
</svg>
