<svg xmlns="http://www.w3.org/2000/svg" width="15.557" height="15.557" viewBox="0 0 15.557 15.557">
  <g id="fly-city-light" transform="translate(0 7.778) rotate(-45)">
    <g id="Group_20235" data-name="Group 20235" transform="translate(0 0)">
      <path id="Path_6628" data-name="Path 6628" d="M10.783.218c-.26-.262-.713-.288-1.306-.074a3.161,3.161,0,0,0-1.041.6L6.791,2.388,1.377,1.537,0,2.917,4.5,4.685,3.055,6.131,1,6.252l-.983.984L2.247,8.31l-.624.625.456.457L2.7,8.768,3.78,11l.983-.985.117-2.058L6.35,6.484l1.764,4.508,1.377-1.38-.85-5.423,1.621-1.624a3.17,3.17,0,0,0,.6-1.043C11.07.932,11.044.479,10.783.218ZM1.154,2.675,1.6,2.226l4.625.728L5,4.184ZM8.8,9.392l-.448.449L6.848,5.989,8.076,4.76Zm1.45-8.081a2.628,2.628,0,0,1-.445.8L4.251,7.677l-.12,2.055L3.963,9.9,3.186,8.287l.561-.562L3.29,7.268l-.56.561L1.12,7.05l.168-.168,2.052-.12L8.893,1.2A2.621,2.621,0,0,1,9.7.752c.391-.14.6-.112.63-.077s.064.242-.076.633Z" transform="translate(0 0)" fill="#6f82a8"/>
    </g>
  </g>
</svg>
