<svg xmlns="http://www.w3.org/2000/svg" width="46" height="46" viewBox="0 0 46 46">
  <g id="Group_39198" data-name="Group 39198" transform="translate(-12 -169)">
    <g id="Ellipse_4" data-name="Ellipse 4" transform="translate(12 169)" fill="none" stroke="#d2d7e5" stroke-width="1">
      <circle cx="23" cy="23" r="23" stroke="none"/>
      <circle cx="23" cy="23" r="22.5" fill="none"/>
    </g>
    <g id="noun-user-5695425" transform="translate(-120.83 128.49)">
      <path id="Path_36822" data-name="Path 36822" d="M244.5,63.169a5.329,5.329,0,1,0-5.329-5.329A5.336,5.336,0,0,0,244.5,63.169Zm0-8.976a3.646,3.646,0,1,1-3.646,3.646A3.651,3.651,0,0,1,244.5,54.193Z" transform="translate(-88.852)" fill="#4d586e"/>
      <path id="Path_36823" data-name="Path 36823" d="M159.014,309.17h-6.732a6.46,6.46,0,0,0-6.452,6.452,3.088,3.088,0,0,0,3.086,3.086H162.38a3.088,3.088,0,0,0,3.086-3.086,6.46,6.46,0,0,0-6.452-6.452Zm3.366,7.854H148.916a1.4,1.4,0,0,1-1.4-1.4,4.775,4.775,0,0,1,4.769-4.769h6.732a4.775,4.775,0,0,1,4.769,4.769A1.4,1.4,0,0,1,162.38,317.024Z" transform="translate(0 -244.197)" fill="#4d586e"/>
    </g>
  </g>
</svg>
