<svg xmlns="http://www.w3.org/2000/svg" width="20.025" height="20.025" viewBox="0 0 20.025 20.025">
  <g id="modify-icn-new" transform="translate(-1129.5 -526.475)">
    <path id="Path_47042" data-name="Path 47042" d="M19.846,11h-.507a34.35,34.35,0,0,0-4.178.146,4.6,4.6,0,0,0-2.8,1.215,4.6,4.6,0,0,0-1.215,2.8A34.35,34.35,0,0,0,11,19.339v.573a34.35,34.35,0,0,0,.146,4.178,4.6,4.6,0,0,0,1.215,2.8,4.6,4.6,0,0,0,2.8,1.215,34.351,34.351,0,0,0,4.178.146h.573a34.351,34.351,0,0,0,4.178-.146,4.6,4.6,0,0,0,2.8-1.215,4.6,4.6,0,0,0,1.215-2.8,34.351,34.351,0,0,0,.146-4.178V19.4a.885.885,0,0,0-1.769,0v.442a33.706,33.706,0,0,1-.13,4.007,2.879,2.879,0,0,1-.712,1.785,2.879,2.879,0,0,1-1.785.712,33.706,33.706,0,0,1-4.007.13H19.4a33.706,33.706,0,0,1-4.007-.13,2.879,2.879,0,0,1-1.785-.712,2.879,2.879,0,0,1-.712-1.785,33.706,33.706,0,0,1-.13-4.007V19.4A33.706,33.706,0,0,1,12.9,15.4a2.879,2.879,0,0,1,.712-1.785A2.879,2.879,0,0,1,15.4,12.9a33.706,33.706,0,0,1,4.007-.13h.442a.885.885,0,1,0,0-1.769Z" transform="translate(1118.5 518.25)" fill="#0ca7e2"/>
    <g id="Group_48262" data-name="Group 48262" transform="translate(1135.187 526.475)">
      <path id="Path_47043" data-name="Path 47043" d="M76.323,12.58a1.982,1.982,0,0,1,0,2.8L74.8,16.9,72,14.1l1.521-1.521A1.982,1.982,0,0,1,76.323,12.58Z" transform="translate(-62.565 -12)" fill="#0ca7e2"/>
      <path id="Path_47044" data-name="Path 47044" d="M43.578,33.36l-1.694.158a.613.613,0,0,1-.667-.667l.158-1.694a1.839,1.839,0,0,1,.531-1.13l7.671-7.671,2.8,2.8L44.708,32.83A1.839,1.839,0,0,1,43.578,33.36Z" transform="translate(-41.215 -19.182)" fill="#0ca7e2"/>
    </g>
  </g>
</svg>
