<svg xmlns="http://www.w3.org/2000/svg" width="22.5" height="22.5" viewBox="0 0 22.5 22.5">
    <path data-name="Path 36382" d="M327.735 46.668a1.067 1.067 0 0 1 1.067 1.067v2.134a1.067 1.067 0 1 1-2.134 0v-2.134a1.067 1.067 0 0 1 1.067-1.067z" transform="translate(-316.485 -46.418)" style="fill:#424f75;stroke:#f5f7fa;stroke-width:.5px"/>
    <path data-name="Path 36383" d="M233.33 169a5.665 5.665 0 1 1 5.67 5.66 5.665 5.665 0 0 1-5.67-5.66zm5.67-3.4a3.4 3.4 0 1 0 3.4 3.4 3.4 3.4 0 0 0-3.4-3.4z" transform="translate(-227.745 -157.745)" style="fill-rule:evenodd;fill:#424f75;stroke:#f5f7fa;stroke-width:.5px"/>
    <path data-name="Path 36384" d="M328.8 421.065a1.067 1.067 0 0 0-2.134 0v2.135a1.067 1.067 0 0 0 2.134 0z" transform="translate(-316.483 -402.016)" style="fill:#424f75;stroke:#f5f7fa;stroke-width:.5px"/>
    <path data-name="Path 36385" d="M494.266 257.735a1.067 1.067 0 0 1-1.066 1.065h-2.134a1.067 1.067 0 0 1 0-2.134h2.134a1.067 1.067 0 0 1 1.067 1.067z" transform="translate(-472.016 -246.485)" style="fill:#424f75;stroke:#f5f7fa;stroke-width:.5px"/>
    <path data-name="Path 36386" d="M119.871 258.8a1.067 1.067 0 0 0 0-2.134h-2.134a1.067 1.067 0 0 0 0 2.134z" transform="translate(-116.42 -246.483)" style="fill:#424f75;stroke:#f5f7fa;stroke-width:.5px"/>
    <path data-name="Path 36387" d="M445.489 375.489a1.067 1.067 0 0 1-1.509 0l-1.509-1.509a1.067 1.067 0 0 1 1.509-1.509l1.509 1.509a1.067 1.067 0 0 1 0 1.509z" transform="translate(-426.364 -356.364)" style="fill:#424f75;stroke:#f5f7fa;stroke-width:.5px"/>
    <path data-name="Path 36388" d="M180 111.5a1.067 1.067 0 1 0 1.509-1.509L180 108.482a1.067 1.067 0 0 0-1.509 1.509z" transform="translate(-175.112 -105.107)" style="fill:#424f75;stroke:#f5f7fa;stroke-width:.5px"/>
    <path data-name="Path 36389" d="M445.489 108.488a1.067 1.067 0 0 1 0 1.509l-1.509 1.509a1.067 1.067 0 0 1-1.51-1.506l1.509-1.509a1.067 1.067 0 0 1 1.51-.003z" transform="translate(-426.364 -105.112)" style="fill:#424f75;stroke:#f5f7fa;stroke-width:.5px"/>
    <path data-name="Path 36390" d="M181.5 373.987a1.067 1.067 0 0 0-1.509-1.509l-1.509 1.509a1.067 1.067 0 1 0 1.509 1.509z" transform="translate(-175.107 -356.371)" style="fill:#424f75;stroke:#f5f7fa;stroke-width:.5px"/>
</svg>
