<svg width="20" height="20" viewBox="0 0 20 20" fill="none" xmlns="http://www.w3.org/2000/svg">
<g id="material-symbols:carry-on-bag-outline-rounded">
<path id="Vector" d="M13.3333 14.168C14.0278 14.168 14.6181 14.411 15.1042 14.8971C15.5903 15.3832 15.8333 15.9735 15.8333 16.668C15.8333 17.3624 15.5903 17.9527 15.1042 18.4388C14.6181 18.9249 14.0278 19.168 13.3333 19.168C12.8056 19.168 12.3297 19.0152 11.9058 18.7096C11.4819 18.4041 11.1733 18.0013 10.98 17.5013H6.66667C6.20833 17.5013 5.81611 17.3382 5.49 17.0121C5.16389 16.686 5.00056 16.2935 5 15.8346V7.5013C5 7.04297 5.16333 6.65075 5.49 6.32464C5.81667 5.99852 6.20889 5.83519 6.66667 5.83464H11.6667V3.33464H10.8333C10.5972 3.33464 10.3994 3.25464 10.24 3.09464C10.0806 2.93464 10.0006 2.73686 10 2.5013C10 2.26519 10.08 2.06741 10.24 1.90797C10.4 1.74852 10.5978 1.66852 10.8333 1.66797H12.5C12.7361 1.66797 12.9342 1.74797 13.0942 1.90797C13.2542 2.06797 13.3339 2.26575 13.3333 2.5013V14.168ZM7.5 15.8346V7.5013H6.66667V15.8346H7.5ZM9.16667 7.5013V15.8346H10.9792C11.0347 15.6263 11.125 15.4355 11.25 15.2621C11.375 15.0888 11.5139 14.9324 11.6667 14.793V7.5013H9.16667ZM13.3333 17.918C13.6806 17.918 13.9758 17.7966 14.2192 17.5538C14.4625 17.311 14.5839 17.0157 14.5833 16.668C14.5833 16.3207 14.4619 16.0257 14.2192 15.783C13.9764 15.5402 13.6811 15.4185 13.3333 15.418C12.9861 15.418 12.6911 15.5396 12.4483 15.783C12.2056 16.0263 12.0839 16.3213 12.0833 16.668C12.0833 17.0152 12.205 17.3105 12.4483 17.5538C12.6917 17.7971 12.9867 17.9185 13.3333 17.918Z" fill="#98A2B3"/>
</g>
</svg>
