<svg width="20" height="20" viewBox="0 0 20 20" fill="none" xmlns="http://www.w3.org/2000/svg">
<g id="material-symbols:personal-bag-outline-rounded">
<path id="Vector" d="M5.83341 18.3346C5.37508 18.3346 4.98286 18.1716 4.65675 17.8455C4.33064 17.5194 4.1673 17.1269 4.16675 16.668V10.0013C4.16675 8.82075 4.47591 7.76519 5.09425 6.83464C5.71258 5.90408 6.51453 5.20964 7.50008 4.7513V4.16797C7.50008 3.47352 7.74314 2.88325 8.22925 2.39714C8.71536 1.91102 9.30564 1.66797 10.0001 1.66797C10.6945 1.66797 11.2848 1.91102 11.7709 2.39714C12.257 2.88325 12.5001 3.47352 12.5001 4.16797V4.7513C13.4862 5.20964 14.2884 5.90408 14.9067 6.83464C15.5251 7.76519 15.834 8.82075 15.8334 10.0013V16.668C15.8334 17.1263 15.6704 17.5188 15.3442 17.8455C15.0181 18.1721 14.6256 18.3352 14.1667 18.3346H5.83341ZM5.83341 16.668H14.1667V10.0013C14.1667 8.84852 13.7604 7.86602 12.9476 7.0538C12.1348 6.24158 11.1523 5.83519 10.0001 5.83464C8.8473 5.83464 7.8648 6.24102 7.05258 7.0538C6.24036 7.86658 5.83397 8.84908 5.83341 10.0013V16.668ZM12.5001 13.3346C12.7362 13.3346 12.9342 13.2546 13.0942 13.0946C13.2542 12.9346 13.334 12.7369 13.3334 12.5013V11.668C13.3334 11.2096 13.1704 10.8174 12.8442 10.4913C12.5181 10.1652 12.1256 10.0019 11.6667 10.0013H7.50008C7.26397 10.0013 7.06619 10.0813 6.90675 10.2413C6.7473 10.4013 6.6673 10.5991 6.66675 10.8346C6.66675 11.0707 6.74675 11.2688 6.90675 11.4288C7.06675 11.5888 7.26453 11.6685 7.50008 11.668H11.6667V12.5013C11.6667 12.7374 11.7467 12.9355 11.9067 13.0955C12.0667 13.2555 12.2645 13.3352 12.5001 13.3346ZM9.16675 4.2513C9.31953 4.22352 9.45841 4.20269 9.58341 4.1888C9.70841 4.17491 9.8473 4.16797 10.0001 4.16797C10.1529 4.16797 10.2917 4.17491 10.4167 4.1888C10.5417 4.20269 10.6806 4.22352 10.8334 4.2513V4.16797C10.8334 3.93186 10.7534 3.73408 10.5934 3.57464C10.4334 3.41519 10.2356 3.33519 10.0001 3.33464C9.76397 3.33464 9.56619 3.41464 9.40675 3.57464C9.2473 3.73464 9.1673 3.93241 9.16675 4.16797V4.2513Z" fill="#98A2B3"/>
</g>
</svg>
