<svg width="16" height="19" viewBox="0 0 16 19" fill="none" xmlns="http://www.w3.org/2000/svg">
<path d="M11 9.1263L9.33337 7.45963V6.5013H8.37504L6.70837 4.83464H9.33337V2.33464H8.50004C8.26393 2.33464 8.06615 2.25464 7.90671 2.09464C7.74726 1.93464 7.66726 1.73686 7.66671 1.5013C7.66671 1.26519 7.74671 1.06741 7.90671 0.907969C8.06671 0.748524 8.26449 0.668524 8.50004 0.667969H10.1667C10.4028 0.667969 10.6009 0.747969 10.7609 0.907969C10.9209 1.06797 11.0006 1.26575 11 1.5013V9.1263ZM14.4167 17.2513L13.4167 16.2513C13.2639 16.8346 12.9689 17.2999 12.5317 17.6471C12.0945 17.9944 11.5839 18.168 11 18.168C10.4584 18.168 9.97587 18.0119 9.55254 17.6996C9.12921 17.3874 8.83393 16.988 8.66671 16.5013H4.33337C3.87504 16.5013 3.48282 16.3382 3.15671 16.0121C2.8306 15.686 2.66726 15.2935 2.66671 14.8346V6.5013C2.66671 6.34852 2.68421 6.20964 2.71921 6.08464C2.75421 5.95964 2.80615 5.83464 2.87504 5.70964L0.250041 3.08464C0.0972628 2.93186 0.020874 2.73741 0.020874 2.5013C0.020874 2.26519 0.0972628 2.07075 0.250041 1.91797C0.402818 1.76519 0.597263 1.6888 0.833374 1.6888C1.06949 1.6888 1.26393 1.76519 1.41671 1.91797L15.5834 16.0846C15.7362 16.2374 15.8125 16.4319 15.8125 16.668C15.8125 16.9041 15.7362 17.0985 15.5834 17.2513C15.4306 17.4041 15.2362 17.4805 15 17.4805C14.7639 17.4805 14.5695 17.4041 14.4167 17.2513ZM5.16671 14.8346V8.04297L4.33337 7.20964V14.8346H5.16671ZM11 16.918C11.3612 16.918 11.6598 16.7999 11.8959 16.5638C12.132 16.3277 12.25 16.0291 12.25 15.668C12.25 15.3069 12.132 15.0082 11.8959 14.7721C11.6598 14.536 11.3612 14.418 11 14.418C10.6389 14.418 10.3403 14.536 10.1042 14.7721C9.8681 15.0082 9.75004 15.3069 9.75004 15.668C9.75004 16.0291 9.8681 16.3277 10.1042 16.5638C10.3403 16.7999 10.6389 16.918 11 16.918ZM6.83337 14.8346H8.66671C8.73615 14.6402 8.82643 14.456 8.93754 14.2821C9.04865 14.1082 9.1806 13.9591 9.33337 13.8346V12.2096L6.83337 9.70964V14.8346Z" fill="#98A2B3"/>
</svg>
