<svg width="14" height="14" viewBox="0 0 14 14" fill="none" xmlns="http://www.w3.org/2000/svg">
<g id="star-06" clip-path="url(#clip0_644_16056)">
<path id="Icon" d="M2.62502 12.8346V9.91797M2.62502 4.08464V1.16797M1.16669 2.6263H4.08335M1.16669 11.3763H4.08335M7.58335 1.7513L6.57175 4.38147C6.40724 4.80919 6.32499 5.02305 6.19708 5.20294C6.08371 5.36237 5.94442 5.50166 5.78499 5.61503C5.6051 5.74294 5.39124 5.82519 4.96352 5.9897L2.33335 7.0013L4.96352 8.01291C5.39124 8.17741 5.6051 8.25967 5.78499 8.38758C5.94442 8.50094 6.08371 8.64024 6.19708 8.79967C6.32499 8.97956 6.40724 9.19342 6.57175 9.62113L7.58335 12.2513L8.59496 9.62113C8.75947 9.19341 8.84172 8.97956 8.96963 8.79967C9.08299 8.64024 9.22229 8.50094 9.38172 8.38758C9.56161 8.25967 9.77547 8.17741 10.2032 8.01291L12.8334 7.0013L10.2032 5.9897C9.77547 5.82519 9.56161 5.74294 9.38172 5.61503C9.22229 5.50166 9.08299 5.36237 8.96963 5.20294C8.84172 5.02305 8.75946 4.80919 8.59496 4.38147L7.58335 1.7513Z" stroke="#532BD7" stroke-width="1.33333" stroke-linecap="round" stroke-linejoin="round"/>
</g>
<defs>
<clipPath id="clip0_644_16056">
<rect width="14" height="14" fill="white"/>
</clipPath>
</defs>
</svg>
