<svg width="20" height="20" viewBox="0 0 20 20" fill="none" xmlns="http://www.w3.org/2000/svg">
<g id="fast-forward">
<g id="Icon">
<path d="M10.8332 13.6973C10.8332 14.639 10.8332 15.1098 11.0234 15.3407C11.1886 15.5412 11.438 15.6532 11.6977 15.6435C11.9966 15.6323 12.3485 15.3195 13.0523 14.6939L17.2121 10.9963C17.5998 10.6517 17.7937 10.4793 17.8651 10.2758C17.9279 10.0971 17.9279 9.9024 17.8651 9.7237C17.7937 9.52021 17.5998 9.34788 17.2121 9.00322L13.0523 5.30568C12.3485 4.68005 11.9966 4.36724 11.6977 4.35605C11.438 4.34633 11.1886 4.45831 11.0234 4.65885C10.8332 4.88969 10.8332 5.36053 10.8332 6.30223V13.6973Z" stroke="#98A2B3" stroke-width="2" stroke-linecap="round" stroke-linejoin="round"/>
<path d="M1.6665 13.6973C1.6665 14.639 1.6665 15.1098 1.85672 15.3407C2.02198 15.5412 2.27133 15.6532 2.53101 15.6435C2.82991 15.6323 3.18183 15.3195 3.88566 14.6939L8.04539 10.9963C8.43313 10.6517 8.627 10.4793 8.69845 10.2758C8.76119 10.0971 8.76119 9.9024 8.69845 9.7237C8.627 9.52021 8.43313 9.34788 8.04539 9.00322L3.88566 5.30568C3.18183 4.68005 2.82991 4.36724 2.53101 4.35605C2.27133 4.34633 2.02198 4.45831 1.85672 4.65885C1.6665 4.88969 1.6665 5.36053 1.6665 6.30223V13.6973Z" stroke="#98A2B3" stroke-width="2" stroke-linecap="round" stroke-linejoin="round"/>
</g>
</g>
</svg>
