<svg xmlns="http://www.w3.org/2000/svg" width="14.775" height="13.901" viewBox="0 0 14.775 13.901">
  <defs>
    <style>
      .cls-1, .cls-2 {
        fill: #1db2f5;
      }

      .cls-2 {
        fill-rule: evenodd;
      }
    </style>
  </defs>
  <g id="Group_37904" data-name="Group 37904" transform="translate(-0.733 -0.733)">
    <path id="Path_36409" data-name="Path 36409" class="cls-1" d="M14.292,2.4H1.567a.834.834,0,1,1,0-1.667H14.292a.834.834,0,0,1,0,1.667ZM9.542,6.392H1.567a.834.834,0,1,1,0-1.667H9.542a.834.834,0,0,1,0,1.667Zm-3.075,4h-4.9a.834.834,0,1,1,0-1.667h4.9a.834.834,0,0,1,0,1.667Zm-2.45,4H1.567a.834.834,0,1,1,0-1.667h2.45a.834.834,0,0,1,0,1.667Z"/>
    <path id="Path_36410" data-name="Path 36410" class="cls-2" d="M15.5,11.75a.626.626,0,0,0-.2-.458.706.706,0,0,0-.958,0l-.75.708V4.542a.834.834,0,0,0-1.667,0v7.466l-.75-.708a.706.706,0,0,0-.958,0,.625.625,0,0,0,0,.917l1.891,1.8a.83.83,0,0,0,.175.167l.475.45.475-.45a1.26,1.26,0,0,0,.184-.175l1.891-1.8a.626.626,0,0,0,.2-.459H15.5Z"/>
  </g>
</svg>
