<svg id="travelstart-new-brand-logo" xmlns="http://www.w3.org/2000/svg" width="704.762" height="165.296" viewBox="0 0 704.762 165.296">
  <g id="Group_19009" transform="translate(0)">
    <path id="Subtraction_6" d="M325,116.179a54.759,54.759,0,0,1-11.009-1.113,54.149,54.149,0,0,1-19.539-8.228,54.706,54.706,0,0,1-22.969-56.345,54.15,54.15,0,0,1,8.228-19.539A54.65,54.65,0,0,1,336.055,7.963a54.149,54.149,0,0,1,19.539,8.228,54.661,54.661,0,0,1,22.969,56.322,54.15,54.15,0,0,1-8.228,19.539,54.886,54.886,0,0,1-24.058,19.817,56.685,56.685,0,0,1-10.268,3.2A54.759,54.759,0,0,1,325,116.179Zm0-87.31a33.215,33.215,0,0,0-6.582.672,32.65,32.65,0,0,0-23.5,19.284,31.424,31.424,0,0,0-1.9,6.142,33.127,33.127,0,0,0,0,13.165A32.729,32.729,0,0,0,312.3,91.657a31.7,31.7,0,0,0,6.119,1.9,33.127,33.127,0,0,0,13.165,0,32.649,32.649,0,0,0,23.5-19.284,31.424,31.424,0,0,0,1.9-6.142,32.746,32.746,0,0,0-4.914-24.87A32.683,32.683,0,0,0,337.7,31.441,32.713,32.713,0,0,0,325,28.869Z" transform="translate(325.087 -6.85)" fill="#1eaee2"/>
    <g id="Group_19008" transform="translate(0 55.897)">
      <path id="Path_25841" d="M27.49,20.313h8.692V38.461h.3A28.587,28.587,0,0,1,65.733,19.27v9.456c-17.105-.9-28.787,11.7-28.787,27.767V97.773H27.49V20.313Z" transform="translate(13.029 9.401)" fill="#fff"/>
      <path id="Path_25842" d="M73.84,19.68h10.5l24.313,67.957h.3L132.943,19.68H142.7L113.752,97.093H103.693Z" transform="translate(74.107 10.057)" fill="#fff"/>
      <path id="Path_25843" d="M112.746,54.268c1.507-14.092,10.036-27.6,25.5-27.6,15.3,0,24.174,13.35,24.591,27.6Zm59.566,7.95c.765-21.764-9.155-43.528-34.048-43.528-24.615,0-34.975,20.559-34.975,40.978,0,22.065,10.36,40.955,34.975,40.955,19.516,0,29.691-10.2,33.747-27.767h-9.456c-3.013,11.7-10.523,19.817-24.313,19.817-18.171,0-25.356-16.665-25.5-30.455Z" transform="translate(112.915 8.752)" fill="#fff"/>
      <path id="Path_25844" d="M138.64,6.85h9.433V114H138.64Z" transform="translate(159.498 -6.85)" fill="#fff"/>
      <path id="Path_25845" d="M199.369,43.616c-.464-11.7-9.456-16.943-20.257-16.943-8.39,0-18.287,3.291-18.287,13.35,0,8.413,9.6,11.4,16.062,13.049L189.5,55.923c10.8,1.646,22.065,7.95,22.065,21.462,0,16.8-16.665,23.247-31.081,23.247-18.009,0-30.293-8.413-31.8-27.3h9.456c.765,12.748,10.2,19.353,22.807,19.353,8.854,0,21.138-3.894,21.138-14.695,0-9.016-8.39-12.006-16.943-14.115L172.97,61.185c-12.307-3.314-21.6-7.51-21.6-20.721C151.369,24.7,166.8,18.7,180.48,18.7c15.459,0,27.767,8.112,28.369,24.916Z" transform="translate(172.728 8.765)" fill="#fff"/>
      <path id="Path_25846" d="M250.152,68.346c.139,15.158-12.609,24.313-27,24.313-8.854,0-17.267-5.841-17.267-15.3,0-15.158,19.956-15,35.995-17.87,2.55-.44,6.768-1.182,7.973-3.43h.3V68.346Zm0,18.264V98.385h9.41V43.616c0-20.7-14.81-24.916-28.439-24.916-17.708,0-30.479,7.811-31.382,25.959h9.433c.3-12.585,9.016-18.009,20.721-18.009,11.1,0,20.257,3.152,20.257,15.9,0,8.553-4.357,9.6-12.145,10.5C217.588,55.46,196.45,56.2,196.45,77.965c0,15.575,11.7,22.645,25.959,22.645,14.393,0,21.184-5.354,27.6-14.857,0,.023.139-.023.139.858Z" transform="translate(235.678 8.765)" fill="#fff"/>
      <path id="Path_25847" d="M98.789,68.346C98.928,83.5,86.18,92.66,71.764,92.66c-8.854,0-17.244-5.841-17.244-15.3,0-15.158,19.956-15,36.018-17.87,2.55-.44,6.745-1.182,7.95-3.43h.3Zm0,18.264V98.385h9.387V43.616c0-20.7-14.81-24.916-28.462-24.916-17.708,0-30.455,7.811-31.359,25.959h9.456c.278-12.585,8.993-18.009,20.7-18.009,11.1,0,20.257,3.152,20.257,15.9,0,8.553-4.357,9.6-12.145,10.5C66.224,55.46,45.04,56.2,45.04,77.965c0,15.575,11.7,22.645,25.959,22.645,14.416,0,21.184-5.354,27.6-14.857.023.023.185-.023.185.858Z" transform="translate(36.156 8.765)" fill="#fff"/>
      <path id="Path_25848" d="M230.55,20.313h8.738V38.461h.3A28.57,28.57,0,0,1,268.863,19.27v9.456c-17.105-.9-28.81,11.7-28.81,27.767V97.773h-9.48Z" transform="translate(280.613 9.4)" fill="#fff"/>
      <path id="Path_25849" d="M253.86,9.63h9.456V32.9h15.738v7.95H263.316V93.069c0,6.142.881,9.735,7.649,10.2a72.893,72.893,0,0,0,8.112-.464v8.089c-2.851,0-5.563.3-8.39.3-12.609,0-16.966-4.2-16.8-17.406Z" transform="translate(311.33 -3.187)" fill="#fff"/>
      <path id="Path_25850" d="M181.422,9.63h9.48V32.9h15.738v7.95H190.9V93.069c0,6.142.881,9.735,7.649,10.2a72.479,72.479,0,0,0,8.089-.464v8.089c-2.851,0-5.539.3-8.413.3-12.609,0-16.943-4.2-16.8-17.406Z" transform="translate(215.87 -3.187)" fill="#fff"/>
      <path id="Path_25851" d="M10.012,9.63h9.456V32.9H35.207v7.95H19.469V93.069c0,6.142.881,9.735,7.649,10.2a67.334,67.334,0,0,0,8.089-.464v8.089c-2.828,0-5.539.3-8.39.3-12.609,0-16.966-4.2-16.8-17.406Z" transform="translate(-10.008 -3.187)" fill="#fff"/>
    </g>
  </g>
</svg>
