<svg width="24" height="20" viewBox="0 0 24 20" fill="none" xmlns="http://www.w3.org/2000/svg">
<path d="M22.4008 10.9504C22.4008 11.2361 22.2218 11.4943 21.9533 11.5941C21.3612 11.8179 20.924 12.2964 20.7622 12.9092C20.597 13.5219 20.7346 14.1553 21.1374 14.6442C21.3199 14.8645 21.344 15.1777 21.2028 15.4256C21.0582 15.6735 20.7725 15.8077 20.4937 15.7595C19.8671 15.6562 19.2509 15.8525 18.8034 16.3034C18.3525 16.7509 18.1562 17.3671 18.2595 17.9937C18.3077 18.276 18.1735 18.5582 17.9256 18.7028C17.6777 18.844 17.3645 18.8199 17.1442 18.6374C16.6553 18.2346 16.0219 18.097 15.4092 18.2622C14.7964 18.424 14.3179 18.8612 14.0941 19.4533C13.9943 19.7218 13.7361 19.9008 13.4504 19.9008C13.1647 19.9008 12.9065 19.7218 12.8067 19.4533C12.5829 18.8612 12.1044 18.424 11.4916 18.2622C10.8789 18.097 10.2455 18.2346 9.75664 18.6374C9.53632 18.8199 9.22306 18.844 8.9752 18.7028C8.72734 18.5582 8.59309 18.276 8.64128 17.9937C8.74455 17.3671 8.54834 16.7509 8.09737 16.3034C7.64985 15.8525 7.03365 15.6562 6.40712 15.7595C6.12828 15.8077 5.84256 15.6735 5.69798 15.4256C5.55684 15.1777 5.58093 14.8645 5.76338 14.6442C6.16615 14.1553 6.30385 13.5219 6.13861 12.9092C5.97682 12.2964 5.53962 11.8179 4.94752 11.5941C4.67901 11.4943 4.5 11.2361 4.5 10.9504C4.5 10.6647 4.67901 10.4065 4.94752 10.3067C5.53962 10.0829 5.97682 9.6044 6.13861 8.99164C6.30385 8.37888 6.16615 7.74547 5.76338 7.25664C5.58093 7.03632 5.55684 6.72306 5.69798 6.4752C5.84256 6.22734 6.12828 6.09309 6.40712 6.14128C7.03365 6.24455 7.64985 6.04834 8.09737 5.59737C8.54834 5.14985 8.74455 4.53365 8.64128 3.90712C8.59309 3.62484 8.72734 3.34256 8.9752 3.19798C9.22306 3.05684 9.53632 3.08093 9.75664 3.26338C10.2455 3.66615 10.8789 3.80385 11.4916 3.63861C12.1044 3.47682 12.5829 3.03962 12.8067 2.44752C12.9065 2.17901 13.1647 2 13.4504 2C13.7361 2 13.9943 2.17901 14.0941 2.44752C14.3179 3.03962 14.7964 3.47682 15.4092 3.63861C16.0219 3.80385 16.6553 3.66615 17.1442 3.26338C17.3645 3.08093 17.6777 3.05684 17.9256 3.19798C18.1735 3.34256 18.3077 3.62484 18.2595 3.90712C18.1562 4.53365 18.3525 5.14985 18.8034 5.59737C19.2509 6.04834 19.8671 6.24455 20.4937 6.14128C20.7725 6.09309 21.0582 6.22734 21.2028 6.4752C21.344 6.72306 21.3199 7.03632 21.1374 7.25664C20.7346 7.74547 20.597 8.37888 20.7622 8.99164C20.924 9.6044 21.3612 10.0829 21.9533 10.3067C22.2218 10.4065 22.4008 10.6647 22.4008 10.9504Z" fill="#DC0037"/>
<path d="M11.3847 13.7043C11.2084 13.7043 11.0325 13.6372 10.8979 13.5026C10.6291 13.2338 10.6291 12.7979 10.8979 12.5291L15.0289 8.39814C15.2977 8.12928 15.7336 8.12928 16.0024 8.39814C16.2713 8.667 16.2713 9.10281 16.0024 9.37167L11.8715 13.5026C11.7369 13.6372 11.5609 13.7043 11.3847 13.7043ZM11.3916 9.5734C11.0115 9.5734 10.7014 9.26495 10.7014 8.8849C10.7014 8.50486 11.0081 8.19641 11.3881 8.19641H11.3916C11.772 8.19641 12.0801 8.50486 12.0801 8.8849C12.0801 9.26495 11.772 9.5734 11.3916 9.5734ZM15.5222 13.704C15.1421 13.704 14.832 13.3956 14.832 13.0155C14.832 12.6355 15.1387 12.327 15.5187 12.327H15.5222C15.9026 12.327 16.2107 12.6355 16.2107 13.0155C16.2107 13.3956 15.9026 13.704 15.5222 13.704Z" fill="white"/>
<g clip-path="url(#clip0_1_11104)">
<path d="M5.41325 4.0464C3.75993 4.48453 3.39992 4.85512 2.97365 6.55775C2.97288 6.56051 2.97126 6.56295 2.96903 6.56468C2.9668 6.56641 2.96408 6.56735 2.96129 6.56735C2.95849 6.56735 2.95578 6.56641 2.95354 6.56468C2.95131 6.56295 2.94969 6.56051 2.94892 6.55775C2.52035 4.8558 2.16199 4.48521 0.509326 4.0464C0.506639 4.04561 0.504276 4.04394 0.502593 4.04164C0.50091 4.03935 0.5 4.03655 0.5 4.03367C0.5 4.0308 0.50091 4.028 0.502593 4.0257C0.504276 4.02341 0.506639 4.02174 0.509326 4.02095C2.16265 3.58214 2.52265 3.21155 2.94892 1.5096C2.94969 1.50683 2.95131 1.5044 2.95354 1.50267C2.95578 1.50094 2.95849 1.5 2.96129 1.5C2.96408 1.5 2.9668 1.50094 2.96903 1.50267C2.97126 1.5044 2.97288 1.50683 2.97365 1.5096C3.39992 3.21155 3.75993 3.58214 5.41325 4.02095C5.41594 4.02174 5.4183 4.02341 5.41998 4.0257C5.42167 4.028 5.42257 4.0308 5.42257 4.03367C5.42257 4.03655 5.42167 4.03935 5.41998 4.04164C5.4183 4.04394 5.41594 4.04561 5.41325 4.0464Z" fill="#FF780F"/>
<g opacity="0.638">
<path d="M7.49111 1.74561C6.34219 2.02899 6.10383 2.27436 5.82856 3.45706C5.8277 3.4597 5.82607 3.46199 5.82388 3.46362C5.82169 3.46524 5.81906 3.46612 5.81636 3.46612C5.81366 3.46612 5.81103 3.46524 5.80884 3.46362C5.80665 3.46199 5.80501 3.4597 5.80416 3.45706C5.52888 2.27436 5.29052 2.02899 4.14161 1.74561C4.13905 1.74474 4.13682 1.74305 4.13524 1.7408C4.13366 1.73854 4.13281 1.73584 4.13281 1.73306C4.13281 1.73028 4.13366 1.72757 4.13524 1.72532C4.13682 1.72306 4.13905 1.72138 4.14161 1.7205C5.29052 1.43713 5.52888 1.19176 5.80416 0.00905143C5.80501 0.00641576 5.80665 0.00412327 5.80884 0.00249874C5.81103 0.000874205 5.81366 0 5.81636 0C5.81906 0 5.82169 0.000874205 5.82388 0.00249874C5.82607 0.00412327 5.8277 0.00641576 5.82856 0.00905143C6.10383 1.19176 6.34219 1.43713 7.49111 1.7205C7.49367 1.72138 7.4959 1.72306 7.49747 1.72532C7.49905 1.72757 7.4999 1.73028 7.4999 1.73306C7.4999 1.73584 7.49905 1.73854 7.49747 1.7408C7.4959 1.74305 7.49367 1.74474 7.49111 1.74561Z" fill="#FF780F"/>
<path d="M7.49111 6.27687C6.34219 6.56024 6.10383 6.80561 5.82856 7.98831C5.8277 7.99095 5.82607 7.99324 5.82388 7.99487C5.82169 7.99649 5.81906 7.99737 5.81636 7.99737C5.81366 7.99737 5.81103 7.99649 5.80884 7.99487C5.80665 7.99324 5.80501 7.99095 5.80416 7.98831C5.52888 6.80561 5.29052 6.56024 4.14161 6.27687C4.13905 6.27599 4.13682 6.2743 4.13524 6.27205C4.13366 6.26979 4.13281 6.26709 4.13281 6.26431C4.13281 6.26153 4.13366 6.25882 4.13524 6.25657C4.13682 6.25431 4.13905 6.25263 4.14161 6.25175C5.29052 5.96838 5.52888 5.72301 5.80416 4.5403C5.80501 4.53767 5.80665 4.53537 5.80884 4.53375C5.81103 4.53212 5.81366 4.53125 5.81636 4.53125C5.81906 4.53125 5.82169 4.53212 5.82388 4.53375C5.82607 4.53537 5.8277 4.53767 5.82856 4.5403C6.10383 5.72301 6.34219 5.96838 7.49111 6.25175C7.49367 6.25263 7.4959 6.25431 7.49747 6.25657C7.49905 6.25882 7.4999 6.26153 7.4999 6.26431C7.4999 6.26709 7.49905 6.26979 7.49747 6.27205C7.4959 6.2743 7.49367 6.27599 7.49111 6.27687Z" fill="#FF780F"/>
</g>
</g>
<g clip-path="url(#clip1_1_11104)">
<path d="M21.4132 14.9536C19.7599 14.5155 19.3999 14.1449 18.9737 12.4423C18.9729 12.4395 18.9713 12.4371 18.969 12.4353C18.9668 12.4336 18.9641 12.4327 18.9613 12.4327C18.9585 12.4327 18.9558 12.4336 18.9535 12.4353C18.9513 12.4371 18.9497 12.4395 18.9489 12.4423C18.5203 14.1442 18.162 14.5148 16.5093 14.9536C16.5066 14.9544 16.5043 14.9561 16.5026 14.9584C16.5009 14.9607 16.5 14.9634 16.5 14.9663C16.5 14.9692 16.5009 14.972 16.5026 14.9743C16.5043 14.9766 16.5066 14.9783 16.5093 14.9791C18.1626 15.4179 18.5227 15.7885 18.9489 17.4904C18.9497 17.4932 18.9513 17.4956 18.9535 17.4973C18.9558 17.4991 18.9585 17.5 18.9613 17.5C18.9641 17.5 18.9668 17.4991 18.969 17.4973C18.9713 17.4956 18.9729 17.4932 18.9737 17.4904C19.3999 15.7885 19.7599 15.4179 21.4132 14.9791C21.4159 14.9783 21.4183 14.9766 21.42 14.9743C21.4217 14.972 21.4226 14.9692 21.4226 14.9663C21.4226 14.9634 21.4217 14.9607 21.42 14.9584C21.4183 14.9561 21.4159 14.9544 21.4132 14.9536Z" fill="#FF780F"/>
<g opacity="0.638">
<path d="M23.4911 17.2544C22.3422 16.971 22.1038 16.7256 21.8286 15.5429C21.8277 15.5403 21.8261 15.538 21.8239 15.5364C21.8217 15.5348 21.8191 15.5339 21.8164 15.5339C21.8137 15.5339 21.811 15.5348 21.8088 15.5364C21.8066 15.538 21.805 15.5403 21.8042 15.5429C21.5289 16.7256 21.2905 16.971 20.1416 17.2544C20.139 17.2553 20.1368 17.2569 20.1352 17.2592C20.1337 17.2615 20.1328 17.2642 20.1328 17.2669C20.1328 17.2697 20.1337 17.2724 20.1352 17.2747C20.1368 17.2769 20.139 17.2786 20.1416 17.2795C21.2905 17.5629 21.5289 17.8082 21.8042 18.9909C21.805 18.9936 21.8066 18.9959 21.8088 18.9975C21.811 18.9991 21.8137 19 21.8164 19C21.8191 19 21.8217 18.9991 21.8239 18.9975C21.8261 18.9959 21.8277 18.9936 21.8286 18.9909C22.1038 17.8082 22.3422 17.5629 23.4911 17.2795C23.4937 17.2786 23.4959 17.2769 23.4975 17.2747C23.4991 17.2724 23.4999 17.2697 23.4999 17.2669C23.4999 17.2642 23.4991 17.2615 23.4975 17.2592C23.4959 17.2569 23.4937 17.2553 23.4911 17.2544Z" fill="#FF780F"/>
<path d="M23.4911 12.7231C22.3422 12.4398 22.1038 12.1944 21.8286 11.0117C21.8277 11.009 21.8261 11.0068 21.8239 11.0051C21.8217 11.0035 21.8191 11.0026 21.8164 11.0026C21.8137 11.0026 21.811 11.0035 21.8088 11.0051C21.8066 11.0068 21.805 11.009 21.8042 11.0117C21.5289 12.1944 21.2905 12.4398 20.1416 12.7231C20.139 12.724 20.1368 12.7257 20.1352 12.728C20.1337 12.7302 20.1328 12.7329 20.1328 12.7357C20.1328 12.7385 20.1337 12.7412 20.1352 12.7434C20.1368 12.7457 20.139 12.7474 20.1416 12.7482C21.2905 13.0316 21.5289 13.277 21.8042 14.4597C21.805 14.4623 21.8066 14.4646 21.8088 14.4663C21.811 14.4679 21.8137 14.4688 21.8164 14.4688C21.8191 14.4688 21.8217 14.4679 21.8239 14.4663C21.8261 14.4646 21.8277 14.4623 21.8286 14.4597C22.1038 13.277 22.3422 13.0316 23.4911 12.7482C23.4937 12.7474 23.4959 12.7457 23.4975 12.7434C23.4991 12.7412 23.4999 12.7385 23.4999 12.7357C23.4999 12.7329 23.4991 12.7302 23.4975 12.728C23.4959 12.7257 23.4937 12.724 23.4911 12.7231Z" fill="#FF780F"/>
</g>
</g>
<defs>
<clipPath id="clip0_1_11104">
<rect width="7" height="8" fill="white" transform="translate(0.5)"/>
</clipPath>
<clipPath id="clip1_1_11104">
<rect width="7" height="8" fill="white" transform="matrix(1 0 0 -1 16.5 19)"/>
</clipPath>
</defs>
</svg>
