<?xml version="1.0" encoding="UTF-8" standalone="no"?><!DOCTYPE svg PUBLIC "-//W3C//DTD SVG 1.1//EN" "http://www.w3.org/Graphics/SVG/1.1/DTD/svg11.dtd"><svg width="100%" height="100%" viewBox="0 0 66 66" version="1.1" xmlns="http://www.w3.org/2000/svg" xmlns:xlink="http://www.w3.org/1999/xlink" xml:space="preserve" xmlns:serif="http://www.serif.com/" style="fill-rule:evenodd;clip-rule:evenodd;stroke-linejoin:round;stroke-miterlimit:2;"><path d="M2.239,65.462l0.443,-0l21.332,-4.642c0.416,-0.07 0.801,-0.263 1.105,-0.555l36.148,-36.148c1.31,-1.303 2.349,-2.853 3.054,-4.562c0.705,-1.708 1.063,-3.539 1.054,-5.387c-0.001,-3.761 -1.475,-7.373 -4.108,-10.06c-1.303,-1.31 -2.853,-2.348 -4.561,-3.054c-1.709,-0.705 -3.54,-1.063 -5.388,-1.053c-1.857,-0.017 -3.698,0.347 -5.409,1.069c-1.711,0.722 -3.256,1.787 -4.54,3.129l-36.033,36.148c-0.317,0.256 -0.548,0.603 -0.661,0.994l-4.642,21.331c-0.063,0.378 -0.036,0.765 0.079,1.129c0.115,0.365 0.315,0.697 0.582,0.971c0.2,0.21 0.439,0.38 0.704,0.498c0.265,0.119 0.551,0.184 0.841,0.192Zm49.075,-61.013c2.547,0.005 4.989,1.02 6.789,2.823c1.8,1.803 2.811,4.246 2.811,6.793l-0,0.111c0.017,1.252 -0.218,2.495 -0.693,3.653c-0.476,1.159 -1.18,2.209 -2.072,3.088l-13.58,-13.703c0.887,-0.882 1.94,-1.58 3.097,-2.055c1.157,-0.474 2.397,-0.715 3.648,-0.71Zm-9.838,5.969l13.597,13.596l-31.503,31.392l-13.592,-13.482l31.498,-31.506Zm-33.273,35.922l10.943,10.943l-14.036,3.093l3.093,-14.036Z" style="fill:#4c4949;fill-rule:nonzero;"/></svg>
