<svg width="24" height="24" viewBox="0 0 24 24" fill="none" xmlns="http://www.w3.org/2000/svg">
<path d="M13.0915 15.5999C13.0915 16.1301 12.6617 16.5599 12.1315 16.5599C11.6014 16.5599 11.1716 16.1301 11.1716 15.5999C11.1716 15.0697 11.6014 14.6399 12.1315 14.6399C12.6617 14.6399 13.0915 15.0697 13.0915 15.5999Z" fill="#C5163C"/>
<path d="M12.7315 7.43982H11.5316V13.4398H12.7315V7.43982Z" fill="#C5163C"/>
<path fill-rule="evenodd" clip-rule="evenodd" d="M12.1316 21.5999C6.83812 21.5999 2.53156 17.2933 2.53156 11.9999C2.53156 6.70646 6.83812 2.3999 12.1316 2.3999C17.425 2.3999 21.7316 6.70646 21.7316 11.9999C21.7316 17.2933 17.424 21.5999 12.1316 21.5999ZM12.1316 3.5999C7.50004 3.5999 3.73155 7.36838 3.73155 11.9999C3.73155 16.6314 7.50004 20.3999 12.1316 20.3999C16.7631 20.3999 20.5316 16.6319 20.5316 11.9999C20.5316 7.3679 16.7636 3.5999 12.1316 3.5999Z" fill="#C5163C"/>
</svg>
