<svg width="16" height="16" viewBox="0 0 16 16" fill="none" xmlns="http://www.w3.org/2000/svg">
<path d="M8.6012 12.3006C8.6012 12.8284 8.1733 13.2563 7.64546 13.2563C7.11763 13.2563 6.68973 12.8284 6.68973 12.3006C6.68973 11.7727 7.11763 11.3448 7.64546 11.3448C8.1733 11.3448 8.6012 11.7727 8.6012 12.3006Z" fill="#E35716"/>
<path d="M8.12335 5.61247H7.16763V10.3911H8.12335V5.61247Z" fill="#E35716"/>
<path fill-rule="evenodd" clip-rule="evenodd" d="M15.0478 15.1057C14.976 15.1464 14.8948 15.1678 14.8122 15.1678H0.477789C0.395205 15.1678 0.314033 15.1464 0.24219 15.1057C0.170347 15.0649 0.110286 15.0063 0.0678644 14.9354C0.0254425 14.8646 0.00210797 14.7839 0.000136244 14.7014C-0.00183548 14.6188 0.017623 14.5372 0.0566141 14.4644L7.22306 1.08414C7.2639 1.00795 7.32464 0.94427 7.39881 0.899874C7.47298 0.855478 7.5578 0.832031 7.64424 0.832031C7.73068 0.832031 7.8155 0.855478 7.88967 0.899874C7.96384 0.94427 8.02458 1.00795 8.06541 1.08414L15.2334 14.4644C15.2724 14.5372 15.2918 14.6188 15.2899 14.7014C15.2879 14.7839 15.2646 14.8646 15.2221 14.9354C15.1797 15.0063 15.1197 15.0649 15.0478 15.1057ZM7.64576 2.32179L1.27601 14.2121H14.0155L7.64576 2.32179Z" fill="#E35716"/>
</svg>
