<svg width="14px" height="13px" viewBox="0 0 59 56" version="1.1" xmlns="http://www.w3.org/2000/svg"
     xmlns:xlink="http://www.w3.org/1999/xlink" style="fill-rule:evenodd;clip-rule:evenodd;"><path d="M13.91,40.88l-13.91,-0m13.91,-0c0,2.21 0.851,4.329 2.366,5.892c1.515,1.563 3.569,2.441 5.711,2.441c2.142,-0 4.197,-0.878 5.711,-2.441c1.515,-1.563 2.366,-3.682 2.366,-5.892m-16.154,-0c0,-2.211 0.851,-4.33 2.366,-5.893c1.515,-1.563 3.569,-2.441 5.711,-2.441c2.142,0 4.197,0.878 5.711,2.441c1.515,1.563 2.366,3.682 2.366,5.893m28.574,-0l-28.574,-0m28.269,-26.667l-16.827,-0m0,-0c0,2.21 -0.851,4.33 -2.365,5.892c-1.515,1.563 -3.569,2.441 -5.712,2.441c-2.142,0 -4.196,-0.878 -5.711,-2.441c-1.514,-1.562 -2.365,-3.682 -2.365,-5.892m16.153,-0c0,-2.21 -0.851,-4.33 -2.365,-5.893c-1.515,-1.562 -3.569,-2.44 -5.712,-2.44c-2.142,-0 -4.196,0.878 -5.711,2.44c-1.514,1.563 -2.365,3.683 -2.365,5.893m-0,-0l-25.353,-0" style="fill:none;fill-rule:nonzero;stroke:#f0325a;stroke-width:5.83px;"/></svg>
