<svg width="92" height="19" viewBox="0 0 92 19" fill="none" xmlns="http://www.w3.org/2000/svg">
<g id="Frame">
<g id="Group 48794">
<path id="Rectangle 11809" d="M90 8.57812H0V9.57812H90V8.57812Z" fill="#C7C5C5"/>
<path id="Path" d="M43.5973 15.4508H44.9234C45.0023 15.4508 45.0891 15.4114 45.1049 15.3482L48.4358 10.3282C48.4752 10.2414 48.5384 10.2256 48.6173 10.2256H52.406C53.0532 10.2256 53.5741 9.70473 53.5741 9.0575C53.5741 8.41027 53.0532 7.88933 52.406 7.88933H48.491C48.4121 7.88933 48.3489 7.87355 48.3095 7.78672L44.8602 2.75886C44.7971 2.69571 44.7576 2.65625 44.6787 2.65625L43.2895 2.67203C43.1316 2.67203 43.0054 2.82989 43.0685 2.97197L44.8602 7.5894C44.9234 7.73147 44.7971 7.88933 44.6392 7.88933H41.3254C41.2465 7.88933 41.1597 7.84987 41.1439 7.78672L40.0546 6.12918C40.0152 6.04236 39.952 6.02657 39.8731 6.02657H39.068C38.9101 6.02657 38.7996 6.16865 38.847 6.32651L39.5574 8.36291C39.5337 8.38659 39.5574 8.41027 39.5574 8.44184V9.61002C39.5574 9.65737 39.5574 9.65737 39.5416 9.67316L38.8549 11.7648C38.7917 11.9068 38.918 12.0647 39.0759 12.0647H39.7547C39.8336 12.0647 39.9205 12.0252 39.9362 11.9621L41.0413 10.2888C41.0807 10.202 41.1439 10.1862 41.2228 10.1862H44.7892C44.947 10.1862 45.0575 10.3282 45.0102 10.4861L43.4 15.1272C43.329 15.3087 43.4395 15.4508 43.5973 15.4508Z" fill="#C7C5C5"/>
<path id="Ellipse 2037" d="M87.75 12.5781C89.683 12.5781 91.25 11.0111 91.25 9.07813C91.25 7.14513 89.683 5.57812 87.75 5.57812C85.817 5.57812 84.25 7.14513 84.25 9.07813C84.25 11.0111 85.817 12.5781 87.75 12.5781Z" fill="#C7C5C5"/>
<path id="Ellipse 2038" d="M3.5 12.5781C5.433 12.5781 7 11.0111 7 9.07813C7 7.14513 5.433 5.57812 3.5 5.57812C1.567 5.57812 0 7.14513 0 9.07813C0 11.0111 1.567 12.5781 3.5 12.5781Z" fill="#C7C5C5"/>
</g>
</g>
</svg>
