<svg width="25" height="129" viewBox="0 0 25 129" fill="none" xmlns="http://www.w3.org/2000/svg">
<circle cx="12.5" cy="12.5" r="12" fill="white" stroke="#C7C5C5"/>
<path d="M6.19792 18.4027V17.0693H18.1979V18.4027H6.19792ZM7.43125 15.0693L5.53125 11.8359L6.56458 11.6359L7.73125 12.6693L10.9313 11.8026L8.23125 7.23594L9.53125 6.83594L14.0979 10.9359L17.4313 10.0359C17.7868 9.93594 18.109 10.0026 18.3979 10.2359C18.6868 10.4693 18.8313 10.7804 18.8313 11.1693C18.8313 11.4137 18.7561 11.6304 18.6059 11.8193C18.4557 12.0082 18.2641 12.1359 18.0313 12.2026L7.43125 15.0693Z" fill="#717070"/>
<line x1="12.5" y1="24" x2="12.5" y2="104" stroke="#C7C5C5" stroke-dasharray="3 2"/>
<circle cx="12.5" cy="116.5" r="12" fill="white" stroke="#C7C5C5"/>
<path d="M18.4687 121.062H7.13542C6.76875 121.062 6.46875 121.362 6.46875 121.728C6.46875 122.095 6.76875 122.395 7.13542 122.395H18.4687C18.8354 122.395 19.1354 122.095 19.1354 121.728C19.1354 121.362 18.8354 121.062 18.4687 121.062ZM7.14208 116.135L17.6954 118.962C18.2287 119.102 18.7754 118.788 18.9221 118.255C19.0621 117.722 18.7487 117.175 18.2154 117.028L14.6754 116.082L12.9554 110.448C12.9202 110.332 12.8558 110.226 12.7683 110.14C12.6808 110.055 12.5732 109.994 12.4554 109.962C12.0021 109.842 11.5554 110.182 11.5554 110.655V115.242L8.23542 114.362L7.73542 113.122C7.69693 113.026 7.63646 112.94 7.55888 112.872C7.48131 112.804 7.38878 112.754 7.28875 112.728L7.06875 112.668C7.01946 112.654 6.96759 112.652 6.91726 112.662C6.86692 112.671 6.8195 112.692 6.77875 112.723C6.73799 112.754 6.70503 112.795 6.68247 112.841C6.6599 112.887 6.64836 112.937 6.64875 112.988V115.488C6.64875 115.795 6.84875 116.055 7.14208 116.135Z" fill="#717070"/>
</svg>
