<svg width="14" height="12" viewBox="0 0 14 12" fill="none" xmlns="http://www.w3.org/2000/svg">
<path id="Path" d="M4.80043 11.7489L5.98012 11.7489C6.05034 11.7489 6.12758 11.7138 6.14163 11.6577L9.10489 7.1917C9.14 7.11445 9.19618 7.10041 9.2664 7.10041L12.6369 7.10041C13.2127 7.10041 13.6762 6.63696 13.6762 6.06116C13.6762 5.48536 13.2127 5.02191 12.6369 5.02191L9.15405 5.02191C9.08383 5.02191 9.02765 5.00787 8.99254 4.93063L5.92395 0.457641C5.86777 0.401465 5.83266 0.366356 5.76244 0.366356L4.52658 0.380399C4.38614 0.380399 4.27379 0.520839 4.32996 0.647234L5.92395 4.75508C5.98012 4.88147 5.86777 5.02191 5.72733 5.02191L2.77924 5.02191C2.70902 5.02191 2.63178 4.9868 2.61774 4.93063L1.64871 3.45602C1.6136 3.37877 1.55742 3.36473 1.4872 3.36473L0.770963 3.36473C0.630523 3.36473 0.532216 3.49113 0.574348 3.63156L1.20632 5.44323C1.18526 5.4643 1.20632 5.48536 1.20632 5.51345L1.20632 6.5527C1.20632 6.59483 1.20632 6.59483 1.19228 6.60887L0.581369 8.46969C0.525195 8.59609 0.637545 8.73653 0.777986 8.73653L1.38187 8.73653C1.45209 8.73653 1.52933 8.70142 1.54338 8.64524L2.52645 7.15659C2.56156 7.07935 2.61774 7.0653 2.68796 7.0653L5.86075 7.0653C6.00119 7.0653 6.0995 7.1917 6.05737 7.33213L4.62489 11.461C4.56169 11.6226 4.65999 11.7489 4.80043 11.7489Z" fill="white"/>
</svg>
