<svg width="64" height="36" viewBox="0 0 64 36" fill="none" xmlns="http://www.w3.org/2000/svg">
<rect x="0.5" y="0.5" width="63" height="35" rx="17.5" fill="white" stroke="#F0325A"/>
<path d="M23.7656 13.1406L20.3672 23H18.3125L22.5938 11.625H23.9062L23.7656 13.1406ZM26.6094 23L23.2031 13.1406L23.0547 11.625H24.375L28.6719 23H26.6094ZM26.4453 18.7812V20.3359H20.2578V18.7812H26.4453ZM34.9141 21.25V11H36.8047V23H35.0938L34.9141 21.25ZM29.4141 18.8672V18.7031C29.4141 18.0625 29.4896 17.4792 29.6406 16.9531C29.7917 16.4219 30.0104 15.9661 30.2969 15.5859C30.5833 15.2005 30.9323 14.9062 31.3438 14.7031C31.7552 14.4948 32.2188 14.3906 32.7344 14.3906C33.2448 14.3906 33.6927 14.4896 34.0781 14.6875C34.4635 14.8854 34.7917 15.1693 35.0625 15.5391C35.3333 15.9036 35.5495 16.3411 35.7109 16.8516C35.8724 17.3568 35.987 17.9193 36.0547 18.5391V19.0625C35.987 19.6667 35.8724 20.2188 35.7109 20.7188C35.5495 21.2188 35.3333 21.651 35.0625 22.0156C34.7917 22.3802 34.4609 22.6615 34.0703 22.8594C33.6849 23.0573 33.2344 23.1562 32.7188 23.1562C32.2083 23.1562 31.7474 23.0495 31.3359 22.8359C30.9297 22.6224 30.5833 22.3229 30.2969 21.9375C30.0104 21.5521 29.7917 21.099 29.6406 20.5781C29.4896 20.0521 29.4141 19.4818 29.4141 18.8672ZM31.2969 18.7031V18.8672C31.2969 19.2526 31.3307 19.612 31.3984 19.9453C31.4714 20.2786 31.5833 20.5729 31.7344 20.8281C31.8854 21.0781 32.0807 21.276 32.3203 21.4219C32.5651 21.5625 32.8568 21.6328 33.1953 21.6328C33.6224 21.6328 33.974 21.5391 34.25 21.3516C34.526 21.1641 34.7422 20.9115 34.8984 20.5938C35.0599 20.2708 35.1693 19.9115 35.2266 19.5156V18.1016C35.1953 17.7943 35.1302 17.5078 35.0312 17.2422C34.9375 16.9766 34.8099 16.7448 34.6484 16.5469C34.487 16.3438 34.2865 16.1875 34.0469 16.0781C33.8125 15.9635 33.5339 15.9062 33.2109 15.9062C32.8672 15.9062 32.5755 15.9792 32.3359 16.125C32.0964 16.2708 31.8984 16.4714 31.7422 16.7266C31.5911 16.9818 31.4792 17.2786 31.4062 17.6172C31.3333 17.9557 31.2969 18.3177 31.2969 18.7031ZM43.9297 21.25V11H45.8203V23H44.1094L43.9297 21.25ZM38.4297 18.8672V18.7031C38.4297 18.0625 38.5052 17.4792 38.6562 16.9531C38.8073 16.4219 39.026 15.9661 39.3125 15.5859C39.599 15.2005 39.9479 14.9062 40.3594 14.7031C40.7708 14.4948 41.2344 14.3906 41.75 14.3906C42.2604 14.3906 42.7083 14.4896 43.0938 14.6875C43.4792 14.8854 43.8073 15.1693 44.0781 15.5391C44.349 15.9036 44.5651 16.3411 44.7266 16.8516C44.888 17.3568 45.0026 17.9193 45.0703 18.5391V19.0625C45.0026 19.6667 44.888 20.2188 44.7266 20.7188C44.5651 21.2188 44.349 21.651 44.0781 22.0156C43.8073 22.3802 43.4766 22.6615 43.0859 22.8594C42.7005 23.0573 42.25 23.1562 41.7344 23.1562C41.224 23.1562 40.763 23.0495 40.3516 22.8359C39.9453 22.6224 39.599 22.3229 39.3125 21.9375C39.026 21.5521 38.8073 21.099 38.6562 20.5781C38.5052 20.0521 38.4297 19.4818 38.4297 18.8672ZM40.3125 18.7031V18.8672C40.3125 19.2526 40.3464 19.612 40.4141 19.9453C40.487 20.2786 40.599 20.5729 40.75 20.8281C40.901 21.0781 41.0964 21.276 41.3359 21.4219C41.5807 21.5625 41.8724 21.6328 42.2109 21.6328C42.638 21.6328 42.9896 21.5391 43.2656 21.3516C43.5417 21.1641 43.7578 20.9115 43.9141 20.5938C44.0755 20.2708 44.1849 19.9115 44.2422 19.5156V18.1016C44.2109 17.7943 44.1458 17.5078 44.0469 17.2422C43.9531 16.9766 43.8255 16.7448 43.6641 16.5469C43.5026 16.3438 43.3021 16.1875 43.0625 16.0781C42.8281 15.9635 42.5495 15.9062 42.2266 15.9062C41.8828 15.9062 41.5911 15.9792 41.3516 16.125C41.112 16.2708 40.9141 16.4714 40.7578 16.7266C40.6068 16.9818 40.4948 17.2786 40.4219 17.6172C40.349 17.9557 40.3125 18.3177 40.3125 18.7031Z" fill="#F0325A"/>
</svg>
