<svg width="16" height="14" viewBox="0 0 16 14" fill="none" xmlns="http://www.w3.org/2000/svg">
<path d="M5.59894 13.4545L6.92497 13.4545C7.0039 13.4545 7.09072 13.4151 7.10651 13.3519L10.4374 8.33194C10.4768 8.24512 10.54 8.22933 10.6189 8.22933L14.4076 8.22933C15.0548 8.22933 15.5757 7.70839 15.5757 7.06116C15.5757 6.41393 15.0548 5.89299 14.4076 5.89299L10.4926 5.89299C10.4137 5.89299 10.3505 5.87721 10.3111 5.79038L6.86182 0.762515C6.79868 0.699371 6.75921 0.659906 6.68028 0.659906L5.29111 0.675692C5.13325 0.675692 5.00696 0.833553 5.0701 0.975627L6.86182 5.59306C6.92497 5.73513 6.79868 5.89299 6.64082 5.89299L3.32701 5.89299C3.24808 5.89299 3.16126 5.85353 3.14547 5.79038L2.05623 4.13284C2.01677 4.04602 1.95362 4.03023 1.87469 4.03023L1.0696 4.03023C0.911741 4.03023 0.801239 4.17231 0.848597 4.33017L1.55897 6.36657C1.53529 6.39025 1.55897 6.41393 1.55897 6.4455L1.55897 7.61368C1.55897 7.66103 1.55897 7.66103 1.54319 7.67682L0.856489 9.76847C0.793346 9.91055 0.919634 10.0684 1.0775 10.0684L1.7563 10.0684C1.83523 10.0684 1.92205 10.0289 1.93784 9.9658L3.04286 8.29248C3.08233 8.20565 3.14547 8.18987 3.2244 8.18987L6.79079 8.18987C6.94865 8.18987 7.05915 8.33194 7.01179 8.4898L5.40161 13.1309C5.33057 13.3124 5.44107 13.4545 5.59894 13.4545Z" fill="#717070"/>
</svg>
