<svg width="24" height="26" viewBox="0 0 24 26" fill="none" xmlns="http://www.w3.org/2000/svg">
<path d="M14.2188 25.6H2.03125C0.911625 25.6 0 24.7032 0 23.6V2C0 0.8976 0.911625 0 2.03125 0H14.2188C15.3392 0 16.25 0.8976 16.25 2V4C16.25 4.4416 15.8868 4.8 15.4375 4.8C14.9882 4.8 14.625 4.4416 14.625 4V2C14.625 1.7792 14.4422 1.6 14.2188 1.6H2.03125C1.807 1.6 1.625 1.7792 1.625 2V23.6C1.625 23.82 1.807 24 2.03125 24H14.2188C14.4422 24 14.625 23.82 14.625 23.6V20.8C14.625 20.3576 14.9882 20 15.4375 20C15.8868 20 16.25 20.3576 16.25 20.8V23.6C16.25 24.7032 15.3392 25.6 14.2188 25.6Z" fill="#717070"/>
<path d="M9.75 4.80313H6.5C6.0515 4.80313 5.6875 4.44473 5.6875 4.00313C5.6875 3.56153 6.0515 3.20312 6.5 3.20312H9.75C10.1985 3.20312 10.5625 3.56153 10.5625 4.00313C10.5625 4.44473 10.1985 4.80313 9.75 4.80313Z" fill="#717070"/>
<path d="M8.125 22.4025C7.91375 22.4025 7.7025 22.3145 7.54812 22.1705C7.40187 22.0185 7.3125 21.8105 7.3125 21.6025C7.3125 21.3945 7.40187 21.1857 7.54812 21.0345C7.85687 20.7385 8.40125 20.7385 8.70187 21.0345C8.84812 21.1857 8.9375 21.3945 8.9375 21.6025C8.9375 21.8105 8.84812 22.0185 8.70187 22.1705C8.5475 22.3145 8.33625 22.4025 8.125 22.4025Z" fill="#717070"/>
<path d="M11.375 19.9984C11.2556 19.9984 11.1353 19.9728 11.0232 19.9192C10.7413 19.7856 10.5625 19.5064 10.5625 19.1984V8.39684C10.5625 7.29524 11.4733 6.39844 12.5921 6.39844H21.9704C23.0892 6.39844 24 7.29524 24 8.39684V14.8008C24 15.9024 23.09 16.7984 21.9712 16.7984H15.7227L11.8828 19.8232C11.7357 19.9392 11.5562 19.9984 11.375 19.9984ZM12.5921 7.99844C12.3695 7.99844 12.1875 8.17764 12.1875 8.39684V17.5336L14.9297 15.3736C15.0743 15.26 15.2523 15.1984 15.4375 15.1984H21.9712C22.1938 15.1984 22.375 15.02 22.375 14.8008V8.39684C22.375 8.17764 22.193 7.99844 21.9704 7.99844H12.5921Z" fill="#717070"/>
<path d="M20.1216 11.2016H14.4434C14.0945 11.2016 13.8125 10.8432 13.8125 10.4016C13.8125 9.95996 14.0945 9.60156 14.4434 9.60156H20.1216C20.4705 9.60156 20.7525 9.95996 20.7525 10.4016C20.7525 10.8432 20.4705 11.2016 20.1216 11.2016Z" fill="#717070"/>
<path d="M16.9754 13.6H14.3396C14.0481 13.6 13.8125 13.2416 13.8125 12.8C13.8125 12.3584 14.0481 12 14.3396 12H16.9754C17.2669 12 17.5025 12.3584 17.5025 12.8C17.5025 13.2416 17.2669 13.6 16.9754 13.6Z" fill="#717070"/>
</svg>
