<svg width="300" height="150" viewBox="0 0 300 150" fill="none" xmlns="http://www.w3.org/2000/svg">
<g clip-path="url(#clip0_3961_10193)">
<path d="M211.61 75.5201C211.509 87.3873 207.891 98.9578 201.213 108.768C194.535 118.579 185.099 126.189 174.096 130.636C163.093 135.083 151.018 136.167 139.399 133.752C127.78 131.336 117.138 125.529 108.82 117.065C100.501 108.601 94.8795 97.86 92.6656 86.2008C90.4517 74.5416 91.7451 62.4877 96.3822 51.5636C101.019 40.6395 108.792 31.3359 118.717 24.8294C128.642 18.3229 140.273 14.9057 152.14 15.0101C168.046 15.1633 183.241 21.6208 194.39 32.9652C205.54 44.3097 211.733 59.6144 211.61 75.5201Z" fill="#F6F6F6" fill-opacity="0.5"/>
<path d="M241.46 57.49C242.896 57.49 244.06 56.326 244.06 54.89C244.06 53.4541 242.896 52.29 241.46 52.29C240.024 52.29 238.86 53.4541 238.86 54.89C238.86 56.326 240.024 57.49 241.46 57.49Z" fill="#DDDDDD"/>
<path d="M90.6199 34.4898C91.7189 34.4898 92.6099 33.5988 92.6099 32.4998C92.6099 31.4007 91.7189 30.5098 90.6199 30.5098C89.5208 30.5098 88.6299 31.4007 88.6299 32.4998C88.6299 33.5988 89.5208 34.4898 90.6199 34.4898Z" fill="#AAAAAA"/>
<path d="M187.41 19.3398H190.72" stroke="#DDDDDD" stroke-width="2" stroke-linecap="round" stroke-linejoin="round"/>
<path d="M56 87.0996H59.3" stroke="#DDDDDD" stroke-width="2" stroke-linecap="round" stroke-linejoin="round"/>
<path d="M147.13 119.44H151.34" stroke="#DDDDDD" stroke-width="2" stroke-linecap="round" stroke-linejoin="round"/>
<path d="M181.32 57.5497C180.59 54.1374 179.27 50.8785 177.42 47.9197C177.187 47.5401 177.069 47.1012 177.079 46.6559C177.09 46.2106 177.229 45.7778 177.48 45.4097L181.48 39.4797L176.48 34.4797L170.67 38.4797C170.292 38.7313 169.849 38.8655 169.395 38.8655C168.941 38.8655 168.498 38.7313 168.12 38.4797C165.18 36.5727 161.932 35.189 158.52 34.3897C158.088 34.288 157.696 34.0626 157.39 33.7411C157.085 33.4196 156.88 33.016 156.8 32.5797L155.46 25.4697H148.35L147.03 32.4697C146.947 32.9138 146.735 33.3236 146.42 33.6475C146.105 33.9713 145.702 34.1948 145.26 34.2897C141.824 35.019 138.541 36.3422 135.56 38.1997C135.183 38.4346 134.746 38.555 134.303 38.5461C133.859 38.5372 133.427 38.3995 133.06 38.1497L127.06 34.0697L122.06 39.0697L126.06 44.9297C126.309 45.3063 126.442 45.748 126.442 46.1997C126.442 46.6514 126.309 47.0931 126.06 47.4697C124.155 50.4023 122.774 53.644 121.98 57.0497C121.88 57.4806 121.657 57.873 121.337 58.1785C121.017 58.4841 120.615 58.6896 120.18 58.7697L113.04 60.1197V67.2397L120.04 68.5597C120.485 68.6398 120.896 68.8511 121.221 69.1665C121.545 69.4819 121.768 69.887 121.86 70.3297C122.589 73.7596 123.913 77.0355 125.77 80.0097C126.014 80.3827 126.145 80.8189 126.145 81.2647C126.145 81.7106 126.014 82.1468 125.77 82.5197L121.67 88.5197L126.67 93.5197L132.58 89.5197C132.955 89.2699 133.395 89.1366 133.845 89.1366C134.295 89.1366 134.735 89.2699 135.11 89.5197C138.03 91.3904 141.25 92.7436 144.63 93.5197C145.062 93.6221 145.456 93.8475 145.763 94.1687C146.07 94.4899 146.277 94.8932 146.36 95.3297L147.7 102.47H154.82L156.13 95.4697C156.213 95.0256 156.425 94.6158 156.74 94.292C157.055 93.9681 157.458 93.7447 157.9 93.6497C161.337 92.9244 164.621 91.601 167.6 89.7397C167.972 89.4975 168.406 89.3685 168.85 89.3685C169.294 89.3685 169.728 89.4975 170.1 89.7397L176.1 93.8397L181.1 88.8397L177.1 82.9497C176.85 82.5751 176.717 82.135 176.717 81.6847C176.717 81.2345 176.85 80.7943 177.1 80.4197C179.006 77.4765 180.386 74.2249 181.18 70.8097C181.279 70.3776 181.502 69.9838 181.822 69.6765C182.142 69.3692 182.544 69.1618 182.98 69.0797L190.1 67.7397V60.6297L183.1 59.3097C182.663 59.2232 182.262 59.0102 181.945 58.6973C181.629 58.3843 181.411 57.9853 181.32 57.5497ZM153.48 86.7397C148.811 87.1262 144.136 86.0706 140.085 83.7155C136.035 81.3605 132.806 77.8193 130.832 73.5702C128.858 69.3211 128.236 64.5687 129.049 59.9548C129.862 55.3408 132.072 51.0875 135.379 47.7691C138.686 44.4507 142.932 42.2271 147.544 41.3986C152.155 40.57 156.909 41.1763 161.165 43.1357C165.421 45.0951 168.972 48.3132 171.341 52.3554C173.71 56.3977 174.781 61.0694 174.41 65.7397C173.98 71.1542 171.639 76.2393 167.804 80.0864C163.97 83.9334 158.893 86.2917 153.48 86.7397Z" fill="#5A4B4B"/>
<path d="M119.36 95.5196C119.084 95.3619 118.86 95.1257 118.718 94.8409C118.575 94.5561 118.52 94.2355 118.56 93.9196C118.868 91.4578 118.749 88.9613 118.21 86.5396C118.139 86.2326 118.159 85.9113 118.269 85.6159C118.38 85.3206 118.575 85.0644 118.83 84.8796L122.95 81.8796L120.76 77.3396L115.91 78.6496C115.601 78.7347 115.273 78.7259 114.969 78.6244C114.664 78.5229 114.397 78.3333 114.2 78.0796C112.684 76.1263 110.84 74.4514 108.75 73.1296C108.487 72.9594 108.277 72.7175 108.146 72.4324C108.015 72.1472 107.968 71.8306 108.01 71.5196L108.78 66.5196L104.02 64.8496L101.54 69.1796C101.382 69.458 101.144 69.6828 100.857 69.8253C100.571 69.9678 100.248 70.0215 99.9302 69.9796C97.4652 69.6668 94.9647 69.7852 92.5403 70.3296C92.2323 70.3963 91.9116 70.3723 91.6169 70.2605C91.3223 70.1487 91.0664 69.9538 90.8802 69.6996L87.8802 65.5796L83.3402 67.7596L84.6403 72.6096C84.724 72.9191 84.7144 73.2464 84.613 73.5506C84.5117 73.8547 84.3228 74.1222 84.0702 74.3196C82.1007 75.8411 80.4091 77.6917 79.0702 79.7896C78.9055 80.0588 78.6645 80.2729 78.3778 80.4047C78.0911 80.5364 77.7717 80.5799 77.4602 80.5296L72.4003 79.7596L70.7402 84.5196L75.1002 87.0396C75.3768 87.1973 75.6005 87.4335 75.7429 87.7183C75.8853 88.0031 75.9401 88.3237 75.9003 88.6396C75.5925 91.0948 75.7109 93.5847 76.2502 95.9996C76.3167 96.3066 76.2936 96.6263 76.1837 96.9206C76.0738 97.2148 75.8817 97.4713 75.6302 97.6596L71.4902 100.71L73.6802 105.25L78.5502 103.94C78.8597 103.856 79.1871 103.865 79.4912 103.967C79.7954 104.068 80.0629 104.257 80.2603 104.51C81.7728 106.487 83.6249 108.18 85.7302 109.51C85.9779 109.67 86.1782 109.893 86.3101 110.157C86.442 110.421 86.5007 110.715 86.4802 111.01L85.7002 116.09L90.4602 117.76L92.9902 113.37C93.1486 113.091 93.3864 112.866 93.6732 112.724C93.96 112.581 94.2827 112.528 94.6002 112.57C97.0388 112.877 99.5122 112.759 101.91 112.22C102.218 112.155 102.538 112.181 102.832 112.292C103.126 112.404 103.382 112.597 103.57 112.85L106.57 116.98L111.1 114.79L109.79 109.94C109.705 109.629 109.715 109.3 109.818 108.996C109.921 108.691 110.114 108.424 110.37 108.23C112.345 106.71 114.038 104.855 115.37 102.75C115.538 102.484 115.78 102.274 116.066 102.144C116.352 102.014 116.67 101.971 116.98 102.02L122.07 102.79L123.74 98.0396L119.36 95.5196ZM105.48 105.2C102.62 106.884 99.3113 107.649 96.0018 107.393C92.6923 107.136 89.5414 105.869 86.975 103.764C84.4085 101.659 82.5502 98.8165 81.6512 95.6211C80.7523 92.4257 80.856 89.0314 81.9484 85.8968C83.0407 82.7623 85.069 80.0386 87.7592 78.094C90.4493 76.1494 93.6717 75.0775 96.9907 75.0233C100.31 74.9691 103.565 75.9351 106.318 77.7908C109.07 79.6465 111.186 82.3024 112.38 85.3996C113.762 88.9825 113.826 92.9394 112.563 96.5655C111.299 100.192 108.789 103.251 105.48 105.2Z" fill="#AAAAAA"/>
<path d="M105.48 105.2C102.62 106.884 99.3112 107.65 96.0017 107.393C92.6923 107.136 89.5413 105.87 86.9749 103.764C84.4084 101.659 82.5501 98.8168 81.6512 95.6215C80.7522 92.4261 80.8559 89.0317 81.9483 85.8972C83.0406 82.7626 85.0689 80.039 87.7591 78.0944C90.4492 76.1497 93.6716 75.0779 96.9906 75.0236C100.31 74.9694 103.565 75.9354 106.318 77.7911C109.07 79.6468 111.186 82.3028 112.38 85.4C113.762 88.9828 113.826 92.9397 112.563 96.5658C111.299 100.192 108.789 103.252 105.48 105.2Z" fill="white"/>
<path d="M228.98 79.3299C228.711 79.2222 228.479 79.0378 228.314 78.7995C228.148 78.5613 228.056 78.2798 228.05 77.9899C227.991 75.7435 227.544 73.5242 226.73 71.4299C226.622 71.1652 226.595 70.8741 226.654 70.5942C226.713 70.3143 226.854 70.0586 227.06 69.8599L230.34 66.5598L227.76 62.7899L223.58 64.6299C223.315 64.7469 223.022 64.7828 222.737 64.7329C222.452 64.6831 222.189 64.5497 221.98 64.3499C220.354 62.8049 218.473 61.5531 216.42 60.6499C216.158 60.5378 215.934 60.3509 215.778 60.1125C215.621 59.8742 215.539 59.595 215.54 59.3098V54.6898L211.05 53.8398L209.4 58.0598C209.297 58.3309 209.115 58.5651 208.878 58.7325C208.641 58.9 208.36 58.993 208.07 58.9998C205.817 59.0543 203.591 59.4975 201.49 60.3098C201.224 60.4091 200.935 60.4308 200.657 60.3724C200.379 60.314 200.123 60.1779 199.92 59.9799L196.64 56.6898L192.87 59.2699L194.7 63.4398C194.816 63.7045 194.851 63.9975 194.801 64.282C194.751 64.5666 194.619 64.8302 194.42 65.0399C192.864 66.6746 191.602 68.5657 190.69 70.6299C190.578 70.892 190.391 71.1154 190.153 71.2719C189.914 71.4284 189.635 71.5112 189.35 71.5099H184.7L183.86 76.0099L188.11 77.6699C188.379 77.7753 188.612 77.9575 188.779 78.1939C188.946 78.4303 189.04 78.7105 189.05 78.9998C189.099 81.2432 189.542 83.4604 190.36 85.5499C190.463 85.8154 190.487 86.1051 190.428 86.3839C190.369 86.6626 190.231 86.9182 190.03 87.1198L186.74 90.4199L189.31 94.1999L193.51 92.3499C193.775 92.2341 194.069 92.1999 194.354 92.2515C194.639 92.3031 194.902 92.4383 195.11 92.6399C196.743 94.1919 198.635 95.4474 200.7 96.3499C200.961 96.4652 201.183 96.6545 201.337 96.8945C201.492 97.1344 201.573 97.4144 201.57 97.6999V102.36L206.06 103.21L207.74 98.9299C207.842 98.6591 208.024 98.4255 208.261 98.2596C208.499 98.0937 208.78 98.0032 209.07 97.9998C211.298 97.9305 213.498 97.4877 215.58 96.6898C215.845 96.5868 216.135 96.5632 216.414 96.6218C216.693 96.6804 216.948 96.8187 217.15 97.0199L220.45 100.31L224.22 97.7299L222.38 93.5598C222.263 93.2929 222.229 92.9974 222.28 92.7108C222.332 92.4241 222.467 92.1593 222.67 91.9499C224.227 90.3183 225.486 88.4263 226.39 86.3599C226.504 86.0992 226.691 85.8773 226.929 85.7211C227.167 85.5649 227.445 85.4811 227.73 85.4799H232.4L233.25 80.9899L228.98 79.3299ZM217.82 89.9099C215.483 91.8104 212.619 92.9478 209.616 93.1685C206.612 93.3891 203.612 92.6823 201.023 91.1436C198.434 89.6049 196.379 87.3085 195.137 84.5645C193.895 81.8206 193.525 78.7616 194.077 75.8007C194.63 72.8398 196.078 70.1197 198.225 68.0082C200.373 65.8966 203.118 64.4953 206.088 63.9935C209.057 63.4918 212.11 63.9138 214.832 65.2026C217.554 66.4913 219.815 68.5847 221.31 71.1999C223.039 74.2264 223.638 77.7687 222.999 81.1953C222.359 84.622 220.524 87.7104 217.82 89.9099Z" fill="#AAAAAA"/>
<path d="M217.82 89.91C215.483 91.8105 212.62 92.9479 209.616 93.1686C206.612 93.3892 203.613 92.6824 201.023 91.1437C198.434 89.605 196.38 87.3086 195.137 84.5646C193.895 81.8207 193.525 78.7617 194.078 75.8008C194.63 72.8399 196.078 70.1198 198.226 68.0083C200.373 65.8967 203.118 64.4954 206.088 63.9936C209.058 63.4919 212.11 63.9139 214.832 65.2027C217.555 66.4914 219.816 68.5848 221.31 71.2C223.039 74.2265 223.638 77.7688 222.999 81.1954C222.36 84.6221 220.524 87.7105 217.82 89.91Z" fill="white"/>
<path d="M151.62 71.01C151.418 71.01 151.218 70.9702 151.031 70.8928C150.844 70.8154 150.674 70.702 150.531 70.559C150.388 70.416 150.275 70.2462 150.198 70.0594C150.12 69.8725 150.08 69.6723 150.08 69.47V52.37C150.063 52.158 150.09 51.9448 150.159 51.7437C150.229 51.5427 150.339 51.3582 150.483 51.2019C150.627 51.0455 150.802 50.9208 150.997 50.8354C151.192 50.7501 151.403 50.7061 151.615 50.7061C151.828 50.7061 152.038 50.7501 152.233 50.8354C152.428 50.9208 152.603 51.0455 152.747 51.2019C152.891 51.3582 153.002 51.5427 153.071 51.7437C153.14 51.9448 153.167 52.158 153.15 52.37V69.5C153.142 69.9015 152.978 70.2841 152.692 70.5662C152.406 70.8482 152.022 71.0075 151.62 71.01Z" fill="#2F302F"/>
<path d="M151.62 77.0604C152.758 77.0604 153.68 76.1381 153.68 75.0004C153.68 73.8627 152.758 72.9404 151.62 72.9404C150.482 72.9404 149.56 73.8627 149.56 75.0004C149.56 76.1381 150.482 77.0604 151.62 77.0604Z" fill="#2F302F"/>
</g>
<defs>
<clipPath id="clip0_3961_10193">
<rect width="189.07" height="120" fill="white" transform="translate(55 15)"/>
</clipPath>
</defs>
</svg>
