<svg width="21" height="21" viewBox="0 0 21 21" fill="none" xmlns="http://www.w3.org/2000/svg">
<g clip-path="url(#clip0_855_29962)">
<path d="M10.0704 5.66598e-07H10.0654C8.2102 -0.000621906 6.39097 0.511659 4.8087 1.48024C3.22644 2.44881 1.94276 3.83597 1.09951 5.48843C0.25626 7.14089 -0.11373 8.99431 0.0304281 10.8439C0.174586 12.6934 0.827278 14.4672 1.91638 15.969L0.66238 19.709L4.53238 18.472C5.84265 19.3351 7.33654 19.88 8.89483 20.0632C10.4531 20.2463 12.0326 20.0627 13.5073 19.5269C14.982 18.9911 16.311 18.1179 17.3883 16.9772C18.4656 15.8364 19.2613 14.4596 19.7118 12.9567C20.1624 11.4538 20.2554 9.86635 19.9835 8.32109C19.7115 6.77583 19.082 5.31554 18.1453 4.05679C17.2087 2.79804 15.9907 1.77568 14.5887 1.07131C13.1867 0.36695 11.6394 8.39425e-05 10.0704 5.66598e-07Z" fill="#4CAF50"/>
<path d="M15.9272 14.215C15.7238 14.5835 15.4409 14.9022 15.0992 15.1479C14.7574 15.3937 14.3653 15.5604 13.9512 15.636C13.4252 15.748 12.7382 15.836 10.4252 14.878C8.38642 13.8802 6.65456 12.3508 5.41225 10.451C4.7268 9.57612 4.30995 8.52114 4.21225 7.41401C4.19916 6.95588 4.28421 6.50025 4.46169 6.07769C4.63916 5.65512 4.90496 5.27541 5.24125 4.96401C5.52491 4.71557 5.89354 4.58624 6.27025 4.60301C6.39525 4.60301 6.50725 4.60901 6.60725 4.61401C6.90725 4.62701 7.05125 4.64401 7.24625 5.11401C7.48925 5.69901 8.08025 7.14401 8.14625 7.29201C8.19607 7.37295 8.22595 7.46458 8.23343 7.55933C8.2409 7.65408 8.22576 7.74926 8.18925 7.83701C8.1065 8.00776 7.99638 8.16382 7.86325 8.29901C7.71525 8.47001 7.57325 8.59901 7.42525 8.78501C7.28925 8.94501 7.13525 9.11601 7.30725 9.41201C7.74979 10.1649 8.30031 10.8488 8.94125 11.442C9.62944 12.0718 10.4305 12.5658 11.3022 12.898C11.4181 12.953 11.5479 12.9717 11.6746 12.9517C11.8012 12.9317 11.9189 12.874 12.0122 12.786C12.293 12.4527 12.5558 12.1045 12.7992 11.743C12.871 11.6234 12.9846 11.5348 13.118 11.4943C13.2515 11.4539 13.3952 11.4644 13.5212 11.524C13.7932 11.618 15.2312 12.33 15.5272 12.477C15.8232 12.624 16.0182 12.696 16.0892 12.82C16.1675 13.2935 16.1078 13.7795 15.9172 14.22L15.9272 14.215Z" fill="#FAFAFA"/>
</g>
<defs>
<clipPath id="clip0_855_29962">
<rect width="20.136" height="20.132" fill="white"/>
</clipPath>
</defs>
</svg>
