<svg width="45" height="43" viewBox="0 0 45 43" fill="none" xmlns="http://www.w3.org/2000/svg">
<path d="M22.1539 35.0859C19.4344 35.0859 16.776 34.2795 14.5148 32.7686C12.2537 31.2578 10.4913 29.1103 9.45059 26.5978C8.40989 24.0853 8.13759 21.3207 8.66814 18.6534C9.19869 15.9862 10.5082 13.5362 12.4312 11.6132C14.3542 9.69025 16.8042 8.38069 19.4714 7.85015C22.1387 7.3196 24.9033 7.5919 27.4158 8.6326C29.9283 9.6733 32.0758 11.4357 33.5866 13.6968C35.0975 15.958 35.9039 18.6164 35.9039 21.3359C35.9 24.9814 34.45 28.4765 31.8723 31.0543C29.2945 33.6321 25.7994 35.082 22.1539 35.0859Z" fill="#2AA04A"/>
<path d="M19.2209 16.8264C20.0466 16.8264 20.7161 16.1569 20.7161 15.3311C20.7161 14.5054 20.0466 13.8359 19.2209 13.8359C18.3951 13.8359 17.7256 14.5054 17.7256 15.3311C17.7256 16.1569 18.3951 16.8264 19.2209 16.8264Z" fill="white"/>
<path d="M25.0885 28.7404C25.9143 28.7404 26.5837 28.071 26.5837 27.2452C26.5837 26.4194 25.9143 25.75 25.0885 25.75C24.2627 25.75 23.5933 26.4194 23.5933 27.2452C23.5933 28.071 24.2627 28.7404 25.0885 28.7404Z" fill="white"/>
<path d="M27.3112 42.6678C26.347 42.6344 25.3892 42.4962 24.4549 42.2555C23.7022 42.0604 22.9316 41.9422 22.155 41.9028C21.3784 41.9422 20.6078 42.0604 19.855 42.2555C18.4443 42.5635 16.8745 42.9162 15.3048 42.4145C13.7351 41.9127 12.6025 40.646 11.6338 39.5433C11.1682 38.9669 10.6419 38.4423 10.0641 37.9785C9.44001 37.5664 8.77395 37.2218 8.07712 36.9502C6.74087 36.369 5.22579 35.7084 4.2472 34.3622C3.2686 33.016 3.11461 31.3817 2.97055 29.9411C2.92764 29.1821 2.80611 28.4297 2.60793 27.6958C2.34359 27.0179 2.0107 26.3687 1.61443 25.7585C0.854407 24.4918 0 23.0562 0 21.3374C0 19.6187 0.854407 18.1831 1.6045 16.9164C2.00076 16.3061 2.33365 15.657 2.59799 14.9791C2.79617 14.2452 2.9177 13.4927 2.96062 12.7338C3.10468 11.2882 3.26364 9.64894 4.23726 8.31269C5.21089 6.97644 6.721 6.3257 8.06719 5.72463C8.76401 5.4531 9.43007 5.10841 10.0542 4.69637C10.632 4.23254 11.1583 3.70794 11.6239 3.13161C12.6025 2.02883 13.7102 0.78199 15.3048 0.260404C16.8994 -0.261181 18.4443 0.11138 19.8501 0.419363C20.604 0.616578 21.3765 0.734778 22.155 0.772055C22.9334 0.734778 23.7059 0.616578 24.4599 0.419363C25.8657 0.11138 27.4404 -0.241311 29.0051 0.260404C30.5699 0.76212 31.7074 2.02883 32.6761 3.13161C33.1417 3.70794 33.668 4.23254 34.2458 4.69637C34.8699 5.10841 35.536 5.4531 36.2328 5.72463C37.5691 6.30583 39.0841 6.96651 40.0627 8.31269C41.0413 9.65888 41.1953 11.2932 41.3394 12.7338C41.3823 13.4927 41.5038 14.2452 41.702 14.9791C41.9663 15.657 42.2992 16.3061 42.6955 16.9164C43.4456 18.1831 44.3 19.6187 44.3 21.3374C44.3 23.0562 43.4456 24.4918 42.6955 25.7585C42.2992 26.3687 41.9663 27.0179 41.702 27.6958C41.5038 28.4297 41.3823 29.1821 41.3394 29.9411C41.1953 31.3866 41.0364 33.0259 40.0627 34.3622C39.0891 35.6984 37.579 36.3492 36.2328 36.9502C35.536 37.2218 34.8699 37.5664 34.2458 37.9785C33.668 38.4423 33.1417 38.9669 32.6761 39.5433C31.6826 40.646 30.6096 41.8929 29.0051 42.4145C28.4569 42.5855 27.8855 42.671 27.3112 42.6678ZM22.155 38.9223C23.1477 38.9552 24.1338 39.0968 25.0957 39.3446C26.2333 39.5929 27.3062 39.8413 28.0762 39.578C28.8462 39.3147 29.6459 38.4653 30.4358 37.591C31.0452 36.856 31.7332 36.1897 32.4873 35.604C33.2947 35.0471 34.161 34.5806 35.0704 34.2131C36.1533 33.7164 37.1766 33.2991 37.6783 32.6086C38.1801 31.9182 38.2794 30.8204 38.3986 29.6282C38.4576 28.6524 38.6242 27.6862 38.8954 26.747C39.2195 25.8587 39.641 25.0091 40.1522 24.2136C40.7632 23.1853 41.3394 22.2266 41.3394 21.3126C41.3394 20.3986 40.7632 19.4399 40.1522 18.4116C39.641 17.6161 39.2195 16.7664 38.8954 15.8782C38.6242 14.939 38.4576 13.9728 38.3986 12.997C38.2794 11.8297 38.1751 10.7219 37.6783 10.0165C37.1816 9.31116 36.1434 8.91873 35.0704 8.46172C34.1684 8.1048 33.3073 7.6518 32.5022 7.11056C31.7481 6.5249 31.0601 5.85861 30.4507 5.12357C29.6608 4.23439 28.9207 3.38992 28.0911 3.13658C27.2615 2.88323 26.2432 3.13658 25.1106 3.37005C24.1424 3.60551 23.1512 3.73378 22.155 3.75254C21.1622 3.71968 20.1761 3.57809 19.2142 3.33031C18.0767 3.08193 17.0037 2.83356 16.2337 3.09684C15.4638 3.36011 14.664 4.20955 13.8791 5.08383C13.2667 5.81779 12.5772 6.48393 11.8226 7.07082C11.0152 7.62779 10.149 8.09422 9.23952 8.46172C8.1566 8.92866 7.1333 9.37573 6.63159 10.0662C6.12987 10.7567 6.03052 11.8495 5.9113 13.0467C5.85236 14.0224 5.68577 14.9887 5.41455 15.9278C5.09044 16.8161 4.66895 17.6658 4.15778 18.4613C3.54678 19.4895 2.97055 20.4482 2.97055 21.3623C2.97055 22.2763 3.54678 23.235 4.15778 24.2633C4.66895 25.0588 5.09044 25.9084 5.41455 26.7967C5.68577 27.7358 5.85236 28.7021 5.9113 29.6778C6.03052 30.8452 6.13484 31.9529 6.63159 32.6583C7.12834 33.3637 8.16654 33.7561 9.23952 34.2131C10.1416 34.5701 11.0026 35.0231 11.8077 35.5643C12.5623 36.1512 13.2517 36.8173 13.8642 37.5513C14.6491 38.4405 15.3893 39.2849 16.2188 39.5383C17.0484 39.7916 18.0667 39.5383 19.1993 39.3048C20.1675 39.0693 21.1587 38.9411 22.155 38.9223Z" fill="#2AA04A"/>
<path d="M18.7756 27.9256C18.49 27.9249 18.2107 27.8421 17.9708 27.6872C17.6393 27.4734 17.406 27.1368 17.3222 26.7513C17.2384 26.3658 17.3109 25.9628 17.5238 25.6306L24.2845 15.0598C24.3773 14.8708 24.5092 14.7036 24.6713 14.5693C24.8334 14.435 25.0222 14.3365 25.2252 14.2804C25.4281 14.2243 25.6406 14.2119 25.8487 14.2439C26.0569 14.2759 26.2558 14.3517 26.4325 14.4662C26.6092 14.5807 26.7597 14.7313 26.8739 14.9082C26.9882 15.0851 27.0636 15.2841 27.0954 15.4923C27.1271 15.7005 27.1143 15.913 27.0579 16.1158C27.0016 16.3187 26.9028 16.5073 26.7683 16.6693L20.0323 27.2351C19.8978 27.4466 19.7121 27.6208 19.4925 27.7415C19.2728 27.8621 19.0262 27.9255 18.7756 27.9256Z" fill="white"/>
</svg>
