
<svg width="14" height="13" viewBox="0 0 14 13" fill="none" xmlns="http://www.w3.org/2000/svg">
<path d="M11.77 1.21914L5.02178 9.04957L2.18245 6.23571C1.9427 5.99595 1.61752 5.86126 1.27845 5.86126C0.939385 5.86126 0.614206 5.99595 0.37445 6.23571C0.134694 6.47546 0 6.80064 0 7.13971C0 7.3076 0.0330685 7.47384 0.0973167 7.62895C0.161565 7.78406 0.255735 7.925 0.37445 8.04371L4.19417 11.8634C4.43817 12.0961 4.76106 12.228 5.09818 12.2327C5.27343 12.2255 5.44533 12.1823 5.60308 12.1056C5.76084 12.0289 5.90104 11.9205 6.01491 11.787L13.6544 2.87435C13.763 2.74727 13.8456 2.60004 13.8974 2.44104C13.9492 2.28205 13.9691 2.11441 13.9561 1.94771C13.9431 1.781 13.8974 1.61849 13.8216 1.46945C13.7458 1.32041 13.6414 1.18776 13.5143 1.07908C13.3872 0.970396 13.24 0.887807 13.081 0.836027C12.922 0.784247 12.7544 0.764289 12.5877 0.777295C12.421 0.7903 12.2584 0.836014 12.1094 0.911825C11.9604 0.987636 11.8277 1.09206 11.719 1.21914H11.77Z" fill="#ffffff"/>
</svg>
