<svg width="26" height="23" viewBox="0 0 26 23" fill="none" xmlns="http://www.w3.org/2000/svg">
<path d="M24.7596 12.3862C24.7596 12.7092 24.5572 13.001 24.2536 13.1138C23.5843 13.3668 23.0901 13.9076 22.9072 14.6002C22.7204 15.2928 22.876 16.0088 23.3314 16.5613C23.5376 16.8103 23.5648 17.1644 23.4053 17.4446C23.2418 17.7247 22.9188 17.8765 22.6036 17.822C21.8954 17.7052 21.1988 17.927 20.6929 18.4368C20.1831 18.9426 19.9613 19.6391 20.078 20.3473C20.1325 20.6663 19.9807 20.9854 19.7005 21.1488C19.4203 21.3083 19.0662 21.2811 18.8171 21.0749C18.2645 20.6196 17.5485 20.464 16.8558 20.6508C16.1631 20.8336 15.6222 21.3278 15.3692 21.9971C15.2564 22.3006 14.9645 22.5029 14.6415 22.5029C14.3185 22.5029 14.0266 22.3006 13.9138 21.9971C13.6608 21.3278 13.1199 20.8336 12.4272 20.6508C11.7345 20.464 11.0185 20.6196 10.4658 21.0749C10.2168 21.2811 9.86266 21.3083 9.58247 21.1488C9.30227 20.9854 9.1505 20.6663 9.20498 20.3473C9.32173 19.6391 9.09991 18.9426 8.59012 18.4368C8.08422 17.927 7.38763 17.7052 6.67936 17.822C6.36415 17.8765 6.04115 17.7247 5.8777 17.4446C5.71815 17.1644 5.74539 16.8103 5.95164 16.5613C6.40695 16.0088 6.56261 15.2928 6.37582 14.6002C6.19292 13.9076 5.69869 13.3668 5.02934 13.1138C4.7258 13.001 4.52344 12.7092 4.52344 12.3862C4.52344 12.0633 4.7258 11.7714 5.02934 11.6586C5.69869 11.4057 6.19292 10.8648 6.37582 10.1722C6.56261 9.47961 6.40695 8.76366 5.95164 8.21113C5.74539 7.96211 5.71815 7.60803 5.8777 7.32787C6.04115 7.04772 6.36415 6.89597 6.67936 6.95044C7.38763 7.06717 8.08422 6.84538 8.59012 6.33566C9.09991 5.82982 9.32173 5.13333 9.20498 4.42516C9.1505 4.1061 9.30227 3.78703 9.58247 3.62361C9.86266 3.46408 10.2168 3.49131 10.4658 3.69754C11.0185 4.15279 11.7345 4.30843 12.4272 4.12166C13.1199 3.93878 13.6608 3.44462 13.9138 2.77536C14.0266 2.47186 14.3185 2.26953 14.6415 2.26953C14.9645 2.26953 15.2564 2.47186 15.3692 2.77536C15.6222 3.44462 16.1631 3.93878 16.8558 4.12166C17.5485 4.30843 18.2645 4.15279 18.8171 3.69754C19.0662 3.49131 19.4203 3.46408 19.7005 3.62361C19.9807 3.78703 20.1325 4.1061 20.078 4.42516C19.9613 5.13333 20.1831 5.82982 20.6929 6.33566C21.1988 6.84538 21.8954 7.06717 22.6036 6.95044C22.9188 6.89597 23.2418 7.04772 23.4053 7.32787C23.5648 7.60803 23.5376 7.96211 23.3314 8.21113C22.876 8.76366 22.7204 9.47961 22.9072 10.1722C23.0901 10.8648 23.5843 11.4057 24.2536 11.6586C24.5572 11.7714 24.7596 12.0633 24.7596 12.3862Z" fill="#532BD7"/>
<path d="M12.286 15.4991C12.0868 15.4991 11.8879 15.4232 11.7358 15.2711C11.4318 14.9672 11.4318 14.4746 11.7358 14.1707L16.4056 9.50145C16.7096 9.19756 17.2022 9.19756 17.5062 9.50145C17.8101 9.80534 17.8101 10.2979 17.5062 10.6018L12.8363 15.2711C12.6841 15.4232 12.4853 15.4991 12.286 15.4991ZM12.2938 10.8298C11.8642 10.8298 11.5136 10.4812 11.5136 10.0516C11.5136 9.62207 11.8603 9.27344 12.2899 9.27344H12.2938C12.7238 9.27344 13.0721 9.62207 13.0721 10.0516C13.0721 10.4812 12.7238 10.8298 12.2938 10.8298ZM16.9633 15.4987C16.5337 15.4987 16.183 15.1501 16.183 14.7205C16.183 14.2909 16.5298 13.9423 16.9594 13.9423H16.9633C17.3933 13.9423 17.7416 14.2909 17.7416 14.7205C17.7416 15.1501 17.3933 15.4987 16.9633 15.4987Z" fill="white"/>
<g clip-path="url(#clip0_9465_11503)">
<path d="M5.56204 4.58524C3.69302 5.08046 3.28605 5.49934 2.80417 7.42383C2.8033 7.42695 2.80147 7.4297 2.79895 7.43166C2.79643 7.43362 2.79335 7.43468 2.7902 7.43468C2.78704 7.43468 2.78396 7.43362 2.78144 7.43166C2.77892 7.4297 2.77709 7.42695 2.77622 7.42383C2.29173 5.50011 1.88662 5.08123 0.018355 4.58524C0.0153178 4.58435 0.0126458 4.58246 0.0107436 4.57986C0.00884144 4.57727 0.0078125 4.57411 0.0078125 4.57086C0.0078125 4.5676 0.00884144 4.56444 0.0107436 4.56185C0.0126458 4.55925 0.0153178 4.55736 0.018355 4.55647C1.88737 4.06048 2.29434 3.6416 2.77622 1.71788C2.77709 1.71476 2.77892 1.71201 2.78144 1.71005C2.78396 1.70809 2.78704 1.70703 2.7902 1.70703C2.79335 1.70703 2.79643 1.70809 2.79895 1.71005C2.80147 1.71201 2.8033 1.71476 2.80417 1.71788C3.28605 3.6416 3.69302 4.06048 5.56204 4.55647C5.56507 4.55736 5.56775 4.55925 5.56965 4.56185C5.57155 4.56444 5.57258 4.5676 5.57258 4.57086C5.57258 4.57411 5.57155 4.57727 5.56965 4.57986C5.56775 4.58246 5.56507 4.58435 5.56204 4.58524Z" fill="#F4C300"/>
<g opacity="0.638">
<path d="M7.93704 1.97698C6.63823 2.29728 6.36878 2.57462 6.05759 3.91144C6.05663 3.91442 6.05478 3.91701 6.0523 3.91885C6.04983 3.92068 6.04685 3.92167 6.0438 3.92167C6.04075 3.92167 6.03778 3.92068 6.0353 3.91885C6.03283 3.91701 6.03098 3.91442 6.03001 3.91144C5.71882 2.57462 5.44937 2.29728 4.15057 1.97698C4.14767 1.97599 4.14515 1.97408 4.14337 1.97154C4.14158 1.96899 4.14062 1.96593 4.14062 1.96279C4.14062 1.95965 4.14158 1.95659 4.14337 1.95404C4.14515 1.95149 4.14767 1.94959 4.15057 1.9486C5.44937 1.6283 5.71882 1.35096 6.03001 0.0141371C6.03098 0.011158 6.03283 0.0085668 6.0353 0.00673058C6.03778 0.00489437 6.04075 0.00390625 6.0438 0.00390625C6.04685 0.00390625 6.04983 0.00489437 6.0523 0.00673058C6.05478 0.0085668 6.05663 0.011158 6.05759 0.0141371C6.36878 1.35096 6.63823 1.6283 7.93704 1.9486C7.93993 1.94959 7.94245 1.95149 7.94424 1.95404C7.94602 1.95659 7.94698 1.95965 7.94698 1.96279C7.94698 1.96593 7.94602 1.96899 7.94424 1.97154C7.94245 1.97408 7.93993 1.97599 7.93704 1.97698Z" fill="#F4C300"/>
<path d="M7.93704 7.09417C6.63823 7.41447 6.36878 7.69181 6.05759 9.02863C6.05663 9.03161 6.05478 9.0342 6.0523 9.03604C6.04983 9.03787 6.04685 9.03886 6.0438 9.03886C6.04075 9.03886 6.03778 9.03787 6.0353 9.03604C6.03283 9.0342 6.03098 9.03161 6.03001 9.02863C5.71882 7.69181 5.44937 7.41447 4.15057 7.09417C4.14767 7.09318 4.14515 7.09127 4.14337 7.08873C4.14158 7.08618 4.14062 7.08312 4.14062 7.07998C4.14062 7.07684 4.14158 7.07378 4.14337 7.07123C4.14515 7.06868 4.14767 7.06678 4.15057 7.06578C5.44937 6.74548 5.71882 6.46815 6.03001 5.13133C6.03098 5.12835 6.03283 5.12575 6.0353 5.12392C6.03778 5.12208 6.04075 5.12109 6.0438 5.12109C6.04685 5.12109 6.04983 5.12208 6.0523 5.12392C6.05478 5.12575 6.05663 5.12835 6.05759 5.13133C6.36878 6.46815 6.63823 6.74548 7.93704 7.06578C7.93993 7.06678 7.94245 7.06868 7.94424 7.07123C7.94602 7.07378 7.94698 7.07684 7.94698 7.07998C7.94698 7.08312 7.94602 7.08618 7.94424 7.08873C7.94245 7.09127 7.93993 7.09318 7.93704 7.09417Z" fill="#F4C300"/>
</g>
</g>
<g clip-path="url(#clip1_9465_11503)">
<path d="M23.6714 16.8874C21.8024 16.3922 21.3954 15.9733 20.9135 14.0488C20.9127 14.0457 20.9108 14.043 20.9083 14.041C20.9058 14.039 20.9027 14.038 20.8996 14.038C20.8964 14.038 20.8933 14.039 20.8908 14.041C20.8883 14.043 20.8865 14.0457 20.8856 14.0488C20.4011 15.9725 19.996 16.3914 18.1277 16.8874C18.1247 16.8883 18.122 16.8902 18.1201 16.8928C18.1182 16.8954 18.1172 16.8985 18.1172 16.9018C18.1172 16.9051 18.1182 16.9082 18.1201 16.9108C18.122 16.9134 18.1247 16.9153 18.1277 16.9162C19.9967 17.4122 20.4037 17.8311 20.8856 19.7548C20.8865 19.7579 20.8883 19.7607 20.8908 19.7626C20.8933 19.7646 20.8964 19.7656 20.8996 19.7656C20.9027 19.7656 20.9058 19.7646 20.9083 19.7626C20.9108 19.7607 20.9127 19.7579 20.9135 19.7548C21.3954 17.8311 21.8024 17.4122 23.6714 16.9162C23.6744 16.9153 23.6771 16.9134 23.679 16.9108C23.6809 16.9082 23.682 16.9051 23.682 16.9018C23.682 16.8985 23.6809 16.8954 23.679 16.8928C23.6771 16.8902 23.6744 16.8883 23.6714 16.8874Z" fill="#F4C300"/>
<g opacity="0.638">
<path d="M25.9995 19.48C24.7007 19.1597 24.4313 18.8824 24.1201 17.5456C24.1191 17.5426 24.1173 17.54 24.1148 17.5382C24.1123 17.5363 24.1094 17.5354 24.1063 17.5354C24.1033 17.5354 24.1003 17.5363 24.0978 17.5382C24.0953 17.54 24.0935 17.5426 24.0925 17.5456C23.7813 18.8824 23.5119 19.1597 22.2131 19.48C22.2102 19.481 22.2077 19.4829 22.2059 19.4855C22.2041 19.488 22.2031 19.4911 22.2031 19.4942C22.2031 19.4974 22.2041 19.5004 22.2059 19.503C22.2077 19.5055 22.2102 19.5074 22.2131 19.5084C23.5119 19.8287 23.7813 20.1061 24.0925 21.4429C24.0935 21.4459 24.0953 21.4485 24.0978 21.4503C24.1003 21.4521 24.1033 21.4531 24.1063 21.4531C24.1094 21.4531 24.1123 21.4521 24.1148 21.4503C24.1173 21.4485 24.1191 21.4459 24.1201 21.4429C24.4313 20.1061 24.7007 19.8287 25.9995 19.5084C26.0024 19.5074 26.005 19.5055 26.0067 19.503C26.0085 19.5004 26.0095 19.4974 26.0095 19.4942C26.0095 19.4911 26.0085 19.488 26.0067 19.4855C26.005 19.4829 26.0024 19.481 25.9995 19.48Z" fill="#F4C300"/>
<path d="M25.9995 14.3629C24.7007 14.0426 24.4313 13.7652 24.1201 12.4284C24.1191 12.4254 24.1173 12.4228 24.1148 12.421C24.1123 12.4192 24.1094 12.4182 24.1063 12.4182C24.1033 12.4182 24.1003 12.4192 24.0978 12.421C24.0953 12.4228 24.0935 12.4254 24.0925 12.4284C23.7813 13.7652 23.5119 14.0426 22.2131 14.3629C22.2102 14.3639 22.2077 14.3658 22.2059 14.3683C22.2041 14.3709 22.2031 14.3739 22.2031 14.3771C22.2031 14.3802 22.2041 14.3833 22.2059 14.3858C22.2077 14.3883 22.2102 14.3903 22.2131 14.3912C23.5119 14.7115 23.7813 14.9889 24.0925 16.3257C24.0935 16.3287 24.0953 16.3313 24.0978 16.3331C24.1003 16.3349 24.1033 16.3359 24.1063 16.3359C24.1094 16.3359 24.1123 16.3349 24.1148 16.3331C24.1173 16.3313 24.1191 16.3287 24.1201 16.3257C24.4313 14.9889 24.7007 14.7115 25.9995 14.3912C26.0024 14.3903 26.005 14.3883 26.0067 14.3858C26.0085 14.3833 26.0095 14.3802 26.0095 14.3771C26.0095 14.3739 26.0085 14.3709 26.0067 14.3683C26.005 14.3658 26.0024 14.3639 25.9995 14.3629Z" fill="#F4C300"/>
</g>
</g>
<defs>
<clipPath id="clip0_9465_11503">
<rect width="7.91321" height="9.04244" fill="white"/>
</clipPath>
<clipPath id="clip1_9465_11503">
<rect width="7.91321" height="9.04244" fill="white" transform="matrix(1 0 0 -1 18.0859 21.4727)"/>
</clipPath>
</defs>
</svg>
