<svg width="26" height="21" viewBox="0 0 26 21" fill="none" xmlns="http://www.w3.org/2000/svg">
<path d="M20.7315 14.126C21.5023 14.126 22.1271 13.4752 22.1271 12.6724C22.1271 11.8695 21.5023 11.2188 20.7315 11.2188C19.9608 11.2188 19.3359 11.8695 19.3359 12.6724C19.3359 13.4752 19.9608 14.126 20.7315 14.126Z" fill="white"/>
<path d="M4.38775 14.126C5.15848 14.126 5.78334 13.4752 5.78334 12.6724C5.78334 11.8695 5.15848 11.2188 4.38775 11.2188C3.617 11.2188 2.99219 11.8695 2.99219 12.6724C2.99219 13.4752 3.617 14.126 4.38775 14.126Z" fill="white"/>
<path d="M12.5536 13.7098C14.6456 13.7098 16.3416 11.4785 16.3416 8.72601C16.3416 5.97351 14.6456 3.74219 12.5536 3.74219C10.4616 3.74219 8.76562 5.97351 8.76562 8.72601C8.76562 11.4785 10.4616 13.7098 12.5536 13.7098Z" fill="white"/>
<path d="M24.522 10.5906H16.6869C16.8464 10.0092 16.9461 9.3862 16.9461 8.72169C16.9461 8.05718 16.8664 7.43419 16.6869 6.85272H19.3385C19.6774 6.85272 19.9366 6.58277 19.9366 6.22978C19.9366 5.87674 19.6774 5.60679 19.3385 5.60679H16.2084C15.5306 4.29854 14.4341 3.38484 13.1582 3.17718V0.622977C13.1582 0.269956 12.899 0 12.5601 0C12.2211 0 11.962 0.269956 11.962 0.622977V3.17718C10.686 3.4056 9.58952 4.31931 8.91168 5.60679H5.78164C5.4427 5.60679 5.18353 5.87674 5.18353 6.22978C5.18353 6.58277 5.4427 6.85272 5.78164 6.85272H8.4332C8.27371 7.43419 8.17398 8.05718 8.17398 8.72169C8.17398 9.3862 8.25376 10.0092 8.4332 10.5906H0.598098C0.259176 10.5906 0 10.8606 0 11.2136C0 11.5666 0.259176 11.8365 0.598098 11.8365H2.55189C2.4522 12.0858 2.39239 12.3765 2.39239 12.6672C2.39239 13.8093 3.28954 14.7438 4.38606 14.7438C5.48256 14.7438 6.3797 13.8093 6.3797 12.6672C6.3797 12.3765 6.31989 12.0858 6.22021 11.8365H8.93159C9.72905 13.3317 11.0648 14.3285 12.58 14.3285C14.0952 14.3285 15.4309 13.3317 16.2284 11.8365H18.9398C18.8401 12.0858 18.7803 12.3765 18.7803 12.6672C18.7803 13.8093 19.6774 14.7438 20.7739 14.7438C21.8705 14.7438 22.7676 13.8093 22.7676 12.6672C22.7676 12.3765 22.7078 12.0858 22.6081 11.8365H24.5619C24.9008 11.8365 25.16 11.5666 25.16 11.2136C25.16 10.8606 24.861 10.5906 24.522 10.5906ZM5.18353 12.6672C5.18353 13.124 4.82466 13.4978 4.38606 13.4978C3.94745 13.4978 3.58859 13.124 3.58859 12.6672C3.58859 12.2104 3.94745 11.8365 4.38606 11.8365C4.82466 11.8365 5.18353 12.2104 5.18353 12.6672ZM12.5601 13.0825C10.8056 13.0825 9.37021 11.1305 9.37021 8.72169C9.37021 6.31282 10.8056 4.36084 12.5601 4.36084C14.3145 4.36084 15.7499 6.31282 15.7499 8.72169C15.7499 11.1305 14.3145 13.0825 12.5601 13.0825ZM21.5315 12.6672C21.5315 13.124 21.1727 13.4978 20.7341 13.4978C20.2954 13.4978 19.9366 13.124 19.9366 12.6672C19.9366 12.2104 20.2954 11.8365 20.7341 11.8365C21.1727 11.8365 21.5315 12.2104 21.5315 12.6672Z" fill="#444B54"/>
<path d="M24.5221 20.495C24.4424 20.495 24.3826 20.4742 24.3028 20.4535C20.5746 18.9584 16.6073 18.2108 12.5601 18.2108C8.51299 18.2108 4.54562 18.9584 0.817475 20.4535C0.498489 20.5781 0.159566 20.4119 0.0399463 20.1005C-0.0796734 19.789 0.0798195 19.4152 0.378867 19.2906C4.24657 17.7539 8.35349 16.9648 12.5601 16.9648C16.7668 16.9648 20.8538 17.7539 24.7414 19.2906C25.0404 19.4152 25.1999 19.7682 25.0803 20.1005C24.9807 20.3496 24.7614 20.495 24.5221 20.495Z" fill="#00C2F0"/>
<path d="M14.1473 8.30843H10.9575C10.6185 8.30843 10.3594 8.03848 10.3594 7.68549C10.3594 7.33245 10.6185 7.0625 10.9575 7.0625H14.1473C14.4863 7.0625 14.7455 7.33245 14.7455 7.68549C14.7455 8.03848 14.4863 8.30843 14.1473 8.30843Z" fill="#444B54"/>
</svg>
