<svg width="14" height="18" viewBox="0 0 14 18" fill="none" xmlns="http://www.w3.org/2000/svg">
<path d="M4.258 14.8202C6.60964 14.8202 8.51604 12.914 8.51604 10.5625C8.51604 8.21096 6.60964 6.30469 4.258 6.30469C1.90636 6.30469 0 8.21096 0 10.5625C0 12.914 1.90636 14.8202 4.258 14.8202Z" fill="#00C2F0"/>
<path d="M12.6293 17.9425H6.66806C5.95836 17.9425 5.39062 17.3748 5.39062 16.6652V11.3856C5.39062 10.3779 5.87323 9.4128 6.66806 8.80251L9.9893 6.24788C10.5712 5.79372 10.9261 5.09827 10.9261 4.36028C10.9118 3.65062 10.3583 3.05455 9.67703 3.04036C9.33639 3.04036 9.00996 3.16809 8.75445 3.40936C8.51319 3.65062 8.37123 3.97707 8.37123 4.31769V4.38865C8.37123 5.21181 7.70415 5.87884 6.88094 5.87884C6.05774 5.87884 5.39062 5.21181 5.39062 4.38865V4.31769C5.39062 3.1539 5.84481 2.07527 6.68223 1.26629C7.50543 0.457316 8.61253 0.0315414 9.76221 0.0599265C12.0473 0.130889 13.9067 2.07527 13.9067 4.40282V16.6652C13.9067 17.3748 13.3389 17.9425 12.6293 17.9425ZM11.7776 4.38865C11.7635 5.38214 11.2809 6.31883 10.5002 6.91491L7.179 9.46958C6.58289 9.92375 6.24225 10.6334 6.24225 11.3856V16.6652C6.24225 16.9064 6.42676 17.0909 6.66806 17.0909H12.6293C12.8706 17.0909 13.0551 16.9064 13.0551 16.6652V4.40282C13.0551 2.52943 11.5648 0.968247 9.748 0.911477C8.82541 0.883094 7.94545 1.22371 7.27834 1.87657C6.61126 2.52943 6.24225 3.39517 6.24225 4.31769V4.38865C6.24225 4.74344 6.5261 5.02731 6.88094 5.02731C7.23576 5.02731 7.51964 4.74344 7.51964 4.38865V4.31769C7.51964 3.73579 7.74673 3.19648 8.15834 2.79909C8.56994 2.40169 9.1093 2.17461 9.69124 2.18881C10.8267 2.203 11.7493 3.1539 11.7776 4.31769C11.7776 4.33186 11.7776 4.33186 11.7776 4.34607V4.37445V4.38865Z" fill="#444B54"/>
</svg>
