<svg width="38" height="38" viewBox="0 0 38 38" fill="none" xmlns="http://www.w3.org/2000/svg">
<rect width="38" height="38" rx="7.6" fill="white"/>
<path d="M7.57031 10.4079C7.57031 8.95722 8.74628 7.78125 10.1969 7.78125H22.7587C24.5268 7.78125 25.9601 9.21455 25.9601 10.9826C25.9601 13.8557 23.631 16.1848 20.7579 16.1848H7.57031V10.4079Z" fill="#A6B4FC"/>
<path d="M30.5547 26.0105C30.5547 27.8231 29.0841 29.2931 27.2708 29.2931H10.8514C9.03806 29.2931 7.56749 27.8231 7.56749 26.0105V13.7006C7.56749 11.888 9.03806 10.418 10.8514 10.418H27.2708C29.0841 10.418 30.5547 11.888 30.5547 13.7006V14.9316H26.8604C24.1401 14.9316 21.9346 17.1361 21.9346 19.8556C21.9346 22.575 24.1399 24.7795 26.8604 24.7795H30.5547V26.0105Z" fill="#445CFB"/>
<path fill-rule="evenodd" clip-rule="evenodd" d="M32.2266 16.9808C32.2266 16.5274 31.8592 16.1602 31.4056 16.1602H26.8901C24.85 16.1602 23.1959 17.8138 23.1959 19.853C23.1959 21.8922 24.8501 23.5458 26.8901 23.5458H31.4056C31.8592 23.5458 32.2266 23.1786 32.2266 22.7252V16.9808ZM26.8904 20.6737C26.4368 20.6737 26.0694 20.3064 26.0694 19.853C26.0694 19.3996 26.4368 19.0323 26.8904 19.0323C27.344 19.0323 27.7114 19.3996 27.7114 19.853C27.7114 20.3064 27.344 20.6737 26.8904 20.6737Z" fill="#A6B4FC"/>
<path d="M10.2109 14.0847C10.2109 13.6496 10.5637 13.2969 10.9988 13.2969H16.779C17.2141 13.2969 17.5668 13.6496 17.5668 14.0847C17.5668 14.5198 17.2141 14.8725 16.779 14.8725H10.9988C10.5637 14.8725 10.2109 14.5198 10.2109 14.0847Z" fill="white"/>
</svg>
