<svg xmlns="http://www.w3.org/2000/svg" width="370.537" height="40" viewBox="0 0 370.537 40">
  <g id="mc-ts-logo" transform="translate(-211 -12)">
    <g id="Group_19012" transform="translate(288.035 521.348)">
      <g id="Group_19011" transform="translate(-77.035 -506.348)">
        <g id="Group_19010" transform="translate(0 0)">
          <g id="Group_19009" transform="translate(0)">
            <path id="Subtraction_6" d="M281,28.117a10.653,10.653,0,0,1-2.142-.216,10.533,10.533,0,0,1-3.8-1.6,10.642,10.642,0,0,1-4.468-10.961,10.537,10.537,0,0,1,1.6-3.8,10.631,10.631,0,0,1,10.961-4.473,10.534,10.534,0,0,1,3.8,1.6,10.633,10.633,0,0,1,4.468,10.956,10.534,10.534,0,0,1-1.6,3.8,10.676,10.676,0,0,1-4.68,3.855,11.028,11.028,0,0,1-2,.622A10.653,10.653,0,0,1,281,28.117Zm0-16.984a6.461,6.461,0,0,0-1.28.131,6.351,6.351,0,0,0-4.572,3.751,6.11,6.11,0,0,0-.37,1.195,6.448,6.448,0,0,0,0,2.561,6.367,6.367,0,0,0,3.751,4.576,6.167,6.167,0,0,0,1.19.37,6.444,6.444,0,0,0,2.561,0,6.351,6.351,0,0,0,4.572-3.751,6.119,6.119,0,0,0,.37-1.195,6.37,6.37,0,0,0-.956-4.838,6.358,6.358,0,0,0-2.8-2.3,6.364,6.364,0,0,0-2.471-.5Z" transform="translate(-152.981 -6.85)" fill="#27b6ea"/>
            <g id="Group_19008" transform="translate(0 10.874)">
              <path id="Path_25841" d="M27.49,19.4h1.691v3.53h.059a5.561,5.561,0,0,1,5.69-3.733v1.84a5.185,5.185,0,0,0-5.6,5.4v8.03H27.49Z" transform="translate(-19.608 -13.622)" fill="#fff"/>
              <path id="Path_25842" d="M73.84,19.68h2.042L80.612,32.9h.059L85.337,19.68h1.9L81.6,34.739H79.647Z" transform="translate(-45.06 -13.895)" fill="#fff"/>
              <path id="Path_25843" d="M105.13,25.611c.293-2.741,1.952-5.37,4.96-5.37,2.976,0,4.7,2.6,4.784,5.37Zm11.587,1.546c.149-4.234-1.781-8.467-6.623-8.467-4.788,0-6.8,4-6.8,7.971,0,4.292,2.015,7.967,6.8,7.967,3.8,0,5.776-1.984,6.565-5.4h-1.84a4.6,4.6,0,0,1-4.73,3.855c-3.535,0-4.933-3.242-4.96-5.924Z" transform="translate(-61.232 -13.352)" fill="#fff"/>
              <path id="Path_25844" d="M138.64,6.85h1.835V27.694H138.64Z" transform="translate(-80.644 -6.85)" fill="#fff"/>
              <path id="Path_25845" d="M158.541,23.547c-.09-2.277-1.84-3.3-3.941-3.3-1.632,0-3.557.64-3.557,2.6,0,1.637,1.867,2.218,3.124,2.538l2.453.555c2.1.32,4.292,1.546,4.292,4.175,0,3.269-3.242,4.522-6.046,4.522-3.5,0-5.893-1.637-6.186-5.311h1.84c.149,2.48,1.984,3.765,4.437,3.765,1.722,0,4.112-.757,4.112-2.859,0-1.754-1.632-2.336-3.3-2.746l-2.367-.523c-2.394-.645-4.2-1.461-4.2-4.031,0-3.066,3-4.234,5.663-4.234,3.007,0,5.4,1.578,5.519,4.847Z" transform="translate(-86.157 -13.357)" fill="#fff"/>
              <path id="Path_25846" d="M206.9,28.358c.027,2.949-2.453,4.73-5.253,4.73a3.137,3.137,0,0,1-3.359-2.976c0-2.949,3.882-2.917,7-3.476.5-.086,1.316-.23,1.551-.667h.059v2.39Zm0,3.553V34.2h1.831V23.547c0-4.026-2.881-4.847-5.532-4.847-3.445,0-5.929,1.519-6.1,5.05h1.835c.059-2.448,1.754-3.5,4.031-3.5,2.16,0,3.941.613,3.941,3.093,0,1.664-.848,1.867-2.363,2.042-3.972.469-8.084.613-8.084,4.847,0,3.03,2.277,4.4,5.05,4.4a5.673,5.673,0,0,0,5.37-2.89s.027,0,.027.167Z" transform="translate(-112.389 -13.357)" fill="#fff"/>
              <path id="Path_25847" d="M55.5,28.358c.027,2.949-2.453,4.73-5.257,4.73a3.133,3.133,0,0,1-3.354-2.976c0-2.949,3.882-2.917,7.007-3.476.5-.086,1.312-.23,1.546-.667H55.5Zm0,3.553V34.2h1.826V23.547c0-4.026-2.881-4.847-5.537-4.847-3.445,0-5.924,1.519-6.1,5.05h1.84c.054-2.448,1.749-3.5,4.026-3.5,2.16,0,3.941.613,3.941,3.093,0,1.664-.848,1.867-2.363,2.042-3.968.469-8.089.613-8.089,4.847,0,3.03,2.277,4.4,5.05,4.4a5.669,5.669,0,0,0,5.37-2.89s.036,0,.036.167Z" transform="translate(-29.245 -13.357)" fill="#fff"/>
              <path id="Path_25848" d="M230.55,19.4h1.7v3.53h.059A5.558,5.558,0,0,1,238,19.2v1.84a5.188,5.188,0,0,0-5.6,5.4v8.03h-1.844Z" transform="translate(-131.114 -13.622)" fill="#fff"/>
              <path id="Path_25849" d="M253.86,9.63h1.84v4.527h3.061V15.7H255.7V25.861c0,1.195.171,1.894,1.488,1.984a14.18,14.18,0,0,0,1.578-.09v1.574c-.555,0-1.082.059-1.632.059-2.453,0-3.3-.816-3.269-3.386Z" transform="translate(-143.915 -8.377)" fill="#fff"/>
              <path id="Path_25850" d="M181.419,9.63h1.844v4.527h3.061V15.7h-3.061V25.861c0,1.195.171,1.894,1.488,1.984a14.1,14.1,0,0,0,1.574-.09v1.574c-.555,0-1.078.059-1.637.059-2.453,0-3.3-.816-3.269-3.386Z" transform="translate(-104.135 -8.377)" fill="#fff"/>
              <path id="Path_25851" d="M10.009,9.63h1.84v4.527H14.91V15.7H11.849V25.861c0,1.195.171,1.894,1.488,1.984a13.1,13.1,0,0,0,1.574-.09v1.574c-.55,0-1.078.059-1.632.059-2.453,0-3.3-.816-3.269-3.386Z" transform="translate(-10.008 -8.377)" fill="#fff"/>
            </g>
          </g>
        </g>
      </g>
    </g>
    <rect id="Rectangle_12023" data-name="Rectangle 12023" width="1" height="40" transform="translate(364.972 12)" fill="#fff"/>
    <g id="Group_38714" data-name="Group 38714" transform="translate(-6125.717 2230)">
      <g id="Group_29881" data-name="Group 29881" transform="translate(6505.589 -2210.031)">
        <rect id="rect19" width="11.334" height="20.362" transform="translate(15.257 2.771)" fill="#ff5a00"/>
        <path id="XMLID_330_" d="M16.011,12.951A12.988,12.988,0,0,1,20.94,2.771,12.947,12.947,0,1,0,12.951,25.9a12.882,12.882,0,0,0,7.989-2.771A12.925,12.925,0,0,1,16.011,12.951Z" transform="translate(0)" fill="#eb001b"/>
        <path id="path22" d="M520.54,12.951A12.939,12.939,0,0,1,499.6,23.132a12.979,12.979,0,0,0,0-20.362,12.939,12.939,0,0,1,20.94,10.181Z" transform="translate(-478.66)" fill="#f79e1b"/>
      </g>
      <path id="XMLID_1775_" d="M73.925,680.43v-9.462c0-3.62-2.2-5.99-5.99-5.99a6.2,6.2,0,0,0-5.365,2.683,5.536,5.536,0,0,0-5.053-2.683,5.082,5.082,0,0,0-4.41,2.2V665.29H49.8v15.14h3.307v-8.36c0-2.683,1.415-3.95,3.62-3.95s3.307,1.415,3.307,3.95v8.36h3.307v-8.36c0-2.683,1.58-3.95,3.62-3.95,2.2,0,3.307,1.415,3.307,3.95v8.36Zm44.82-15.14H113.38v-4.575h-3.307v4.575h-2.995v2.995h2.995v6.945c0,3.473,1.415,5.512,5.2,5.512a8.892,8.892,0,0,0,4.1-1.1l-.955-2.848a5.289,5.289,0,0,1-2.848.79c-1.58,0-2.2-.955-2.2-2.517v-6.78h5.365V665.29Zm25.533-.331a4.483,4.483,0,0,0-3.95,2.2v-1.893H137.02v15.14h3.307v-8.525c0-2.517,1.1-3.95,3.16-3.95a10.155,10.155,0,0,1,2.058.312l.955-3.16a13.113,13.113,0,0,0-2.223-.129Zm-39.035,1.58a10.852,10.852,0,0,0-6.155-1.58c-3.785,0-6.3,1.893-6.3,4.887,0,2.517,1.892,3.95,5.2,4.41l1.58.165c1.727.312,2.683.79,2.683,1.58,0,1.1-1.268,1.892-3.473,1.892a8.719,8.719,0,0,1-5.053-1.58l-1.58,2.517a11.085,11.085,0,0,0,6.468,1.893c4.41,0,6.945-2.058,6.945-4.887,0-2.682-2.058-4.1-5.2-4.575l-1.58-.165c-1.415-.165-2.517-.478-2.517-1.415,0-1.1,1.1-1.727,2.848-1.727a11.379,11.379,0,0,1,4.74,1.268l1.4-2.683Zm79.517-1.58a4.483,4.483,0,0,0-3.95,2.2v-1.893H177.5v15.14h3.307v-8.525c0-2.517,1.1-3.95,3.16-3.95a10.155,10.155,0,0,1,2.058.312l.955-3.124a10.082,10.082,0,0,0-2.223-.165Zm-38.87,7.9c0,4.575,3.16,7.882,8.048,7.882a7.922,7.922,0,0,0,5.365-1.727l-1.58-2.682a6.318,6.318,0,0,1-3.95,1.415c-2.683,0-4.575-1.893-4.575-4.887a4.64,4.64,0,0,1,4.575-4.887,6.468,6.468,0,0,1,3.95,1.415l1.58-2.682a7.83,7.83,0,0,0-5.365-1.727c-4.887-.018-8.048,3.307-8.048,7.882Zm28.9,0v-7.57H171.48v1.893a5.713,5.713,0,0,0-4.74-2.2,7.889,7.889,0,0,0,0,15.765,5.348,5.348,0,0,0,4.74-2.2v1.892h3.307v-7.57Zm-12.145,0c0-2.682,1.727-4.887,4.575-4.887a4.566,4.566,0,0,1,4.575,4.887,4.585,4.585,0,1,1-9.15,0Zm-34.492-7.9c-4.41,0-7.57,3.16-7.57,7.882,0,4.74,3.16,7.882,7.735,7.882a9.612,9.612,0,0,0,6.155-2.058l-1.58-2.37a7.511,7.511,0,0,1-4.41,1.58,4.263,4.263,0,0,1-4.575-3.62H135.1v-1.268c.147-4.869-2.7-8.029-6.945-8.029Zm0,2.848c2.058,0,3.473,1.268,3.785,3.62h-7.882a3.987,3.987,0,0,1,4.1-3.62Zm75.387,5.053V659.3H200.23v7.882a5.713,5.713,0,0,0-4.74-2.2,7.889,7.889,0,0,0,0,15.765,5.348,5.348,0,0,0,4.74-2.2v1.892h3.307v-7.57Zm-12.145,0c0-2.682,1.727-4.887,4.575-4.887a4.566,4.566,0,0,1,4.575,4.887,4.585,4.585,0,1,1-9.15,0Zm-100.55,0v-7.57H87.535v1.893a5.713,5.713,0,0,0-4.74-2.2,7.889,7.889,0,0,0,0,15.765,5.348,5.348,0,0,0,4.74-2.2v1.892h3.307v-7.57Zm-12.292,0c0-2.682,1.727-4.887,4.575-4.887A4.566,4.566,0,0,1,87.7,672.86a4.585,4.585,0,1,1-9.15,0Z" transform="translate(6503.718 -2870.3)" fill="#fff"/>
    </g>
  </g>
</svg>
