<svg xmlns="http://www.w3.org/2000/svg" width="16.429" height="19.406" viewBox="0 0 16.429 19.406">
    <g data-name="Group 40790">
        <path data-name="Path 47038" d="M14.45 19.105a11.129 11.129 0 0 0 .95 2.6 9.481 9.481 0 0 0 1.637 2.26 11.939 11.939 0 0 0 4.778 2.879 1.188 1.188 0 0 0 .374.059 1.46 1.46 0 0 0 .511-.094c.55-.212 1.194-.47 1.81-.778a10.782 10.782 0 0 0 2.244-1.475 9.6 9.6 0 0 0 1.781-2.029 10.225 10.225 0 0 0 1.165-2.47 14.173 14.173 0 0 0 .566-2.643 35.126 35.126 0 0 0 .146-5.008c-.007-.363-.014-.737-.018-1.107a1.08 1.08 0 0 0-1.075-1.091c-.126-.009-.253-.016-.377-.023-.409-.025-.831-.05-1.233-.1a8.04 8.04 0 0 1-4.591-2.121A1.373 1.373 0 0 0 22.2 7.5a1.373 1.373 0 0 0-.92.461 7.717 7.717 0 0 1-2.44 1.571 9.882 9.882 0 0 1-3.62.655 1.216 1.216 0 0 0-.883.317 1.2 1.2 0 0 0-.31.883v2.45a20 20 0 0 0 .423 5.268z" transform="translate(-14.009 -7.5)" style="fill:#2aa04a"/>
        <path data-name="Path 47041" d="M212.585 149.927a.551.551 0 0 0 .378.164.525.525 0 0 0 .23-.055.54.54 0 0 0 .312-.526l-.066-1 2.3-1.93 1 2.511a.946.946 0 0 0 1.8-.487l-.593-4.214 2.2-2.2a1.2 1.2 0 0 0 .351-.85 1.213 1.213 0 0 0-2.078-.862l-2.187 2.2-4.214-.608a.935.935 0 0 0-.791 1.587.922.922 0 0 0 .32.207l2.511 1-1.945 2.3-1-.066a.54.54 0 0 0-.417.92z" transform="translate(-207.298 -135.4)" style="fill:#fff"/>
    </g>
</svg>
