<svg xmlns="http://www.w3.org/2000/svg" width="21.233" height="23.573" viewBox="0 0 21.233 23.573">
    <g data-name="Group 39915">
        <g data-name="Group 39913">
            <path data-name="Path 36970" d="M16.907 20.512c-5.015 1.291-6.107 2.383-7.4 7.4a.039.039 0 0 1-.075 0c-1.3-5.015-2.387-6.107-7.4-7.4a.039.039 0 0 1 0-.075c5.015-1.293 6.107-2.385 7.4-7.4a.039.039 0 0 1 .075 0c1.293 5.015 2.385 6.107 7.4 7.4a.039.039 0 0 1 0 .075z" transform="translate(-2.004 -8.585)" style="fill:#3cb75d"/>
        </g>
        <g data-name="Group 39914" style="opacity:.638">
            <path data-name="Path 36972" d="M46.193 7.151c-3.485.835-4.208 1.558-5.043 5.043a.039.039 0 0 1-.074 0c-.835-3.485-1.558-4.208-5.043-5.043a.039.039 0 0 1 0-.074c3.485-.835 4.208-1.558 5.043-5.043a.039.039 0 0 1 .074 0c.835 3.485 1.558 4.208 5.043 5.043a.039.039 0 0 1 0 .074z" transform="translate(-24.986 -2.008)" style="fill:#3cb75d"/>
            <path data-name="Path 36973" d="M46.193 41.151c-3.485.835-4.208 1.558-5.043 5.043a.039.039 0 0 1-.074 0c-.835-3.485-1.558-4.208-5.043-5.043a.039.039 0 0 1 0-.074c3.485-.835 4.208-1.558 5.043-5.043a.039.039 0 0 1 .074 0c.835 3.485 1.558 4.208 5.043 5.043a.039.039 0 0 1 0 .074z" transform="translate(-24.986 -22.646)" style="fill:#3cb75d"/>
        </g>
    </g>
</svg>
