<svg xmlns="http://www.w3.org/2000/svg" width="51.659" height="46.495" viewBox="0 0 51.659 46.495">
    <defs>
        <clipPath id="sg4sztw86a">
            <path data-name="Rectangle 11640" style="fill:none" d="M0 0h36.277v25.087H0z"/>
        </clipPath>
        <clipPath id="innw8aqseb">
            <path data-name="Rectangle 11633" style="fill:none" d="M0 0h32.488v3.683H0z"/>
        </clipPath>
        <clipPath id="7e8nv7v4kc">
            <path data-name="Rectangle 11638" style="fill:none" d="M0 0h36.191v1.579H0z"/>
        </clipPath>
    </defs>
    <g data-name="Group 38928">
        <path data-name="Path 34014" d="M15.963 4a11.963 11.963 0 1 0 11.964 11.963A11.96 11.96 0 0 0 15.963 4zm5.982 13.16H17.16v4.785h-2.393V17.16H9.982v-2.393h4.785V9.982h2.393v4.785h4.785z" transform="translate(17.135 -4)" style="fill:#e8a136"/>
        <g data-name="Group 38611">
            <g data-name="Group 38610">
                <g data-name="Mask Group 38609" style="clip-path:url(#sg4sztw86a)" transform="translate(15.383 21.408)">
                    <g data-name="Group 38608">
                        <g data-name="Group 38607" style="clip-path:url(#sg4sztw86a)">
                            <path data-name="Path 34001" d="M100.468 39.42a.725.725 0 0 0-.39.946l.588 1.414a.724.724 0 1 0 1.334-.556l-.588-1.414a.724.724 0 0 0-.946-.39m1.185 1.949a.346.346 0 0 1-.639.266l-.588-1.414a.346.346 0 0 1 .639-.266z" transform="translate(-66.088 -26.01)" style="fill:#faa21d"/>
                            <path data-name="Path 34002" d="m1.424 39.81-.588 1.414a.724.724 0 0 0 1.337.556l.588-1.414a.724.724 0 0 0-1.337-.556m.349.145a.346.346 0 0 1 .639.266l-.588 1.414a.346.346 0 1 1-.639-.266z" transform="translate(-.516 -26.01)" style="fill:#faa21d"/>
                            <path data-name="Path 34003" d="M30.865 8.85 34.738.474a1.413 1.413 0 0 1 .75-.2h3.488a1.41 1.41 0 0 1 .75.2L43.6 8.85h1.968l-3.752-7.8A3.042 3.042 0 0 0 39.224 0H35.24a3.042 3.042 0 0 0-2.591 1.047L28.9 8.85z" transform="translate(-19.093)" style="fill:#282538"/>
                            <rect data-name="Rectangle 11632" width="33.631" height="14.153" rx="7.077" transform="translate(1.322 8.97)" style="fill:#e46a5d"/>
                            <g data-name="Group 38603" style="opacity:.2">
                                <g data-name="Group 38602">
                                    <g data-name="Group 38601" style="clip-path:url(#innw8aqseb)" transform="translate(1.894 9.536)">
                                        <path data-name="Path 34004" d="M38.069 31.792a3.78 3.78 0 0 0-3.769-3.683H9.354a3.78 3.78 0 0 0-3.773 3.683z" transform="translate(-5.581 -28.109)" style="fill:#fff"/>
                                    </g>
                                </g>
                            </g>
                            <path data-name="Path 34005" d="M3.9 54.664v.236a4.344 4.344 0 0 0 4.344 4.344h24.94a4.344 4.344 0 0 0 4.344-4.344v-.233z" transform="translate(-2.575 -36.118)" style="fill:#c2262a"/>
                            <path data-name="Path 34006" d="M28.5 25.839h2.267v14.517H28.5zm14.67 14.517h2.267V25.839H43.17z" transform="translate(-18.828 -17.073)" style="fill:#3a4151"/>
                            <path data-name="Rectangle 11634" transform="translate(12.522 13.006)" style="fill:#d8d8da" d="M0 0h11.222v.243H0z"/>
                            <path data-name="Path 34007" d="m36.916 39.161-.086-.639h.07v-.384h-.352v.384h.074l-.087.639z" transform="translate(-24.142 -25.199)" style="fill:#545460"/>
                            <path data-name="Path 34008" d="M36.644 38.556v-.313h.305z" transform="translate(-24.212 -25.268)" style="fill:#d8d8da"/>
                            <path data-name="Rectangle 11635" transform="translate(16.091 10.481)" style="fill:#d8d8da" d="M0 0h4.093v1.451H0z"/>
                            <path data-name="Rectangle 11636" transform="translate(5.417 8.958)" style="fill:#d8d8da" d="M0 0h.243v8.694H0z"/>
                            <path data-name="Rectangle 11637" transform="translate(30.53 8.958)" style="fill:#d8d8da" d="M0 0h.243v8.694H0z"/>
                            <path data-name="Path 34009" d="m16.133 52.36-.086-.638h.073v-.384h-.352v.384h.074l-.087.638z" transform="translate(-10.41 -33.921)" style="fill:#545460"/>
                            <path data-name="Path 34010" d="M15.861 51.756v-.313h.3z" transform="translate(-10.48 -33.99)" style="fill:#d8d8da"/>
                            <path data-name="Path 34011" d="M34.948 45.571v5.535a2.078 2.078 0 0 1-2.078 2.078H3.4a2.078 2.078 0 0 1-2.078-2.078v-5.535h-.63L0 51.106a3.4 3.4 0 0 0 3.4 3.4h29.47a3.4 3.4 0 0 0 3.4-3.4l-.692-5.535z" transform="translate(0 -30.11)" style="fill:#282538"/>
                            <g data-name="Group 38606" style="opacity:.3">
                                <g data-name="Group 38605">
                                    <g data-name="Group 38604" style="clip-path:url(#7e8nv7v4kc)" transform="translate(.087 23.508)">
                                        <path data-name="Path 34012" d="M36.446 70.081a.789.789 0 0 1-.789.789H1.044a.789.789 0 0 1 0-1.578h34.612a.789.789 0 0 1 .789.789" transform="translate(-.255 -69.292)" style="fill:#282538"/>
                                    </g>
                                </g>
                            </g>
                        </g>
                    </g>
                </g>
            </g>
            <g data-name="Group 38600">
                <path data-name="Rectangle 11579" d="M1.107 0a1.106 1.106 0 0 1 1.106 1.106v2.785A1.106 1.106 0 0 1 1.107 5 1.106 1.106 0 0 1 0 3.891V1.107A1.107 1.107 0 0 1 1.107 0z" transform="translate(13.686 23.818)" style="fill:#282538"/>
                <path data-name="Rectangle 11583" transform="translate(16.407 23.76)" style="fill:#2b273e" d="M0 0h1.787v4.394H0z"/>
                <path data-name="Path 33887" d="M624.473 390.6h2.827v-4.3h-2.825zm2.332-.492h-1.839v-3.318h.729v2.01h.484v-2.01h.626z" transform="translate(-608.585 -366.857)" style="fill:#faa21d"/>
                <path data-name="Path 33888" d="M624.964 388.583v-1.792h.729v1.063l.484-.483v-.579h.579l.493-.492h-2.778v2.777z" transform="translate(-608.583 -366.857)" style="fill:#ffd194"/>
                <path data-name="Path 33889" d="M658.767 401.01v-1.648l-.493.493v1.645z" transform="translate(-640.054 -379.02)" style="fill:#ffd194"/>
                <path data-name="Path 33890" d="M626.035 433.74h-1.072v-.576l-.493.493v.576h1.072z" transform="translate(-608.582 -410.49)" style="fill:#ffd194"/>
                <path data-name="Path 33941" d="M438.777 669.053a1.093 1.093 0 1 0-1.533.2 1.093 1.093 0 0 0 1.533-.2" transform="translate(-433.875 -628.468)" style="fill:#382821"/>
                <path data-name="Path 33942" d="m446.922 649.532-.229-.176a2.051 2.051 0 0 1-.556.512 7.749 7.749 0 0 1-.909.454l.339.261-.57.74a.552.552 0 0 0 .1.775l.014.011a.552.552 0 0 0 .775-.1l1.162-1.507a.691.691 0 0 0-.125-.969m-1.307 2.305a.241.241 0 1 1-.044-.338.241.241 0 0 1 .044.338" transform="translate(-441.381 -611.768)" style="fill:#513434"/>
                <path data-name="Path 33956" d="M618.15 686.917a1.153 1.153 0 1 1 0 1.63 1.152 1.152 0 0 1 0-1.63" transform="translate(-602.383 -646.424)" style="fill:#382526"/>
                <path data-name="Path 33957" d="m629.578 674.1-.707-.707a.729.729 0 0 0-1.03 0l-1.419 1.419a.583.583 0 0 0 0 .824l.013.013a.583.583 0 0 0 .824 0l.7-.7.488.488a.583.583 0 0 0 .824 0l.31-.311a.728.728 0 0 0 0-1.03m-2.94.972a.254.254 0 1 1 0 .359.255.255 0 0 1 0-.359" transform="translate(-610.241 -633.951)" style="fill:#513a4c"/>
                <path data-name="Path 33958" d="M618.15 425.9a1.152 1.152 0 1 1 0 1.63 1.152 1.152 0 0 1 0-1.63" transform="translate(-602.383 -403.414)" style="fill:#382526"/>
                <path data-name="Path 33959" d="m629.578 413.087-.707-.706a.728.728 0 0 0-1.03 0l-1.419 1.419a.582.582 0 0 0 0 .824l.013.013a.582.582 0 0 0 .824 0l.7-.7.488.488a.582.582 0 0 0 .824 0l.31-.311a.728.728 0 0 0 0-1.03m-2.94.973a.254.254 0 1 1 0 .359.254.254 0 0 1 0-.359" transform="translate(-610.241 -390.942)" style="fill:#513a4c"/>
                <path data-name="Path 33966" d="M652.195 415.317v14.027a5.34 5.34 0 0 0 1.246 3.613 4.13 4.13 0 0 1-3.5-4.074v-13.1a4.129 4.129 0 0 1 3.5-4.074 5.34 5.34 0 0 0-1.246 3.613" transform="translate(-632.296 -390.51)" style="fill:#c2a026"/>
                <path data-name="Path 33990" d="M512.886 51.678v27.778a.259.259 0 0 1-.282.224h-7.624a.259.259 0 0 1-.282-.224V51.678h-.847v27.778a1.033 1.033 0 0 0 1.129.9h7.62a1.033 1.033 0 0 0 1.13-.9V51.678z" transform="translate(-496.283 -47.863)" style="fill:#fff"/>
                <path data-name="Path 33991" d="M508.476 20.786h-1.63c0-.651-1.208-1.6-3.732-1.6s-3.732.946-3.732 1.6h-1.63c0-1.61 2.305-2.824 5.362-2.824s5.362 1.214 5.362 2.824" transform="translate(-490.604 -16.962)" style="fill:#252e3f"/>
                <path data-name="Path 33992" d="M520.639 245.421v-.266a1.316 1.316 0 0 0-1.316-1.316h-6.144a1.317 1.317 0 0 0-1.317 1.316v.266z" transform="translate(-503.741 -234.225)" style="fill:#282538"/>
                <path data-name="Path 33993" d="M490.976 750.6h-10.681c-.727 0-1.316-.373-1.316-.833v-.833h13.315v.833c0 .461-.589.833-1.317.833" transform="translate(-473.126 -704.476)" style="fill:#282538"/>
                <path data-name="Path 33994" d="M428.339 706.025a.391.391 0 0 1-.391.391h-1.582a.391.391 0 0 1-.391-.391v-4.557a.391.391 0 0 1 .391-.391h1.582a.391.391 0 0 1 .391.391z" transform="translate(-423.78 -659.922)" style="fill:#282538"/>
                <path data-name="Path 33995" d="M693.087 706.025a.391.391 0 0 1-.391.391h-1.582a.391.391 0 0 1-.391-.391v-4.557a.391.391 0 0 1 .391-.391h1.586a.391.391 0 0 1 .391.391z" transform="translate(-670.265 -659.922)" style="fill:#282538"/>
                <path data-name="Path 33996" d="M394.164 702.718v.432a3.954 3.954 0 0 0 3.95 3.949h17.116a3.954 3.954 0 0 0 3.95-3.949v-.432z" transform="translate(-394.163 -661.449)" style="fill:#545460"/>
                <path data-name="Path 33997" d="M401.8 268.936v24.226a3.423 3.423 0 0 0 3.423 3.423h17.116a3.423 3.423 0 0 0 3.423-3.423v-24.226a6.583 6.583 0 0 0-6.583-6.583h-10.8a6.583 6.583 0 0 0-6.583 6.583" transform="translate(-401.271 -251.462)" style="fill:#4f86f1"/>
                <path data-name="Path 33999" d="M401.8 522.759V535.6a3.423 3.423 0 0 0 3.423 3.423h17.116a3.423 3.423 0 0 0 3.423-3.423v-12.841z" transform="translate(-401.271 -493.904)" style="fill:#386ed8"/>
                <path data-name="Path 34000" d="M451.423 339.364v-24.226a3.163 3.163 0 0 1 3.16-3.16h10.8a3.163 3.163 0 0 1 3.16 3.16v24.226z" transform="translate(-447.472 -297.663)" style="fill:#71b1ff"/>
                <path data-name="Rectangle 11631" transform="translate(12.419 10.891)" style="fill:#256bc1" d="M0 0h.18v34.232H0z"/>
            </g>
        </g>
    </g>
</svg>
