<svg width="64" height="44" viewBox="0 0 64 44" fill="none" xmlns="http://www.w3.org/2000/svg">
<path fill-rule="evenodd" clip-rule="evenodd" d="M62.0002 27.658V32.5506C62.0002 34.2123 60.6564 35.5593 59.0018 35.5593H13.1341C11.4781 35.5593 10.1357 34.2091 10.1357 32.5506V27.658C13.3607 26.7679 15.729 23.8131 15.729 20.3051C15.729 16.7971 13.3607 13.8422 10.1357 12.9522V5.00876C10.1357 3.34707 11.4794 2 13.1341 2H59.0018C60.6578 2 62.0002 3.35028 62.0002 5.00876V12.9522C58.7752 13.8422 56.4069 16.7971 56.4069 20.3051C56.4069 23.8131 58.7752 26.7679 62.0002 27.658Z" stroke="#101828" stroke-width="2.71186"/>
<path d="M41.6602 3.70617H43.694V34.2146H41.6602V3.70617ZM21.9991 7.77397V5.74007H36.2364V7.77397H21.9991ZM21.9991 17.9435V15.9096H30.1347V17.9435H21.9991Z" fill="#101828" stroke="#101828" stroke-width="0.677966"/>
<path fill-rule="evenodd" clip-rule="evenodd" d="M50.8136 33.7634V38.656C50.8136 40.3177 49.4699 41.6647 47.8152 41.6647H4.99832C3.3424 41.6647 2 40.3144 2 38.656V33.7634C5.22494 32.8733 7.59322 29.9185 7.59322 26.4105C7.59322 22.9025 5.22494 19.9476 2 19.0576V14.165C2 12.5033 3.3437 11.1562 4.99832 11.1562H47.8152C49.4712 11.1562 50.8136 12.5065 50.8136 14.165V19.0576C47.5886 19.9476 45.2203 22.9025 45.2203 26.4105C45.2203 29.9185 47.5886 32.8733 50.8136 33.7634Z" fill="#AAE7F5" stroke="#101828" stroke-width="2.71186"/>
<path d="M33.5244 10.8312H35.5583V41.3396H33.5244V10.8312ZM13.8634 23.0346V21.0007H28.1007V23.0346H13.8634ZM13.8634 31.1702V29.1363H21.999V31.1702H13.8634Z" fill="#101828" stroke="#101828" stroke-width="0.677966"/>
</svg>
