<svg xmlns="http://www.w3.org/2000/svg" width="19.036" height="19.038" viewBox="0 0 19.036 19.038">
    <path data-name="Path 47042" d="M19.846 11h-.507a34.35 34.35 0 0 0-4.178.146 4.6 4.6 0 0 0-2.8 1.215 4.6 4.6 0 0 0-1.215 2.8A34.35 34.35 0 0 0 11 19.339v.573a34.35 34.35 0 0 0 .146 4.178 4.6 4.6 0 0 0 1.215 2.8 4.6 4.6 0 0 0 2.8 1.215 34.351 34.351 0 0 0 4.178.146h.573a34.351 34.351 0 0 0 4.178-.151 4.6 4.6 0 0 0 2.8-1.215 4.6 4.6 0 0 0 1.215-2.8 34.352 34.352 0 0 0 .146-4.178V19.4a.885.885 0 0 0-1.769 0v.442a33.7 33.7 0 0 1-.13 4.007 2.879 2.879 0 0 1-.712 1.785 2.879 2.879 0 0 1-1.785.712 33.706 33.706 0 0 1-4.007.13H19.4a33.7 33.7 0 0 1-4.007-.13 2.879 2.879 0 0 1-1.785-.712 2.879 2.879 0 0 1-.712-1.785 33.706 33.706 0 0 1-.13-4.007V19.4a33.7 33.7 0 0 1 .134-4 2.879 2.879 0 0 1 .712-1.785A2.879 2.879 0 0 1 15.4 12.9a33.706 33.706 0 0 1 4.007-.13h.442a.885.885 0 1 0 0-1.769z" transform="translate(-10.988 -9.224)" style="fill:#24b7f1"/>
    <g data-name="Group 48262">
        <path data-name="Path 47043" d="M76.323 12.58a1.982 1.982 0 0 1 0 2.8L74.8 16.9 72 14.1l1.521-1.521a1.982 1.982 0 0 1 2.8 0z" transform="translate(-57.866 -11.999)" style="fill:#24b7f1"/>
        <path data-name="Path 47044" d="m43.578 33.36-1.694.158a.613.613 0 0 1-.667-.667l.158-1.694a1.839 1.839 0 0 1 .531-1.13l6.671-6.671 2.8 2.8-6.669 6.674a1.839 1.839 0 0 1-1.13.53z" transform="translate(-35.516 -20.181)" style="fill:#24b7f1"/>
    </g>
</svg>
