<svg xmlns="http://www.w3.org/2000/svg" width="14" height="16" viewBox="0 0 14 16">
    <g data-name="Group 38696">
        <g data-name="Group 38694">
            <g data-name="Rectangle 15160" style="fill:#fff;stroke:#243843">
                <rect width="14" height="16" rx="3" style="stroke:none"/>
                <rect x=".5" y=".5" width="13" height="15" rx="2.5" style="fill:none"/>
            </g>
        </g>
        <g data-name="Group 38695" transform="translate(-24.915 -919)">
            <path d="M146.536 3.363a4.085 4.085 0 1 0 4.085 4.085 4.093 4.093 0 0 0-4.085-4.085zm0 1.089c.042 0 .1.014.217.124a1.909 1.909 0 0 1 .369.585A5.574 5.574 0 0 1 147.5 6.9h-1.936a5.579 5.579 0 0 1 .383-1.742 1.907 1.907 0 0 1 .368-.585c.117-.107.179-.121.221-.121zm-1.678.51a6.827 6.827 0 0 0-.382 1.941h-.884a2.984 2.984 0 0 1 1.267-1.941zm3.355 0A2.985 2.985 0 0 1 149.48 6.9h-.88a6.827 6.827 0 0 0-.383-1.941zm-4.622 3.03h.885a6.826 6.826 0 0 0 .382 1.942 2.984 2.984 0 0 1-1.267-1.942zm1.977 0h1.932a5.576 5.576 0 0 1-.382 1.743 1.907 1.907 0 0 1-.369.585c-.112.11-.175.124-.217.124s-.1-.014-.217-.124a1.908 1.908 0 0 1-.368-.585 5.58 5.58 0 0 1-.383-1.743zm3.028 0h.885a2.985 2.985 0 0 1-1.267 1.942 6.826 6.826 0 0 0 .386-1.942z" transform="translate(-114.536 918.637)" style="fill:#243843"/>
            <rect data-name="Rectangle 15161" width="6" height="1" rx=".5" transform="translate(29 931)" style="fill:#243843"/>
        </g>
    </g>
</svg>
