<svg xmlns="http://www.w3.org/2000/svg" width="24" height="24" viewBox="0 0 24 24">
  <path id="add-ons-default" d="M282.365,30.85a12.026,12.026,0,0,1-2.417-.244,11.891,11.891,0,0,1-4.29-1.806,12.008,12.008,0,0,1-5.043-12.369,11.886,11.886,0,0,1,1.807-4.289,12,12,0,0,1,12.371-5.047,11.891,11.891,0,0,1,4.29,1.806,12,12,0,0,1,5.043,12.364,11.886,11.886,0,0,1-1.807,4.289,12.051,12.051,0,0,1-5.282,4.35,12.449,12.449,0,0,1-2.254.7A12.026,12.026,0,0,1,282.365,30.85Zm0-19.166a7.294,7.294,0,0,0-1.445.148,7.169,7.169,0,0,0-5.16,4.233,6.9,6.9,0,0,0-.417,1.348,7.27,7.27,0,0,0,0,2.89,7.185,7.185,0,0,0,4.234,5.164,6.962,6.962,0,0,0,1.344.417,7.275,7.275,0,0,0,2.891,0,7.169,7.169,0,0,0,5.16-4.233,6.9,6.9,0,0,0,.417-1.348,7.187,7.187,0,0,0-1.079-5.459,7.176,7.176,0,0,0-3.155-2.595,7.184,7.184,0,0,0-2.789-.565Z" transform="translate(-270.369 -6.85)" fill="#a7afc0"/>
</svg>
