<svg xmlns="http://www.w3.org/2000/svg" xmlns:xlink="http://www.w3.org/1999/xlink" width="148.5" height="31.9" viewBox="0 0 148.5 31.9">
  <defs>
    <clipPath id="clip-path">
      <rect id="Rectangle_15266" data-name="Rectangle 15266" width="148.5" height="31.9" transform="translate(170.9 6.2)"/>
    </clipPath>
  </defs>
  <g id="master-card-logo-lp" transform="translate(-170.9 -6.199)">
    <rect id="Rectangle_15265" data-name="Rectangle 15265" width="11.1" height="20" transform="translate(188.9 12.2)" fill="#f16623"/>
    <g id="Group_38708" data-name="Group 38708">
      <g id="Group_38704" data-name="Group 38704" clip-path="url(#clip-path)">
        <path id="Path_33828" data-name="Path 33828" d="M189.6,22.2a12.507,12.507,0,0,1,4.9-10,12.7,12.7,0,1,0,0,20,12.653,12.653,0,0,1-4.9-10" fill="#e42526"/>
      </g>
      <g id="Group_38705" data-name="Group 38705" clip-path="url(#clip-path)">
        <path id="Path_33829" data-name="Path 33829" d="M213.9,30.1v-.4h.2v-.1h-.4v.1h.2v.4Zm.8,0v-.5h-.1l-.1.3-.1-.3h-.1v.5h.1v-.4l.1.3h.1l.1-.3v.4Z" fill="#f89e1d"/>
      </g>
      <g id="Group_38706" data-name="Group 38706" clip-path="url(#clip-path)">
        <path id="Path_33830" data-name="Path 33830" d="M215.1,22.2a12.753,12.753,0,0,1-20.6,10,12.654,12.654,0,0,0,0-20,12.788,12.788,0,0,1,7.9-2.7,12.591,12.591,0,0,1,12.7,12.7" fill="#f89e1d"/>
      </g>
      <g id="Group_38707" data-name="Group 38707" clip-path="url(#clip-path)">
        <path id="Path_33831" data-name="Path 33831" d="M237,26.5V21.2a3.23,3.23,0,0,0-3.3-3.4,3.322,3.322,0,0,0-3,1.5,3.2,3.2,0,0,0-2.8-1.5,2.872,2.872,0,0,0-2.5,1.3v-1h-1.8v8.5h1.9V21.9a1.929,1.929,0,0,1,2.1-2.2c1.2,0,1.8.8,1.8,2.2v4.7h1.9V21.9a1.972,1.972,0,0,1,2.1-2.2c1.3,0,1.9.8,1.9,2.2v4.7H237ZM264.5,18h-3V15.4h-1.9V18h-1.7v1.7h1.7v3.9c0,2,.8,3.1,2.9,3.1a3.691,3.691,0,0,0,2.3-.7l-.5-1.6a3.675,3.675,0,0,1-1.6.5c-.9,0-1.2-.6-1.2-1.4V19.7h3V18Zm15.7-.2A2.369,2.369,0,0,0,278,19V18h-1.8v8.5H278V21.8c0-1.4.6-2.2,1.8-2.2a5.02,5.02,0,0,1,1.2.2l.6-1.7a3.926,3.926,0,0,0-1.4-.3m-23.7.9a6.273,6.273,0,0,0-3.5-.9c-2.1,0-3.5,1-3.5,2.7,0,1.4,1,2.2,2.9,2.5l.9.1q1.5.15,1.5.9c0,.7-.7,1-1.9,1a4.24,4.24,0,0,1-2.8-.9l-.9,1.4a6.467,6.467,0,0,0,3.7,1.1c2.4,0,3.9-1.2,3.9-2.8,0-1.5-1.1-2.3-3-2.5l-.9-.1c-.8-.1-1.4-.3-1.4-.8,0-.6.6-1,1.6-1a5.4,5.4,0,0,1,2.6.7Zm49.3-.9a2.369,2.369,0,0,0-2.2,1.2V18h-1.8v8.5h1.8V21.8c0-1.4.6-2.2,1.8-2.2a5.02,5.02,0,0,1,1.2.2l.6-1.7a3.925,3.925,0,0,0-1.4-.3m-23.7,4.4a4.226,4.226,0,0,0,4.5,4.4,4.359,4.359,0,0,0,3-1l-.9-1.5a3.716,3.716,0,0,1-2.2.8,2.548,2.548,0,0,1-2.6-2.7,2.548,2.548,0,0,1,2.6-2.7,3.716,3.716,0,0,1,2.2.8l.9-1.5a4.533,4.533,0,0,0-3-1,4.281,4.281,0,0,0-4.5,4.4m17.2,0V18h-1.8v1a3.16,3.16,0,0,0-2.7-1.2,4.211,4.211,0,0,0-4.2,4.4,4.211,4.211,0,0,0,4.2,4.4,3.447,3.447,0,0,0,2.7-1.2v1h1.8Zm-6.8,0a2.547,2.547,0,0,1,2.6-2.7,2.606,2.606,0,0,1,2.6,2.7,2.6,2.6,0,1,1-5.2,0m-22.2-4.4a4.1,4.1,0,0,0-4.2,4.4,4.121,4.121,0,0,0,4.3,4.4,5.15,5.15,0,0,0,3.5-1.2L273,24a3.841,3.841,0,0,1-2.5.9,2.247,2.247,0,0,1-2.5-2.1h6.3v-.7a4.027,4.027,0,0,0-4-4.3m-.1,1.6q1.8,0,2.1,2.1H268a2.2,2.2,0,0,1,2.2-2.1m46.2,2.8V14.6h-1.8V19a3.16,3.16,0,0,0-2.7-1.2,4.211,4.211,0,0,0-4.2,4.4,4.211,4.211,0,0,0,4.2,4.4,3.447,3.447,0,0,0,2.7-1.2v1h1.8Zm2.2,3.5h.2c.1,0,.1.1.2.1a.349.349,0,0,1,.1.2v.4c0,.1-.1.1-.1.2a.349.349,0,0,1-.2.1h-.4c-.1,0-.1-.1-.2-.1a.349.349,0,0,1-.1-.2V26c0-.1.1-.1.1-.2a.349.349,0,0,1,.2-.1h.2m0,.9h.2l.1-.1.1-.1V26a.1.1,0,0,0-.1-.1l-.1-.1h-.4c-.1,0-.1,0-.1.1l-.1.1v.4a.1.1,0,0,0,.1.1l.1.1h.2m0-.6h.1l.1.1v.1h-.1l.2.2h-.1l-.1-.2h0v.2h-.1V26Zm-.1.1v.1h.2v-.1h-.2Zm-8.9-3.9a2.547,2.547,0,0,1,2.6-2.7,2.606,2.606,0,0,1,2.6,2.7,2.6,2.6,0,1,1-5.2,0m-62.2,0V18h-1.8v1a3.16,3.16,0,0,0-2.7-1.2,4.211,4.211,0,0,0-4.2,4.4,4.211,4.211,0,0,0,4.2,4.4,3.447,3.447,0,0,0,2.7-1.2v1h1.8Zm-6.9,0a2.547,2.547,0,0,1,2.6-2.7,2.606,2.606,0,0,1,2.6,2.7,2.6,2.6,0,1,1-5.2,0" fill="#fff"/>
      </g>
    </g>
  </g>
</svg>
