<svg xmlns="http://www.w3.org/2000/svg" width="56" height="56" viewBox="0 0 56 56">
  <g id="huawei" transform="translate(-318 -1037)">
    <rect id="Rectangle_211" data-name="Rectangle 211" width="56" height="56" rx="4" transform="translate(318 1037)"/>
    <g id="Group_40911" data-name="Group 40911" transform="translate(140.998 307.693)">
      <path id="Path_47153" data-name="Path 47153" d="M75.152,46.41H63.307c-5.579,0-7.617,2.04-7.617,7.617V65.872c0,5.577,2.039,7.617,7.617,7.617H75.152c5.577,0,7.621-2.04,7.621-7.617V54.027C82.768,48.45,80.729,46.41,75.152,46.41Z" transform="translate(135.312 696.896)" fill="#c8102e" fill-rule="evenodd"/>
      <g id="Group_40910" data-name="Group 40910" transform="translate(194.028 747.836)">
        <path id="Path_47154" data-name="Path 47154" d="M76.169,127.537h.719v3.54h-.719v-1.438H74.547v1.438H73.83v-3.54h.717v1.428h1.622Zm4.047,2.027c0,.576-.287.883-.806.883s-.809-.315-.809-.908v-2h-.717v2.025a1.4,1.4,0,0,0,1.518,1.566,1.428,1.428,0,0,0,1.531-1.6v-2h-.717Zm8.3.407-.8-2.434h-.587l-.8,2.434-.786-2.432H84.77L86,131.077H86.6l.806-2.324.8,2.324h.6l1.231-3.538H89.3Zm2.816-.417h1.306v-.644H91.332v-.726h1.9v-.644H90.623v3.535h2.669v-.646h-1.96Zm2.821,1.518h.709v-3.535h-.709Zm-11.8-.734-.32.737H81.3l1.56-3.538h.634l1.553,3.538h-.752l-.319-.737Zm.267-.637H83.7l-.546-1.268Z" transform="translate(-73.83 -118.526)" fill="#fff"/>
        <path id="Path_47155" data-name="Path 47155" d="M114.364,78.064a4.5,4.5,0,0,1-4.5-4.5h.637a3.87,3.87,0,1,0,7.74,0h.636a4.5,4.5,0,0,1-4.509,4.5Z" transform="translate(-103.849 -73.56)" fill="#fff"/>
      </g>
    </g>
  </g>
</svg>
