<svg xmlns="http://www.w3.org/2000/svg" width="56" height="56" viewBox="0 0 56 56">
  <g id="apple" transform="translate(-318 -915)">
    <rect id="Rectangle_211" data-name="Rectangle 211" width="56" height="56" rx="4" transform="translate(318 915)"/>
    <g id="apple_1_" data-name="apple (1)" transform="translate(335 930)">
      <g id="Group_2244" data-name="Group 2244" transform="translate(10.748 0)">
        <g id="Group_2243" data-name="Group 2243" transform="translate(0)">
          <path id="Path_2001" data-name="Path 2001" d="M252.842,0a6.127,6.127,0,0,0-3.967,2.147,5.322,5.322,0,0,0-1.3,4.135,5.171,5.171,0,0,0,4-2.045A5.744,5.744,0,0,0,252.842,0Z" transform="translate(-247.542 0)" fill="#fff"/>
        </g>
      </g>
      <g id="Group_2246" data-name="Group 2246" transform="translate(0 6.11)">
        <g id="Group_2245" data-name="Group 2245" transform="translate(0)">
          <path id="Path_2002" data-name="Path 2002" d="M58.882,122.491a6.61,6.61,0,0,0-4.994-2.651c-2.342,0-3.332,1.121-4.959,1.121-1.673,0-2.952-1.118-4.977-1.118a6.772,6.772,0,0,0-5.45,3.294c-1.888,2.927-1.565,8.432,1.5,13.124,1.095,1.673,2.557,3.564,4.47,3.579,1.7.017,2.187-1.091,4.488-1.1s2.743,1.118,4.442,1.1c1.915-.014,3.456-2.1,4.551-3.783a18.811,18.811,0,0,0,1.686-3.165,5.757,5.757,0,0,1-.751-10.4Z" transform="translate(-37.332 -119.84)" fill="#fff"/>
        </g>
      </g>
    </g>
  </g>
</svg>
