<svg width="22" height="22" viewBox="0 0 22 22" fill="none" xmlns="http://www.w3.org/2000/svg">
<g clip-path="url(#clip0_3205_1038)">
<path d="M11 22C17.0751 22 22 17.0751 22 11C22 4.92487 17.0751 0 11 0C4.92487 0 0 4.92487 0 11C0 17.0751 4.92487 22 11 22Z" fill="#ED982D" fill-opacity="0.2"/>
<path fill-rule="evenodd" clip-rule="evenodd" d="M11 2C15.9707 2 20 6.02929 20 11C20 15.9707 15.9707 20 11 20C6.02929 20 2 15.9707 2 11C2 6.02929 6.02929 2 11 2ZM10.5112 6.7874L6.57709 13.7333C6.35967 14.1163 6.62683 14.6001 7.06166 14.6001H14.9284C15.3732 14.6001 15.6403 14.1163 15.4229 13.7333L11.4895 6.7874C11.2721 6.40373 10.7286 6.40373 10.5112 6.7874ZM11.0149 12.5034C11.292 12.5034 11.5087 12.7351 11.5087 13.0271C11.4995 13.2992 11.2721 13.5315 11.005 13.5315C10.7279 13.5315 10.5112 13.2992 10.5112 13.0171C10.5112 12.7351 10.7385 12.5034 11.0149 12.5034ZM11.4597 9.19673C11.4995 9.27702 11.5094 9.36796 11.4995 9.44896C11.4796 9.70048 11.4696 9.95271 11.4597 10.2149C11.4398 10.6078 11.41 11.0107 11.3908 11.4043C11.3808 11.5251 11.3808 11.6459 11.3709 11.7773C11.3609 11.989 11.2025 12.1503 10.995 12.1503C10.7975 12.1503 10.6291 11.989 10.6199 11.788C10.59 11.1727 10.5502 10.5574 10.5204 9.94276L10.4913 9.44896C10.4913 9.20739 10.649 8.97505 10.8764 8.91466C11.1137 8.85427 11.3517 8.97505 11.4597 9.19673Z" fill="#B54708"/>
</g>
<defs>
<clipPath id="clip0_3205_1038">
<rect width="22" height="22" fill="white"/>
</clipPath>
</defs>
</svg>
