<svg xmlns="http://www.w3.org/2000/svg" width="10.42" height="9.946" viewBox="0 0 10.42 9.946">
    <g data-name="Group 40741">
        <g data-name="Group 40740">
            <path data-name="Path 47032" d="M34.914 39.686a.553.553 0 0 1 .463 0l2.38 1.251c.507.267.84.024.743-.54l-.455-2.651a.553.553 0 0 1 .143-.441l1.926-1.877c.41-.4.282-.791-.284-.873l-2.661-.387a.553.553 0 0 1-.375-.272L35.6 31.485c-.254-.514-.665-.513-.918 0L33.5 33.9a.553.553 0 0 1-.375.272l-2.661.387c-.567.082-.694.474-.284.873l1.92 1.875a.553.553 0 0 1 .143.441L31.79 40.4c-.1.565.237.806.743.54z" transform="translate(-29.936 -31.1)" style="fill:#009b27"/>
        </g>
    </g>
</svg>
