<svg width="28" height="28" viewBox="0 0 28 28" fill="none" xmlns="http://www.w3.org/2000/svg">
<path d="M25.1832 13.4129L11.0705 25.2549C10.5118 25.7226 9.79043 25.9496 9.06457 25.8861C8.33872 25.8225 7.66769 25.4737 7.1987 24.9161L1.76655 18.4423C1.29884 17.8836 1.07184 17.1622 1.13535 16.4364C1.19885 15.7105 1.54767 15.0395 2.10529 14.5705L16.218 2.72853C16.7767 2.26082 17.4981 2.03382 18.2239 2.09733C18.9498 2.16083 19.6208 2.50965 20.0898 3.06727L20.6817 3.77269C20.7908 3.9027 20.8438 4.07072 20.829 4.23979C20.8142 4.40886 20.7329 4.56513 20.6029 4.67422C20.4729 4.78331 20.3048 4.83628 20.1358 4.82149C19.9667 4.8067 19.8104 4.72535 19.7013 4.59534L19.1094 3.88992C18.8588 3.59189 18.5002 3.40541 18.1123 3.37137C17.7244 3.33732 17.3388 3.45849 17.0401 3.70831L2.92743 15.5503C2.62953 15.8011 2.44325 16.1597 2.40942 16.5477C2.37558 16.9356 2.49696 17.3211 2.74694 17.6197L8.17858 24.0928C8.42929 24.391 8.78803 24.5775 9.17609 24.6114C9.56414 24.6454 9.94982 24.524 10.2485 24.2739L24.3606 12.4325C24.6585 12.1817 24.8448 11.823 24.8786 11.4351C24.9124 11.0472 24.791 10.6617 24.5411 10.3631L24.3697 10.1588C23.5571 10.7545 22.5484 11.0191 21.5481 10.8989C20.5477 10.7788 19.6304 10.2829 18.982 9.51178C18.8729 9.38178 18.8199 9.21375 18.8347 9.04468C18.8495 8.87562 18.9308 8.71935 19.0608 8.61026C19.1908 8.50117 19.3589 8.44819 19.5279 8.46298C19.697 8.47777 19.8533 8.55913 19.9624 8.68914C20.4209 9.2343 21.077 9.57533 21.7866 9.63742C22.4963 9.6995 23.2016 9.47758 23.7479 9.02032C23.8274 8.95334 23.9031 8.88187 23.9745 8.80626C24.0362 8.73969 24.1114 8.68707 24.1951 8.65194C24.2787 8.6168 24.369 8.59997 24.4597 8.60256C24.5504 8.60514 24.6395 8.6271 24.7211 8.66694C24.8026 8.70679 24.8747 8.76361 24.9325 8.83359L25.5244 9.53901C25.9925 10.0981 26.2194 10.8202 26.1555 11.5465C26.0915 12.2729 25.7418 12.9442 25.1832 13.4129Z" fill="#131010"/>
<path d="M14.3195 9.12765C14.1902 9.23619 14.023 9.2889 13.8548 9.27418C13.6865 9.25947 13.5311 9.17852 13.4225 9.04916L12.1809 7.56942C12.0718 7.43941 12.0188 7.2714 12.0336 7.10233C12.0484 6.93326 12.1297 6.777 12.2597 6.66791C12.3897 6.55882 12.5577 6.50584 12.7268 6.52063C12.8959 6.53543 13.0522 6.61676 13.1613 6.74677L14.4029 8.22651C14.457 8.29097 14.4978 8.36553 14.5229 8.44586C14.548 8.52618 14.5569 8.61068 14.5492 8.69447C14.5414 8.77827 14.5171 8.8597 14.4777 8.93406C14.4383 9.00841 14.3845 9.0742 14.3195 9.12765Z" fill="#131010"/>
<path d="M17.468 12.8777C17.3386 12.9862 17.1714 13.0389 17.0032 13.0242C16.835 13.0095 16.6795 12.9285 16.5709 12.7992L15.3293 11.3194C15.2202 11.1894 15.1672 11.0214 15.182 10.8523C15.1968 10.6833 15.2781 10.527 15.4082 10.4179C15.5382 10.3088 15.7062 10.2558 15.8753 10.2706C16.0443 10.2854 16.2006 10.3668 16.3097 10.4968L17.5513 11.9765C17.6054 12.041 17.6462 12.1155 17.6713 12.1959C17.6964 12.2762 17.7054 12.3607 17.6976 12.4445C17.6899 12.5283 17.6656 12.6097 17.6261 12.6841C17.5867 12.7584 17.533 12.8242 17.468 12.8777Z" fill="#131010"/>
<path d="M20.6164 16.6355C20.4871 16.744 20.3199 16.7967 20.1516 16.782C19.9834 16.7673 19.8279 16.6863 19.7194 16.557L18.4777 15.0772C18.3686 14.9472 18.3157 14.7792 18.3305 14.6102C18.3452 14.4411 18.4266 14.2848 18.5566 14.1757C18.6866 14.0666 18.8546 14.0137 19.0237 14.0285C19.1928 14.0432 19.349 14.1246 19.4581 14.2546L20.6998 15.7343C20.7539 15.7988 20.7946 15.8733 20.8197 15.9537C20.8449 16.034 20.8538 16.1185 20.846 16.2023C20.8383 16.2861 20.814 16.3675 20.7746 16.4419C20.7352 16.5162 20.6814 16.582 20.6164 16.6355Z" fill="#131010"/>
<path d="M9.75261 12.8387L6.11393 15.892C5.44047 16.4571 5.35263 17.4611 5.91773 18.1346L8.23066 20.891C8.79576 21.5645 9.7998 21.6523 10.4733 21.0872L14.1119 18.034C14.7854 17.4689 14.8732 16.4649 14.3081 15.7914L11.9952 13.0349C11.4301 12.3615 10.4261 12.2737 9.75261 12.8387Z" fill="#FA551E"/>
</svg>
