<svg width="65" height="65" viewBox="0 0 65 65" fill="none" xmlns="http://www.w3.org/2000/svg">
<g clip-path="url(#clip0_11275_16223)">
<g filter="url(#filter0_d_11275_16223)">
<path d="M60.1768 28.8867C60.1768 13.4227 47.6407 0.886719 32.1768 0.886719C16.7128 0.886719 4.17676 13.4227 4.17676 28.8867C4.17676 44.3507 16.7128 56.8867 32.1768 56.8867C47.6407 56.8867 60.1768 44.3507 60.1768 28.8867Z" fill="white"/>
<mask id="mask0_11275_16223" style="mask-type:luminance" maskUnits="userSpaceOnUse" x="20" y="16" width="25" height="25">
<path d="M44.1768 16.8867H20.1768V40.8867H44.1768V16.8867Z" fill="white"/>
</mask>
<g mask="url(#mask0_11275_16223)">
<path d="M32.1767 16.8867C25.5497 16.8867 20.1768 22.2597 20.1768 28.8866C20.1768 31.1378 20.8091 33.2366 21.8877 35.037L20.2842 40.8865L26.2588 39.3182C28.0061 40.3116 30.0232 40.8865 32.1767 40.8865C38.8036 40.8865 44.1766 35.5136 44.1766 28.8866C44.1766 22.2597 38.8036 16.8867 32.1767 16.8867ZM28.0693 23.289C28.2643 23.289 28.4646 23.2878 28.6376 23.2968C28.8516 23.3018 29.0846 23.3175 29.3076 23.8105C29.5726 24.3965 30.1496 25.8665 30.2236 26.0155C30.2976 26.1645 30.35 26.3401 30.247 26.5351C30.149 26.7351 30.098 26.8561 29.954 27.0331C29.805 27.2051 29.6418 27.4187 29.5068 27.5487C29.3578 27.6977 29.2039 27.8611 29.3759 28.1581C29.5479 28.4551 30.1453 29.4287 31.0282 30.2147C32.1632 31.2287 33.1209 31.5403 33.4188 31.6893C33.7168 31.8383 33.8894 31.8151 34.0614 31.6151C34.2384 31.4201 34.8048 30.751 35.0048 30.453C35.1998 30.155 35.3988 30.2066 35.6688 30.3046C35.9428 30.4026 37.404 31.1224 37.702 31.2714C38 31.4204 38.1954 31.4941 38.2704 31.6151C38.3474 31.7401 38.3475 32.3352 38.1005 33.0292C37.8535 33.7222 36.6406 34.3923 36.0966 34.4393C35.5476 34.4903 35.0352 34.6861 32.5282 33.6991C29.5043 32.5081 27.5972 29.4108 27.4482 29.2108C27.2992 29.0158 26.2373 27.6005 26.2373 26.1405C26.2373 24.6756 27.0054 23.9581 27.2744 23.6601C27.5484 23.3621 27.8693 23.289 28.0693 23.289Z" fill="#25D366"/>
</g>
<path d="M59.6768 28.8867C59.6768 13.6989 47.3646 1.38672 32.1768 1.38672C16.9889 1.38672 4.67676 13.6989 4.67676 28.8867C4.67676 44.0746 16.9889 56.3867 32.1768 56.3867C47.3646 56.3867 59.6768 44.0746 59.6768 28.8867Z" stroke="#D9D9D9"/>
</g>
</g>
<defs>
<filter id="filter0_d_11275_16223" x="0.176758" y="0.886719" width="64" height="64" filterUnits="userSpaceOnUse" color-interpolation-filters="sRGB">
<feFlood flood-opacity="0" result="BackgroundImageFix"/>
<feColorMatrix in="SourceAlpha" type="matrix" values="0 0 0 0 0 0 0 0 0 0 0 0 0 0 0 0 0 0 127 0" result="hardAlpha"/>
<feOffset dy="4"/>
<feGaussianBlur stdDeviation="2"/>
<feComposite in2="hardAlpha" operator="out"/>
<feColorMatrix type="matrix" values="0 0 0 0 0 0 0 0 0 0 0 0 0 0 0 0 0 0 0.05 0"/>
<feBlend mode="normal" in2="BackgroundImageFix" result="effect1_dropShadow_11275_16223"/>
<feBlend mode="normal" in="SourceGraphic" in2="effect1_dropShadow_11275_16223" result="shape"/>
</filter>
<clipPath id="clip0_11275_16223">
<rect width="65" height="65" fill="white"/>
</clipPath>
</defs>
</svg>
