<svg width="24" height="24" viewBox="0 0 24 24" fill="none" xmlns="http://www.w3.org/2000/svg">
<rect x="0.4" y="0.4" width="23.2" height="23.2" rx="2.8" stroke="#CDD0D9" stroke-width="0.8"/>
<path d="M17.8443 9.31967C17.806 9.30047 17.7642 9.28902 17.7215 9.28598C17.6787 9.28293 17.6357 9.28836 17.5951 9.30193C17.5544 9.31551 17.5168 9.33697 17.4844 9.36509C17.4521 9.39321 17.4256 9.42744 17.4065 9.46582L15.8489 12.5809H7.2002C7.2002 12.5809 7.36323 15.679 8.99411 15.679H14.4201C15.4262 15.679 15.8757 14.4994 16.0684 13.5957C16.0719 13.5893 16.0772 13.5835 16.0807 13.5765L17.9899 9.75753C18.0285 9.68007 18.0348 9.59046 18.0074 9.50837C17.98 9.42627 17.9217 9.35841 17.8443 9.31967Z" fill="#010C1E"/>
<path d="M11.3216 12.0907V12.0703L11.3093 12.0779L11.3018 12.0907H11.3216Z" fill="#010C1E"/>
<path d="M12.0924 7.19922C11.2888 7.19864 10.4977 7.39708 9.78955 7.77681L12.0924 11.64V7.19922Z" fill="#010C1E"/>
<path d="M9.50707 7.94141C8.87284 8.33735 8.33735 8.87284 7.94141 9.50708L11.8174 11.8174L9.50707 7.94141Z" fill="#010C1E"/>
<path d="M7.77779 9.78906C7.39803 10.4972 7.19959 11.2883 7.2002 12.0919H11.641L7.77779 9.78906Z" fill="#010C1E"/>
<path d="M9.53927 15.3138C9.49163 15.3139 9.44448 15.3234 9.40049 15.3417C9.35651 15.36 9.31657 15.3867 9.28294 15.4205C9.24931 15.4542 9.22265 15.4942 9.2045 15.5383C9.18634 15.5823 9.17703 15.6295 9.1771 15.6771C9.17718 15.7248 9.18664 15.7719 9.20494 15.8159C9.22324 15.8599 9.25002 15.8998 9.28376 15.9335C9.3175 15.9671 9.35753 15.9938 9.40157 16.0119C9.44561 16.0301 9.4928 16.0394 9.54043 16.0393C9.63664 16.0391 9.72884 16.0008 9.79676 15.9327C9.86468 15.8645 9.90274 15.7722 9.90259 15.676C9.90244 15.5798 9.86407 15.4876 9.79593 15.4196C9.7278 15.3517 9.63547 15.3137 9.53927 15.3138ZM9.53927 14.9062C9.96431 14.9062 10.3096 15.2515 10.3096 15.676C10.3002 15.8739 10.2149 16.0605 10.0715 16.1972C9.92816 16.3339 9.73766 16.4102 9.53955 16.4102C9.34145 16.4102 9.15096 16.3339 9.00758 16.1972C8.86421 16.0605 8.77896 15.8739 8.76953 15.676C8.76953 15.2515 9.11481 14.9062 9.53927 14.9062Z" fill="#010C1E"/>
<path d="M13.382 15.3138C13.3344 15.3139 13.2872 15.3234 13.2433 15.3417C13.1993 15.36 13.1593 15.3867 13.1257 15.4205C13.0921 15.4542 13.0654 15.4942 13.0473 15.5383C13.0291 15.5823 13.0198 15.6295 13.0199 15.6771C13.02 15.7248 13.0294 15.7719 13.0477 15.8159C13.066 15.8599 13.0928 15.8998 13.1265 15.9335C13.1603 15.9671 13.2003 15.9938 13.2443 16.0119C13.2884 16.0301 13.3356 16.0394 13.3832 16.0393C13.4794 16.0391 13.5716 16.0008 13.6395 15.9327C13.7074 15.8645 13.7455 15.7722 13.7454 15.676C13.7452 15.5798 13.7068 15.4876 13.6387 15.4196C13.5706 15.3517 13.4782 15.3137 13.382 15.3138ZM13.382 14.9062C13.8071 14.9062 14.1524 15.2515 14.1524 15.676C14.1429 15.8739 14.0577 16.0605 13.9143 16.1972C13.7709 16.3339 13.5804 16.4102 13.3823 16.4102C13.1842 16.4102 12.9937 16.3339 12.8504 16.1972C12.707 16.0605 12.6217 15.8739 12.6123 15.676C12.6123 15.2515 12.9576 14.9062 13.382 14.9062Z" fill="#010C1E"/>
</svg>
