<svg width="24" height="24" viewBox="0 0 24 24" fill="none" xmlns="http://www.w3.org/2000/svg">
<path d="M15.7519 6.60156C15.4146 6.84827 15.1053 7.13104 14.8293 7.44484C14.8629 7.31339 14.8531 7.17463 14.8015 7.04917L14.2431 6.82376C14.3335 7.03827 14.3973 7.26303 14.4331 7.49303C13.2146 6.94978 11.8326 6.90161 10.5792 7.3587C9.32578 7.81579 8.29922 8.74232 7.71647 9.94246C7.13371 11.1426 7.04043 12.5223 7.45635 13.79C7.87226 15.0576 8.76477 16.1139 9.94525 16.7355C11.1257 17.3572 12.5016 17.4955 13.7822 17.1212C15.0628 16.7469 16.1476 15.8893 16.8075 14.7298C17.4673 13.5703 17.6505 12.1996 17.3182 10.9075C16.9859 9.61537 16.1643 8.50308 15.0269 7.80571C15.4277 7.5113 15.8825 7.2988 16.3655 7.18035L15.7519 6.60156ZM12.344 7.7179C13.2711 7.71609 14.1758 8.00334 14.9321 8.53967C15.6883 9.07601 16.2586 9.83476 16.5636 10.7103C16.2409 10.8288 15.8977 10.8813 15.5543 10.8645C15.219 10.833 14.8972 10.7165 14.6195 10.5261C14.3417 10.3356 14.1171 10.0775 13.9668 9.77604C13.9384 9.72979 13.8992 9.69115 13.8525 9.66346C13.8058 9.63577 13.7531 9.61987 13.6989 9.61713C13.6447 9.61439 13.5907 9.62489 13.5414 9.64773C13.4922 9.67057 13.4493 9.70505 13.4164 9.7482C13.0656 10.1707 12.6264 10.5112 12.1299 10.7458C11.6333 10.9804 11.0914 11.1033 10.5423 11.106C9.71534 11.1546 8.8874 11.0291 8.11202 10.7376C8.41449 9.85628 8.98473 9.09141 9.74308 8.54991C10.5014 8.00841 11.41 7.71734 12.3418 7.71737L12.344 7.7179ZM13.6739 10.4769C13.8899 10.7692 14.1638 11.0139 14.4784 11.1957C14.7931 11.3775 15.1418 11.4926 15.5029 11.5338C15.9215 11.5602 16.3413 11.5038 16.7381 11.3678C16.7873 11.6381 16.8124 11.9123 16.8131 12.187C16.8131 13.3723 16.3422 14.509 15.5041 15.3472C14.666 16.1853 13.5292 16.6561 12.344 16.6561C11.1587 16.6561 10.0219 16.1853 9.18381 15.3472C8.34569 14.509 7.87483 13.3723 7.87483 12.187C7.87428 11.9229 7.89812 11.6592 7.94604 11.3994C8.79051 11.7062 9.68981 11.8329 10.5862 11.7715C11.7417 11.7443 12.8444 11.2819 13.6739 10.4769ZM10.1139 12.4087C10.1139 12.519 10.1467 12.6269 10.208 12.7186C10.2693 12.8104 10.3564 12.8819 10.4583 12.9241C10.5603 12.9663 10.6725 12.9774 10.7807 12.9559C10.8889 12.9343 10.9883 12.8812 11.0663 12.8032C11.1444 12.7252 11.1975 12.6257 11.219 12.5175C11.2406 12.4093 11.2295 12.2971 11.1873 12.1952C11.1451 12.0932 11.0735 12.0061 10.9818 11.9448C10.8901 11.8835 10.7822 11.8508 10.6718 11.8508C10.5983 11.8499 10.5254 11.8638 10.4573 11.8915C10.3893 11.9192 10.3274 11.9603 10.2754 12.0123C10.2234 12.0642 10.1824 12.1261 10.1547 12.1942C10.1269 12.2622 10.1131 12.3352 10.1139 12.4087ZM13.463 12.4087C13.4625 12.5194 13.495 12.6279 13.5562 12.7202C13.6174 12.8125 13.7045 12.8846 13.8067 12.9274C13.9089 12.9702 14.0214 12.9817 14.1302 12.9605C14.2389 12.9393 14.3389 12.8864 14.4175 12.8083C14.4961 12.7303 14.5498 12.6307 14.5719 12.5222C14.5939 12.4136 14.5832 12.301 14.5412 12.1985C14.4992 12.096 14.4278 12.0082 14.3359 11.9464C14.2441 11.8845 14.1359 11.8512 14.0252 11.8508C13.8767 11.8505 13.7342 11.909 13.6288 12.0136C13.5235 12.1182 13.4638 12.2602 13.463 12.4087ZM10.8619 13.7504C10.7795 13.7603 10.7034 13.7999 10.648 13.8618C10.5927 13.9237 10.5617 14.0036 10.561 14.0867C10.5708 14.2725 10.6204 14.454 10.7064 14.6189C10.7924 14.7839 10.9128 14.9285 11.0595 15.0429C11.4119 15.3639 11.8713 15.5417 12.348 15.5417C12.8246 15.5417 13.2841 15.3639 13.6364 15.0429C13.7823 14.9282 13.9022 14.7838 13.9882 14.6193C14.0742 14.4549 14.1244 14.2741 14.1354 14.0888C14.1321 14.0007 14.0956 13.9171 14.0333 13.8547C13.9709 13.7924 13.8873 13.7559 13.7992 13.7526H10.8619V13.7504ZM11.4161 14.4197H13.2804C13.1642 14.555 13.0211 14.6646 12.8603 14.7415C12.6994 14.8185 12.5243 14.8612 12.3461 14.8668C12.1677 14.8646 11.9919 14.8234 11.8311 14.7462C11.6703 14.669 11.5283 14.5576 11.415 14.4197H11.4161Z" fill="#010C1E"/>
<path d="M16.1147 5.98828L16.7857 6.37565L9.81485 18.4495L9.1439 18.0621L16.1147 5.98828Z" fill="#010C1E"/>
<path d="M15.4438 5.60156L16.1148 5.98894L9.14395 18.0628L8.473 17.6754L15.4438 5.60156Z" fill="#F3F7FF"/>
<rect x="0.4" y="0.4" width="23.2" height="23.2" rx="2.8" stroke="#CDD0D9" stroke-width="0.8"/>
</svg>
