<svg width="24" height="24" viewBox="0 0 24 24" fill="none" xmlns="http://www.w3.org/2000/svg">
<rect width="24" height="24" rx="3.2" fill="#CDD1D5"/>
<path d="M16.436 8.17998C16.196 7.94 15.8069 7.94001 15.567 8.17998L12.308 11.4389L9.04904 8.17999C8.80907 7.94001 8.41998 7.94001 8.17999 8.17999C7.94 8.41999 7.94001 8.80907 8.17999 9.04906L11.4389 12.308L8.18 15.5669C7.94002 15.8069 7.94001 16.196 8.18 16.436C8.41999 16.676 8.80907 16.676 9.04905 16.436L12.308 13.177L15.5669 16.436C15.8069 16.676 16.196 16.676 16.436 16.436C16.676 16.196 16.676 15.8069 16.436 15.5669L13.177 12.308L16.436 9.04904C16.676 8.80905 16.676 8.41998 16.436 8.17998Z" fill="white"/>
</svg>
