<svg width="24" height="24" viewBox="0 0 24 24" fill="none" xmlns="http://www.w3.org/2000/svg">
<rect x="0.4" y="0.4" width="23.2" height="23.2" rx="2.8" stroke="#CDD0D9" stroke-width="0.8"/>
<path d="M12.4002 6.39844C9.53277 6.39844 7.2002 8.73101 7.2002 11.5984C7.2002 14.4659 9.53277 16.7984 12.4002 16.7984C15.2676 16.7984 17.6002 14.4659 17.6002 11.5984C17.6002 8.73101 15.2676 6.39844 12.4002 6.39844ZM8.09162 11.5984C8.09162 9.22248 10.0242 7.28987 12.4002 7.28987C13.4277 7.28987 14.372 7.65238 15.1131 8.25499L9.05674 14.3114C8.45414 13.5703 8.09162 12.626 8.09162 11.5984ZM12.4002 15.907C11.3727 15.907 10.4284 15.5445 9.68728 14.9419L15.7436 8.88552C16.3463 9.6266 16.7088 10.5709 16.7088 11.5984C16.7088 13.9744 14.7761 15.907 12.4002 15.907Z" fill="#010C1E"/>
</svg>
