<svg width="8" height="20" viewBox="0 0 8 20" fill="none" xmlns="http://www.w3.org/2000/svg">
<path d="M2 19V13H1C0.716667 13 0.479333 12.904 0.288 12.712C0.0966668 12.52 0.000666667 12.2827 0 12V7.00001C0 6.45001 0.196 5.97934 0.588 5.58801C0.98 5.19667 1.45067 5.00067 2 5.00001H6C6.55 5.00001 7.021 5.19601 7.413 5.58801C7.805 5.98001 8.00067 6.45067 8 7.00001V12C8 12.2833 7.904 12.521 7.712 12.713C7.52 12.905 7.28267 13.0007 7 13H6V19C6 19.2833 5.904 19.521 5.712 19.713C5.52 19.905 5.28267 20.0007 5 20H3C2.71667 20 2.47933 19.904 2.288 19.712C2.09667 19.52 2.00067 19.2827 2 19ZM4 4.00001C3.45 4.00001 2.97933 3.80434 2.588 3.41301C2.19667 3.02167 2.00067 2.55067 2 2.00001C1.99933 1.44934 2.19533 0.978673 2.588 0.588007C2.98067 0.19734 3.45133 0.00134009 4 6.75675e-06C4.54867 -0.00132658 5.01967 0.194673 5.413 0.588007C5.80633 0.98134 6.002 1.45201 6 2.00001C5.998 2.54801 5.80233 3.01901 5.413 3.41301C5.02367 3.80701 4.55267 4.00267 4 4.00001Z" fill="#172C4B"/>
</svg>
