<svg width="17" height="20" viewBox="0 0 17 20" fill="none" xmlns="http://www.w3.org/2000/svg">
<path d="M3.5 4.00001C2.95 4.00001 2.47933 3.80434 2.088 3.41301C1.69667 3.02167 1.50067 2.55067 1.5 2.00001C1.49933 1.44934 1.69533 0.978673 2.088 0.588007C2.48067 0.19734 2.95133 0.00134009 3.5 6.75675e-06C4.04867 -0.00132658 4.51967 0.194673 4.913 0.588007C5.30633 0.98134 5.502 1.45201 5.5 2.00001C5.498 2.54801 5.30233 3.01901 4.913 3.41301C4.52367 3.80701 4.05267 4.00267 3.5 4.00001ZM14 9.00001C13.5833 9.00001 13.2293 8.85434 12.938 8.56301C12.6467 8.27167 12.5007 7.91734 12.5 7.50001C12.4993 7.08267 12.6453 6.72867 12.938 6.43801C13.2307 6.14734 13.5847 6.00134 14 6.00001C14.4153 5.99867 14.7697 6.14467 15.063 6.43801C15.3563 6.73134 15.502 7.08534 15.5 7.50001C15.498 7.91467 15.3523 8.26901 15.063 8.56301C14.7737 8.85701 14.4193 9.00267 14 9.00001ZM1.5 19V13H1C0.716667 13 0.479333 12.904 0.288 12.712C0.0966668 12.52 0.000666667 12.2827 0 12V7.00001C0 6.45001 0.196 5.97934 0.588 5.58801C0.98 5.19667 1.45067 5.00067 2 5.00001H5C5.36667 5.00001 5.7 5.08767 6 5.26301C6.3 5.43834 6.54167 5.68401 6.725 6.00001L10.3 12.175L11.325 10.65C11.4583 10.45 11.6377 10.2917 11.863 10.175C12.0883 10.0583 12.3257 10 12.575 10H15.5C15.9167 10 16.271 10.146 16.563 10.438C16.855 10.73 17.0007 11.084 17 11.5V14C17 14.2667 16.879 14.4543 16.637 14.563C16.395 14.6717 16.1827 14.8173 16 15V19C16 19.2833 15.904 19.521 15.712 19.713C15.52 19.905 15.2827 20.0007 15 20H13C12.7167 20 12.4793 19.904 12.288 19.712C12.0967 19.52 12.0007 19.2827 12 19V12.9L11.5 13.6C11.4167 13.7333 11.3043 13.8333 11.163 13.9C11.0217 13.9667 10.8757 14 10.725 14H9.575C9.39167 14 9.229 13.9583 9.087 13.875C8.945 13.7917 8.83267 13.675 8.75 13.525L6.5 9.60001V19C6.5 19.2833 6.404 19.521 6.212 19.713C6.02 19.905 5.78267 20.0007 5.5 20H2.5C2.21667 20 1.97933 19.904 1.788 19.712C1.59667 19.52 1.50067 19.2827 1.5 19Z" fill="#172C4B"/>
</svg>
