<svg width="38" height="41" viewBox="0 0 38 41" fill="none" xmlns="http://www.w3.org/2000/svg">
<path d="M12.6936 28.7492H24.5464C31.5539 28.7492 37.24 23.0635 37.24 16.0563C37.24 9.0492 31.5139 3.36342 24.5464 3.36342H20.3018V0H16.9382V3.36342H12.6936C5.68611 3.36342 0 9.0492 0 16.0563C0 23.0635 5.72615 28.7492 12.6936 28.7492ZM12.6936 6.76688H24.5464C29.6719 6.76688 33.8363 10.9311 33.8363 16.0563C33.8363 21.1815 29.6719 25.3458 24.5464 25.3458H12.6936C7.56813 25.3458 3.40366 21.1815 3.40366 16.0563C3.40366 10.9311 7.56813 6.76688 12.6936 6.76688Z" fill="#45566F"/>
<path d="M12.7415 15.1975C14.1347 15.1975 15.2642 14.0681 15.2642 12.6749C15.2642 11.2817 14.1347 10.1523 12.7415 10.1523C11.3482 10.1523 10.2188 11.2817 10.2188 12.6749C10.2188 14.0681 11.3482 15.1975 12.7415 15.1975Z" fill="#45566F"/>
<path d="M24.554 15.1975C25.9472 15.1975 27.0767 14.0681 27.0767 12.6749C27.0767 11.2817 25.9472 10.1523 24.554 10.1523C23.1607 10.1523 22.0312 11.2817 22.0312 12.6749C22.0312 14.0681 23.1607 15.1975 24.554 15.1975Z" fill="#45566F"/>
<path d="M20.6942 18.5859H16.6355C15.8876 18.5859 15.2812 19.1923 15.2812 19.9402V20.5951C15.2812 21.343 15.8876 21.9494 16.6355 21.9494H20.6942C21.4422 21.9494 22.0485 21.343 22.0485 20.5951V19.9402C22.0485 19.1923 21.4422 18.5859 20.6942 18.5859Z" fill="#45566F"/>
<path d="M25.4105 33.1367H11.876C7.67149 33.1367 3.74728 35.419 1.625 39.0627L4.54814 40.7445C6.06977 38.1418 8.87278 36.5001 11.876 36.5001H25.4105C28.4137 36.5001 31.2168 38.1018 32.7384 40.7445L35.6615 39.0627C33.5392 35.419 29.615 33.1367 25.4105 33.1367Z" fill="#45566F"/>
</svg>
