<svg width="20" height="20" viewBox="0 0 20 20" fill="none" xmlns="http://www.w3.org/2000/svg">
<path d="M4.5 13.5H15.5V14.25C15.5 14.4667 15.571 14.646 15.713 14.788C15.855 14.93 16.034 15.0007 16.25 15C16.466 14.9993 16.6453 14.9283 16.788 14.787C16.9307 14.6457 17.0013 14.4667 17 14.25V11.15C17 10.8 16.9333 10.471 16.8 10.163C16.6667 9.855 16.4833 9.584 16.25 9.35V7C16.25 6.45 16.0543 5.97933 15.663 5.588C15.2717 5.19667 14.8007 5.00067 14.25 5H11C10.8167 5 10.6417 5.025 10.475 5.075C10.3083 5.125 10.15 5.2 10 5.3C9.85 5.2 9.69167 5.125 9.525 5.075C9.35833 5.025 9.18333 5 9 5H5.75C5.2 5 4.72933 5.196 4.338 5.588C3.94667 5.98 3.75067 6.45067 3.75 7V9.35C3.51667 9.58333 3.33333 9.85433 3.2 10.163C3.06667 10.4717 3 10.8007 3 11.15V14.25C3 14.4667 3.071 14.646 3.213 14.788C3.355 14.93 3.534 15.0007 3.75 15C3.966 14.9993 4.14533 14.9283 4.288 14.787C4.43067 14.6457 4.50133 14.4667 4.5 14.25V13.5ZM4.5 12V11C4.5 10.7167 4.596 10.4793 4.788 10.288C4.98 10.0967 5.21733 10.0007 5.5 10H14.5C14.7833 10 15.021 10.096 15.213 10.288C15.405 10.48 15.5007 10.7173 15.5 11V12H4.5ZM5.25 8.5V6.5H9.25V8.5H5.25ZM10.75 8.5V6.5H14.75V8.5H10.75ZM2 20C1.45 20 0.979333 19.8043 0.588 19.413C0.196667 19.0217 0.000666667 18.5507 0 18V2C0 1.45 0.196 0.979333 0.588 0.588C0.98 0.196667 1.45067 0.000666667 2 0H18C18.55 0 19.021 0.196 19.413 0.588C19.805 0.98 20.0007 1.45067 20 2V18C20 18.55 19.8043 19.021 19.413 19.413C19.0217 19.805 18.5507 20.0007 18 20H2ZM2 18H18V2H2V18Z" fill="#172C4B"/>
</svg>
