<svg width="25" height="22" viewBox="0 0 25 22" fill="none" xmlns="http://www.w3.org/2000/svg">
<path d="M16.5847 12.0121C16.5237 11.7589 16.365 11.5287 16.1324 11.3562C15.9125 11.193 15.6277 11.1023 15.3321 11.1016H9.30328C9.00769 11.1023 8.72285 11.193 8.50302 11.3563C8.27043 11.5287 8.11167 11.7589 8.05064 12.0122L7.71999 13.3097C7.63282 13.6565 7.72282 14.0176 7.96865 14.3077C8.1967 14.5817 8.57023 14.7484 8.97258 14.7559H15.6628C16.0651 14.7484 16.4386 14.5817 16.6667 14.3077C16.9125 14.0176 17.0025 13.6565 16.9154 13.3097L16.5847 12.0121ZM15.9988 13.8224C15.9229 13.9142 15.7974 13.9698 15.6628 13.9711L8.9726 13.971C8.83847 13.9685 8.71389 13.9128 8.63806 13.8213C8.55753 13.7258 8.52743 13.6075 8.55465 13.4933L8.88532 12.1958C8.91926 12.0251 9.09414 11.8979 9.30333 11.8918H15.3295C15.5387 11.8979 15.7136 12.0251 15.7475 12.1958L16.0782 13.4933C16.1063 13.6073 16.0767 13.7259 15.9962 13.8213L15.9988 13.8224Z" fill="#ffffff" stroke="#ffffff" stroke-width="0.341902"/>
<path d="M2.40371 10.576L4.14701 8.6435C9.56185 9.24435 15.0264 9.24435 20.4413 8.6435L21.6528 9.84846C21.8674 10.0608 22.046 10.3065 22.1819 10.576H18.9281V12.2875H22.4861V20.895H24.1884V11.8471C24.1852 10.6427 23.7054 9.48863 22.8539 8.63693L22.2229 8.00994H24.1488V6.29835H21.1859L20.26 3.40036L20.2388 3.34083C19.7008 1.987 18.389 1.10026 16.9321 1.10549H7.63097C6.17422 1.1007 4.86274 1.98727 4.32429 3.34086L3.38242 6.29839H0.918293V8.00995H2.36395L1.73307 8.63693C0.881551 9.48867 0.401746 10.6428 0.398491 11.8471L0.398438 20.895H2.09953V12.2875H5.65759V10.576C2.536 10.3114 2.18155 10.789 2.40109 10.576L2.40371 10.576ZM5.93794 3.95056C6.22433 3.26105 6.89886 2.81273 7.64554 2.81568L16.9467 2.81569C17.6932 2.81308 18.3676 3.26125 18.6544 3.95056L19.6264 7.01263C14.7525 7.50755 9.84093 7.50755 4.96705 7.0126L5.93917 3.95056H5.93794Z" fill="#ffffff" stroke="white" stroke-width="0.4"/>
<path d="M1.38281 17.5586H23.2411" stroke="#ffffff" stroke-width="1.57275"/>
</svg>
