<svg width="18" height="15" viewBox="0 0 18 15" fill="none" xmlns="http://www.w3.org/2000/svg">
<path d="M12.2482 8.24718C12.202 8.05557 12.0819 7.88145 11.9059 7.75091C11.7396 7.62737 11.5241 7.55877 11.3004 7.55823H6.73889C6.51524 7.55881 6.29973 7.62741 6.13339 7.75095C5.95741 7.88145 5.83729 8.05557 5.79112 8.24722L5.54094 9.22893C5.47499 9.49132 5.54308 9.76453 5.72908 9.98404C5.90163 10.1914 6.18425 10.3175 6.48867 10.3232H11.5506C11.855 10.3175 12.1376 10.1914 12.3102 9.98406C12.4962 9.76453 12.5643 9.49132 12.4984 9.22893L12.2482 8.24718ZM11.8049 9.61687C11.7474 9.68636 11.6525 9.72837 11.5507 9.72934L6.48869 9.7293C6.3872 9.72744 6.29294 9.68525 6.23557 9.61602C6.17464 9.54379 6.15187 9.45423 6.17246 9.36789L6.42266 8.38614C6.44834 8.25701 6.58065 8.16077 6.73893 8.15617H11.2985C11.4567 8.16077 11.5891 8.25701 11.6147 8.38614L11.8649 9.36789C11.8862 9.45415 11.8638 9.54383 11.8029 9.61602L11.8049 9.61687Z" fill="white" stroke="white" stroke-width="0.25869"/>
<path d="M1.51723 7.16558L2.83625 5.70343C6.93323 6.15805 11.0678 6.15805 15.1648 5.70343L16.0815 6.61513C16.2438 6.7758 16.379 6.96166 16.4818 7.16557H14.0199V8.46058H16.712V14.9731H18V8.12733C17.9975 7.21609 17.6345 6.34287 16.9902 5.69845L16.5129 5.22406H17.97V3.92904H15.7282L15.0277 1.73636L15.0117 1.69132C14.6045 0.666986 13.6121 -0.00393954 12.5097 1.74083e-05H5.47228C4.37007 -0.00360643 3.37778 0.667188 2.97038 1.69134L2.25774 3.92907H0.393333V5.22407H1.48715L1.00981 5.69845C0.365534 6.3429 0.00250338 7.21611 4.03771e-05 8.12736L0 14.9731H1.28708V8.46059H3.97918V7.16558C1.61732 6.96543 1.34914 7.32673 1.51525 7.16561L1.51723 7.16558ZM4.1913 2.15265C4.40799 1.63096 4.91835 1.29175 5.48331 1.29398L12.5208 1.29399C13.0856 1.29201 13.5958 1.63111 13.8128 2.15265L14.5483 4.46948C10.8606 4.84394 7.14438 4.84394 3.4567 4.46946L4.19223 2.15265H4.1913Z" fill="white"/>
<path d="M0.746826 12.4471H17.2853" stroke="white" stroke-width="1.18997"/>
</svg>
