<svg width="33" height="41" viewBox="0 0 33 41" fill="none" xmlns="http://www.w3.org/2000/svg">
<path d="M30.6739 9.89988L22.4001 1.62611C21.3497 0.577049 19.9541 0 18.4713 0H5.55359C2.491 0 0 2.49236 0 5.55495V35.14C0 38.2026 2.491 40.6949 5.55359 40.6949H26.745C29.8076 40.6949 32.3 38.2026 32.3 35.14V13.8274C32.3 12.3663 31.7079 10.9339 30.6739 9.89988ZM29.8431 35.1386C29.8431 36.8479 28.453 38.2367 26.745 38.2367H5.55359C3.84563 38.2367 2.45553 36.8466 2.45553 35.1386V5.55495C2.45689 3.84563 3.84699 2.45553 5.55359 2.45553H18.4699C19.298 2.45553 20.0769 2.77611 20.6608 3.36271L28.9346 11.6365C29.5116 12.2135 29.8417 13.0116 29.8417 13.826L29.8431 35.1386Z" fill="#45566F"/>
<path d="M21.5113 16.9258H10.606C8.88031 16.9258 7.47656 18.3295 7.47656 20.0539V30.7477C7.47656 32.472 8.88031 33.8758 10.606 33.8758H21.5113C23.2356 33.8758 24.6393 32.472 24.6393 30.7477V20.0539C24.6393 18.3295 23.2356 16.9258 21.5113 16.9258ZM22.1825 20.0539V24.1723H17.2864V19.3827H21.5113C21.8823 19.3827 22.1825 19.6828 22.1825 20.0539ZM9.93346 30.7477V20.0539C9.93346 19.6842 10.2349 19.3827 10.606 19.3827H14.8309V31.4189H10.606C10.2349 31.4189 9.93346 31.1174 9.93346 30.7477ZM21.5113 31.4189H17.2864V26.6279H22.1825V30.7477C22.1825 31.1174 21.8823 31.4189 21.5113 31.4189Z" fill="#45566F"/>
</svg>
