<svg width="18" height="18" viewBox="0 0 18 18" fill="none" xmlns="http://www.w3.org/2000/svg">
<path d="M9.60886 5.00501L2.44819 3.4978L1.54402 4.37278L7.55078 6.9961L9.60886 5.00501ZM17.7139 0.364333C18.505 1.21235 17.4805 3.74776 16.7542 4.45011L13.6141 7.4883L14.8711 15.8182C14.8983 16.0015 14.8262 16.1768 14.6962 16.2876L13.0722 17.8589C12.8713 18.0534 12.5532 18.0454 12.362 17.8406C12.3129 17.7883 12.2772 17.728 12.2543 17.6643L9.87523 11.1055L6.66941 14.2073L6.87281 15.8235C6.89353 15.9911 6.8322 16.1499 6.72087 16.258L5.33467 17.6001C5.06673 17.8599 4.62877 17.7432 4.51273 17.3938L3.42858 14.1628L0.315117 12.8945C-0.0315109 12.7532 -0.10696 12.293 0.162895 12.0421L1.54222 10.7074C1.66973 10.5838 1.84459 10.542 2.00386 10.58L3.55139 10.8651L6.75766 7.76277L0.447835 5.00736C0.119426 4.86537 0.034446 4.4216 0.298405 4.16593L1.94582 2.57172C2.06082 2.46119 2.22554 2.40682 2.39229 2.44157L10.4946 4.14678L13.5624 1.17852C14.3219 0.444035 16.8665 -0.544079 17.7139 0.364333ZM16.0617 3.70884C16.4245 3.35792 17.2643 1.36799 16.986 1.06949C16.6835 0.745077 14.6864 1.50219 14.3128 1.86479C10.8951 5.17122 7.4774 8.47812 4.05895 11.7844C3.94719 11.8924 3.78806 11.9469 3.62468 11.9171L2.05024 11.6273L1.41579 12.2412L3.99925 13.2937C4.13851 13.3446 4.25455 13.4572 4.30559 13.6112L5.21045 16.3091L5.84476 15.6953L5.64459 14.1059C5.61577 13.942 5.66577 13.7674 5.79268 13.6441C9.21558 10.3326 12.6387 7.02087 16.0617 3.70884ZM13.8362 15.7085L12.7253 8.34829L10.6687 10.3378L12.9332 16.5819L13.8362 15.7085Z" fill="#45566F"/>
</svg>
