<svg width="109" height="51" viewBox="0 0 109 51" fill="none" xmlns="http://www.w3.org/2000/svg">
<g clip-path="url(#clip0_10162_9774)">
<path d="M108.572 24.5433C108.206 24.1432 107.694 24.0241 107.184 24.1828C106.087 24.5433 105.431 26.0627 104.918 27.3425C104.808 27.6219 104.699 27.9426 104.589 28.1824C104.443 28.3031 104.261 28.5428 103.969 28.9033C102.69 30.4624 99.7317 34.143 98.4165 34.143C98.1976 34.143 98.0513 34.0636 97.9786 33.9032C97.5772 33.103 98.9288 30.3037 100.39 27.903C100.499 27.7426 100.609 27.5822 100.72 27.4235C101.304 26.5836 101.815 25.8644 100.903 24.7036C100.573 24.2638 100.062 24.0241 99.6609 23.9844H99.6245C99.2957 23.9844 99.0405 24.1051 98.8216 24.3448C98.6027 24.5846 98.4564 25.145 98.3456 25.5452C98.3456 25.6246 98.3093 25.7056 98.3093 25.785C97.9078 26.7456 95.7532 31.2247 95.7532 31.2247C95.2055 32.5441 94.3281 34.5448 94.7677 35.9435C95.1328 37.0232 95.7896 37.7028 97.1048 37.7028C98.8216 37.7028 100.319 36.3833 101.306 35.2226C101.378 35.1432 101.452 35.0622 101.525 35.0225C99.2957 39.9829 98.8579 41.542 97.2147 46.8213C96.8859 47.4612 96.7033 48.0217 96.6307 48.5822C96.5943 49.1824 96.7406 49.7016 97.0322 50.062C97.3619 50.4225 97.7997 50.6225 98.3474 50.6225C99.7354 50.6225 100.174 49.2634 100.358 48.1821C100.429 47.7026 100.466 47.2231 100.54 46.7022C100.576 46.2228 100.613 45.7417 100.686 45.3019C101.161 43.3822 103.644 35.7832 105.946 30.9833C106.056 30.8625 107.991 27.9443 108.1 27.8236C108.465 27.3044 108.831 26.7439 108.978 26.1438C109.082 25.5419 108.935 24.9434 108.572 24.5433Z" fill="white"/>
<path d="M40.8951 35.6248C38.6664 37.7842 37.0961 36.7856 37.0599 34.3054C37.0236 32.5859 37.7907 29.785 38.9594 27.2652C39.3248 26.4252 39.6162 25.7457 39.654 25.3853C39.8366 24.7454 38.8869 23.545 38.4127 23.345C37.2078 22.7844 36.4408 24.3055 35.71 25.7854C35.71 25.7854 35.1981 26.9461 34.9791 27.4653C32.0212 34.5849 29.1719 36.344 28.4411 35.9042C28.0757 35.7042 28.2946 33.1844 30.3406 27.9448C30.4508 27.6653 30.5233 27.3842 30.6335 27.1444C31.0714 26.0648 31.4368 25.1835 30.6335 23.7847C30.1217 22.9449 29.6838 22.5843 29.2822 22.624C28.6253 22.6637 28.1134 24.0245 27.8205 24.8644C26.981 27.3446 26.5793 28.7037 25.9572 31.3838C25.4831 33.3035 25.154 35.4231 25.4091 36.6632C25.8108 38.7828 27.5638 39.1037 28.5498 39.0226C30.3029 39.0226 32.897 36.8632 34.1758 34.8229C34.1758 35.3835 34.2121 35.9026 34.3223 36.4234C34.6153 37.8636 35.6738 38.9035 36.9527 39.064C38.523 39.2244 39.3263 38.9035 40.1674 38.1446C41.4432 36.9459 42.1 34.4261 40.8951 35.6248Z" fill="white"/>
<path d="M62.5761 23.6243C62.5761 23.6243 58.9598 24.1848 57.3533 24.1848C57.0603 24.1848 56.8776 23.8641 56.9516 23.545C57.243 22.7447 57.6084 21.9444 57.9738 21.1855C58.4117 20.2663 58.8874 19.3056 59.1788 18.2259C59.3253 17.7068 59.6529 16.6667 59.1063 15.6665C58.8874 15.3456 58.5944 15.1059 58.1928 15.0265C57.4619 14.9058 56.8413 15.2663 56.2933 16.1459C55.5624 17.3463 55.1608 18.6657 54.6867 20.7061C54.3213 22.3463 53.9558 23.8657 53.4817 24.785C53.299 25.1058 53.0801 25.1455 52.7509 25.2249C52.4218 25.2645 52.0563 25.3455 51.6547 25.7043C51.0341 26.2648 50.9602 26.9047 50.9602 27.4652C50.9602 28.0241 51.1066 28.5052 51.3255 29.145C51.398 29.3848 51.5082 29.5452 51.5445 29.7453C51.7996 30.2644 51.9824 30.5058 51.7272 31.225C51.472 31.9046 51.2892 32.1857 51.0341 32.9049C50.8152 33.5845 50.5962 34.1053 50.4135 34.8246C50.1946 35.7851 50.1206 37.5444 50.7789 38.5051C51.0719 38.9449 51.5459 39.1449 52.0941 39.1449C53.5179 39.1449 53.9936 36.7442 54.2488 35.4644V35.4247C54.4677 34.1847 54.5417 33.3447 54.6142 32.0253C54.6867 30.8646 54.9071 28.8259 56.2208 28.1464C59.7268 26.3458 62.028 25.787 63.014 25.1058C63.7086 24.6643 63.3432 23.545 62.5761 23.6243Z" fill="white"/>
<path d="M22.9426 36.3438C21.7376 36.6232 21.0068 36.7043 20.4587 36.5836C19.9468 36.4628 19.509 36.0643 19.2538 35.7039C18.2315 33.9844 19.4365 29.8641 19.9484 28.5446C20.0208 28.3446 20.131 28.1048 20.2413 27.8238C20.7531 26.6234 21.4824 24.9435 20.8619 24.0242C20.5327 23.5051 20.1673 23.2637 19.8396 23.224C19.145 23.1032 18.159 24.2243 18.159 24.2243C17.0629 25.304 15.7114 27.2632 14.6167 28.8637C13.8135 29.9831 12.9361 31.2629 12.681 31.4232C12.6085 31.1025 12.9 29.7433 13.1189 28.7431C13.2653 27.9824 13.5205 26.544 13.5205 26.544C13.6307 26.0645 13.9584 24.5434 13.3015 23.8639C13.0448 23.6241 12.7535 23.5034 12.388 23.5431C10.8539 23.6224 8.69925 26.3836 7.16515 28.3827C6.50832 29.2226 5.81375 30.1021 5.59481 30.1832H5.48458C5.33812 30.0228 5.77751 28.7828 6.10517 27.8635C6.61703 26.4233 7.20139 24.7434 6.98245 23.9035C6.65328 22.8635 6.03269 22.7031 5.66728 22.7031C4.79 22.7428 3.84025 23.6224 3.54883 24.7037C3.32989 25.423 3.18343 26.1439 3.03696 26.8234C2.89049 27.5444 2.45261 29.9434 0.370394 35.7436C0.370394 35.7436 -0.250194 37.6235 0.115213 38.3841C0.261677 38.7049 0.553097 38.9033 0.918506 39.024C2.26991 39.3844 3.91273 37.0234 5.08293 35.2641C5.19316 35.1038 5.33812 34.9037 5.44834 34.745C5.66728 34.4242 5.88623 34.0654 6.14291 33.7446C7.0202 32.4649 7.9322 31.1454 8.95595 30.0245C9.72298 29.1845 9.83325 29.2639 9.94198 29.3846C10.0884 29.545 9.75922 30.7437 9.54031 31.6646C9.02842 33.6239 8.3716 36.0247 9.13865 36.9837C9.43159 37.3441 9.86949 37.4632 10.4901 37.3838C12.4983 36.9837 15.8956 31.744 15.9697 31.625C15.8232 33.1047 15.7144 35.904 17.0296 37.6252C17.1761 37.8252 17.3225 37.9857 17.5038 38.1443C17.9779 38.5445 18.5637 38.824 19.2205 38.9446C19.3308 38.9446 19.4395 38.9843 19.5497 38.9843C20.3168 39.0637 21.1201 38.8636 21.8509 38.4652C23.4544 37.5839 24.5869 35.904 22.9426 36.3438Z" fill="white"/>
<path d="M50.3939 15.066C50.1387 14.7056 49.6993 14.5469 49.1527 14.5469C47.4722 14.5865 47.1445 16.0266 47.0343 17.1063C46.8154 19.3054 46.231 20.9058 45.5727 22.9858C45.3537 23.7465 43.2353 29.9054 42.8698 33.1048C42.7597 34.1051 42.8336 35.3452 43.0888 35.985C43.6732 37.6649 44.6229 38.9843 45.6089 39.024C45.9381 39.0637 46.1208 38.9843 46.2657 38.8239C46.5224 38.5032 46.3759 37.9047 46.1933 37.1043C45.9743 36.1438 45.6814 34.7846 45.9366 33.3445C46.302 31.1455 46.8138 29.1845 47.6172 26.7457C47.9463 25.7851 48.3117 24.8658 48.6394 23.9052C50.3924 18.8655 50.4286 18.2257 50.4664 18.0256C50.7231 16.7045 51.0885 15.9456 50.3939 15.066Z" fill="white"/>
<path d="M83.0766 21.8237C80.922 21.9444 78.6933 23.7432 77.6348 25.4628C77.4883 24.7833 77.1607 24.3021 76.7213 24.1037C76.2094 23.9036 75.625 24.1434 75.1147 24.7436C73.9097 26.3027 73.3616 28.7432 72.8498 30.9025L71.9 34.5417C71.9 34.5417 70.5849 40.3418 68.5388 46.82C68.2459 47.6996 67.6994 48.3791 67.8443 49.1397C68.0632 50.059 68.7578 50.6195 69.6714 50.6195C71.2779 50.6195 71.4606 48.9794 71.6071 47.7789C71.7535 46.6596 72.1552 44.74 72.4103 43.8587C74.4201 36.9391 75.1857 34.6988 75.1857 34.6988C76.3181 31.2994 77.742 27.06 80.774 25.2197C81.6135 24.7006 82.4545 24.5799 83.0389 24.9403C83.587 25.2611 83.9162 25.9804 83.9887 27.06C84.1351 28.6605 82.8199 31.6995 81.1032 33.7795C80.0794 35.0196 79.4588 35.4991 78.7295 35.4991C78.4728 35.4991 78.4366 35.4197 78.4003 35.1386C78.3263 34.8178 78.2538 34.378 77.6333 34.2987C76.7197 34.178 75.8803 35.3783 75.6975 36.0579C75.5148 36.8185 75.5873 37.4583 75.9165 37.9378C76.5371 38.7778 77.7435 38.8571 78.2176 38.8571C80.9204 38.8571 84.0249 36.177 85.9244 32.3774C86.8742 30.4975 88.1531 26.8186 86.2536 23.5382C85.5242 22.3429 84.3918 21.7426 83.0766 21.8237Z" fill="white"/>
<path d="M69.6863 35.1852C68.8468 36.0251 64.865 38.0257 65.1203 34.0261C65.1565 33.1862 65.5218 32.3859 65.851 31.6254C66.5456 29.9455 67.349 28.3053 68.116 26.6652C68.2987 26.2651 68.5176 25.8648 68.664 25.4647C68.8468 24.9456 68.7365 24.4248 68.335 24.1057C68.042 23.8263 67.6766 23.5468 67.3112 23.4261C66.3614 23.1467 65.996 23.3865 65.5943 24.1057C64.024 27.1859 62.7451 30.3456 62.1607 33.8244C62.0143 34.585 62.0505 35.3439 62.2348 36.1045C62.6726 38.0241 64.3532 39.3435 66.1425 39.1434C67.3837 38.9831 68.2247 38.3036 68.7003 37.9033C70.162 36.5856 71.0739 33.8657 69.6863 35.1852Z" fill="white"/>
<path d="M70.257 21.1107H70.4759C71.5721 21.1107 71.8273 20.5502 72.3754 19.5515C72.4856 19.3911 72.5581 19.1911 72.6683 19.0323C73.5456 17.5526 74.3851 15.952 73.9835 15.1931C73.837 14.9137 73.5818 14.793 73.1802 14.793H73.1439C71.9753 14.8327 70.2946 16.5936 69.8206 17.1128C69.0897 17.8733 68.2864 18.7926 68.5054 19.6723C68.6126 20.3915 69.7088 21.0313 70.257 21.1107Z" fill="white"/>
<path d="M96.1404 15.066C95.8479 14.7056 95.4473 14.5469 94.8633 14.5469C93.1828 14.5865 92.8531 16.0266 92.745 17.1063C92.5252 19.3054 91.9412 20.9058 91.2826 22.9858C91.0637 23.7465 88.9456 29.9054 88.5801 33.1048C88.4714 34.1051 88.5439 35.3452 88.7991 35.985C89.3835 37.6649 90.3332 38.9843 91.3189 39.024C91.6487 39.0637 91.8312 38.9843 91.9757 38.8239C92.2309 38.5032 92.0865 37.9047 91.9039 37.1043C91.685 36.1438 91.3916 34.7846 91.6487 33.3445C92.0138 31.1455 92.5252 29.1845 93.3291 26.7457C93.6579 25.7851 94.0221 24.8658 94.351 23.9052C96.104 18.8655 96.1404 18.2257 96.1785 18.0256C96.4338 16.7045 96.7971 15.9456 96.1404 15.066Z" fill="white"/>
<path d="M73.3726 3.4232C73.1853 3.10243 72.9226 2.86269 72.6236 2.70397C72.3246 2.58327 71.9864 2.50391 71.6119 2.50391C71.2752 2.50391 70.937 2.58327 70.5263 2.74365C70.1518 2.90403 69.7774 3.14377 69.4407 3.50422C69.2912 3.18346 69.0662 2.94371 68.8035 2.78498C68.5045 2.58492 68.204 2.50556 67.7918 2.50556C67.0806 2.50556 66.3679 2.82632 65.6944 3.38517L65.545 2.66593H64.2344V9.18537H65.8077V4.5839C65.9949 4.38383 66.2199 4.26313 66.4811 4.10441C66.7439 3.98371 67.0051 3.94402 67.2679 3.90435C67.6423 3.94402 67.905 4.06472 68.0168 4.30447C68.1285 4.5839 68.1663 4.86497 68.1663 5.2651V9.18537H69.7396V4.82364V4.5839C69.9268 4.38383 70.1518 4.26313 70.4146 4.10441C70.6773 3.98371 70.9385 3.94402 71.2012 3.90435C71.5757 3.94402 71.8384 4.06472 71.9501 4.30447C72.0619 4.54421 72.1374 4.86497 72.0996 5.22376V9.18373H73.673V4.74262C73.6715 4.18377 73.5598 3.74396 73.3726 3.4232Z" fill="white"/>
<path d="M30.9752 2.70397C30.6763 2.58327 30.338 2.50391 30.0013 2.50391C29.6646 2.50391 29.2901 2.58327 28.9157 2.74365C28.5411 2.90403 28.1667 3.14377 27.7922 3.50422C27.6427 3.18346 27.4178 2.94371 27.155 2.78498C26.8923 2.58492 26.5556 2.50556 26.1811 2.50556C25.4322 2.50556 24.7572 2.82632 24.0838 3.38517L23.8966 2.66593H22.5859V9.18537H24.1594V4.5839C24.3843 4.38383 24.6092 4.26313 24.8342 4.10441C25.097 3.98371 25.3582 3.94402 25.6586 3.90435C26.0332 3.94402 26.2581 4.06472 26.3699 4.30447C26.4816 4.5839 26.5571 4.86497 26.5194 5.2651V9.18537H28.0927V4.82364V4.5839C28.2799 4.38383 28.5049 4.26313 28.7677 4.10441C29.0304 3.98371 29.2916 3.94402 29.5921 3.90435C29.9666 3.94402 30.1915 4.06472 30.3033 4.30447C30.4527 4.54421 30.4905 4.86497 30.4905 5.22376V9.18373H32.0262V4.74262C32.0262 4.18212 31.9144 3.74231 31.7271 3.4232C31.5369 3.10409 31.3119 2.86435 30.9752 2.70397Z" fill="white"/>
<path d="M17.1964 2.50391C16.2603 2.54358 15.5491 2.82467 14.9859 3.4232C14.6854 3.74396 14.462 4.10275 14.3109 4.54256C14.1615 4.98237 14.0859 5.46186 14.0859 5.98269C14.0859 6.50185 14.1615 6.983 14.3487 7.4228C14.4604 7.78325 14.6477 8.10236 14.8726 8.3421C14.9481 8.42147 14.9844 8.4628 15.0222 8.54217C15.5839 9.06134 16.295 9.34242 17.1572 9.34242C18.0933 9.34242 18.8423 9.02165 19.404 8.38179C19.7045 8.10236 19.8902 7.74192 20.0774 7.3021C20.1892 6.8623 20.2647 6.42249 20.2647 5.90166C20.2647 4.90135 20.0019 4.06142 19.4417 3.46123C18.9193 2.82301 18.1327 2.54358 17.1964 2.50391ZM18.3199 7.46249C18.0572 7.82293 17.6827 8.02299 17.1964 8.06268C16.7088 8.06268 16.3358 7.86261 16.0731 7.46249C15.8103 7.10204 15.6986 6.58287 15.6986 5.943C15.6986 5.30314 15.8103 4.78231 16.0353 4.42351C16.298 4.02339 16.6725 3.82332 17.1587 3.82332C17.6449 3.82332 18.0194 4.02339 18.2821 4.38383C18.5449 4.78396 18.6566 5.30314 18.6566 5.943C18.6566 6.54319 18.5449 7.06236 18.3199 7.46249Z" fill="white"/>
<path d="M61.6515 7.38682V2.66797H60.0782V7.50751C59.9664 7.62821 59.7791 7.74726 59.5904 7.86796C59.3654 7.98866 59.1405 8.02834 58.8793 8.02834C58.5048 8.02834 58.2421 7.90764 58.0548 7.66789C57.8676 7.42814 57.7921 7.10738 57.7921 6.70725V2.66797H56.2188V6.78828C56.2188 7.50751 56.3682 8.02834 56.5932 8.38878C56.8182 8.74922 57.0794 9.02866 57.4176 9.14932C57.7166 9.30973 58.0171 9.34942 58.316 9.34942C58.7282 9.34942 59.0649 9.27004 59.4016 9.10962C59.7021 8.94929 60.0011 8.78891 60.1884 8.54916L60.4888 9.18901H61.7617C61.724 9.06833 61.6862 8.82859 61.6862 8.54916C61.6515 8.26643 61.6515 7.90764 61.6515 7.38682Z" fill="white"/>
<path d="M53.2501 7.82725C53.0629 7.90661 52.8757 7.94795 52.6507 7.94795C52.2762 7.94795 52.089 7.70821 52.089 7.18738V3.907H53.5491L53.999 2.66695H52.089V0.667969L50.5156 1.14746V7.82725C50.5156 8.26706 50.6274 8.6275 50.8523 8.90693C51.115 9.18639 51.4895 9.34671 52.0512 9.34671C52.3516 9.34671 52.6884 9.30702 53.0629 9.18639C53.4374 9.06565 53.7741 8.8656 54.1108 8.62585L53.6985 7.58585C53.5868 7.66687 53.4374 7.74788 53.2501 7.82725Z" fill="white"/>
<path d="M46.9491 2.74365C46.6501 2.58327 46.3496 2.50391 46.0129 2.50391C45.6007 2.50391 45.2262 2.58327 44.8894 2.74365C44.515 2.90403 44.1783 3.10409 43.8416 3.38352L43.6921 2.66428H42.3438V9.18364H43.9171V4.62357C44.1799 4.42351 44.4048 4.26313 44.666 4.14408C44.9288 4.02338 45.2277 3.94402 45.4905 3.94402C45.8649 3.94402 46.1277 4.10441 46.2394 4.38383C46.3511 4.66326 46.4266 4.98402 46.3888 5.34446V9.18364H47.9622V4.86332C47.9622 4.26313 47.8505 3.82332 47.6632 3.46288C47.473 3.14377 47.248 2.86269 46.9491 2.74365Z" fill="white"/>
<path d="M37.2225 2.50391C36.6231 2.50391 36.1369 2.66428 35.687 2.98339C35.2747 3.30416 34.9758 3.70262 34.7508 4.22345C34.5258 4.70294 34.4141 5.30314 34.4141 5.943C34.4141 6.54319 34.5258 7.06236 34.7131 7.58319C34.938 8.10236 35.2747 8.54382 35.7247 8.86293C36.1747 9.18374 36.7726 9.34242 37.4853 9.34242C37.8597 9.34242 38.2342 9.30273 38.6087 9.18201C39.0209 9.06134 39.3577 8.86128 39.7321 8.62153L39.3577 7.54185C39.0949 7.70223 38.8337 7.82128 38.571 7.9023C38.3083 7.98166 38.0092 8.02299 37.7466 8.02299C37.2603 8.02299 36.8481 7.86261 36.5114 7.5435C36.2109 7.26408 36.0237 6.86395 35.9875 6.38281H39.9949V5.90332C39.9571 4.86332 39.7321 4.02339 39.2082 3.4232C38.7205 2.82301 38.0455 2.50391 37.2225 2.50391ZM35.9481 5.18409C35.9481 4.82364 36.06 4.50453 36.2849 4.18377C36.5099 3.90435 36.8089 3.78365 37.1833 3.74396C37.5578 3.78365 37.8567 3.90435 38.044 4.22345C38.2689 4.50288 38.343 4.82364 38.343 5.18409H35.9481Z" fill="white"/>
<path d="M10.8743 2.70397C10.5754 2.58327 10.2371 2.50391 9.86269 2.50391C9.52597 2.50391 9.18771 2.58327 8.81324 2.74365C8.43877 2.90403 8.0643 3.14377 7.68983 3.4232C7.5026 3.10243 7.27762 2.86269 6.9409 2.70397C6.64193 2.58327 6.3037 2.50391 5.96698 2.50391C5.59251 2.50391 5.25579 2.58327 4.88133 2.74365C4.50686 2.90403 4.13239 3.14377 3.75793 3.4232C3.5707 3.10243 3.34571 2.86269 3.00899 2.70397C2.71003 2.58327 2.3718 2.50391 2.03508 2.50391C1.69836 2.50391 1.3239 2.58327 0.949431 2.74365C0.686701 2.86435 0.387731 3.02307 0.125 3.22313V4.58225C0.349982 4.38218 0.574965 4.26148 0.798437 4.10275C1.06116 3.98206 1.32239 3.90269 1.62287 3.90269C1.99733 3.94237 2.22231 4.06307 2.33405 4.30281C2.48353 4.54256 2.52128 4.86332 2.52128 5.22211V9.18201H4.0569V4.74262V4.58225C4.24414 4.38218 4.46911 4.26148 4.73185 4.10275C4.99458 3.98206 5.25579 3.90269 5.51853 3.90269C5.93074 3.94237 6.15573 4.06307 6.26746 4.30281C6.3792 4.54256 6.45469 4.86332 6.45469 5.22211V9.18201H7.99031V4.74262V4.58225C8.17755 4.38218 8.40252 4.26148 8.66526 4.10275C8.92799 3.98206 9.18925 3.90269 9.45194 3.90269C9.82644 3.94237 10.0891 4.06307 10.2009 4.30281C10.3126 4.54256 10.3881 4.86332 10.3504 5.22211V9.18201H11.9237V4.74262C11.9237 4.18212 11.812 3.74231 11.6248 3.4232C11.436 3.10409 11.1748 2.86435 10.8743 2.70397Z" fill="white"/>
</g>
<defs>
<clipPath id="clip0_10162_9774">
<rect width="109" height="50.8667" fill="white"/>
</clipPath>
</defs>
</svg>
