<svg width="41" height="41" viewBox="0 0 41 41" fill="none" xmlns="http://www.w3.org/2000/svg">
<path d="M37.1433 13.5067H36.224C34.9327 5.85377 28.2756 0 20.26 0C12.2444 0 5.58733 5.85377 4.29602 13.5067H3.37667C1.51422 13.5067 0 15.0209 0 16.8833V23.6367C0 25.4991 1.51422 27.0133 3.37667 27.0133H5.40267C6.14923 27.0133 6.75333 26.4092 6.75333 25.6627V16.208C6.75333 8.76087 12.8129 2.70133 20.26 2.70133C27.7071 2.70133 33.7667 8.76087 33.7667 16.208V24.312C33.7667 31.7591 27.7071 37.8187 20.26 37.8187C19.5134 37.8187 18.9093 38.4228 18.9093 39.1693C18.9093 39.9159 19.5134 40.52 20.26 40.52C28.2756 40.52 34.9327 34.6662 36.224 27.0133H37.1433C39.0058 27.0133 40.52 25.4991 40.52 23.6367V16.8833C40.52 15.0209 39.0058 13.5067 37.1433 13.5067ZM2.70133 23.6367V16.8833C2.70133 16.5166 3.00998 16.208 3.37667 16.208H4.052V24.312H3.37667C3.00998 24.312 2.70133 24.0034 2.70133 23.6367ZM37.8187 23.6367C37.8187 24.0034 37.51 24.312 37.1433 24.312H36.468V16.208H37.1433C37.51 16.208 37.8187 16.5166 37.8187 16.8833V23.6367Z" fill="#45566F"/>
<path d="M31.0716 22.9805V16.2272C31.0716 10.2692 26.2242 5.42188 20.2663 5.42188C14.3083 5.42188 9.46094 10.2692 9.46094 16.2272V22.9805C9.46094 28.9385 14.3083 33.7859 20.2663 33.7859C26.2242 33.7859 31.0716 28.9385 31.0716 22.9805ZM12.1623 22.9805V16.2272C12.1623 11.7584 15.7975 8.12321 20.2663 8.12321C24.7351 8.12321 28.3703 11.7584 28.3703 16.2272V22.9805C28.3703 27.4494 24.7351 31.0846 20.2663 31.0846C15.7975 31.0846 12.1623 27.4494 12.1623 22.9805Z" fill="#45566F"/>
<path d="M24.9398 25.537C25.518 24.8624 25.4652 23.8236 24.8201 23.2175C24.1766 22.6113 23.1844 22.6677 22.6057 23.3428C22.0077 24.0399 21.1582 24.4396 20.2758 24.4396C19.3934 24.4396 18.544 24.0399 17.946 23.3423C17.3673 22.6677 16.3751 22.6107 15.7316 23.2169C15.0871 23.8231 15.0337 24.8618 15.6119 25.5364C16.8038 26.9278 18.5037 27.7251 20.2758 27.7251C22.048 27.7251 23.7479 26.9278 24.9398 25.537Z" fill="#45566F"/>
</svg>
