<svg width="19" height="22" viewBox="0 0 19 22" fill="none" xmlns="http://www.w3.org/2000/svg">
<path d="M1.72233 21.1415H17.682C17.8723 21.1418 18.0549 21.0664 18.1896 20.9319C18.3243 20.7974 18.4 20.6149 18.4 20.4246L18.4 12.8399C18.397 11.8346 17.7393 10.9486 16.778 10.6545L14.918 10.0782V4.60131C14.9157 2.53353 13.24 0.857863 11.1722 0.855469L4.74579 0.855492C2.67802 0.857863 1.00235 2.53353 1 4.60131V20.4289C1 20.6192 1.07569 20.8017 1.21036 20.9362C1.34505 21.0707 1.52768 21.1461 1.71801 21.1458L1.72233 21.1415ZM2.44034 18.6544H7.8471V19.7033H2.44034V18.6544ZM12.6375 19.7033V16.7123H13.6107V19.7033H12.6375ZM16.9629 12.8356V19.7033H15.0467V15.9942C15.0467 15.5983 14.7257 15.2773 14.3298 15.2773H11.9184C11.5224 15.2773 11.2014 15.5983 11.2014 15.9942V19.7033H9.28527V10.9443C9.28354 10.6761 9.41217 10.4237 9.63023 10.2674C9.84126 10.1143 10.1138 10.0739 10.3601 10.1593L13.9946 11.3012L16.3541 12.0181C16.7139 12.127 16.9611 12.4574 16.9639 12.8335L16.9629 12.8356ZM4.74362 2.28615H11.1701C12.4458 2.28736 13.4797 3.32124 13.4809 4.597V9.62945L10.7981 8.79786C10.1171 8.56756 9.36659 8.68248 8.78571 9.10605C8.19552 9.53255 7.84565 10.2162 7.84493 10.9443V17.2162H2.43818V4.60022C2.43934 3.32444 3.47326 2.29056 4.74902 2.28938L4.74362 2.28615Z" fill="#ffffff" stroke="#45566F" stroke-width="0.0713184"/>
<path d="M5.35085 5.61328H5.77583C6.16124 5.63903 6.46815 5.94593 6.49384 6.33135V6.75523C6.49384 7.1518 6.17237 7.47325 5.77583 7.47325H5.35085C4.96545 7.4476 4.6585 7.14065 4.63281 6.75523L4.63284 6.32701C4.63518 5.93213 4.95597 5.61328 5.35085 5.61328Z" fill="#ffffff" stroke="#45566F" stroke-width="0.0713184"/>
<path d="M5.35085 9.60547H5.77583C6.16124 9.63122 6.46815 9.93812 6.49384 10.3235V10.7474C6.49384 11.144 6.17237 11.4654 5.77583 11.4654H5.35085C4.96545 11.4398 4.6585 11.1328 4.63281 10.7474L4.63284 10.3192C4.63518 9.92432 4.95597 9.60547 5.35085 9.60547Z" fill="#ffffff" stroke="#45566F" stroke-width="0.0713184"/>
<path d="M9.99929 5.61328H10.4243C10.8097 5.63903 11.1166 5.94593 11.1423 6.33135L11.1423 6.75523C11.1423 7.1518 10.8208 7.47325 10.4243 7.47325H9.99929C9.61384 7.44755 9.30694 7.14065 9.28125 6.75523V6.32701C9.28359 5.93213 9.6044 5.61328 9.99929 5.61328Z" fill="#ffffff" stroke="#45566F" stroke-width="0.0713184"/>
</svg>
