<svg width="16" height="18" viewBox="0 0 16 18" fill="none" xmlns="http://www.w3.org/2000/svg">
<path d="M0.640793 17.9962H14.799C14.9678 17.9964 15.1298 17.9295 15.2493 17.8102C15.3688 17.691 15.4359 17.529 15.4359 17.3602L15.4359 10.6317C15.4333 9.73985 14.8499 8.95382 13.997 8.69298L12.347 8.18167V3.32302C12.3449 1.48865 10.8584 0.00212423 9.02403 0L3.32297 2.1032e-05C1.48861 0.00212423 0.00208743 1.48865 0 3.32302V17.364C0 17.5329 0.0671447 17.6948 0.186617 17.8141C0.3061 17.9334 0.46812 18.0003 0.636965 18L0.640793 17.9962ZM1.27776 15.7898H6.07422V16.7203H1.27776V15.7898ZM10.3239 16.7203V14.0669H11.1872V16.7203H10.3239ZM14.161 10.6279V16.7203H12.4612V13.43C12.4612 13.0787 12.1764 12.794 11.8252 12.794H9.68593C9.33467 12.794 9.04992 13.0787 9.04992 13.43V16.7203H7.35005V8.95007C7.34852 8.71208 7.46262 8.48817 7.65608 8.34957C7.84329 8.21372 8.08505 8.17788 8.3036 8.2536L11.5278 9.26663L13.6209 9.90263C13.9402 9.99926 14.1595 10.2924 14.162 10.6259L14.161 10.6279ZM3.32105 1.26919H9.0221C10.1538 1.27026 11.071 2.18744 11.0721 3.3192V7.7836L8.69212 7.04588C8.08796 6.84157 7.42219 6.94352 6.90688 7.31927C6.38331 7.69764 6.07293 8.30412 6.07229 8.95007V14.5139H1.27584V3.32206C1.27687 2.19028 2.19409 1.2731 3.32584 1.27206L3.32105 1.26919Z" fill="white"/>
<path d="M3.85818 4.2207H4.23519C4.57709 4.24354 4.84936 4.5158 4.87215 4.85772V5.23375C4.87215 5.58555 4.58697 5.87073 4.23519 5.87073H3.85818C3.51628 5.84797 3.24398 5.57567 3.22119 5.23375L3.22121 4.85387C3.22329 4.50356 3.50787 4.2207 3.85818 4.2207Z" fill="white"/>
<path d="M3.85818 7.76178H4.23519C4.57709 7.78462 4.84936 8.05688 4.87215 8.3988V8.77483C4.87215 9.12663 4.58697 9.4118 4.23519 9.4118H3.85818C3.51628 9.38905 3.24398 9.11675 3.22119 8.77483L3.22121 8.39495C3.22329 8.04464 3.50787 7.76178 3.85818 7.76178Z" fill="white"/>
<path d="M7.98293 4.2207H8.35993C8.70184 4.24354 8.97413 4.5158 8.99692 4.85772L8.9969 5.23375C8.9969 5.58555 8.71171 5.87073 8.35993 5.87073H7.98293C7.64099 5.84793 7.36874 5.57567 7.34595 5.23375V4.85387C7.34802 4.50356 7.63262 4.2207 7.98293 4.2207Z" fill="white"/>
</svg>
