<svg width="9" height="12" viewBox="0 0 9 12" fill="none" xmlns="http://www.w3.org/2000/svg">
<g clip-path="url(#clip0_501_3865)">
<path d="M4.36934 0.00726318C3.25188 0.00865091 2.18058 0.453176 1.39042 1.24334C0.600253 2.03351 0.155728 3.1048 0.15434 4.22226C0.151609 4.81549 0.277286 5.40228 0.522743 5.94235C1.51754 7.89746 2.75055 9.72188 4.19366 11.374C4.21569 11.3995 4.24296 11.42 4.27362 11.434C4.30427 11.4481 4.33759 11.4553 4.37131 11.4553C4.40502 11.4553 4.43834 11.4481 4.469 11.434C4.49965 11.42 4.52692 11.3995 4.54895 11.374C5.99195 9.7218 7.22496 7.89739 8.21987 5.94235C8.46537 5.40229 8.59105 4.81549 8.58827 4.22226C8.58689 3.10412 8.14182 2.03223 7.3508 1.24195C6.55979 0.451675 5.48748 0.00760968 4.36934 0.00726318ZM4.36934 6.4117C3.93631 6.4117 3.513 6.2833 3.15295 6.04272C2.7929 5.80214 2.51227 5.46019 2.34656 5.06013C2.18085 4.66006 2.13749 4.21983 2.22197 3.79513C2.30645 3.37042 2.51497 2.98029 2.82117 2.6741C3.12737 2.3679 3.51749 2.15937 3.9422 2.07489C4.36691 1.99041 4.80713 2.03377 5.2072 2.19948C5.60727 2.3652 5.94921 2.64582 6.18979 3.00588C6.43037 3.36593 6.55878 3.78923 6.55878 4.22226C6.55809 4.80273 6.32719 5.35922 5.91674 5.76967C5.50629 6.18011 4.9498 6.41101 4.36934 6.4117Z" fill="#667085"/>
</g>
<defs>
<clipPath id="clip0_501_3865">
<rect width="8.43" height="11.4493" fill="white" transform="translate(0.144531)"/>
</clipPath>
</defs>
</svg>
