<svg width="60" height="28" viewBox="0 0 60 28" fill="none" xmlns="http://www.w3.org/2000/svg">
<g clip-path="url(#clip0_376_2466)">
<path d="M59.7579 13.5147C59.5564 13.2944 59.2749 13.2289 58.9939 13.3162C58.3904 13.5147 58.0289 14.3511 57.7469 15.0555C57.6864 15.2093 57.6264 15.3859 57.5659 15.5179C57.4854 15.5843 57.3849 15.7163 57.2244 15.9147C56.5204 16.7729 54.8919 18.7989 54.1679 18.7989C54.0474 18.7989 53.9669 18.7552 53.9269 18.6669C53.7059 18.2264 54.4499 16.6856 55.2544 15.3641C55.3144 15.2758 55.3749 15.1875 55.4359 15.1001C55.7574 14.6378 56.0389 14.2419 55.5364 13.6029C55.3549 13.3608 55.0739 13.2289 54.8529 13.207H54.8329C54.6519 13.207 54.5114 13.2735 54.3909 13.4054C54.2704 13.5374 54.1899 13.8459 54.1289 14.0662C54.1289 14.1099 54.1089 14.1545 54.1089 14.1982C53.8879 14.727 52.7019 17.1925 52.7019 17.1925C52.4004 17.9188 51.9174 19.0201 52.1594 19.79C52.3604 20.3844 52.7219 20.7584 53.4459 20.7584C54.3909 20.7584 55.2154 20.0321 55.7584 19.3932C55.7979 19.3495 55.8389 19.3049 55.8789 19.2831C54.6519 22.0135 54.4109 22.8718 53.5064 25.7778C53.3254 26.13 53.2249 26.4386 53.1849 26.7471C53.1649 27.0775 53.2454 27.3633 53.4059 27.5617C53.5874 27.7601 53.8284 27.8702 54.1299 27.8702C54.8939 27.8702 55.1354 27.1221 55.2364 26.5269C55.2759 26.2629 55.2959 25.999 55.3369 25.7123C55.3569 25.4484 55.3769 25.1835 55.4174 24.9414C55.6784 23.8847 57.0454 19.7018 58.3124 17.0596C58.3729 16.9932 59.4384 15.3868 59.4984 15.3204C59.6994 15.0346 59.9009 14.726 59.9814 14.3957C60.0389 14.0644 59.9579 13.7349 59.7579 13.5147Z" fill="#E11B22"/>
<path d="M22.5225 19.6131C21.2957 20.8017 20.4313 20.252 20.4114 18.8868C20.3914 17.9403 20.8137 16.3985 21.457 15.0114C21.6581 14.5491 21.8185 14.175 21.8393 13.9766C21.9399 13.6244 21.4171 12.9636 21.1561 12.8535C20.4928 12.545 20.0706 13.3823 19.6683 14.1969C19.6683 14.1969 19.3865 14.8358 19.266 15.1216C17.6378 19.0406 16.0694 20.009 15.6671 19.7669C15.466 19.6568 15.5865 18.2697 16.7127 15.3855C16.7734 15.2317 16.8133 15.077 16.8739 14.945C17.115 14.3507 17.3161 13.8656 16.8739 13.0956C16.5922 12.6333 16.3511 12.4348 16.1301 12.4567C15.7685 12.4785 15.4867 13.2276 15.3255 13.6899C14.8634 15.0551 14.6423 15.8033 14.2998 17.2786C14.0388 18.3353 13.8577 19.502 13.9981 20.1847C14.2192 21.3514 15.1842 21.528 15.7269 21.4834C16.6919 21.4834 18.1199 20.2948 18.8238 19.1717C18.8238 19.4802 18.8438 19.766 18.9045 20.0527C19.0657 20.8454 19.6484 21.4179 20.3524 21.5062C21.2168 21.5945 21.6589 21.4179 22.1219 21.0001C22.8242 20.3403 23.1858 18.9532 22.5225 19.6131Z" fill="#E11B22"/>
<path d="M34.4448 13.0088C34.4448 13.0088 32.4542 13.3174 31.5698 13.3174C31.4086 13.3174 31.308 13.1408 31.3487 12.9652C31.5091 12.5247 31.7103 12.0841 31.9114 11.6664C32.1524 11.1604 32.4143 10.6316 32.5747 10.0372C32.6553 9.75148 32.8357 9.17898 32.5348 8.62838C32.4143 8.45178 32.253 8.31983 32.0319 8.27613C31.6296 8.20968 31.288 8.40813 30.9863 8.89228C30.584 9.55308 30.363 10.2793 30.102 11.4025C29.9008 12.3053 29.6997 13.1417 29.4387 13.6478C29.3381 13.8243 29.2176 13.8462 29.0364 13.8899C28.8552 13.9117 28.6541 13.9563 28.433 14.1538C28.0914 14.4623 28.0507 14.8146 28.0507 15.1231C28.0507 15.4307 28.1313 15.6956 28.2518 16.0478C28.2917 16.1798 28.3524 16.268 28.3723 16.3782C28.5128 16.6639 28.6134 16.7968 28.4729 17.1927C28.3324 17.5668 28.2318 17.7215 28.0914 18.1174C27.9709 18.4915 27.8503 18.7782 27.7498 19.1741C27.6293 19.7029 27.5885 20.6713 27.9509 21.2001C28.1122 21.4422 28.3731 21.5523 28.6749 21.5523C29.4586 21.5523 29.7205 20.2308 29.8609 19.5263V19.5045C29.9814 18.8219 30.0222 18.3595 30.0621 17.6332C30.102 16.9943 30.2233 15.8721 30.9464 15.4981C32.8764 14.5069 34.1431 14.1993 34.6858 13.8243C35.0682 13.5813 34.867 12.9652 34.4448 13.0088Z" fill="#E11B22"/>
<path d="M12.629 20.0106C11.9657 20.1644 11.5634 20.209 11.2617 20.1426C10.9799 20.0761 10.7389 19.8568 10.5984 19.6584C10.0357 18.7118 10.699 16.4438 10.9808 15.7175C11.0206 15.6074 11.0813 15.4754 11.142 15.3207C11.4237 14.6599 11.8252 13.7352 11.4836 13.2292C11.3024 12.9434 11.1013 12.8105 10.9209 12.7887C10.5386 12.7222 9.9958 13.3393 9.9958 13.3393C9.3924 13.9336 8.6485 15.0121 8.0459 15.8931C7.60375 16.5093 7.1208 17.2138 6.98035 17.302C6.94045 17.1255 7.1009 16.3773 7.2214 15.8267C7.302 15.408 7.4425 14.6162 7.4425 14.6162C7.50315 14.3523 7.6835 13.515 7.32195 13.1409C7.18065 13.0089 7.02025 12.9425 6.8191 12.9643C5.97465 13.008 4.78858 14.5279 3.94412 15.6283C3.58256 16.0907 3.20023 16.5748 3.07971 16.6194H3.01904C2.93842 16.5312 3.18028 15.8486 3.36065 15.3425C3.64241 14.5498 3.96407 13.6251 3.84355 13.1627C3.66235 12.5903 3.32075 12.502 3.11961 12.502C2.6367 12.5238 2.1139 13.008 1.95349 13.6032C1.83297 13.9992 1.75235 14.396 1.67172 14.77C1.59109 15.1669 1.35006 16.4875 0.203886 19.6802C0.203886 19.6802 -0.137722 20.715 0.06342 21.1337C0.144042 21.3103 0.304457 21.4195 0.5056 21.4859C1.24949 21.6843 2.1538 20.3847 2.79795 19.4163C2.85862 19.328 2.93842 19.2179 2.99908 19.1305C3.11961 18.9539 3.24012 18.7564 3.38142 18.5799C3.86433 17.8754 4.36635 17.1491 4.92988 16.5321C5.3521 16.0697 5.4128 16.1134 5.47265 16.1798C5.55325 16.2681 5.37205 16.928 5.25155 17.4349C4.96978 18.5134 4.60822 19.8349 5.03045 20.3628C5.1917 20.5612 5.43275 20.6268 5.77435 20.5831C6.8798 20.3628 8.7499 17.4786 8.79065 17.4131C8.71 18.2276 8.65015 19.7685 9.3741 20.716C9.45475 20.8261 9.53535 20.9144 9.6351 21.0017C9.8961 21.222 10.2185 21.3758 10.5801 21.4422C10.6408 21.4422 10.7007 21.4641 10.7613 21.4641C11.1835 21.5078 11.6257 21.3977 12.028 21.1783C12.9107 20.6932 13.5341 19.7685 12.629 20.0106Z" fill="#E11B22"/>
<path d="M27.7276 8.29747C27.5871 8.09907 27.3452 8.01172 27.0443 8.01172C26.1193 8.03352 25.9389 8.82627 25.8782 9.42057C25.7577 10.6311 25.4361 11.5121 25.0737 12.657C24.9531 13.0757 23.787 16.466 23.5859 18.2271C23.5252 18.7777 23.5659 19.4603 23.7064 19.8125C24.0281 20.7372 24.5509 21.4635 25.0936 21.4854C25.2748 21.5072 25.3754 21.4635 25.4552 21.3752C25.5965 21.1987 25.5158 20.8692 25.4153 20.4287C25.2948 19.8999 25.1335 19.1518 25.274 18.359C25.4751 17.1486 25.7569 16.0691 26.1991 14.7267C26.3803 14.1979 26.5814 13.6919 26.7618 13.1631C27.7267 10.389 27.7467 10.0368 27.7675 9.92662C27.9088 9.19942 28.1099 8.78167 27.7276 8.29747Z" fill="#E11B22"/>
<path d="M45.7456 12.0177C44.5596 12.0841 43.3328 13.0743 42.7501 14.0209C42.6695 13.6468 42.4891 13.382 42.2473 13.2728C41.9655 13.1626 41.6438 13.2946 41.3629 13.625C40.6996 14.4832 40.3979 15.8266 40.1162 17.0152L39.5934 19.0184C39.5934 19.0184 38.8694 22.2112 37.7432 25.7771C37.5819 26.2613 37.2811 26.6354 37.3609 27.054C37.4814 27.5601 37.8637 27.8686 38.3666 27.8686C39.2509 27.8686 39.3515 26.9658 39.4321 26.305C39.5127 25.6888 39.7338 24.6322 39.8743 24.1471C40.9806 20.3381 41.402 19.1049 41.402 19.1049C42.0253 17.2337 42.8091 14.9001 44.4781 13.8871C44.9402 13.6013 45.4032 13.5349 45.7249 13.7333C46.0266 13.9099 46.2078 14.3058 46.2477 14.9001C46.3283 15.7811 45.6043 17.4539 44.6593 18.5989C44.0958 19.2815 43.7542 19.5454 43.3527 19.5454C43.2114 19.5454 43.1915 19.5017 43.1715 19.347C43.1308 19.1704 43.0909 18.9283 42.7493 18.8847C42.2464 18.8182 41.7843 19.479 41.6837 19.853C41.5832 20.2717 41.6231 20.6239 41.8043 20.8879C42.1459 21.3502 42.81 21.3939 43.0709 21.3939C44.5587 21.3939 46.2676 19.9186 47.3132 17.8271C47.836 16.7923 48.54 14.7672 47.4944 12.9615C47.0929 12.3035 46.4696 11.9731 45.7456 12.0177Z" fill="#E11B22"/>
<path d="M38.3642 19.3713C37.9021 19.8337 35.7103 20.9349 35.8508 18.7333C35.8707 18.271 36.0718 17.8305 36.253 17.4118C36.6354 16.4871 37.0776 15.5843 37.4998 14.6814C37.6004 14.4612 37.7209 14.2409 37.8015 14.0206C37.9021 13.7349 37.8414 13.4482 37.6203 13.2725C37.4591 13.1187 37.2579 12.9649 37.0568 12.8984C36.534 12.7446 36.3328 12.8766 36.1117 13.2725C35.2473 14.9681 34.5433 16.7074 34.2217 18.6223C34.1411 19.041 34.161 19.4587 34.2624 19.8774C34.5034 20.934 35.4285 21.6603 36.4135 21.5502C37.0967 21.4619 37.5596 21.0879 37.8214 20.8676C38.626 20.1422 39.128 18.645 38.3642 19.3713Z" fill="#E11B22"/>
<path d="M38.6562 11.6241H38.7767C39.3802 11.6241 39.5206 11.3156 39.8223 10.7659C39.883 10.6776 39.9229 10.5675 39.9836 10.4801C40.4665 9.66553 40.9286 8.78448 40.7075 8.36673C40.6269 8.21293 40.4864 8.14648 40.2653 8.14648H40.2454C39.6021 8.16833 38.677 9.13764 38.416 9.42344C38.0137 9.84209 37.5715 10.3481 37.6921 10.8323C37.7511 11.2282 38.3545 11.5804 38.6562 11.6241Z" fill="#E11B22"/>
<path d="M52.9229 8.29747C52.7619 8.09907 52.5414 8.01172 52.2199 8.01172C51.2949 8.03352 51.1134 8.82627 51.0539 9.42057C50.9329 10.6311 50.6114 11.5121 50.2489 12.657C50.1284 13.0757 48.9624 16.466 48.7613 18.2271C48.7014 18.7777 48.7413 19.4603 48.8818 19.8125C49.2035 20.7372 49.7263 21.4635 50.2689 21.4854C50.4504 21.5072 50.5509 21.4635 50.6304 21.3752C50.7709 21.1987 50.6914 20.8692 50.5909 20.4287C50.4704 19.8999 50.3089 19.1518 50.4504 18.359C50.6514 17.1486 50.9329 16.0691 51.3754 14.7267C51.5564 14.1979 51.7569 13.6919 51.9379 13.1631C52.9029 10.389 52.9229 10.0368 52.9439 9.92662C53.0844 9.19942 53.2844 8.78167 52.9229 8.29747Z" fill="#E11B22"/>
<path d="M40.37 1.88885C40.2669 1.71228 40.1223 1.58031 39.9577 1.49294C39.7932 1.4265 39.607 1.38281 39.4009 1.38281C39.2155 1.38281 39.0293 1.4265 38.8033 1.51478C38.5971 1.60306 38.391 1.73503 38.2057 1.93344C38.1234 1.75688 37.9995 1.62491 37.8549 1.53753C37.6903 1.42741 37.5249 1.38372 37.298 1.38372C36.9066 1.38372 36.5142 1.56029 36.1435 1.86791L36.0613 1.472H35.3398V5.06068H36.2059V2.52776C36.3089 2.41763 36.4328 2.35119 36.5766 2.26382C36.7212 2.19738 36.865 2.17554 37.0096 2.1537C37.2157 2.17554 37.3604 2.24198 37.4219 2.37395C37.4834 2.52776 37.5042 2.68248 37.5042 2.90274V5.06068H38.3702V2.65973V2.52776C38.4733 2.41763 38.5971 2.35119 38.7418 2.26382C38.8864 2.19738 39.0302 2.17554 39.1748 2.1537C39.3809 2.17554 39.5255 2.24198 39.587 2.37395C39.6486 2.50592 39.6901 2.68248 39.6693 2.87998V5.05978H40.5354V2.61513C40.5346 2.30751 40.4731 2.06541 40.37 1.88885Z" fill="#E11B22"/>
<path d="M17.0711 1.49294C16.9065 1.4265 16.7203 1.38281 16.535 1.38281C16.3496 1.38281 16.1435 1.4265 15.9374 1.51478C15.7312 1.60306 15.5251 1.73503 15.319 1.93344C15.2367 1.75688 15.1129 1.62491 14.9682 1.53753C14.8236 1.42741 14.6383 1.38372 14.4321 1.38372C14.0199 1.38372 13.6483 1.56029 13.2776 1.86791L13.1746 1.472H12.4531V5.06068H13.3192V2.52776C13.443 2.41763 13.5669 2.35119 13.6907 2.26382C13.8354 2.19738 13.9791 2.17554 14.1445 2.1537C14.3507 2.17554 14.4745 2.24198 14.536 2.37395C14.5975 2.52776 14.6391 2.68248 14.6183 2.90274V5.06068H15.4844V2.65973V2.52776C15.5874 2.41763 15.7113 2.35119 15.8559 2.26382C16.0005 2.19738 16.1443 2.17554 16.3097 2.1537C16.5159 2.17554 16.6397 2.24198 16.7012 2.37395C16.7835 2.50592 16.8043 2.68248 16.8043 2.87998V5.05978H17.6496V2.61513C17.6496 2.3066 17.5881 2.0645 17.485 1.88885C17.3803 1.71319 17.2564 1.58122 17.0711 1.49294Z" fill="#E11B22"/>
<path d="M9.48564 1.38281C8.97034 1.40465 8.57884 1.55938 8.26884 1.88885C8.10344 2.06541 7.98044 2.26291 7.89729 2.50501C7.81504 2.7471 7.77344 3.01104 7.77344 3.29774C7.77344 3.58352 7.81504 3.84837 7.91809 4.09046C7.97959 4.28887 8.08264 4.46453 8.20649 4.5965C8.24804 4.64019 8.26799 4.66294 8.28879 4.70663C8.59799 4.99241 8.98944 5.14713 9.46404 5.14713C9.97934 5.14713 10.3916 4.97056 10.7008 4.61834C10.8662 4.46453 10.9684 4.26612 11.0715 4.02402C11.133 3.78193 11.1746 3.53983 11.1746 3.25314C11.1746 2.70251 11.0299 2.24016 10.7216 1.90978C10.434 1.55847 10.001 1.40465 9.48564 1.38281ZM10.104 4.11231C9.95944 4.31072 9.75329 4.42084 9.48564 4.44269C9.21719 4.44269 9.01189 4.33256 8.86729 4.11231C8.72264 3.9139 8.66114 3.62811 8.66114 3.27589C8.66114 2.92367 8.72264 2.63698 8.84649 2.43948C8.99109 2.21923 9.19724 2.1091 9.46489 2.1091C9.73249 2.1091 9.93864 2.21923 10.0832 2.41763C10.2279 2.63789 10.2894 2.92367 10.2894 3.27589C10.2894 3.60627 10.2279 3.89205 10.104 4.11231Z" fill="#E11B22"/>
<path d="M33.9358 4.07019V1.47266H33.0698V4.13663C33.0082 4.20307 32.9052 4.2686 32.8013 4.33504C32.6774 4.40148 32.5536 4.42332 32.4098 4.42332C32.2037 4.42332 32.0591 4.35688 31.956 4.22491C31.8529 4.09294 31.8114 3.91637 31.8114 3.69612V1.47266H30.9453V3.74072C30.9453 4.13663 31.0276 4.42332 31.1514 4.62173C31.2753 4.82014 31.4191 4.97395 31.6052 5.04037C31.7698 5.12867 31.9352 5.15052 32.0998 5.15052C32.3267 5.15052 32.512 5.10682 32.6974 5.01852C32.8628 4.93026 33.0274 4.84198 33.1304 4.71001L33.2958 5.06222H33.9965C33.9757 4.99579 33.9549 4.86382 33.9549 4.71001C33.9358 4.55438 33.9358 4.35688 33.9358 4.07019Z" fill="#E11B22"/>
<path d="M29.2982 4.31198C29.1951 4.35567 29.0921 4.37842 28.9682 4.37842C28.7621 4.37842 28.659 4.24645 28.659 3.95976V2.15405H29.4628L29.7104 1.47145H28.659V0.371094L27.793 0.635033V4.31198C27.793 4.55408 27.8545 4.75249 27.9783 4.9063C28.1229 5.06013 28.3291 5.14838 28.6382 5.14838C28.8036 5.14838 28.989 5.12653 29.1951 5.06013C29.4013 4.99367 29.5866 4.88355 29.772 4.75158L29.545 4.1791C29.4835 4.2237 29.4013 4.26829 29.2982 4.31198Z" fill="#E11B22"/>
<path d="M25.8554 1.51478C25.6908 1.4265 25.5254 1.38281 25.34 1.38281C25.1131 1.38281 24.907 1.4265 24.7216 1.51478C24.5155 1.60306 24.3302 1.71319 24.1448 1.867L24.0625 1.47109H23.3203V5.05973H24.1864V2.5496C24.331 2.43948 24.4548 2.35119 24.5986 2.28566C24.7433 2.21922 24.9078 2.17554 25.0525 2.17554C25.2586 2.17554 25.4032 2.26382 25.4647 2.41763C25.5262 2.57145 25.5678 2.74801 25.547 2.94642V5.05973H26.4131V2.68157C26.4131 2.35119 26.3516 2.1091 26.2485 1.91069C26.1438 1.73503 26.0199 1.58031 25.8554 1.51478Z" fill="#E11B22"/>
<path d="M20.4717 1.38281C20.1418 1.38281 19.8741 1.47109 19.6265 1.64675C19.3995 1.82332 19.235 2.04266 19.1111 2.32935C18.9873 2.59329 18.9258 2.92367 18.9258 3.27589C18.9258 3.60627 18.9873 3.89205 19.0904 4.17875C19.2142 4.46453 19.3995 4.70754 19.6472 4.88319C19.8949 5.05978 20.2241 5.14713 20.6164 5.14713C20.8225 5.14713 21.0286 5.12528 21.2348 5.05883C21.4617 4.99241 21.647 4.88228 21.8531 4.75031L21.647 4.15599C21.5024 4.24428 21.3586 4.30981 21.214 4.3544C21.0694 4.39809 20.9048 4.42084 20.7602 4.42084C20.4925 4.42084 20.2656 4.33256 20.0803 4.1569C19.9149 4.00309 19.8118 3.78284 19.7919 3.51799H21.9978V3.25405C21.977 2.68157 21.8531 2.21923 21.5647 1.88885C21.2963 1.55847 20.9247 1.38281 20.4717 1.38281ZM19.7702 2.85814C19.7702 2.65973 19.8318 2.48407 19.9556 2.30751C20.0794 2.1537 20.244 2.08726 20.4501 2.06541C20.6563 2.08726 20.8208 2.1537 20.9239 2.32935C21.0477 2.48316 21.0885 2.65973 21.0885 2.85814H19.7702Z" fill="#E11B22"/>
<path d="M5.97954 1.49294C5.81499 1.4265 5.62879 1.38281 5.42269 1.38281C5.23734 1.38281 5.05115 1.4265 4.84502 1.51478C4.63889 1.60306 4.43275 1.73503 4.22662 1.88885C4.12357 1.71228 3.99972 1.58031 3.81437 1.49294C3.6498 1.4265 3.46362 1.38281 3.27827 1.38281C3.07214 1.38281 2.88679 1.4265 2.68067 1.51478C2.47453 1.60306 2.26841 1.73503 2.06228 1.88885C1.95922 1.71228 1.83537 1.58031 1.65002 1.49294C1.48545 1.4265 1.29927 1.38281 1.11392 1.38281C0.92857 1.38281 0.722445 1.4265 0.516315 1.51478C0.371693 1.58122 0.207123 1.66859 0.0625 1.77872V2.52685C0.186343 2.41672 0.310187 2.35028 0.433199 2.26291C0.57782 2.19647 0.721615 2.15279 0.887015 2.15279C1.09314 2.17463 1.21699 2.24107 1.27849 2.37304C1.36078 2.50501 1.38156 2.68157 1.38156 2.87907V5.05883H2.22685V2.61513V2.52685C2.32992 2.41672 2.45376 2.35028 2.59838 2.26291C2.743 2.19647 2.88679 2.15279 3.03141 2.15279C3.25832 2.17463 3.38216 2.24107 3.44367 2.37304C3.50518 2.50501 3.54674 2.68157 3.54674 2.87907V5.05883H4.39203V2.61513V2.52685C4.49509 2.41672 4.61893 2.35028 4.76356 2.26291C4.90818 2.19647 5.05199 2.15279 5.19659 2.15279C5.40274 2.17463 5.54734 2.24107 5.60884 2.37304C5.67034 2.50501 5.71189 2.68157 5.69114 2.87907V5.05883H6.55719V2.61513C6.55719 2.3066 6.4957 2.0645 6.39264 1.88885C6.28874 1.71319 6.14494 1.58122 5.97954 1.49294Z" fill="#E11B22"/>
</g>
<defs>
<clipPath id="clip0_376_2466">
<rect width="60" height="28" fill="white"/>
</clipPath>
</defs>
</svg>
