<svg width="11" height="15" viewBox="0 0 11 15" fill="none" xmlns="http://www.w3.org/2000/svg">
<path d="M8.80286 8.94257V13.9024C8.80286 14.1969 8.56328 14.4348 8.27046 14.4348C8.14235 14.4348 8.02589 14.3898 7.93272 14.315L5.19753 12.3618L2.43405 14.335C2.19447 14.5047 1.86341 14.4481 1.69368 14.2102C1.62713 14.117 1.59552 14.0089 1.59552 13.9024L1.59385 8.94258L1.52231 8.8727C0.583975 7.93436 0 6.63165 0 5.19751C0 3.76336 0.582313 2.46231 1.52231 1.52231C2.46065 0.583975 3.7617 0 5.19751 0L5.55521 0.0133099L5.9179 0.0515759C6.2074 0.0898415 6.41205 0.357704 6.3721 0.648839C6.33383 0.938331 6.06597 1.14299 5.77484 1.10304L5.48535 1.07309L5.19585 1.06477C4.05452 1.06477 3.02134 1.52727 2.27432 2.27429C1.5273 3.02131 1.0648 4.05616 1.0648 5.19582C1.0648 6.33715 1.5273 7.37034 2.27432 8.11736C3.02134 8.86437 4.05619 9.32688 5.19585 9.32688C6.33718 9.32688 7.37037 8.86437 8.11739 8.11736C8.86441 7.37034 9.32691 6.33549 9.32691 5.19582C9.32691 4.74329 9.2537 4.3074 9.1206 3.90142C8.98085 3.47717 8.77621 3.08285 8.51831 2.73679C8.34528 2.50221 8.39353 2.16947 8.62812 1.99476C8.8627 1.82173 9.19544 1.86998 9.37015 2.10457C9.69791 2.54548 9.95745 3.03958 10.1288 3.56699C10.2968 4.07942 10.39 4.6268 10.39 5.19412C10.39 6.62827 9.80769 7.92932 8.86769 8.86932L8.79615 8.9392L8.80286 8.94257ZM2.66028 9.73286V12.869L4.88804 11.2801C5.06773 11.1504 5.31894 11.142 5.50694 11.2768L7.73802 12.8707V9.73451C6.98768 10.1554 6.12086 10.3967 5.19917 10.3967C4.27579 10.3967 3.41066 10.1571 2.66033 9.73451L2.66028 9.73286ZM7.26232 1.61403C7.00943 1.46429 6.92624 1.13819 7.07598 0.886989C7.22571 0.634101 7.55181 0.550915 7.80302 0.70065L7.90118 0.758881C8.15407 0.908617 8.23725 1.23472 8.08752 1.48592C7.93778 1.73881 7.61168 1.822 7.36048 1.67226L7.26232 1.61403Z" fill="#001330"/>
<path d="M6.34649 3.99515L7.50706 4.16241C7.83615 4.20982 7.968 4.61406 7.73023 4.84641L6.89152 5.66582C6.79706 5.7581 6.75411 5.89092 6.77655 6.02103L6.97614 7.17647C7.03272 7.50411 6.68909 7.75443 6.39456 7.60008L5.35608 7.05571C5.23912 6.99443 5.09949 6.99455 4.98271 7.05613L3.9455 7.60303C3.65139 7.75811 3.3071 7.50857 3.36289 7.18081L3.55971 6.02489C3.58184 5.89472 3.53859 5.76196 3.4439 5.66992L2.60337 4.8525C2.365 4.6207 2.49589 4.21615 2.82492 4.16796L3.98506 3.99798C4.11571 3.97886 4.22856 3.89665 4.28683 3.77819L4.80454 2.72607C4.95135 2.42774 5.37653 2.4272 5.524 2.72523L6.04418 3.77608C6.10275 3.89436 6.21578 3.97633 6.34649 3.99515Z" fill="#DD233A"/>
</svg>
