<svg width="35" height="33" viewBox="0 0 35 33" fill="none" xmlns="http://www.w3.org/2000/svg">
<path d="M1.69361 32.7431C2.14277 32.7431 2.57352 32.5646 2.89113 32.247C3.20873 31.9294 3.38715 31.4986 3.38715 31.0495V29.3559C3.38584 28.1289 3.82859 26.9429 4.63363 26.0169C5.43866 25.0909 6.55159 24.4876 7.76682 24.3183C8.98206 24.149 10.2175 24.4252 11.2449 25.0959C12.2724 25.7666 13.0224 26.7865 13.3565 27.9671C13.6227 28.8593 14.1698 29.6416 14.9164 30.1979C15.6629 30.7541 16.569 31.0546 17.5 31.0546C18.431 31.0546 19.3371 30.7541 20.0836 30.1979C20.8302 29.6416 21.3773 28.8593 21.6435 27.9671C21.9776 26.7865 22.7276 25.7666 23.7551 25.0959C24.7825 24.4252 26.0179 24.149 27.2332 24.3183C28.4484 24.4876 29.5613 25.0909 30.3664 26.0169C31.1714 26.9429 31.6142 28.1289 31.6128 29.3559V31.0495C31.6128 31.4986 31.7913 31.9294 32.1089 32.247C32.4265 32.5646 32.8572 32.7431 33.3064 32.7431C33.7555 32.7431 34.1863 32.5646 34.5039 32.247C34.8215 31.9294 34.9999 31.4986 34.9999 31.0495V29.3559C35.0052 28.0403 34.7015 26.742 34.1132 25.5653C33.5249 24.3886 32.6684 23.3666 31.6128 22.5815L31.1612 22.2428L31.4999 21.7912C32.3105 20.7186 32.7468 19.4097 32.7419 18.0653C32.7419 16.4183 32.0876 14.8389 30.9231 13.6743C29.7586 12.5097 28.1791 11.8555 26.5322 11.8555C24.8853 11.8555 23.3059 12.5097 22.1413 13.6743C20.9768 14.8389 20.3226 16.4183 20.3226 18.0653C20.3209 19.411 20.7612 20.7201 21.5758 21.7912L21.9145 22.2428L21.4516 22.5815C19.9654 23.6922 18.883 25.2584 18.3694 27.0413C18.3078 27.2229 18.1908 27.3805 18.0348 27.492C17.8788 27.6034 17.6917 27.663 17.5 27.6623C17.305 27.6684 17.1133 27.6112 16.9536 27.4992C16.7938 27.3873 16.6746 27.2267 16.6137 27.0413C16.1046 25.2607 15.0283 23.6948 13.5484 22.5815L13.0968 22.2428L13.4355 21.7912C14.2461 20.7186 14.6824 19.4097 14.6774 18.0653C14.6774 16.4183 14.0232 14.8389 12.8587 13.6743C11.6941 12.5097 10.1147 11.8555 8.46778 11.8555C6.82087 11.8555 5.24142 12.5097 4.07689 13.6743C2.91235 14.8389 2.25812 16.4183 2.25812 18.0653C2.25681 19.4136 2.69918 20.7249 3.51699 21.7968L3.8557 22.2485L3.38715 22.5815C2.33157 23.3666 1.47512 24.3886 0.886808 25.5653C0.298495 26.742 -0.0052414 28.0403 6.84382e-05 29.3559V31.0495C6.84382e-05 31.4986 0.178494 31.9294 0.496095 32.247C0.813696 32.5646 1.24445 32.7431 1.69361 32.7431ZM26.5322 15.2426C27.0905 15.2426 27.6362 15.4082 28.1004 15.7183C28.5645 16.0285 28.9263 16.4693 29.1399 16.9851C29.3536 17.5009 29.4095 18.0684 29.3006 18.616C29.1916 19.1635 28.9228 19.6665 28.5281 20.0612C28.1333 20.456 27.6304 20.7248 27.0829 20.8337C26.5354 20.9426 25.9678 20.8867 25.4521 20.6731C24.9363 20.4594 24.4955 20.0977 24.1853 19.6335C23.8752 19.1693 23.7097 18.6236 23.7097 18.0653C23.7097 17.3167 24.007 16.5987 24.5364 16.0694C25.0657 15.54 25.7836 15.2426 26.5322 15.2426ZM8.46778 15.2426C9.02603 15.2426 9.57174 15.4082 10.0359 15.7183C10.5001 16.0285 10.8619 16.4693 11.0755 16.9851C11.2891 17.5009 11.345 18.0684 11.2361 18.616C11.1272 19.1635 10.8584 19.6665 10.4636 20.0612C10.0689 20.456 9.56596 20.7248 9.01843 20.8337C8.47091 20.9426 7.90338 20.8867 7.38763 20.6731C6.87187 20.4594 6.43104 20.0977 6.1209 19.6335C5.81075 19.1693 5.64521 18.6236 5.64521 18.0653C5.64521 17.3167 5.94258 16.5987 6.47192 16.0694C7.00125 15.54 7.71919 15.2426 8.46778 15.2426Z" fill="#172C4B"/>
<path d="M6.77325 0C6.3241 0 5.89334 0.178431 5.57574 0.49604C5.25813 0.81365 5.07971 1.24442 5.07971 1.69359V6.38483L1.35392 8.72762C0.973631 8.96718 0.704083 9.348 0.604568 9.7863C0.505054 10.2246 0.583723 10.6845 0.823273 11.0648C1.06282 11.4451 1.44363 11.7146 1.88192 11.8141C2.32021 11.9137 2.78008 11.835 3.16036 11.5954L14.9474 4.17187C15.7101 3.69825 16.59 3.44726 17.4877 3.44726C18.3855 3.44726 19.2654 3.69825 20.028 4.17187L31.8377 11.5954C32.218 11.835 32.6778 11.9137 33.1161 11.8141C33.5544 11.7146 33.9352 11.4451 34.1748 11.0648C34.4143 10.6845 34.493 10.2246 34.3935 9.7863C34.2939 9.348 34.0244 8.96718 33.6441 8.72762L21.8514 1.30406C20.5456 0.487363 19.0364 0.0542953 17.4962 0.0542953C15.956 0.0542953 14.4468 0.487363 13.141 1.30406L8.46679 4.25091V1.69359C8.46679 1.24442 8.28837 0.81365 7.97077 0.49604C7.65316 0.178431 7.22241 0 6.77325 0Z" fill="#ED1C24"/>
</svg>
