<svg width="13" height="13" viewBox="0 0 13 13" fill="none" xmlns="http://www.w3.org/2000/svg">
<path d="M5.78586 2.17588C5.9011 1.94241 5.95872 1.82567 6.03695 1.78838C6.105 1.75593 6.18407 1.75593 6.25213 1.78838C6.33036 1.82567 6.38798 1.94241 6.50322 2.17588L7.59656 4.39086C7.63058 4.45979 7.64759 4.49425 7.67246 4.52101C7.69447 4.5447 7.72087 4.56389 7.75019 4.57753C7.78331 4.59293 7.82134 4.59849 7.89739 4.60961L10.343 4.96707C10.6006 5.00471 10.7293 5.02354 10.7889 5.08644C10.8408 5.14116 10.8652 5.21637 10.8553 5.29111C10.8439 5.37701 10.7507 5.46781 10.5643 5.64941L8.79526 7.37243C8.74011 7.42614 8.71254 7.453 8.69475 7.48495C8.67899 7.51324 8.66889 7.54432 8.66499 7.57647C8.66059 7.61278 8.66709 7.65072 8.6801 7.72659L9.09751 10.1603C9.14154 10.417 9.16355 10.5453 9.12218 10.6215C9.08619 10.6877 9.02221 10.7342 8.94806 10.748C8.86284 10.7638 8.74759 10.7031 8.51709 10.5819L6.33072 9.43214C6.2626 9.39631 6.22854 9.3784 6.19265 9.37136C6.16088 9.36513 6.1282 9.36513 6.09643 9.37136C6.06054 9.3784 6.02648 9.39631 5.95836 9.43214L3.77199 10.5819C3.54149 10.7031 3.42624 10.7638 3.34102 10.748C3.26687 10.7342 3.20289 10.6877 3.1669 10.6215C3.12553 10.5453 3.14754 10.417 3.19157 10.1603L3.60897 7.72659C3.62199 7.65072 3.62849 7.61278 3.62409 7.57647C3.62019 7.54432 3.61009 7.51324 3.59433 7.48495C3.57654 7.453 3.54897 7.42614 3.49382 7.37243L1.72481 5.64941C1.53836 5.46781 1.44514 5.37701 1.43379 5.29111C1.42392 5.21637 1.44831 5.14116 1.50016 5.08644C1.55975 5.02354 1.68852 5.00471 1.94605 4.96707L4.39169 4.60961C4.46774 4.59849 4.50577 4.59293 4.53889 4.57753C4.56821 4.56389 4.59461 4.5447 4.61662 4.52101C4.64148 4.49425 4.6585 4.45979 4.69252 4.39086L5.78586 2.17588Z" fill="#344054"/>
</svg>
