<svg width="194" height="28" viewBox="0 0 194 28" fill="none" xmlns="http://www.w3.org/2000/svg">
<g clip-path="url(#clip0_10162_9930)">
<path d="M185.23 16.0756C184.684 16.0756 184.141 16.021 183.609 15.9118C182.578 15.7003 181.603 15.2908 180.732 14.7005C179.439 13.827 178.426 12.5952 177.819 11.1587C177.614 10.6708 177.457 10.1658 177.351 9.64708C177.133 8.57911 177.133 7.47358 177.351 6.40556C177.563 5.37509 177.972 4.39921 178.563 3.52911C179.436 2.2359 180.664 1.2225 182.101 0.611719C182.589 0.406988 183.094 0.25003 183.613 0.144252C184.684 -0.0741257 185.786 -0.0741257 186.858 0.144252C187.888 0.355806 188.864 0.765265 189.734 1.35557C191.027 2.22908 192.041 3.45746 192.648 4.89397C192.853 5.38191 193.009 5.88691 193.115 6.40556C193.334 7.47358 193.334 8.57911 193.115 9.64708C192.904 10.6776 192.494 11.6534 191.904 12.5236C191.03 13.8167 189.802 14.8302 188.362 15.4409C187.874 15.6457 187.369 15.8027 186.85 15.9118C186.318 16.021 185.776 16.0756 185.23 16.0756ZM185.23 3.22202C184.906 3.22202 184.581 3.25614 184.261 3.32097C183.646 3.44722 183.06 3.69289 182.541 4.04435C181.77 4.56641 181.162 5.30002 180.801 6.15989C180.678 6.44992 180.583 6.7536 180.521 7.06411C180.391 7.70221 180.391 8.36414 180.521 9.0022C180.647 9.61638 180.893 10.1998 181.244 10.722C181.767 11.4965 182.5 12.1004 183.36 12.4655C183.65 12.5884 183.954 12.684 184.261 12.7454C184.899 12.875 185.557 12.875 186.199 12.7454C186.813 12.6191 187.396 12.3734 187.918 12.022C188.69 11.4999 189.297 10.7663 189.659 9.90642C189.782 9.61637 189.877 9.31274 189.939 9.0022C190.068 8.36414 190.068 7.70221 189.939 7.06411C189.813 6.44992 189.567 5.86303 189.215 5.34097C188.693 4.56982 187.959 3.96246 187.1 3.60077C186.809 3.47793 186.506 3.38239 186.199 3.32097C185.878 3.25273 185.554 3.22202 185.23 3.22202Z" fill="#27B6EA"/>
<path d="M95.0078 13.1939H96.2874V15.8656H96.3317C96.9561 14.0538 98.7271 12.8902 100.638 13.0403V14.4325C98.1197 14.2995 96.4 16.1557 96.4 18.5203V24.5973H95.0078V13.1939Z" fill="#475467"/>
<path d="M110.734 13.1484H112.28L115.859 23.1529H115.904L119.435 13.1484H120.872L116.61 24.545H115.129L110.734 13.1484Z" fill="#475467"/>
<path d="M122.189 18.0697C122.411 15.9951 123.667 14.0058 125.942 14.0058C128.194 14.0058 129.501 15.9712 129.563 18.0697H122.189ZM130.958 19.2401C131.071 16.036 129.61 12.832 125.946 12.832C122.322 12.832 120.797 15.8586 120.797 18.8647C120.797 22.1131 122.322 24.894 125.946 24.894C128.819 24.894 130.317 23.3927 130.914 20.8063H129.522C129.078 22.5294 127.973 23.7236 125.942 23.7236C123.267 23.7236 122.209 21.2703 122.189 19.2401H130.958Z" fill="#475467"/>
<path d="M132.891 8.80078H134.279V24.5752H132.891V8.80078Z" fill="#475467"/>
<path d="M143.728 16.5001C143.66 14.777 142.336 14.0058 140.746 14.0058C139.511 14.0058 138.054 14.4903 138.054 15.9712C138.054 17.2098 139.466 17.65 140.418 17.8922L142.274 18.312C143.864 18.5542 145.523 19.4823 145.523 21.4716C145.523 23.9454 143.069 24.894 140.947 24.894C138.296 24.894 136.487 23.6554 136.266 20.8745H137.658C137.77 22.7512 139.159 23.7236 141.015 23.7236C142.319 23.7236 144.127 23.1504 144.127 21.5603C144.127 20.233 142.892 19.7928 141.633 19.4823L139.842 19.0865C138.03 18.5986 136.661 17.981 136.661 16.036C136.661 13.7158 138.934 12.832 140.947 12.832C143.223 12.832 145.035 14.0263 145.124 16.5001H143.728Z" fill="#475467"/>
<path d="M160.484 20.1409C160.505 22.3724 158.628 23.7202 156.509 23.7202C155.205 23.7202 153.967 22.8604 153.967 21.4682C153.967 19.2367 156.905 19.2605 159.266 18.8375C159.641 18.7726 160.262 18.6634 160.44 18.3325H160.484V20.1409ZM160.484 22.8297V24.5631H161.869V16.5001C161.869 13.453 159.689 12.832 157.683 12.832C155.076 12.832 153.196 13.9819 153.063 16.6537H154.451C154.496 14.8009 155.779 14.0024 157.502 14.0024C159.136 14.0024 160.484 14.4664 160.484 16.3431C160.484 17.6023 159.843 17.7558 158.696 17.8889C155.69 18.2437 152.578 18.3529 152.578 21.557C152.578 23.8499 154.301 24.8906 156.4 24.8906C158.519 24.8906 159.518 24.1024 160.464 22.7034C160.464 22.7069 160.484 22.7 160.484 22.8297Z" fill="#475467"/>
<path d="M108.803 20.1409C108.824 22.3724 106.947 23.7202 104.825 23.7202C103.521 23.7202 102.286 22.8604 102.286 21.4682C102.286 19.2367 105.224 19.2605 107.589 18.8375C107.964 18.7726 108.582 18.6634 108.759 18.3325H108.803V20.1409ZM108.803 22.8297V24.5631H110.185V16.5001C110.185 13.453 108.005 12.832 105.995 12.832C103.388 12.832 101.512 13.9819 101.379 16.6537H102.771C102.812 14.8009 104.095 14.0024 105.818 14.0024C107.452 14.0024 108.8 14.4664 108.8 16.3431C108.8 17.6023 108.158 17.7558 107.012 17.8889C104.009 18.2437 100.891 18.3529 100.891 21.557C100.891 23.8499 102.614 24.8906 104.712 24.8906C106.835 24.8906 107.831 24.1024 108.776 22.7034C108.78 22.7069 108.803 22.7 108.803 22.8297Z" fill="#475467"/>
<path d="M164.219 13.1939H165.505V15.8657H165.549C166.173 14.0504 167.945 12.8902 169.859 13.0404V14.4326C167.341 14.2994 165.618 16.1556 165.618 18.5203V24.5974H164.222L164.219 13.1939Z" fill="#475467"/>
<path d="M172.266 9.77734H173.658V13.2031H175.975V14.3735H173.658V22.0611C173.658 22.9653 173.787 23.4942 174.784 23.5625C175.183 23.5625 175.582 23.5386 175.978 23.4942V24.685C175.559 24.685 175.16 24.7294 174.743 24.7294C172.887 24.7294 172.245 24.1119 172.269 22.1669L172.266 9.77734Z" fill="#475467"/>
<path d="M147.54 9.77734H148.935V13.2031H151.252V14.3735H148.935V22.0611C148.935 22.9653 149.065 23.4942 150.061 23.5625C150.46 23.5625 150.856 23.5386 151.252 23.4942V24.685C150.832 24.685 150.436 24.7294 150.013 24.7294C148.157 24.7294 147.519 24.1119 147.54 22.1669V9.77734Z" fill="#475467"/>
<path d="M89.0006 9.77734H90.3928V13.2031H92.7097V14.3735H90.3928V22.0611C90.3928 22.9653 90.5225 23.4942 91.5188 23.5625C91.918 23.5625 92.3138 23.542 92.7097 23.4942V24.685C92.2934 24.685 91.8941 24.7294 91.4745 24.7294C89.6182 24.7294 88.9768 24.1119 89.0006 22.1669L89.0006 9.77734Z" fill="#475467"/>
</g>
<path d="M1.064 13.004H5.474C6.18333 13.004 6.762 13.1067 7.21 13.312C7.658 13.5173 8.00333 13.774 8.246 14.082C8.48867 14.39 8.652 14.726 8.736 15.09C8.82933 15.454 8.876 15.79 8.876 16.098C8.876 16.406 8.82933 16.742 8.736 17.106C8.652 17.4607 8.48867 17.792 8.246 18.1C8.00333 18.408 7.658 18.6647 7.21 18.87C6.762 19.066 6.18333 19.164 5.474 19.164H2.814V23H1.064V13.004ZM2.814 17.736H5.376C5.572 17.736 5.77267 17.708 5.978 17.652C6.18333 17.596 6.37 17.5073 6.538 17.386C6.71533 17.2553 6.85533 17.0873 6.958 16.882C7.07 16.6673 7.126 16.4013 7.126 16.084C7.126 15.7573 7.07933 15.4867 6.986 15.272C6.89267 15.0573 6.76667 14.8893 6.608 14.768C6.44933 14.6373 6.26733 14.5487 6.062 14.502C5.85667 14.4553 5.63733 14.432 5.404 14.432H2.814V17.736ZM13.4959 23.196C12.9172 23.196 12.3992 23.1027 11.9419 22.916C11.4939 22.72 11.1112 22.454 10.7939 22.118C10.4859 21.782 10.2479 21.3807 10.0799 20.914C9.92122 20.4473 9.84189 19.934 9.84189 19.374C9.84189 18.8233 9.92122 18.3147 10.0799 17.848C10.2479 17.3813 10.4859 16.98 10.7939 16.644C11.1112 16.308 11.4939 16.0467 11.9419 15.86C12.3992 15.664 12.9172 15.566 13.4959 15.566C14.0746 15.566 14.5879 15.664 15.0359 15.86C15.4932 16.0467 15.8759 16.308 16.1839 16.644C16.5012 16.98 16.7392 17.3813 16.8979 17.848C17.0659 18.3147 17.1499 18.8233 17.1499 19.374C17.1499 19.934 17.0659 20.4473 16.8979 20.914C16.7392 21.3807 16.5012 21.782 16.1839 22.118C15.8759 22.454 15.4932 22.72 15.0359 22.916C14.5879 23.1027 14.0746 23.196 13.4959 23.196ZM13.4959 21.936C13.8506 21.936 14.1586 21.8613 14.4199 21.712C14.6812 21.5627 14.8959 21.3667 15.0639 21.124C15.2319 20.8813 15.3532 20.6107 15.4279 20.312C15.5119 20.004 15.5539 19.6913 15.5539 19.374C15.5539 19.066 15.5119 18.758 15.4279 18.45C15.3532 18.142 15.2319 17.8713 15.0639 17.638C14.8959 17.3953 14.6812 17.1993 14.4199 17.05C14.1586 16.9007 13.8506 16.826 13.4959 16.826C13.1412 16.826 12.8332 16.9007 12.5719 17.05C12.3106 17.1993 12.0959 17.3953 11.9279 17.638C11.7599 17.8713 11.6339 18.142 11.5499 18.45C11.4752 18.758 11.4379 19.066 11.4379 19.374C11.4379 19.6913 11.4752 20.004 11.5499 20.312C11.6339 20.6107 11.7599 20.8813 11.9279 21.124C12.0959 21.3667 12.3106 21.5627 12.5719 21.712C12.8332 21.8613 13.1412 21.936 13.4959 21.936ZM17.8187 15.762H19.5127L20.9267 21.166H20.9547L22.3127 15.762H23.9227L25.2247 21.166H25.2527L26.7227 15.762H28.3467L26.0787 23H24.4407L23.0967 17.624H23.0687L21.7387 23H20.0587L17.8187 15.762ZM34.3432 18.744C34.3245 18.492 34.2685 18.2493 34.1752 18.016C34.0912 17.7827 33.9699 17.582 33.8112 17.414C33.6619 17.2367 33.4752 17.0967 33.2512 16.994C33.0365 16.882 32.7939 16.826 32.5232 16.826C32.2432 16.826 31.9865 16.8773 31.7532 16.98C31.5292 17.0733 31.3332 17.2087 31.1652 17.386C31.0065 17.554 30.8759 17.7547 30.7732 17.988C30.6799 18.2213 30.6285 18.4733 30.6192 18.744H34.3432ZM30.6192 19.794C30.6192 20.074 30.6565 20.3447 30.7312 20.606C30.8152 20.8673 30.9365 21.096 31.0952 21.292C31.2539 21.488 31.4545 21.6467 31.6972 21.768C31.9399 21.88 32.2292 21.936 32.5652 21.936C33.0319 21.936 33.4052 21.838 33.6852 21.642C33.9745 21.4367 34.1892 21.1333 34.3292 20.732H35.8412C35.7572 21.124 35.6125 21.474 35.4072 21.782C35.2019 22.09 34.9545 22.3513 34.6652 22.566C34.3759 22.7713 34.0492 22.9253 33.6852 23.028C33.3305 23.14 32.9572 23.196 32.5652 23.196C31.9959 23.196 31.4919 23.1027 31.0532 22.916C30.6145 22.7293 30.2412 22.468 29.9332 22.132C29.6345 21.796 29.4059 21.3947 29.2472 20.928C29.0979 20.4613 29.0232 19.948 29.0232 19.388C29.0232 18.8747 29.1025 18.3893 29.2612 17.932C29.4292 17.4653 29.6625 17.0593 29.9612 16.714C30.2692 16.3593 30.6379 16.0793 31.0672 15.874C31.4965 15.6687 31.9819 15.566 32.5232 15.566C33.0925 15.566 33.6012 15.6873 34.0492 15.93C34.5065 16.1633 34.8845 16.476 35.1832 16.868C35.4819 17.26 35.6965 17.7127 35.8272 18.226C35.9672 18.73 36.0045 19.2527 35.9392 19.794H30.6192ZM37.1525 15.762H38.6505V17.162H38.6785C38.7252 16.966 38.8138 16.7747 38.9445 16.588C39.0845 16.4013 39.2478 16.2333 39.4345 16.084C39.6305 15.9253 39.8452 15.7993 40.0785 15.706C40.3118 15.6127 40.5498 15.566 40.7925 15.566C40.9792 15.566 41.1052 15.5707 41.1705 15.58C41.2452 15.5893 41.3198 15.5987 41.3945 15.608V17.148C41.2825 17.1293 41.1658 17.1153 41.0445 17.106C40.9325 17.0873 40.8205 17.078 40.7085 17.078C40.4378 17.078 40.1812 17.134 39.9385 17.246C39.7052 17.3487 39.4998 17.5073 39.3225 17.722C39.1452 17.9273 39.0052 18.184 38.9025 18.492C38.7998 18.8 38.7485 19.1547 38.7485 19.556V23H37.1525V15.762ZM46.7983 18.744C46.7796 18.492 46.7236 18.2493 46.6303 18.016C46.5463 17.7827 46.4249 17.582 46.2663 17.414C46.1169 17.2367 45.9303 17.0967 45.7063 16.994C45.4916 16.882 45.2489 16.826 44.9783 16.826C44.6983 16.826 44.4416 16.8773 44.2083 16.98C43.9843 17.0733 43.7883 17.2087 43.6203 17.386C43.4616 17.554 43.3309 17.7547 43.2283 17.988C43.1349 18.2213 43.0836 18.4733 43.0743 18.744H46.7983ZM43.0743 19.794C43.0743 20.074 43.1116 20.3447 43.1863 20.606C43.2703 20.8673 43.3916 21.096 43.5503 21.292C43.7089 21.488 43.9096 21.6467 44.1523 21.768C44.3949 21.88 44.6843 21.936 45.0203 21.936C45.4869 21.936 45.8603 21.838 46.1403 21.642C46.4296 21.4367 46.6443 21.1333 46.7843 20.732H48.2963C48.2123 21.124 48.0676 21.474 47.8623 21.782C47.6569 22.09 47.4096 22.3513 47.1203 22.566C46.8309 22.7713 46.5043 22.9253 46.1403 23.028C45.7856 23.14 45.4123 23.196 45.0203 23.196C44.4509 23.196 43.9469 23.1027 43.5083 22.916C43.0696 22.7293 42.6963 22.468 42.3883 22.132C42.0896 21.796 41.8609 21.3947 41.7023 20.928C41.5529 20.4613 41.4783 19.948 41.4783 19.388C41.4783 18.8747 41.5576 18.3893 41.7163 17.932C41.8843 17.4653 42.1176 17.0593 42.4163 16.714C42.7243 16.3593 43.0929 16.0793 43.5223 15.874C43.9516 15.6687 44.4369 15.566 44.9783 15.566C45.5476 15.566 46.0563 15.6873 46.5043 15.93C46.9616 16.1633 47.3396 16.476 47.6383 16.868C47.9369 17.26 48.1516 17.7127 48.2823 18.226C48.4223 18.73 48.4596 19.2527 48.3943 19.794H43.0743ZM56.4256 23H54.9136V22.02H54.8856C54.6709 22.44 54.3582 22.7433 53.9476 22.93C53.5369 23.1073 53.1029 23.196 52.6456 23.196C52.0762 23.196 51.5769 23.098 51.1476 22.902C50.7276 22.6967 50.3776 22.4213 50.0976 22.076C49.8176 21.7307 49.6076 21.3247 49.4676 20.858C49.3276 20.382 49.2576 19.8733 49.2576 19.332C49.2576 18.6787 49.3462 18.114 49.5236 17.638C49.7009 17.162 49.9342 16.77 50.2236 16.462C50.5222 16.154 50.8582 15.93 51.2316 15.79C51.6142 15.6407 52.0016 15.566 52.3936 15.566C52.6176 15.566 52.8462 15.5893 53.0796 15.636C53.3129 15.6733 53.5369 15.7387 53.7516 15.832C53.9662 15.9253 54.1622 16.0467 54.3396 16.196C54.5262 16.336 54.6802 16.504 54.8016 16.7H54.8296V13.004H56.4256V23ZM50.8536 19.458C50.8536 19.766 50.8909 20.0693 50.9656 20.368C51.0496 20.6667 51.1709 20.9327 51.3296 21.166C51.4976 21.3993 51.7076 21.586 51.9596 21.726C52.2116 21.866 52.5102 21.936 52.8556 21.936C53.2102 21.936 53.5136 21.8613 53.7656 21.712C54.0269 21.5627 54.2369 21.3667 54.3956 21.124C54.5636 20.8813 54.6849 20.6107 54.7596 20.312C54.8436 20.004 54.8856 19.6913 54.8856 19.374C54.8856 18.5713 54.7036 17.946 54.3396 17.498C53.9849 17.05 53.4996 16.826 52.8836 16.826C52.5102 16.826 52.1929 16.9053 51.9316 17.064C51.6796 17.2133 51.4696 17.414 51.3016 17.666C51.1429 17.9087 51.0262 18.1887 50.9516 18.506C50.8862 18.814 50.8536 19.1313 50.8536 19.458ZM62.1047 13.004H63.7007V16.7H63.7287C63.8407 16.5227 63.976 16.364 64.1347 16.224C64.2933 16.084 64.466 15.9673 64.6527 15.874C64.8487 15.7713 65.0493 15.6967 65.2547 15.65C65.4693 15.594 65.6793 15.566 65.8847 15.566C66.454 15.566 66.9487 15.6687 67.3687 15.874C67.798 16.07 68.1527 16.3453 68.4327 16.7C68.7127 17.0453 68.9227 17.4513 69.0627 17.918C69.2027 18.3847 69.2727 18.884 69.2727 19.416C69.2727 19.9013 69.2073 20.3727 69.0767 20.83C68.9553 21.2873 68.764 21.6933 68.5027 22.048C68.2507 22.3933 67.9287 22.6733 67.5367 22.888C67.1447 23.0933 66.6827 23.196 66.1507 23.196C65.908 23.196 65.6607 23.1773 65.4087 23.14C65.166 23.112 64.9327 23.0513 64.7087 22.958C64.4847 22.8647 64.2793 22.7433 64.0927 22.594C63.9153 22.4447 63.766 22.2487 63.6447 22.006H63.6167V23H62.1047V13.004ZM67.6767 19.388C67.6767 19.0613 67.6347 18.744 67.5507 18.436C67.4667 18.128 67.3407 17.8573 67.1727 17.624C67.0047 17.3813 66.7947 17.19 66.5427 17.05C66.2907 16.9007 66.0013 16.826 65.6747 16.826C65.0027 16.826 64.494 17.0593 64.1487 17.526C63.8127 17.9927 63.6447 18.6133 63.6447 19.388C63.6447 19.752 63.6867 20.0927 63.7707 20.41C63.864 20.718 63.9993 20.984 64.1767 21.208C64.354 21.432 64.564 21.6093 64.8067 21.74C65.0587 21.8707 65.348 21.936 65.6747 21.936C66.0387 21.936 66.3467 21.8613 66.5987 21.712C66.8507 21.5627 67.056 21.3713 67.2147 21.138C67.3827 20.8953 67.4993 20.6247 67.5647 20.326C67.6393 20.018 67.6767 19.7053 67.6767 19.388ZM69.8233 15.762H71.5733L73.4633 21.166H73.4913L75.3253 15.762H76.9913L74.1773 23.392C74.0466 23.7187 73.9159 24.0313 73.7853 24.33C73.6639 24.6287 73.5099 24.89 73.3233 25.114C73.1459 25.3473 72.9219 25.5293 72.6513 25.66C72.3806 25.8 72.0353 25.87 71.6153 25.87C71.2419 25.87 70.8733 25.842 70.5093 25.786V24.442C70.6399 24.4607 70.7659 24.4793 70.8873 24.498C71.0086 24.526 71.1346 24.54 71.2653 24.54C71.4519 24.54 71.6059 24.5167 71.7273 24.47C71.8486 24.4233 71.9466 24.3533 72.0213 24.26C72.1053 24.176 72.1753 24.0733 72.2313 23.952C72.2873 23.8307 72.3386 23.6907 72.3853 23.532L72.5673 22.972L69.8233 15.762Z" fill="#101828"/>
<defs>
<clipPath id="clip0_10162_9930">
<rect width="105" height="25.1712" fill="white" transform="translate(89)"/>
</clipPath>
</defs>
</svg>
