<svg width="20" height="15" viewBox="0 0 20 15" fill="none" xmlns="http://www.w3.org/2000/svg">
<path fill-rule="evenodd" clip-rule="evenodd" d="M20 7.5C20 7.78411 19.8829 8.05658 19.6744 8.25748C19.466 8.45837 19.1833 8.57124 18.8885 8.57124H3.79673L8.56961 13.169C8.67296 13.2686 8.75494 13.3868 8.81087 13.5169C8.8668 13.6471 8.89558 13.7866 8.89558 13.9274C8.89558 14.0683 8.8668 14.2077 8.81087 14.3379C8.75494 14.468 8.67296 14.5862 8.56961 14.6858C8.46627 14.7854 8.34358 14.8645 8.20855 14.9184C8.07353 14.9723 7.92881 15 7.78265 15C7.6365 15 7.49178 14.9723 7.35675 14.9184C7.22173 14.8645 7.09904 14.7854 6.9957 14.6858L0.326552 8.25844C0.223039 8.15893 0.140913 8.04071 0.0848783 7.91057C0.0288432 7.78042 0 7.6409 0 7.5C0 7.3591 0.0288432 7.21958 0.0848783 7.08943C0.140913 6.95929 0.223039 6.84107 0.326552 6.74157L6.9957 0.314154C7.20441 0.113005 7.48749 0 7.78265 0C8.07782 0 8.3609 0.113005 8.56961 0.314154C8.77833 0.515303 8.89558 0.788121 8.89558 1.07259C8.89558 1.35706 8.77833 1.62987 8.56961 1.83102L3.79673 6.42876H18.8885C19.1833 6.42876 19.466 6.54163 19.6744 6.74252C19.8829 6.94342 20 7.21589 20 7.5Z" fill="white"/>
</svg>
