<svg width="87" height="78" viewBox="0 0 87 78" fill="none" xmlns="http://www.w3.org/2000/svg">
<path d="M3.53016 77.6831H59.1891C59.5178 77.6837 59.8433 77.6194 60.1472 77.4941C60.451 77.3687 60.7271 77.1847 60.9597 76.9525C61.1924 76.7203 61.3769 76.4445 61.5028 76.1409C61.6287 75.8373 61.6936 75.5119 61.6936 75.1832V48.7262C61.6884 47.0182 61.1362 45.3566 60.118 43.9852C59.0999 42.6138 57.6692 41.6045 56.0357 41.1053L49.5493 39.0957V19.9958C49.5493 16.5291 48.1721 13.2045 45.7209 10.7532C43.2696 8.30194 39.9449 6.9248 36.4783 6.9248H14.0709C10.6043 6.9248 7.27968 8.30194 4.8284 10.7532C2.37712 13.2045 1 16.5291 1 19.9958V75.1925C0.999999 75.5212 1.06482 75.8466 1.19074 76.1502C1.31666 76.4538 1.50122 76.7297 1.73384 76.9618C1.96646 77.194 2.24258 77.3781 2.54641 77.5034C2.85024 77.6288 3.17581 77.693 3.50448 77.6924L3.53016 77.6831ZM6.03465 69.0095H24.8895V72.667H6.04166L6.03465 69.0095ZM41.597 72.667V62.2313H44.9908V72.6624L41.597 72.667ZM56.6916 48.7122V72.6624H50.0091V59.7268C50.0091 59.0638 49.7457 58.428 49.2769 57.9592C48.8081 57.4904 48.1723 57.227 47.5093 57.227H39.1065C38.4435 57.227 37.8077 57.4904 37.3389 57.9592C36.87 58.428 36.6067 59.0638 36.6067 59.7268V72.6624H29.9241V42.116C29.9211 41.6552 30.0287 41.2004 30.2379 40.7898C30.4471 40.3792 30.7517 40.0248 31.1262 39.7563C31.4888 39.4928 31.9097 39.3208 32.3531 39.2549C32.7965 39.1891 33.2492 39.2314 33.6727 39.3781L46.3469 43.3601L54.5746 45.8599C55.1859 46.0451 55.7219 46.4209 56.1045 46.9323C56.487 47.4438 56.696 48.0642 56.7009 48.7029L56.6916 48.7122ZM14.0779 11.9221H36.4853C38.6223 11.924 40.6712 12.7737 42.1823 14.2848C43.6934 15.7959 44.5431 17.8448 44.5449 19.9818V37.5365L35.1899 34.6376C34.0195 34.2415 32.7711 34.1324 31.5497 34.3192C30.3284 34.506 29.1697 34.9835 28.1712 35.7113C27.1563 36.4445 26.3297 37.4079 25.7593 38.5225C25.1888 39.637 24.8907 40.871 24.8895 42.123V63.9959H6.03465V19.9981C6.0365 17.8611 6.88623 15.8122 8.39731 14.3011C9.90838 12.7901 11.9573 11.9403 14.0943 11.9385L14.0779 11.9221Z" fill="#CED7E5" stroke="#1E1238" stroke-width="0.5"/>
<path d="M16.2325 23.5215H17.7147C18.3647 23.5647 18.9769 23.8425 19.4376 24.3031C19.8982 24.7637 20.1759 25.376 20.2192 26.026V27.5034C20.2192 28.1677 19.9553 28.8047 19.4856 29.2744C19.0159 29.7441 18.3789 30.0079 17.7147 30.0079H16.2325C15.5825 29.9647 14.9703 29.6869 14.5096 29.2263C14.049 28.7657 13.7713 28.1535 13.728 27.5034V26.0096C13.7323 25.3482 13.9981 24.7154 14.4673 24.2493C14.9366 23.7831 15.5711 23.5215 16.2325 23.5215Z" fill="#CED7E5" stroke="#1E1238" stroke-width="0.5"/>
<path d="M16.2325 37.4619H17.7147C18.3647 37.5052 18.9769 37.7829 19.4376 38.2435C19.8982 38.7042 20.1759 39.3164 20.2192 39.9664V41.4439C20.2192 42.1081 19.9553 42.7451 19.4856 43.2148C19.0159 43.6845 18.3789 43.9484 17.7147 43.9484H16.2325C15.5825 43.9051 14.9703 43.6274 14.5096 43.1667C14.049 42.7061 13.7713 42.0939 13.728 41.4439V39.95C13.7323 39.2886 13.9981 38.6558 14.4673 38.1897C14.9366 37.7235 15.5711 37.4619 16.2325 37.4619Z" fill="#CED7E5" stroke="#1E1238" stroke-width="0.5"/>
<path d="M32.4008 23.5215H33.8829C34.5329 23.5647 35.1451 23.8425 35.6058 24.3031C36.0664 24.7637 36.3441 25.376 36.3874 26.026V27.5034C36.3874 28.1677 36.1235 28.8047 35.6538 29.2744C35.1842 29.7441 34.5471 30.0079 33.8829 30.0079H32.4008C31.7507 29.9647 31.1385 29.6869 30.6779 29.2263C30.2173 28.7657 29.9395 28.1535 29.8962 27.5034V26.0096C29.9006 25.3482 30.1663 24.7154 30.6355 24.2493C31.1048 23.7831 31.7393 23.5215 32.4008 23.5215Z" fill="#CED7E5" stroke="#1E1238" stroke-width="0.5"/>
<path d="M86.3746 13.7783L78.7887 1.22083C78.664 1.01419 78.4881 0.843282 78.2779 0.724685C78.0677 0.606088 77.8304 0.54383 77.589 0.543945H53.0133C52.7719 0.54383 52.5347 0.606088 52.3245 0.724685C52.1143 0.843282 51.9383 1.01419 51.8136 1.22083L44.2231 13.7783C44.0645 14.0407 43.9964 14.3479 44.0293 14.6528C44.0622 14.9576 44.1942 15.2433 44.4051 15.4658L64.287 36.4587C64.4179 36.5968 64.5755 36.7068 64.7502 36.7819C64.925 36.8571 65.1132 36.8958 65.3035 36.8958C65.4937 36.8958 65.682 36.8571 65.8567 36.7819C66.0315 36.7068 66.1891 36.5968 66.32 36.4587L86.2018 15.4658C86.4113 15.2422 86.5416 14.956 86.5728 14.6512C86.604 14.3464 86.5344 14.0397 86.3746 13.7783ZM82.6937 13.1014H74.6364L71.6697 3.34486H76.8048L82.6937 13.1014ZM56.0476 15.9023L61.3297 29.272L48.6765 15.9047L56.0476 15.9023ZM71.532 15.9023L65.2953 31.6832L59.0656 15.9047L71.532 15.9023ZM58.8906 13.1014L61.8572 3.34486H68.7381L71.7024 13.1014H58.8906ZM74.543 15.9023H81.9398L69.268 29.2744L74.543 15.9023ZM53.7976 3.34253H58.9326L55.9659 13.0991H47.904L53.7976 3.34253Z" fill="#CED7E5"/>
</svg>
