<svg width="86" height="83" viewBox="0 0 86 83" fill="none" xmlns="http://www.w3.org/2000/svg">
<path d="M33.4752 39.0032C29.9267 39.0032 27.0879 36.1644 27.0879 32.6159C27.0879 29.0673 29.9267 26.2285 33.4752 26.2285C37.0238 26.2285 39.8626 29.0673 39.8626 32.6159C39.8626 36.1644 37.0238 39.0032 33.4752 39.0032ZM33.4752 30.4868C32.2687 30.4868 31.3461 31.4094 31.3461 32.6159C31.3461 33.8224 32.2687 34.745 33.4752 34.745C34.6817 34.745 35.6044 33.8224 35.6044 32.6159C35.6044 31.4094 34.6817 30.4868 33.4752 30.4868Z" fill="white" stroke="white" stroke-width="0.2"/>
<path d="M51.9278 57.4566C48.3792 57.4566 45.5404 54.6177 45.5404 51.0692C45.5404 47.5207 48.3792 44.6818 51.9278 44.6818C55.4763 44.6818 58.3151 47.5207 58.3151 51.0692C58.3151 54.6177 55.4763 57.4566 51.9278 57.4566ZM51.9278 48.9401C50.7213 48.9401 49.7987 49.8627 49.7987 51.0692C49.7987 52.2757 50.7213 53.1983 51.9278 53.1983C53.1343 53.1983 54.0569 52.2757 54.0569 51.0692C54.0569 49.8627 53.1343 48.9401 51.9278 48.9401ZM37.7337 49.5788C37.2369 49.5788 36.7401 49.4369 36.3142 49.011C35.4626 48.2304 35.3206 46.8819 36.1013 46.0303L51.7149 28.3586C52.4955 27.5069 53.844 27.365 54.6956 28.1457C55.5473 28.9264 55.6892 30.2748 54.9085 31.1264L39.295 48.7981C38.9402 49.3659 38.3014 49.5788 37.7337 49.5788ZM32.056 51.7789C31.4913 51.7789 30.9498 52.0032 30.5505 52.4025C30.1512 52.8018 29.9269 53.3433 29.9269 53.908C29.9269 54.4727 30.1512 55.0142 30.5505 55.4135C30.9498 55.8128 31.4913 56.0371 32.056 56.0371C32.6207 56.0371 33.1622 55.8128 33.5615 55.4135C33.9608 55.0142 34.1851 54.4727 34.1851 53.908C34.1851 53.3433 33.9608 52.8018 33.5615 52.4025C33.1622 52.0032 32.6207 51.7789 32.056 51.7789Z" fill="white" stroke="white" stroke-width="0.2"/>
<path d="M32.0559 82.5086C31.2752 82.5086 30.4236 82.3667 29.6429 82.1538C27.017 81.3021 25.1008 79.244 24.462 76.5471L23.4685 72.2889C23.0426 70.5856 21.4813 69.45 19.778 69.592L15.4488 69.9468C12.7519 70.1597 10.126 68.9532 8.49365 66.7532C6.86133 64.5531 6.50648 61.7142 7.50007 59.1593L9.13239 55.114C9.77113 53.4816 9.20336 51.6364 7.71298 50.7138L4.0225 48.4427C1.68047 47.0233 0.332031 44.5393 0.332031 41.7715C0.332031 39.0036 1.75144 36.5197 4.0225 35.1002L7.71298 32.8292C9.20336 31.9066 9.77113 30.0613 9.13239 28.429L7.50007 24.3837C6.43551 21.8287 6.79036 18.9899 8.42268 16.7898C10.055 14.5897 12.61 13.3832 15.3778 13.5961L19.707 13.951C21.4813 14.0929 23.0426 12.9574 23.3975 11.2541L24.3911 6.99587C25.0298 4.36996 26.946 2.24084 29.5719 1.38919C32.1978 0.537546 34.9657 1.10531 37.0238 2.87958L40.3595 5.7184C41.7079 6.85393 43.6241 6.85393 44.9726 5.7184L48.3082 2.87958C50.3663 1.10531 53.2052 0.537546 55.7601 1.38919C58.315 2.24084 60.3022 4.29899 60.941 6.99587L61.9345 11.2541C62.3604 12.9574 63.9217 14.0929 65.625 13.951L69.9542 13.5961C72.6511 13.3832 75.277 14.5897 76.9093 16.7898C78.5417 18.9899 78.8256 21.8287 77.832 24.3837L76.1996 28.429C75.5609 30.0613 76.1287 31.9066 77.619 32.8292L81.3095 35.1002C83.6516 36.5197 85 39.0036 85 41.7715C85 44.5393 83.5806 47.0233 81.3095 48.4427L77.619 50.7138C76.1287 51.6364 75.5609 53.4816 76.1996 55.114L77.832 59.1593C78.8965 61.7142 78.5417 64.5531 76.9093 66.7532C75.277 68.9532 72.7221 70.1597 69.9542 69.9468L65.625 69.592C63.9217 69.45 62.2894 70.5856 61.9345 72.2889L60.941 76.5471C60.3022 79.173 58.386 81.3021 55.7601 82.1538C53.1342 83.0054 50.3663 82.4377 48.3082 80.6634L44.9726 77.8246C43.6241 76.689 41.7079 76.689 40.3595 77.8246L37.0238 80.6634C35.6754 81.8699 33.8302 82.5086 32.0559 82.5086ZM19.9909 65.3337C23.6104 65.3337 26.7331 67.7467 27.5848 71.2953L28.5783 75.5535C28.8622 76.76 29.7139 77.6826 30.9204 78.1085C32.1269 78.4633 33.3334 78.2504 34.327 77.3987L37.6626 74.5599C40.5724 72.0759 44.8306 72.0759 47.8114 74.5599L51.147 77.3987C52.1406 78.2504 53.3471 78.4633 54.5536 78.1085C55.7601 77.7536 56.6117 76.76 56.8956 75.5535L57.8892 71.2953C58.8118 67.5338 62.2184 65.0499 66.0508 65.3337L70.3801 65.6886C71.6575 65.7596 72.7931 65.2628 73.5028 64.2692C74.2125 63.2756 74.4254 61.9981 73.9286 60.8626L72.2962 56.8173C70.8059 53.2687 72.1543 49.2234 75.419 47.1653L79.1094 44.8942C80.174 44.2555 80.8127 43.1199 80.8127 41.8425C80.8127 40.565 80.174 39.5004 79.1094 38.7907L75.419 36.5197C72.1543 34.5325 70.8059 30.4162 72.2962 26.8677L73.9286 22.8223C74.4254 21.6868 74.2834 20.4093 73.5028 19.4157C72.7931 18.4221 71.5865 17.8544 70.3801 17.9963L66.0508 18.3512C62.2184 18.6351 58.7409 16.1511 57.8892 12.3896L56.8956 8.1314C56.6117 6.9249 55.7601 6.00228 54.5536 5.57646C53.3471 5.22161 52.1406 5.43452 51.147 6.28617L47.8114 9.12499C44.9016 11.609 40.6434 11.609 37.6626 9.12499L34.327 6.28617C33.3334 5.43452 32.1269 5.22161 30.9204 5.57646C29.7139 5.93131 28.8622 6.9249 28.5783 8.1314L27.5848 12.3896C26.6621 16.1511 23.2555 18.6351 19.4231 18.3512L15.023 17.9963C13.7455 17.9254 12.61 18.4221 11.9002 19.4157C11.1905 20.4093 10.9776 21.6868 11.4744 22.8223L13.1067 26.8677C14.5971 30.4162 13.2487 34.4615 9.98404 36.5197L6.29356 38.7907C5.229 39.4295 4.59027 40.565 4.59027 41.8425C4.59027 43.1199 5.229 44.1845 6.29356 44.8942L9.98404 47.1653C13.2487 49.1524 14.5971 53.2687 13.1067 56.8173L11.4744 60.7916C10.9776 61.9271 11.1196 63.2046 11.9002 64.1982C12.61 65.1918 13.8165 65.7596 15.023 65.6176L19.3522 65.2628C19.5651 65.3337 19.778 65.3337 19.9909 65.3337Z" fill="white" stroke="white" stroke-width="0.2"/>
</svg>
