<svg width="87" height="88" viewBox="0 0 87 88" fill="none" xmlns="http://www.w3.org/2000/svg">
<path d="M30.2729 62.6744C32.1222 66.5013 33.6014 70.5049 34.6551 74.6865H2.62874C3.68435 70.4289 5.16592 66.3688 7.06947 62.5617L7.06948 62.5617L7.07299 62.5546C9.18155 58.3041 11.2735 55.2695 13.2906 53.3279C15.2901 51.4033 17.066 50.6865 18.6429 50.6865C20.2218 50.6865 22.0149 51.4052 24.0295 53.3449C26.0602 55.3001 28.1673 58.3638 30.2729 62.6744Z" stroke="white" stroke-width="5"/>
<path d="M18.6426 43.3512C12.1522 43.3512 6.90454 38.1036 6.90454 31.6131C6.90454 25.1226 12.1522 19.875 18.6426 19.875C25.1331 19.875 30.3807 25.1226 30.3807 31.6131C30.3807 38.1036 25.1331 43.3512 18.6426 43.3512ZM18.6426 24.0179C14.4307 24.0179 11.0474 27.4012 11.0474 31.6131C11.0474 35.825 14.4307 39.2083 18.6426 39.2083C22.8545 39.2083 26.2379 35.825 26.2379 31.6131C26.2379 27.4012 22.8545 24.0179 18.6426 24.0179Z" fill="white"/>
<path d="M65.9405 87.5439H2.07143C0.897619 87.5439 0 86.6463 0 85.4725C0 84.2987 0.897619 83.4011 2.07143 83.4011H65.9405C67.6667 83.4011 69.0476 82.0201 69.0476 80.2939C69.0476 78.5678 67.6667 77.1868 65.9405 77.1868H2.07143C0.897619 77.1868 0 76.2892 0 75.1154C0 73.9416 0.897619 73.0439 2.07143 73.0439H65.9405C69.9452 73.0439 73.1905 76.2892 73.1905 80.2939C73.1905 84.2987 69.9452 87.5439 65.9405 87.5439Z" fill="white"/>
<path d="M71.3954 50.2573C70.9811 50.2573 70.5668 50.1192 70.2215 49.912L62.4882 44.7334C61.3834 43.9739 60.693 42.8001 60.5549 41.4882C60.4858 40.2453 60.9001 39.0025 61.8668 38.1739C62.5573 37.4834 63.4549 37.1382 64.4215 37.0692C76.643 36.0334 82.8573 30.6477 82.8573 20.912C82.8573 7.51678 70.843 4.68583 60.762 4.68583C50.6811 4.68583 38.6668 7.51678 38.6668 20.912C38.6668 28.5073 41.912 32.9953 49.162 35.4811C50.2668 35.8263 50.8192 37.0001 50.4739 38.1049C50.1287 39.2096 48.9549 39.762 47.8501 39.4168C38.8739 36.3096 34.5239 30.2334 34.5239 20.912C34.5239 7.79297 43.8454 0.542969 60.762 0.542969C77.6787 0.542969 87.0001 7.79297 87.0001 20.912C87.0001 32.8573 79.1287 40.0382 64.7668 41.143C64.6977 41.143 64.6977 41.143 64.6977 41.143C64.6977 41.143 64.7668 41.212 64.8358 41.2811L72.5001 46.4596C73.4668 47.0811 73.6739 48.393 73.0525 49.3596C72.7073 49.912 72.0168 50.2573 71.3954 50.2573Z" fill="white"/>
<path d="M60.7619 32.4426C60.6238 32.4426 60.4857 32.4426 60.3476 32.3736C60.2095 32.3736 60.0714 32.3045 59.9333 32.2355C59.7952 32.1664 59.7261 32.0974 59.5881 32.0283C59.45 31.9593 59.3809 31.8903 59.2428 31.7522C58.8976 31.476 58.6904 30.9236 58.6904 30.3712C58.6904 29.8188 58.8976 29.2664 59.3119 28.9212C60.0714 28.1617 61.4523 28.1617 62.2119 28.9212C62.6261 29.3355 62.8333 29.8188 62.8333 30.3712C62.8333 30.9236 62.6261 31.476 62.2119 31.8212C62.1428 31.8903 62.0047 32.0283 61.8666 32.0974C61.7285 32.1664 61.6595 32.2355 61.5214 32.3045C61.3833 32.3736 61.2452 32.3736 61.1071 32.4426C61.038 32.4426 60.9 32.4426 60.7619 32.4426Z" fill="white"/>
<path d="M60.8309 25.5391C59.6571 25.5391 58.7595 24.6414 58.7595 23.4676C58.7595 22.2938 59.6571 21.3962 60.8309 21.3962C62.5571 21.3962 63.9381 20.0153 63.9381 18.2891C63.9381 16.5629 62.5571 15.1819 60.8309 15.1819C59.9333 15.1819 59.1047 15.5272 58.5523 16.2176C57.7928 17.0462 56.4809 17.1153 55.6523 16.3557C54.8238 15.5962 54.7547 14.2843 55.5142 13.4557C56.8952 11.9367 58.8285 11.0391 60.9 11.0391C64.9047 11.0391 68.15 14.2843 68.15 18.2891C68.15 22.2938 64.8357 25.5391 60.8309 25.5391Z" fill="white"/>
</svg>
