<svg width="119" height="31" viewBox="0 0 119 31" fill="none" xmlns="http://www.w3.org/2000/svg">
<path d="M0.0919026 0.0119981H14.4139C17.7179 0.0119981 20.1959 0.725998 21.8479 2.154C23.4999 3.582 24.3259 5.57 24.3259 8.118C24.3259 9.546 24.1159 10.736 23.6959 11.688C23.2759 12.612 22.7859 13.368 22.2259 13.956C21.6659 14.516 21.1059 14.922 20.5459 15.174C20.0139 15.426 19.6219 15.594 19.3699 15.678V15.762C19.8179 15.818 20.2939 15.958 20.7979 16.182C21.3299 16.406 21.8199 16.77 22.2679 17.274C22.7159 17.75 23.0799 18.38 23.3599 19.164C23.6679 19.948 23.8219 20.928 23.8219 22.104C23.8219 23.868 23.9479 25.478 24.1999 26.934C24.4799 28.362 24.8999 29.384 25.4599 30H19.8319C19.4399 29.356 19.2019 28.642 19.1179 27.858C19.0619 27.074 19.0339 26.318 19.0339 25.59C19.0339 24.218 18.9499 23.042 18.7819 22.062C18.6139 21.054 18.3059 20.228 17.8579 19.584C17.4099 18.912 16.7939 18.422 16.0099 18.114C15.2539 17.806 14.2739 17.652 13.0699 17.652H5.3419V30H0.0919026V0.0119981ZM5.3419 13.662H13.9519C15.6319 13.662 16.9059 13.27 17.7739 12.486C18.6419 11.674 19.0759 10.47 19.0759 8.874C19.0759 7.922 18.9359 7.152 18.6559 6.564C18.3759 5.948 17.9839 5.472 17.4799 5.136C17.0039 4.8 16.4439 4.576 15.7999 4.464C15.1839 4.352 14.5399 4.296 13.8679 4.296H5.3419V13.662ZM48.1862 30H28.1102C28.1382 27.564 28.7262 25.436 29.8742 23.616C31.0222 21.796 32.5902 20.214 34.5782 18.87C35.5302 18.17 36.5242 17.498 37.5602 16.854C38.5962 16.182 39.5482 15.468 40.4162 14.712C41.2842 13.956 41.9982 13.144 42.5582 12.276C43.1182 11.38 43.4122 10.358 43.4402 9.21C43.4402 8.678 43.3702 8.118 43.2302 7.53C43.1182 6.914 42.8802 6.354 42.5162 5.85C42.1522 5.318 41.6482 4.884 41.0042 4.548C40.3602 4.184 39.5202 4.002 38.4842 4.002C37.5322 4.002 36.7342 4.198 36.0902 4.59C35.4742 4.954 34.9702 5.472 34.5782 6.144C34.2142 6.788 33.9342 7.558 33.7382 8.454C33.5702 9.35 33.4722 10.316 33.4442 11.352H28.6562C28.6562 9.728 28.8662 8.23 29.2862 6.858C29.7342 5.458 30.3922 4.254 31.2602 3.246C32.1282 2.238 33.1782 1.454 34.4102 0.893999C35.6702 0.305998 37.1262 0.0119981 38.7782 0.0119981C40.5702 0.0119981 42.0682 0.305998 43.2722 0.893999C44.4762 1.482 45.4422 2.224 46.1702 3.12C46.9262 4.016 47.4582 4.996 47.7662 6.06C48.0742 7.096 48.2282 8.09 48.2282 9.042C48.2282 10.218 48.0462 11.282 47.6822 12.234C47.3182 13.186 46.8282 14.068 46.2122 14.88C45.5962 15.664 44.8962 16.392 44.1122 17.064C43.3282 17.736 42.5162 18.366 41.6762 18.954C40.8362 19.542 39.9962 20.102 39.1562 20.634C38.3162 21.166 37.5322 21.698 36.8042 22.23C36.1042 22.762 35.4882 23.322 34.9562 23.91C34.4242 24.47 34.0602 25.072 33.8642 25.716H48.1862V30ZM56.5721 22.566C56.6841 23.77 57.1041 24.75 57.8321 25.506C58.5881 26.234 59.5961 26.598 60.8561 26.598C62.1441 26.598 63.1661 26.262 63.9221 25.59C64.7061 24.89 65.3081 24.036 65.7281 23.028C66.1481 21.992 66.4281 20.9 66.5681 19.752C66.7361 18.576 66.8621 17.498 66.9461 16.518L66.8621 16.434C66.2181 17.582 65.3361 18.464 64.2161 19.08C63.0961 19.668 61.8641 19.962 60.5201 19.962C59.1201 19.962 57.8461 19.724 56.6981 19.248C55.5781 18.772 54.6121 18.114 53.8001 17.274C52.9881 16.406 52.3581 15.37 51.9101 14.166C51.4621 12.934 51.2381 11.562 51.2381 10.05C51.2381 8.622 51.4621 7.306 51.9101 6.102C52.3581 4.87 53.0161 3.806 53.8841 2.91C54.7521 1.986 55.8161 1.272 57.0761 0.767998C58.3361 0.263998 59.7641 0.0119981 61.3601 0.0119981C63.4321 0.0119981 65.1401 0.417998 66.4841 1.23C67.8281 2.014 68.8781 3.106 69.6341 4.506C70.4181 5.878 70.9641 7.502 71.2721 9.378C71.5801 11.254 71.7341 13.256 71.7341 15.384C71.7341 17.148 71.5381 18.926 71.1461 20.718C70.7821 22.51 70.1661 24.148 69.2981 25.632C68.4301 27.088 67.2821 28.278 65.8541 29.202C64.4541 30.126 62.7181 30.588 60.6461 30.588C59.4701 30.588 58.3641 30.392 57.3281 30C56.2921 29.608 55.3681 29.062 54.5561 28.362C53.7721 27.662 53.1281 26.822 52.6241 25.842C52.1201 24.862 51.8401 23.77 51.7841 22.566H56.5721ZM61.1501 4.002C60.2821 4.002 59.5261 4.17 58.8821 4.506C58.2381 4.814 57.7061 5.248 57.2861 5.808C56.8661 6.368 56.5441 7.012 56.3201 7.74C56.1241 8.468 56.0261 9.224 56.0261 10.008C56.0261 10.82 56.1241 11.604 56.3201 12.36C56.5441 13.088 56.8661 13.732 57.2861 14.292C57.7061 14.852 58.2381 15.314 58.8821 15.678C59.5261 16.014 60.2821 16.182 61.1501 16.182C62.0461 16.182 62.8301 16.014 63.5021 15.678C64.1741 15.342 64.7201 14.894 65.1401 14.334C65.5881 13.746 65.9241 13.088 66.1481 12.36C66.3721 11.604 66.4841 10.82 66.4841 10.008C66.4841 9.224 66.3721 8.468 66.1481 7.74C65.9241 7.012 65.5881 6.382 65.1401 5.85C64.7201 5.29 64.1741 4.842 63.5021 4.506C62.8301 4.17 62.0461 4.002 61.1501 4.002ZM79.9099 22.566C80.0219 23.77 80.4419 24.75 81.1699 25.506C81.9259 26.234 82.9339 26.598 84.1939 26.598C85.4819 26.598 86.5039 26.262 87.26 25.59C88.044 24.89 88.6459 24.036 89.0659 23.028C89.4859 21.992 89.766 20.9 89.906 19.752C90.074 18.576 90.2 17.498 90.284 16.518L90.1999 16.434C89.5559 17.582 88.674 18.464 87.554 19.08C86.4339 19.668 85.2019 19.962 83.858 19.962C82.4579 19.962 81.1839 19.724 80.0359 19.248C78.9159 18.772 77.9499 18.114 77.1379 17.274C76.3259 16.406 75.6959 15.37 75.2479 14.166C74.7999 12.934 74.5759 11.562 74.5759 10.05C74.5759 8.622 74.7999 7.306 75.2479 6.102C75.6959 4.87 76.3539 3.806 77.2219 2.91C78.0899 1.986 79.1539 1.272 80.4139 0.767998C81.6739 0.263998 83.1019 0.0119981 84.6979 0.0119981C86.7699 0.0119981 88.4779 0.417998 89.8219 1.23C91.166 2.014 92.216 3.106 92.972 4.506C93.7559 5.878 94.3019 7.502 94.61 9.378C94.918 11.254 95.0719 13.256 95.0719 15.384C95.0719 17.148 94.8759 18.926 94.4839 20.718C94.12 22.51 93.504 24.148 92.6359 25.632C91.768 27.088 90.62 28.278 89.192 29.202C87.792 30.126 86.0559 30.588 83.9839 30.588C82.8079 30.588 81.7019 30.392 80.6659 30C79.6299 29.608 78.7059 29.062 77.8939 28.362C77.1099 27.662 76.4659 26.822 75.9619 25.842C75.4579 24.862 75.1779 23.77 75.1219 22.566H79.9099ZM84.4879 4.002C83.6199 4.002 82.8639 4.17 82.2199 4.506C81.5759 4.814 81.0439 5.248 80.6239 5.808C80.2039 6.368 79.8819 7.012 79.6579 7.74C79.4619 8.468 79.3639 9.224 79.3639 10.008C79.3639 10.82 79.4619 11.604 79.6579 12.36C79.8819 13.088 80.2039 13.732 80.6239 14.292C81.0439 14.852 81.5759 15.314 82.2199 15.678C82.8639 16.014 83.6199 16.182 84.4879 16.182C85.3839 16.182 86.1679 16.014 86.8399 15.678C87.5119 15.342 88.058 14.894 88.4779 14.334C88.9259 13.746 89.2619 13.088 89.486 12.36C89.71 11.604 89.8219 10.82 89.8219 10.008C89.8219 9.224 89.71 8.468 89.486 7.74C89.2619 7.012 88.9259 6.382 88.4779 5.85C88.058 5.29 87.5119 4.842 86.8399 4.506C86.1679 4.17 85.3839 4.002 84.4879 4.002ZM103.248 22.566C103.36 23.77 103.78 24.75 104.508 25.506C105.264 26.234 106.272 26.598 107.532 26.598C108.82 26.598 109.842 26.262 110.598 25.59C111.382 24.89 111.984 24.036 112.404 23.028C112.824 21.992 113.104 20.9 113.244 19.752C113.412 18.576 113.538 17.498 113.622 16.518L113.538 16.434C112.894 17.582 112.012 18.464 110.892 19.08C109.772 19.668 108.54 19.962 107.196 19.962C105.796 19.962 104.522 19.724 103.374 19.248C102.254 18.772 101.288 18.114 100.476 17.274C99.6638 16.406 99.0338 15.37 98.5858 14.166C98.1378 12.934 97.9138 11.562 97.9138 10.05C97.9138 8.622 98.1378 7.306 98.5858 6.102C99.0338 4.87 99.6918 3.806 100.56 2.91C101.428 1.986 102.492 1.272 103.752 0.767998C105.012 0.263998 106.44 0.0119981 108.036 0.0119981C110.108 0.0119981 111.816 0.417998 113.16 1.23C114.504 2.014 115.554 3.106 116.31 4.506C117.094 5.878 117.64 7.502 117.948 9.378C118.256 11.254 118.41 13.256 118.41 15.384C118.41 17.148 118.214 18.926 117.822 20.718C117.458 22.51 116.842 24.148 115.974 25.632C115.106 27.088 113.958 28.278 112.53 29.202C111.13 30.126 109.394 30.588 107.322 30.588C106.146 30.588 105.04 30.392 104.004 30C102.968 29.608 102.044 29.062 101.232 28.362C100.448 27.662 99.8038 26.822 99.2998 25.842C98.7958 24.862 98.5158 23.77 98.4598 22.566H103.248ZM107.826 4.002C106.958 4.002 106.202 4.17 105.558 4.506C104.914 4.814 104.382 5.248 103.962 5.808C103.542 6.368 103.22 7.012 102.996 7.74C102.8 8.468 102.702 9.224 102.702 10.008C102.702 10.82 102.8 11.604 102.996 12.36C103.22 13.088 103.542 13.732 103.962 14.292C104.382 14.852 104.914 15.314 105.558 15.678C106.202 16.014 106.958 16.182 107.826 16.182C108.722 16.182 109.506 16.014 110.178 15.678C110.85 15.342 111.396 14.894 111.816 14.334C112.264 13.746 112.6 13.088 112.824 12.36C113.048 11.604 113.16 10.82 113.16 10.008C113.16 9.224 113.048 8.468 112.824 7.74C112.6 7.012 112.264 6.382 111.816 5.85C111.396 5.29 110.85 4.842 110.178 4.506C109.506 4.17 108.722 4.002 107.826 4.002Z" fill="#B4BACA"/>
</svg>
