<svg width="25" height="21" viewBox="0 0 25 21" fill="none" xmlns="http://www.w3.org/2000/svg">
<path d="M8.53894 6.63083H15.0138C15.3515 6.63083 15.6252 6.24709 15.6252 5.77342C15.6252 5.29976 15.3515 4.91602 15.0138 4.91602H8.53894C8.2012 4.91602 7.92755 5.29976 7.92755 5.77342C7.92755 6.24709 8.20118 6.63083 8.53894 6.63083Z" fill="white"/>
<path d="M13.1855 8.38379H8.5385C8.2011 8.38379 7.92773 8.76753 7.92773 9.2412C7.92773 9.71486 8.20109 10.0986 8.5385 10.0986H13.1855C13.5229 10.0986 13.7962 9.71486 13.7962 9.2412C13.7962 8.76753 13.5229 8.38379 13.1855 8.38379Z" fill="white"/>
<path d="M23.6687 3.84668C23.2213 3.39912 22.6259 3.15283 21.9924 3.15283C21.359 3.15283 20.7636 3.39894 20.3143 3.84866L18.9929 5.17087V3.95282C18.9929 1.7732 17.2195 0 15.04 0H8.14977C5.96995 0 4.19655 1.77335 4.19655 3.95282V8.34921H3.95282C1.7732 8.34921 0 10.1226 0 12.3024V16.6079C0 18.7875 1.77335 20.5607 3.95282 20.5607H15.0399C17.2196 20.5607 18.9928 18.7874 18.9928 16.6079L18.993 11.8725L23.6688 7.19924C24.1164 6.75187 24.3626 6.15648 24.3626 5.52314C24.3626 4.88959 24.1163 4.294 23.6688 3.84663L23.6687 3.84668ZM17.2855 16.608C17.2855 17.8482 16.28 18.8537 15.0398 18.8537H3.95266C2.7124 18.8537 1.70694 17.8482 1.70694 16.608V12.3021C1.70694 11.0618 2.7124 10.0564 3.95266 10.0564L4.19639 10.0566V16.1425C4.19639 16.6139 4.57865 16.9961 5.05004 16.9961C5.52143 16.9961 5.90369 16.6139 5.90369 16.1425L5.90349 3.95281C5.90349 2.71256 6.90896 1.70709 8.14921 1.70709H15.0395C16.2797 1.70709 17.2852 2.71256 17.2852 3.95281V6.87893L15.1881 8.977C14.7374 9.42377 14.4242 9.98785 14.2829 10.6069L13.9622 12.0033C13.8596 12.4409 13.988 12.8919 14.3054 13.2092C14.5513 13.4551 14.877 13.5873 15.2132 13.5873C15.311 13.5873 15.4099 13.5762 15.5077 13.5532L16.9073 13.2324C17.036 13.2031 17.162 13.1662 17.2852 13.1223L17.2855 16.608ZM22.4615 5.99236L17.5409 10.9134L17.3261 11.1251C17.1074 11.3454 16.8309 11.4989 16.5265 11.5685L15.7747 11.741L15.9475 10.9886C16.017 10.6845 16.1704 10.408 16.3933 10.1869L21.5235 5.05417C21.6529 4.92496 21.8228 4.86026 21.9929 4.86026C22.1626 4.86026 22.3325 4.92496 22.4619 5.05417C22.7203 5.31278 22.7203 5.73375 22.4615 5.99257L22.4615 5.99236Z" fill="white"/>
</svg>
