<svg width="62" height="62" viewBox="0 0 62 62" fill="none" xmlns="http://www.w3.org/2000/svg">
<mask id="path-1-outside-1_2063_943" maskUnits="userSpaceOnUse" x="0" y="0" width="62" height="62" fill="black">
<rect fill="white" width="62" height="62"/>
<path d="M35.9887 3.08474L39.3738 6.50481C39.7945 6.9291 40.2555 7.24686 40.7496 7.45074C41.251 7.6583 41.8021 7.76116 42.3972 7.75932L47.2095 7.73544C48.1757 7.72993 49.0812 7.90075 49.9206 8.24607C50.7692 8.59505 51.5351 9.10935 52.2129 9.78712C52.8907 10.4649 53.4049 11.2308 53.7539 12.0794C54.0992 12.9188 54.2701 13.8243 54.2646 14.7905L54.2407 19.6028C54.237 20.1979 54.3417 20.749 54.5493 21.2504C54.755 21.7463 55.0709 22.2055 55.4952 22.6262L58.9153 26.0113C59.6022 26.6909 60.122 27.4532 60.471 28.2908C60.8218 29.132 61 30.0375 61 31C61 31.9625 60.8237 32.868 60.471 33.7092C60.122 34.5486 59.6022 35.3091 58.9153 35.9887L55.4952 39.3738C55.0709 39.7945 54.7531 40.2555 54.5493 40.7496C54.3417 41.251 54.2388 41.8021 54.2407 42.3972L54.2646 47.2095C54.2701 48.1757 54.0992 49.0812 53.7539 49.9206C53.4049 50.7692 52.8907 51.5351 52.2129 52.2129C51.5351 52.8907 50.7692 53.4049 49.9206 53.7539C49.0812 54.0992 48.1757 54.2701 47.2095 54.2646L42.3972 54.2407C41.8021 54.237 41.251 54.3417 40.7496 54.5493C40.2537 54.755 39.7945 55.0709 39.3738 55.4952L35.9887 58.9153C35.3091 59.6022 34.5468 60.122 33.7092 60.471C32.868 60.8218 31.9625 61 31 61C30.0375 61 29.132 60.8237 28.2908 60.471C27.4514 60.122 26.6909 59.6022 26.0113 58.9153L22.6262 55.4952C22.2055 55.0709 21.7445 54.7531 21.2504 54.5493C20.749 54.3417 20.1979 54.2388 19.6028 54.2407L14.7905 54.2646C13.8243 54.2701 12.9188 54.0992 12.0794 53.7539C11.2308 53.4049 10.4649 52.8907 9.78712 52.2129C9.10935 51.5351 8.59505 50.7692 8.24607 49.9206C7.90075 49.0812 7.72993 48.1757 7.73544 47.2095L7.75932 42.3972C7.76299 41.8021 7.6583 41.251 7.45074 40.7496C7.24502 40.2537 6.9291 39.7945 6.50481 39.3738L3.08474 35.9887C2.39778 35.3091 1.87798 34.5468 1.52899 33.7092C1.17817 32.868 1 31.9625 1 31C1 30.0375 1.17633 29.132 1.52899 28.2908C1.87798 27.4514 2.39778 26.6909 3.08474 26.0113L6.50481 22.6262C6.9291 22.2055 7.24686 21.7445 7.45074 21.2504C7.6583 20.749 7.76116 20.1979 7.75932 19.6028L7.73544 14.7905C7.72993 13.8243 7.90075 12.9188 8.24607 12.0794C8.59505 11.2308 9.10935 10.4649 9.78712 9.78712C10.4649 9.10935 11.2308 8.59505 12.0794 8.24607C12.9188 7.90075 13.8243 7.72993 14.7905 7.73544L19.6028 7.75932C20.1979 7.763 20.749 7.6583 21.2504 7.45074C21.7463 7.24503 22.2055 6.9291 22.6262 6.50481L26.0113 3.08474C26.6909 2.39778 27.4532 1.87798 28.2908 1.52899C29.132 1.17817 30.0375 1 31 1C31.9625 1 32.868 1.17633 33.7092 1.52899C34.5486 1.87798 35.3091 2.39778 35.9887 3.08474ZM18.6202 32.1443C18.071 31.5951 18.071 30.7061 18.6202 30.1551C19.1693 29.6059 20.0602 29.6059 20.6094 30.1551L27.106 36.6517L41.3925 22.3653C41.9417 21.8161 42.8306 21.8161 43.3817 22.3653C43.9309 22.9145 43.9309 23.8054 43.3817 24.3546L28.1016 39.6347C27.5524 40.1839 26.6615 40.1839 26.1123 39.6347L18.622 32.1443H18.6202ZM37.3865 8.48117L34.0013 5.0611C33.5843 4.64048 33.127 4.32639 32.6329 4.12068C32.1425 3.91496 31.597 3.8121 31 3.8121C30.4049 3.8121 29.8594 3.91496 29.3671 4.12068C28.8712 4.32639 28.4138 4.64048 27.9987 5.0611L24.6135 8.48117C23.9321 9.16996 23.1625 9.69161 22.3139 10.0424C21.4727 10.3914 20.5616 10.5641 19.59 10.5586L14.7776 10.5347C14.1862 10.531 13.6407 10.6339 13.1429 10.8378C12.6543 11.038 12.197 11.352 11.7745 11.7745C11.3502 12.1988 11.038 12.6562 10.8378 13.1429C10.6339 13.6407 10.5328 14.1862 10.5347 14.7776L10.5586 19.59C10.5622 20.5635 10.3896 21.4727 10.0424 22.3139C9.69161 23.1625 9.16996 23.9303 8.48117 24.6135L5.0611 27.9987C4.64048 28.4157 4.32639 28.873 4.12068 29.3671C3.91496 29.8575 3.8121 30.403 3.8121 31C3.8121 31.5951 3.91496 32.1406 4.12068 32.6329C4.32639 33.1288 4.64048 33.5862 5.0611 34.0013L8.48117 37.3865C9.16996 38.0679 9.69161 38.8375 10.0424 39.6861C10.3914 40.5273 10.5641 41.4384 10.5586 42.41L10.5347 47.2224C10.531 47.8138 10.6339 48.3593 10.8378 48.8571C11.038 49.3457 11.352 49.803 11.7745 50.2255C12.1988 50.6498 12.6562 50.962 13.1429 51.1622C13.6407 51.3661 14.1862 51.4672 14.7776 51.4653L19.59 51.4414C20.5635 51.4378 21.4727 51.6104 22.3139 51.9576C23.1625 52.3084 23.9303 52.83 24.6135 53.5188L27.9987 56.9389C28.4157 57.3595 28.873 57.6736 29.3671 57.8793C29.8575 58.085 30.403 58.1879 31 58.1879C31.5951 58.1879 32.1406 58.085 32.6329 57.8793C33.1288 57.6736 33.5862 57.3595 34.0013 56.9389L37.3865 53.5188C38.0679 52.83 38.8375 52.3084 39.6861 51.9576C40.5273 51.6086 41.4384 51.4359 42.41 51.4414L47.2224 51.4653C47.8138 51.469 48.3593 51.3661 48.8571 51.1622C49.3457 50.962 49.803 50.648 50.2255 50.2255C50.6498 49.8012 50.962 49.3438 51.1622 48.8571C51.3661 48.3593 51.4672 47.8138 51.4653 47.2224L51.4414 42.41C51.4378 41.4365 51.6104 40.5273 51.9576 39.6861C52.3084 38.8375 52.83 38.0697 53.5188 37.3865L56.9389 34.0013C57.3595 33.5862 57.6736 33.127 57.8793 32.6329C58.085 32.1425 58.1879 31.597 58.1879 31C58.1879 30.4049 58.085 29.8594 57.8793 29.3671C57.6736 28.8712 57.3595 28.4138 56.9389 27.9987L53.5188 24.6135C52.83 23.9321 52.3084 23.1625 51.9576 22.3139C51.6086 21.4727 51.4359 20.5616 51.4414 19.59L51.4653 14.7776C51.469 14.1862 51.3661 13.6407 51.1622 13.1429C50.962 12.6543 50.648 12.197 50.2255 11.7745C49.8012 11.3502 49.3438 11.038 48.8571 10.8378C48.3593 10.6339 47.8138 10.5328 47.2224 10.5347L42.41 10.5586C41.4365 10.5622 40.5273 10.3896 39.6861 10.0424C38.8375 9.69161 38.0697 9.16996 37.3865 8.48117Z"/>
</mask>
<path d="M35.9887 3.08474L39.3738 6.50481C39.7945 6.9291 40.2555 7.24686 40.7496 7.45074C41.251 7.6583 41.8021 7.76116 42.3972 7.75932L47.2095 7.73544C48.1757 7.72993 49.0812 7.90075 49.9206 8.24607C50.7692 8.59505 51.5351 9.10935 52.2129 9.78712C52.8907 10.4649 53.4049 11.2308 53.7539 12.0794C54.0992 12.9188 54.2701 13.8243 54.2646 14.7905L54.2407 19.6028C54.237 20.1979 54.3417 20.749 54.5493 21.2504C54.755 21.7463 55.0709 22.2055 55.4952 22.6262L58.9153 26.0113C59.6022 26.6909 60.122 27.4532 60.471 28.2908C60.8218 29.132 61 30.0375 61 31C61 31.9625 60.8237 32.868 60.471 33.7092C60.122 34.5486 59.6022 35.3091 58.9153 35.9887L55.4952 39.3738C55.0709 39.7945 54.7531 40.2555 54.5493 40.7496C54.3417 41.251 54.2388 41.8021 54.2407 42.3972L54.2646 47.2095C54.2701 48.1757 54.0992 49.0812 53.7539 49.9206C53.4049 50.7692 52.8907 51.5351 52.2129 52.2129C51.5351 52.8907 50.7692 53.4049 49.9206 53.7539C49.0812 54.0992 48.1757 54.2701 47.2095 54.2646L42.3972 54.2407C41.8021 54.237 41.251 54.3417 40.7496 54.5493C40.2537 54.755 39.7945 55.0709 39.3738 55.4952L35.9887 58.9153C35.3091 59.6022 34.5468 60.122 33.7092 60.471C32.868 60.8218 31.9625 61 31 61C30.0375 61 29.132 60.8237 28.2908 60.471C27.4514 60.122 26.6909 59.6022 26.0113 58.9153L22.6262 55.4952C22.2055 55.0709 21.7445 54.7531 21.2504 54.5493C20.749 54.3417 20.1979 54.2388 19.6028 54.2407L14.7905 54.2646C13.8243 54.2701 12.9188 54.0992 12.0794 53.7539C11.2308 53.4049 10.4649 52.8907 9.78712 52.2129C9.10935 51.5351 8.59505 50.7692 8.24607 49.9206C7.90075 49.0812 7.72993 48.1757 7.73544 47.2095L7.75932 42.3972C7.76299 41.8021 7.6583 41.251 7.45074 40.7496C7.24502 40.2537 6.9291 39.7945 6.50481 39.3738L3.08474 35.9887C2.39778 35.3091 1.87798 34.5468 1.52899 33.7092C1.17817 32.868 1 31.9625 1 31C1 30.0375 1.17633 29.132 1.52899 28.2908C1.87798 27.4514 2.39778 26.6909 3.08474 26.0113L6.50481 22.6262C6.9291 22.2055 7.24686 21.7445 7.45074 21.2504C7.6583 20.749 7.76116 20.1979 7.75932 19.6028L7.73544 14.7905C7.72993 13.8243 7.90075 12.9188 8.24607 12.0794C8.59505 11.2308 9.10935 10.4649 9.78712 9.78712C10.4649 9.10935 11.2308 8.59505 12.0794 8.24607C12.9188 7.90075 13.8243 7.72993 14.7905 7.73544L19.6028 7.75932C20.1979 7.763 20.749 7.6583 21.2504 7.45074C21.7463 7.24503 22.2055 6.9291 22.6262 6.50481L26.0113 3.08474C26.6909 2.39778 27.4532 1.87798 28.2908 1.52899C29.132 1.17817 30.0375 1 31 1C31.9625 1 32.868 1.17633 33.7092 1.52899C34.5486 1.87798 35.3091 2.39778 35.9887 3.08474ZM18.6202 32.1443C18.071 31.5951 18.071 30.7061 18.6202 30.1551C19.1693 29.6059 20.0602 29.6059 20.6094 30.1551L27.106 36.6517L41.3925 22.3653C41.9417 21.8161 42.8306 21.8161 43.3817 22.3653C43.9309 22.9145 43.9309 23.8054 43.3817 24.3546L28.1016 39.6347C27.5524 40.1839 26.6615 40.1839 26.1123 39.6347L18.622 32.1443H18.6202ZM37.3865 8.48117L34.0013 5.0611C33.5843 4.64048 33.127 4.32639 32.6329 4.12068C32.1425 3.91496 31.597 3.8121 31 3.8121C30.4049 3.8121 29.8594 3.91496 29.3671 4.12068C28.8712 4.32639 28.4138 4.64048 27.9987 5.0611L24.6135 8.48117C23.9321 9.16996 23.1625 9.69161 22.3139 10.0424C21.4727 10.3914 20.5616 10.5641 19.59 10.5586L14.7776 10.5347C14.1862 10.531 13.6407 10.6339 13.1429 10.8378C12.6543 11.038 12.197 11.352 11.7745 11.7745C11.3502 12.1988 11.038 12.6562 10.8378 13.1429C10.6339 13.6407 10.5328 14.1862 10.5347 14.7776L10.5586 19.59C10.5622 20.5635 10.3896 21.4727 10.0424 22.3139C9.69161 23.1625 9.16996 23.9303 8.48117 24.6135L5.0611 27.9987C4.64048 28.4157 4.32639 28.873 4.12068 29.3671C3.91496 29.8575 3.8121 30.403 3.8121 31C3.8121 31.5951 3.91496 32.1406 4.12068 32.6329C4.32639 33.1288 4.64048 33.5862 5.0611 34.0013L8.48117 37.3865C9.16996 38.0679 9.69161 38.8375 10.0424 39.6861C10.3914 40.5273 10.5641 41.4384 10.5586 42.41L10.5347 47.2224C10.531 47.8138 10.6339 48.3593 10.8378 48.8571C11.038 49.3457 11.352 49.803 11.7745 50.2255C12.1988 50.6498 12.6562 50.962 13.1429 51.1622C13.6407 51.3661 14.1862 51.4672 14.7776 51.4653L19.59 51.4414C20.5635 51.4378 21.4727 51.6104 22.3139 51.9576C23.1625 52.3084 23.9303 52.83 24.6135 53.5188L27.9987 56.9389C28.4157 57.3595 28.873 57.6736 29.3671 57.8793C29.8575 58.085 30.403 58.1879 31 58.1879C31.5951 58.1879 32.1406 58.085 32.6329 57.8793C33.1288 57.6736 33.5862 57.3595 34.0013 56.9389L37.3865 53.5188C38.0679 52.83 38.8375 52.3084 39.6861 51.9576C40.5273 51.6086 41.4384 51.4359 42.41 51.4414L47.2224 51.4653C47.8138 51.469 48.3593 51.3661 48.8571 51.1622C49.3457 50.962 49.803 50.648 50.2255 50.2255C50.6498 49.8012 50.962 49.3438 51.1622 48.8571C51.3661 48.3593 51.4672 47.8138 51.4653 47.2224L51.4414 42.41C51.4378 41.4365 51.6104 40.5273 51.9576 39.6861C52.3084 38.8375 52.83 38.0697 53.5188 37.3865L56.9389 34.0013C57.3595 33.5862 57.6736 33.127 57.8793 32.6329C58.085 32.1425 58.1879 31.597 58.1879 31C58.1879 30.4049 58.085 29.8594 57.8793 29.3671C57.6736 28.8712 57.3595 28.4138 56.9389 27.9987L53.5188 24.6135C52.83 23.9321 52.3084 23.1625 51.9576 22.3139C51.6086 21.4727 51.4359 20.5616 51.4414 19.59L51.4653 14.7776C51.469 14.1862 51.3661 13.6407 51.1622 13.1429C50.962 12.6543 50.648 12.197 50.2255 11.7745C49.8012 11.3502 49.3438 11.038 48.8571 10.8378C48.3593 10.6339 47.8138 10.5328 47.2224 10.5347L42.41 10.5586C41.4365 10.5622 40.5273 10.3896 39.6861 10.0424C38.8375 9.69161 38.0697 9.16996 37.3865 8.48117Z" fill="#00C2F0"/>
<path d="M35.9887 3.08474L39.3738 6.50481C39.7945 6.9291 40.2555 7.24686 40.7496 7.45074C41.251 7.6583 41.8021 7.76116 42.3972 7.75932L47.2095 7.73544C48.1757 7.72993 49.0812 7.90075 49.9206 8.24607C50.7692 8.59505 51.5351 9.10935 52.2129 9.78712C52.8907 10.4649 53.4049 11.2308 53.7539 12.0794C54.0992 12.9188 54.2701 13.8243 54.2646 14.7905L54.2407 19.6028C54.237 20.1979 54.3417 20.749 54.5493 21.2504C54.755 21.7463 55.0709 22.2055 55.4952 22.6262L58.9153 26.0113C59.6022 26.6909 60.122 27.4532 60.471 28.2908C60.8218 29.132 61 30.0375 61 31C61 31.9625 60.8237 32.868 60.471 33.7092C60.122 34.5486 59.6022 35.3091 58.9153 35.9887L55.4952 39.3738C55.0709 39.7945 54.7531 40.2555 54.5493 40.7496C54.3417 41.251 54.2388 41.8021 54.2407 42.3972L54.2646 47.2095C54.2701 48.1757 54.0992 49.0812 53.7539 49.9206C53.4049 50.7692 52.8907 51.5351 52.2129 52.2129C51.5351 52.8907 50.7692 53.4049 49.9206 53.7539C49.0812 54.0992 48.1757 54.2701 47.2095 54.2646L42.3972 54.2407C41.8021 54.237 41.251 54.3417 40.7496 54.5493C40.2537 54.755 39.7945 55.0709 39.3738 55.4952L35.9887 58.9153C35.3091 59.6022 34.5468 60.122 33.7092 60.471C32.868 60.8218 31.9625 61 31 61C30.0375 61 29.132 60.8237 28.2908 60.471C27.4514 60.122 26.6909 59.6022 26.0113 58.9153L22.6262 55.4952C22.2055 55.0709 21.7445 54.7531 21.2504 54.5493C20.749 54.3417 20.1979 54.2388 19.6028 54.2407L14.7905 54.2646C13.8243 54.2701 12.9188 54.0992 12.0794 53.7539C11.2308 53.4049 10.4649 52.8907 9.78712 52.2129C9.10935 51.5351 8.59505 50.7692 8.24607 49.9206C7.90075 49.0812 7.72993 48.1757 7.73544 47.2095L7.75932 42.3972C7.76299 41.8021 7.6583 41.251 7.45074 40.7496C7.24502 40.2537 6.9291 39.7945 6.50481 39.3738L3.08474 35.9887C2.39778 35.3091 1.87798 34.5468 1.52899 33.7092C1.17817 32.868 1 31.9625 1 31C1 30.0375 1.17633 29.132 1.52899 28.2908C1.87798 27.4514 2.39778 26.6909 3.08474 26.0113L6.50481 22.6262C6.9291 22.2055 7.24686 21.7445 7.45074 21.2504C7.6583 20.749 7.76116 20.1979 7.75932 19.6028L7.73544 14.7905C7.72993 13.8243 7.90075 12.9188 8.24607 12.0794C8.59505 11.2308 9.10935 10.4649 9.78712 9.78712C10.4649 9.10935 11.2308 8.59505 12.0794 8.24607C12.9188 7.90075 13.8243 7.72993 14.7905 7.73544L19.6028 7.75932C20.1979 7.763 20.749 7.6583 21.2504 7.45074C21.7463 7.24503 22.2055 6.9291 22.6262 6.50481L26.0113 3.08474C26.6909 2.39778 27.4532 1.87798 28.2908 1.52899C29.132 1.17817 30.0375 1 31 1C31.9625 1 32.868 1.17633 33.7092 1.52899C34.5486 1.87798 35.3091 2.39778 35.9887 3.08474ZM18.6202 32.1443C18.071 31.5951 18.071 30.7061 18.6202 30.1551C19.1693 29.6059 20.0602 29.6059 20.6094 30.1551L27.106 36.6517L41.3925 22.3653C41.9417 21.8161 42.8306 21.8161 43.3817 22.3653C43.9309 22.9145 43.9309 23.8054 43.3817 24.3546L28.1016 39.6347C27.5524 40.1839 26.6615 40.1839 26.1123 39.6347L18.622 32.1443H18.6202ZM37.3865 8.48117L34.0013 5.0611C33.5843 4.64048 33.127 4.32639 32.6329 4.12068C32.1425 3.91496 31.597 3.8121 31 3.8121C30.4049 3.8121 29.8594 3.91496 29.3671 4.12068C28.8712 4.32639 28.4138 4.64048 27.9987 5.0611L24.6135 8.48117C23.9321 9.16996 23.1625 9.69161 22.3139 10.0424C21.4727 10.3914 20.5616 10.5641 19.59 10.5586L14.7776 10.5347C14.1862 10.531 13.6407 10.6339 13.1429 10.8378C12.6543 11.038 12.197 11.352 11.7745 11.7745C11.3502 12.1988 11.038 12.6562 10.8378 13.1429C10.6339 13.6407 10.5328 14.1862 10.5347 14.7776L10.5586 19.59C10.5622 20.5635 10.3896 21.4727 10.0424 22.3139C9.69161 23.1625 9.16996 23.9303 8.48117 24.6135L5.0611 27.9987C4.64048 28.4157 4.32639 28.873 4.12068 29.3671C3.91496 29.8575 3.8121 30.403 3.8121 31C3.8121 31.5951 3.91496 32.1406 4.12068 32.6329C4.32639 33.1288 4.64048 33.5862 5.0611 34.0013L8.48117 37.3865C9.16996 38.0679 9.69161 38.8375 10.0424 39.6861C10.3914 40.5273 10.5641 41.4384 10.5586 42.41L10.5347 47.2224C10.531 47.8138 10.6339 48.3593 10.8378 48.8571C11.038 49.3457 11.352 49.803 11.7745 50.2255C12.1988 50.6498 12.6562 50.962 13.1429 51.1622C13.6407 51.3661 14.1862 51.4672 14.7776 51.4653L19.59 51.4414C20.5635 51.4378 21.4727 51.6104 22.3139 51.9576C23.1625 52.3084 23.9303 52.83 24.6135 53.5188L27.9987 56.9389C28.4157 57.3595 28.873 57.6736 29.3671 57.8793C29.8575 58.085 30.403 58.1879 31 58.1879C31.5951 58.1879 32.1406 58.085 32.6329 57.8793C33.1288 57.6736 33.5862 57.3595 34.0013 56.9389L37.3865 53.5188C38.0679 52.83 38.8375 52.3084 39.6861 51.9576C40.5273 51.6086 41.4384 51.4359 42.41 51.4414L47.2224 51.4653C47.8138 51.469 48.3593 51.3661 48.8571 51.1622C49.3457 50.962 49.803 50.648 50.2255 50.2255C50.6498 49.8012 50.962 49.3438 51.1622 48.8571C51.3661 48.3593 51.4672 47.8138 51.4653 47.2224L51.4414 42.41C51.4378 41.4365 51.6104 40.5273 51.9576 39.6861C52.3084 38.8375 52.83 38.0697 53.5188 37.3865L56.9389 34.0013C57.3595 33.5862 57.6736 33.127 57.8793 32.6329C58.085 32.1425 58.1879 31.597 58.1879 31C58.1879 30.4049 58.085 29.8594 57.8793 29.3671C57.6736 28.8712 57.3595 28.4138 56.9389 27.9987L53.5188 24.6135C52.83 23.9321 52.3084 23.1625 51.9576 22.3139C51.6086 21.4727 51.4359 20.5616 51.4414 19.59L51.4653 14.7776C51.469 14.1862 51.3661 13.6407 51.1622 13.1429C50.962 12.6543 50.648 12.197 50.2255 11.7745C49.8012 11.3502 49.3438 11.038 48.8571 10.8378C48.3593 10.6339 47.8138 10.5328 47.2224 10.5347L42.41 10.5586C41.4365 10.5622 40.5273 10.3896 39.6861 10.0424C38.8375 9.69161 38.0697 9.16996 37.3865 8.48117Z" stroke="#00C2F0" stroke-width="2" mask="url(#path-1-outside-1_2063_943)"/>
</svg>
