<svg width="140" height="33" viewBox="0 0 140 33" fill="none" xmlns="http://www.w3.org/2000/svg">
<path d="M8.20508 16.7806H9.96584V20.4554H10.0263C10.4452 19.2444 11.2539 18.2066 12.3258 17.5046C13.3978 16.8027 14.6723 16.4762 15.9497 16.5763V18.4849C15.1865 18.423 14.4188 18.5241 13.6977 18.7816C12.9766 19.0391 12.3185 19.4471 11.7671 19.9785C11.2158 20.5099 10.7838 21.1525 10.4999 21.8637C10.216 22.5748 10.0866 23.3382 10.1204 24.1032V32.4635H8.20508V16.7806Z" fill="white"/>
<path d="M29.9609 16.7861H32.0873L37.0107 30.5496H37.0712L41.9301 16.7861H43.9059L38.0443 32.4636H36.0067L29.9609 16.7861Z" fill="white"/>
<path d="M45.7015 23.5272C46.0066 20.6737 47.7337 17.9371 50.8655 17.9371C53.9569 17.9371 55.762 20.6414 55.8453 23.5272H45.7015ZM57.7647 25.1401C57.9193 20.7328 55.9112 16.3242 50.8695 16.3242C45.8843 16.3242 43.7861 20.4909 43.7861 24.6226C43.7861 29.0917 45.8843 32.917 50.8695 32.917C54.8225 32.917 56.883 30.8512 57.7042 27.2934H55.7889C55.6014 28.4489 54.9968 29.4956 54.0895 30.2352C53.1821 30.9749 52.035 31.3561 50.8655 31.3068C47.1853 31.3068 45.7297 27.9318 45.7015 25.1388L57.7647 25.1401Z" fill="white"/>
<path d="M60.3799 10.7637H62.2898V32.4708H60.3799V10.7637Z" fill="white"/>
<path d="M75.3592 21.3713C75.2651 19.0003 73.4439 17.9398 71.257 17.9398C69.5581 17.9398 67.554 18.6119 67.554 20.6441C67.554 22.3484 69.4976 22.9533 70.8067 23.2866L73.3605 23.8646C75.5473 24.1979 77.8296 25.4775 77.8296 28.2114C77.8296 31.6146 74.4546 32.9157 71.5352 32.9157C67.8874 32.9157 65.4008 31.2114 65.0957 27.3861H67.0016C67.1562 29.9681 69.0675 31.3055 71.6199 31.3055C73.4129 31.3055 75.9008 30.5165 75.9008 28.3296C75.9008 26.503 74.2019 25.8982 72.4694 25.4708L70.0124 24.9278C67.5204 24.2557 65.6374 23.4062 65.6374 20.7315C65.6374 17.5393 68.7637 16.3242 71.5325 16.3242C74.6629 16.3242 77.1562 17.9667 77.2785 21.3699L75.3592 21.3713Z" fill="white"/>
<path d="M98.3924 26.3803C98.4206 29.4503 95.8386 31.3038 92.9233 31.3038C92.4899 31.3347 92.0546 31.2789 91.6431 31.1395C91.2315 31.0002 90.8519 30.7801 90.5265 30.4922C90.201 30.2044 89.9363 29.8544 89.7478 29.4629C89.5593 29.0714 89.4508 28.6463 89.4286 28.2123C89.4286 25.1424 93.4703 25.1747 96.719 24.5927C97.2351 24.504 98.09 24.3535 98.3319 23.8978H98.3924V26.3803ZM98.3924 30.0793V32.4637H100.298V21.3709C100.298 17.1787 97.2983 16.3252 94.5389 16.3252C90.9528 16.3252 88.3668 17.9072 88.1827 21.5819H90.0926C90.1531 19.0282 91.9192 17.9341 94.2889 17.9341C96.5375 17.9341 98.391 18.5725 98.391 21.1599C98.391 22.8924 97.508 23.1034 95.9313 23.2862C91.7956 23.7742 87.5146 23.9247 87.5146 28.332C87.5146 31.4866 89.8856 32.918 92.7714 32.918C93.893 33.0007 95.0149 32.7614 96.0052 32.2283C96.9955 31.6952 97.8129 30.8904 98.3615 29.9086C98.3615 29.9086 98.3897 29.9086 98.3897 30.082L98.3924 30.0793Z" fill="white"/>
<path d="M27.3282 26.3803C27.3564 29.4503 24.7744 31.3038 21.855 31.3038C21.4215 31.3353 20.9861 31.2798 20.5743 31.1407C20.1625 31.0016 19.7827 30.7815 19.4571 30.4935C19.1315 30.2055 18.8668 29.8554 18.6785 29.4636C18.4901 29.0719 18.382 28.6465 18.3604 28.2123C18.3604 25.1424 22.4021 25.1747 25.6548 24.5927C26.1709 24.504 27.0204 24.3535 27.2677 23.8978H27.3282V26.3803ZM27.3282 30.0793V32.4637H29.2287V21.3709C29.2287 17.1787 26.2287 16.3252 23.4639 16.3252C19.8779 16.3252 17.2959 17.9072 17.1131 21.5819H19.0284C19.0849 19.0282 20.8497 17.9341 23.2206 17.9341C25.4693 17.9341 27.3228 18.5725 27.3228 21.1599C27.3228 22.8924 26.4397 23.1034 24.8631 23.2862C20.7327 23.7742 16.4424 23.9247 16.4424 28.332C16.4424 31.4866 18.8134 32.918 21.6991 32.918C22.8219 33.0007 23.9448 32.7605 24.9355 32.2259C25.9263 31.6912 26.7434 30.8844 27.2905 29.9005C27.2905 29.9005 27.3282 29.9005 27.3282 30.0739V30.0793Z" fill="white"/>
<path d="M103.523 16.7806H105.294V20.4554H105.354C105.77 19.2411 106.579 18.1999 107.652 17.496C108.726 16.7922 110.003 16.4658 111.283 16.5683V18.4849C110.519 18.4228 109.75 18.5239 109.029 18.7816C108.307 19.0393 107.648 19.4477 107.096 19.9796C106.544 20.5116 106.112 21.1549 105.828 21.8668C105.544 22.5787 105.414 23.3429 105.448 24.1086V32.4689H103.529L103.523 16.7806Z" fill="white"/>
<path d="M114.464 12.0684H116.379V16.7807H119.566V18.3937H116.379V28.9636C116.379 30.2069 116.558 30.9354 117.928 31.0295C118.476 31.0287 119.025 30.9972 119.57 30.9354V32.5738C118.992 32.5738 118.444 32.6343 117.871 32.6343C115.317 32.6343 114.436 31.7848 114.468 29.1088L114.464 12.0684Z" fill="white"/>
<path d="M80.461 12.0684H82.3803V16.7807H85.5672V18.3937H82.3803V28.9636C82.3803 30.2069 82.5591 30.9354 83.9287 31.0295C84.4762 31.0287 85.0232 30.9973 85.5672 30.9354V32.5738C84.9892 32.5738 84.4449 32.6343 83.8629 32.6343C81.3091 32.6343 80.4314 31.7848 80.4596 29.1088L80.461 12.0684Z" fill="white"/>
<path d="M0.000849772 12.0684H1.91618V16.7807H5.0963V18.3937H1.91618V28.9636C1.91618 30.2069 2.09495 30.9354 3.46458 31.0295C4.01212 31.031 4.55926 30.9996 5.10302 30.9354V32.5738C4.53044 32.5738 3.98071 32.6343 3.40409 32.6343C0.850317 32.6343 -0.0314084 31.7848 0.000849772 29.1088V12.0684Z" fill="white"/>
<path d="M128.371 0H131.989V7.16427H139.117V10.7819H131.989V17.9461H128.371V10.7819H121.242V7.16427H128.371V0Z" fill="#10B7F4"/>
</svg>
