<svg width="33" height="26" viewBox="0 0 33 26" fill="none" xmlns="http://www.w3.org/2000/svg">
<path d="M9.26987 0.9C5.2244 0.9 1.61787 3.814 1.19189 7.94811C0.801463 11.7371 0.80299 15.0418 1.19477 18.8433C1.62109 22.9798 5.22787 25.9 9.27788 25.9H23.7145C27.7402 25.9 31.3368 23.0133 31.7841 18.9008C32.2037 15.0438 32.2052 11.7086 31.7891 7.88539C31.3419 3.77684 27.7454 0.9 23.7269 0.9H9.26987ZM13.303 12.1686L3.94576 6.41022C4.87598 4.47259 6.93252 3.16667 9.26987 3.16667H23.7269C26.0652 3.16667 28.1239 4.47337 29.0487 6.41361L19.697 12.1686C17.7364 13.3751 15.2636 13.3751 13.303 12.1686ZM3.4495 18.6109C3.09266 15.1484 3.07332 12.1356 3.39241 8.73121L12.115 14.099C14.8042 15.7538 18.1958 15.7538 20.885 14.099L29.5984 8.73684C29.9326 12.1437 29.9105 15.1657 29.5308 18.6556C29.2203 21.5097 26.6955 23.6333 23.7145 23.6333H9.27788C6.28 23.6333 3.74578 21.4857 3.4495 18.6109Z" fill="white" stroke="#532BD7" stroke-width="0.2"/>
</svg>
