<svg width="14" height="16" viewBox="0 0 14 16" fill="none" xmlns="http://www.w3.org/2000/svg">
<path fill-rule="evenodd" clip-rule="evenodd" d="M7.00022 1.41414C5.63345 1.41414 4.52547 2.52212 4.52547 3.88889C4.52547 5.25566 5.63345 6.36364 7.00022 6.36364C8.36699 6.36364 9.47497 5.25566 9.47497 3.88889C9.47497 2.52212 8.36699 1.41414 7.00022 1.41414ZM3.11133 3.88889C3.11133 1.74111 4.85244 0 7.00022 0C9.14802 0 10.8891 1.74111 10.8891 3.88889C10.8891 6.03669 9.14802 7.77778 7.00022 7.77778C4.85244 7.77778 3.11133 6.03669 3.11133 3.88889Z" fill="white"/>
<path fill-rule="evenodd" clip-rule="evenodd" d="M0 12.4453C0 10.5123 1.567 8.94531 3.5 8.94531H10.5C12.433 8.94531 14 10.5123 14 12.4453C14 14.3783 12.433 15.9453 10.5 15.9453H3.5C1.567 15.9453 0 14.3783 0 12.4453ZM3.5 10.5009C2.42611 10.5009 1.55556 11.3714 1.55556 12.4453C1.55556 13.5192 2.42611 14.3898 3.5 14.3898H10.5C11.5739 14.3898 12.4444 13.5192 12.4444 12.4453C12.4444 11.3714 11.5739 10.5009 10.5 10.5009H3.5Z" fill="white"/>
</svg>
