<svg width="80" height="80" viewBox="0 0 80 80" fill="none" xmlns="http://www.w3.org/2000/svg">
<path d="M65.5849 2.67997L65.5869 2.67961C67.5791 2.32804 69.6307 2.79684 71.2719 3.9691C72.9157 5.14327 74.0305 6.90358 74.3827 8.89913L74.3825 8.89916L74.3851 8.91214L76.3211 18.4044C76.3213 18.4056 76.3215 18.4068 76.3217 18.408C76.4607 19.1595 75.9868 19.8763 75.2829 20.0083C74.5301 20.1495 73.8112 19.6752 73.679 18.9701L73.679 18.9701L73.6774 18.9624L71.742 9.47292C71.5287 8.14243 70.7588 7.0361 69.7331 6.284C68.68 5.5117 67.3544 5.23585 66.1053 5.44402L66.1027 5.44446L8.35271 15.382L8.35271 15.3819L8.34693 15.383C5.74044 15.8631 3.87501 18.0652 3.87501 20.6873C3.87501 23.6468 6.28225 26.1247 9.3125 26.1247H71.2499C75.4738 26.1247 78.875 29.5258 78.875 33.7497V71.2496C78.875 75.4735 75.4738 78.8748 71.2499 78.8748H8.75C4.52615 78.8748 1.125 75.4735 1.125 71.2496V34.3748C1.125 33.5883 1.71365 32.9997 2.5 32.9997C3.28635 32.9997 3.87501 33.5884 3.87501 34.3748V71.2496C3.87501 73.9634 6.03635 76.1247 8.75 76.1247H71.2499C73.9637 76.1247 76.125 73.9634 76.125 71.2496V33.7497C76.125 31.0361 73.9637 28.8748 71.2499 28.8748H9.3125C4.77614 28.8748 1.125 25.2236 1.125 20.6873C1.125 16.6816 3.94903 13.3254 7.89904 12.6172C7.89958 12.6171 7.90011 12.617 7.90065 12.6169L65.5849 2.67997Z" fill="white" stroke="white"/>
<path d="M63.1249 45.625C59.3124 45.625 56.2499 48.6876 56.2499 52.5C56.2499 56.3125 59.3124 59.3751 63.1249 59.3751C66.9374 59.3751 70 56.3125 70 52.5C70 48.6876 66.9374 45.625 63.1249 45.625Z" fill="white"/>
</svg>
