<svg xmlns="http://www.w3.org/2000/svg" width="36.954" height="40.034" viewBox="0 0 36.954 40.034">
    <g data-name="Group 48314">
        <g data-name="Group 27282">
            <path data-name="Path 32495" d="M9.239 0h15.4A6.159 6.159 0 0 1 30.8 6.159l3.08 27.716a6.159 6.159 0 0 1-6.159 6.159H6.159A6.159 6.159 0 0 1 0 33.875L3.08 6.159A6.159 6.159 0 0 1 9.239 0z" transform="translate(1.54)" style="fill:#b1dff9"/>
            <rect data-name="Rectangle 10516" width="3.08" height="18.477" rx="1.54" transform="translate(33.875 15.398)" style="fill:#57b1f0"/>
            <rect data-name="Rectangle 10517" width="3.08" height="18.477" rx="1.54" transform="translate(0 15.398)" style="fill:#57b1f0"/>
        </g>
        <g data-name="Group 28436">
            <g data-name="Group 28429">
                <path data-name="Path 33590" d="M108.4 11.234a10.731 10.731 0 0 0-1.723 1.575 1.178 1.178 0 0 0-.052-.739l-1.043-.421a5.334 5.334 0 0 1 .355 1.25 9.6 9.6 0 1 0 1.109.584 7.065 7.065 0 0 1 2.5-1.168zm-6.365 2.085a8.328 8.328 0 0 1 7.881 5.589 4.792 4.792 0 0 1-1.885.288 3.7 3.7 0 0 1-2.965-2.033.624.624 0 0 0-1.028-.052 7.022 7.022 0 0 1-5.368 2.536 11.055 11.055 0 0 1-4.539-.688 8.352 8.352 0 0 1 7.9-5.641zm2.484 5.153a4.944 4.944 0 0 0 3.416 1.974 5.959 5.959 0 0 0 2.307-.31 8.657 8.657 0 0 1 .14 1.53 8.347 8.347 0 0 1-16.694 0 8.016 8.016 0 0 1 .133-1.471 12.033 12.033 0 0 0 4.931.695 8.571 8.571 0 0 0 5.767-2.418zM97.87 22.08a1.042 1.042 0 1 0 1.042-1.042 1.03 1.03 0 0 0-1.042 1.042zm6.255 0a1.046 1.046 0 1 0 1.05-1.042 1.048 1.048 0 0 0-1.05 1.042zm-4.858 2.506a.638.638 0 0 0-.562.628A2.428 2.428 0 0 0 99.636 27a3.574 3.574 0 0 0 4.813 0 2.454 2.454 0 0 0 .932-1.782.653.653 0 0 0-.628-.628h-5.486zm1.035 1.25h3.482a2.4 2.4 0 0 1-1.745.835 2.287 2.287 0 0 1-1.739-.835z" transform="translate(-83.072 -.426)" style="fill:#505a71"/>
            </g>
            <g data-name="Group 28428">
                <path data-name="Rectangle 11421" transform="rotate(30 -5.024 53.358)" style="fill:#505a71" d="M0 0h1.447v26.039H0z"/>
                <path data-name="Rectangle 11422" transform="rotate(30 -4.3 50.658)" style="fill:#b1dff9" d="M0 0h1.447v26.039H0z"/>
            </g>
        </g>
    </g>
</svg>
