<svg xmlns="http://www.w3.org/2000/svg" width="45.462" height="40.666" viewBox="0 0 45.462 40.666">
    <g>
        <g>
            <g transform="translate(9.833 .229)" style="stroke:#d5dbe8;fill:none">
                <rect width="9.002" height="12.002" rx="4.501" style="stroke:none"/>
                <rect x=".5" y=".5" width="8.002" height="11.002" rx="4.001" style="fill:none"/>
            </g>
            <path d="M23.38 24.759a17.019 17.019 0 0 1 7.611-1.8H34.5a1.454 1.454 0 0 1 1.454 1.454 1.456 1.456 0 0 1-.153.65L34.1 28.48a1.938 1.938 0 0 1-1.733 1.071H17.39L12 13.38V3.2A1.2 1.2 0 0 1 13.2 2h2.4a1.2 1.2 0 0 1 1.2 1.2v10.18z" transform="translate(-12 2.73)" style="fill:#5f99d7"/>
            <path d="M12 3.2A1.2 1.2 0 0 1 13.2 2h1.2a1.2 1.2 0 0 1 1.2 1.2v10.18l6.588 11.38a17.019 17.019 0 0 1 7.611-1.8h3.513a1.454 1.454 0 0 1 1.3 2.1L32.9 28.48a1.938 1.938 0 0 1-1.733 1.071H17.39L12 13.38z" transform="translate(-10.802 2.73)" style="fill:#b8dbfc"/>
            <path d="M15.648 28H31.22a1.2 1.2 0 0 1 1.2 1.2v1.2H15.648z" transform="translate(-10.646 -7.698)" style="fill:#0067c5"/>
            <path d="m18.995 48 1.951 4.877a1.769 1.769 0 0 0 1.643 1.112h6.588a2.4 2.4 0 0 1 2.4 2.4H18.995L16 48" transform="translate(-10.011 -15.719)" style="fill:#243843"/>
            <path d="m17.8 48 1.951 4.877a1.769 1.769 0 0 0 1.643 1.112h6.588a2.4 2.4 0 0 1 2.4 2.4H18.995L16 48z" transform="translate(-8.813 -15.719)" style="fill:#45535a"/>
        </g>
        <g transform="translate(29.681)" style="stroke:#d5dbe8;fill:none">
            <rect width="9.014" height="12.292" rx="4.507" style="stroke:none"/>
            <rect x=".5" y=".5" width="8.014" height="11.292" rx="4.007" style="fill:none"/>
        </g>
        <path d="M23.38 24.759a17.019 17.019 0 0 1 7.611-1.8H34.5a1.454 1.454 0 0 1 1.454 1.454 1.456 1.456 0 0 1-.153.65L34.1 28.48a1.938 1.938 0 0 1-1.733 1.071H17.39L12 13.38V3.2A1.2 1.2 0 0 1 13.2 2h2.4a1.2 1.2 0 0 1 1.2 1.2v10.18z" transform="translate(9.503 2.73)" style="fill:#5f99d7"/>
        <path d="M12 3.2A1.2 1.2 0 0 1 13.2 2h1.2a1.2 1.2 0 0 1 1.2 1.2v10.18l6.588 11.38a17.019 17.019 0 0 1 7.611-1.8h3.513a1.454 1.454 0 0 1 1.3 2.1L32.9 28.48a1.938 1.938 0 0 1-1.733 1.071H17.39L12 13.38z" transform="translate(10.702 2.73)" style="fill:#b8dbfc"/>
        <path d="M15.648 28H31.22a1.2 1.2 0 0 1 1.2 1.2v1.2H15.648z" transform="translate(9.857 -7.698)" style="fill:#0067c5"/>
        <path d="m18.995 48 1.951 4.877a1.769 1.769 0 0 0 1.643 1.112h6.588a2.4 2.4 0 0 1 2.4 2.4H18.995L16 48" transform="translate(11.493 -15.719)" style="fill:#243843"/>
        <path d="m17.8 48 1.951 4.877a1.769 1.769 0 0 0 1.643 1.112h6.588a2.4 2.4 0 0 1 2.4 2.4H18.995L16 48z" transform="translate(12.691 -15.719)" style="fill:#45535a"/>
    </g>
</svg>
