<svg xmlns="http://www.w3.org/2000/svg" width="66.844" height="56.666" viewBox="0 0 66.844 56.666">
    <g data-name="Group 39572">
        <g data-name="Group 39432">
            <g data-name="Group 25539">
                <g data-name="Rectangle 10282" transform="translate(13.406 1.539)" style="stroke:#c3c9d9;fill:none">
                    <rect width="12.272" height="16.363" rx="6.136" style="stroke:none"/>
                    <rect x=".5" y=".5" width="11.272" height="15.363" rx="5.636" style="fill:none"/>
                </g>
                <path data-name="Path 31334" d="M27.514 33.028a23.2 23.2 0 0 1 10.376-2.45h4.789a1.983 1.983 0 0 1 1.982 1.982 1.985 1.985 0 0 1-.209.886L42.125 38.1a2.642 2.642 0 0 1-2.363 1.46H19.349L12 17.514V3.633A1.633 1.633 0 0 1 13.633 2H16.9a1.633 1.633 0 0 1 1.633 1.633v13.881z" transform="translate(-12 5.675)" style="fill:#1267c5"/>
                <path data-name="Path 31335" d="M12 3.633A1.633 1.633 0 0 1 13.633 2h1.633A1.633 1.633 0 0 1 16.9 3.633v13.881l8.982 15.514a23.2 23.2 0 0 1 10.376-2.45h4.789a1.982 1.982 0 0 1 1.773 2.868L40.492 38.1a2.642 2.642 0 0 1-2.363 1.46h-18.78L12 17.514z" transform="translate(-10.366 5.675)" style="fill:#71b1ff"/>
                <path data-name="Path 31336" d="M15.648 28h21.23a1.633 1.633 0 0 1 1.633 1.633v1.633H15.648z" transform="translate(-8.828 .904)" style="fill:#0067c5"/>
                <path data-name="Path 31337" d="m20.083 48 2.659 6.649a2.412 2.412 0 0 0 2.24 1.516h8.982a3.266 3.266 0 0 1 3.266 3.266H20.083L16 48" transform="translate(-7.835 -2.765)" style="fill:#243843"/>
                <path data-name="Path 31338" d="m18.45 48 2.659 6.649a2.412 2.412 0 0 0 2.24 1.516h8.981a3.266 3.266 0 0 1 3.27 3.266H20.083L16 48z" transform="translate(-6.202 -2.765)" style="fill:#45535a"/>
            </g>
            <path data-name="Path 31334" d="M27.514 33.028a23.2 23.2 0 0 1 10.376-2.45h4.789a1.983 1.983 0 0 1 1.982 1.982 1.985 1.985 0 0 1-.209.886L42.125 38.1a2.642 2.642 0 0 1-2.363 1.46H19.349L12 17.514V3.633A1.633 1.633 0 0 1 13.633 2H16.9a1.633 1.633 0 0 1 1.633 1.633v13.881z" transform="translate(17.315 5.675)" style="fill:#1267c5"/>
            <path data-name="Path 31335" d="M12 3.633A1.633 1.633 0 0 1 13.633 2h1.633A1.633 1.633 0 0 1 16.9 3.633v13.881l8.982 15.514a23.2 23.2 0 0 1 10.376-2.45h4.789a1.982 1.982 0 0 1 1.773 2.868L40.492 38.1a2.642 2.642 0 0 1-2.363 1.46h-18.78L12 17.514z" transform="translate(18.95 5.675)" style="fill:#71b1ff"/>
            <path data-name="Path 31336" d="M15.648 28h21.23a1.633 1.633 0 0 1 1.633 1.633v1.633H15.648z" transform="translate(19.123 .904)" style="fill:#0067c5"/>
            <path data-name="Path 31337" d="m20.083 48 2.659 6.649a2.412 2.412 0 0 0 2.24 1.516h8.982a3.266 3.266 0 0 1 3.266 3.266H20.083L16 48" transform="translate(21.48 -2.765)" style="fill:#243843"/>
            <path data-name="Path 31338" d="m18.45 48 2.659 6.649a2.412 2.412 0 0 0 2.24 1.516h8.981a3.266 3.266 0 0 1 3.27 3.266H20.083L16 48z" transform="translate(23.114 -2.765)" style="fill:#45535a"/>
        </g>
        <path data-name="Path 33652" d="m222.187 146-5.091-8.749a2.98 2.98 0 0 0-4.053-1.136 2.531 2.531 0 0 0-1.136 1.136l-10.082 17.493a2.966 2.966 0 0 0 1.037 4.053 2.388 2.388 0 0 0 1.532.4h20.214a3.007 3.007 0 0 0 3.015-2.915 3.209 3.209 0 0 0-.4-1.532zm-6.722 9.044h-1.879v-1.874h1.879zm.692-9.638-.692 6.722h-1.879l-.692-6.722v-1.384h3.312z" transform="translate(-160.778 -135.738)" style="fill:#e53f5b"/>
    </g>
</svg>
