<svg xmlns="http://www.w3.org/2000/svg" width="24" height="26" viewBox="0 0 24 26">
    <g>
        <g transform="translate(-79 -659)">
            <path d="M6 0h10a4 4 0 0 1 4 4l2 18a4 4 0 0 1-4 4H4a4 4 0 0 1-4-4L2 4a4 4 0 0 1 4-4z" transform="translate(80 659)" style="fill:#b1dff9"/>
            <rect width="2" height="12" rx="1" transform="translate(101 669)" style="fill:#57b1f0"/>
            <rect width="2" height="12" rx="1" transform="translate(79 669)" style="fill:#57b1f0"/>
        </g>
        <g>
            <g>
                <path d="M105.034 11.234a8.465 8.465 0 0 0-1.359 1.242.929.929 0 0 0-.041-.583l-.822-.332a4.208 4.208 0 0 1 .28.986 7.574 7.574 0 1 0 .875.46 5.573 5.573 0 0 1 1.971-.921zm-5.021 1.645a6.569 6.569 0 0 1 6.217 4.409 3.78 3.78 0 0 1-1.487.227 2.917 2.917 0 0 1-2.339-1.6.492.492 0 0 0-.811-.041 5.539 5.539 0 0 1-4.234 2 8.72 8.72 0 0 1-3.581-.542 6.588 6.588 0 0 1 6.234-4.45zm1.96 4.065a3.9 3.9 0 0 0 2.694 1.557 4.7 4.7 0 0 0 1.82-.245 6.827 6.827 0 0 1 .111 1.207 6.584 6.584 0 0 1-13.168 0 6.323 6.323 0 0 1 .1-1.161 9.492 9.492 0 0 0 3.89.548 6.761 6.761 0 0 0 4.549-1.907zm-5.249 2.846a.822.822 0 1 0 .822-.822.812.812 0 0 0-.822.821zm4.934 0a.825.825 0 1 0 .828-.822.826.826 0 0 0-.829.821zm-3.832 1.977a.5.5 0 0 0-.443.5 1.915 1.915 0 0 0 .735 1.405 2.82 2.82 0 0 0 3.8 0 1.936 1.936 0 0 0 .735-1.405.515.515 0 0 0-.5-.5h-4.327zm.817.986h2.747a1.9 1.9 0 0 1-1.376.659 1.8 1.8 0 0 1-1.372-.66z" transform="translate(-88.013 -6.685)" style="fill:#505a71"/>
            </g>
            <g>
                <path transform="rotate(30 1.98 34.576)" style="fill:#505a71" d="M0 0h1.141v20.539H0z"/>
                <path transform="rotate(30 2.55 32.447)" style="fill:#b1dff9" d="M0 0h1.141v20.539H0z"/>
            </g>
        </g>
    </g>
</svg>
