<svg data-name="Group 39882" xmlns="http://www.w3.org/2000/svg" width="36.954" height="40.034" viewBox="0 0 36.954 40.034">
    <g data-name="Group 27331">
        <path data-name="Path 32495" d="M9.239 0h15.4A6.159 6.159 0 0 1 30.8 6.159l3.08 27.716a6.159 6.159 0 0 1-6.159 6.159H6.159A6.159 6.159 0 0 1 0 33.875L3.08 6.159A6.159 6.159 0 0 1 9.239 0z" transform="translate(1.54)" style="fill:#20be79"/>
        <rect data-name="Rectangle 10515" width="12.318" height="3.08" rx="1.54" transform="translate(12.318 32.335)" style="fill:#0b9559"/>
        <rect data-name="Rectangle 10516" width="3.08" height="18.477" rx="1.54" transform="translate(33.875 15.398)" style="fill:#0b9559"/>
        <rect data-name="Rectangle 10517" width="3.08" height="18.477" rx="1.54" transform="translate(0 15.398)" style="fill:#0b9559"/>
    </g>
    <path data-name="Path 32501" d="M294.229 67.091a3.895 3.895 0 1 0-2.754-1.141 3.894 3.894 0 0 0 2.754 1.141zm-5.65 6.692h11.3a.932.932 0 0 0 .9-.965V71.9a3.067 3.067 0 0 0-2.946-3.175h-7.2a3.067 3.067 0 0 0-2.946 3.175v.916a.932.932 0 0 0 .9.965z" transform="translate(-275.365 -48.065)" style="fill:#fff"/>
</svg>
