<svg width="196" height="23" viewBox="0 0 196 23" fill="none" xmlns="http://www.w3.org/2000/svg">
<g id="Group 48896">
<g id="Group">
<path id="rect19" d="M21.0789 4.19531H12.0944V20.3367H21.0789V4.19531Z" fill="#FF5A00"/>
<path id="XMLID_330_" d="M12.6925 12.267C12.6925 8.98753 14.2342 6.07689 16.6 4.19627C14.8589 2.82734 12.6626 2 10.267 2C4.5919 2 0 6.5919 0 12.267C0 17.9421 4.5919 22.534 10.267 22.534C12.6626 22.534 14.8589 21.7066 16.6 20.3377C14.2309 18.4837 12.6925 15.5464 12.6925 12.267Z" fill="#EB001B"/>
<path id="path22" d="M33.1999 12.267C33.1999 17.9421 28.608 22.534 22.9329 22.534C20.5373 22.534 18.341 21.7066 16.6 20.3377C18.9956 18.4538 20.5074 15.5464 20.5074 12.267C20.5074 8.98753 18.9657 6.07689 16.6 4.19627C18.3377 2.82734 20.534 2 22.9296 2C28.608 2 33.1999 6.62181 33.1999 12.267Z" fill="#F79E1B"/>
</g>
<path id="XMLID_1775_" d="M60.1629 20.6941V11.4267C60.1629 7.88175 58.0459 5.56042 54.4118 5.56042C52.5948 5.56042 50.619 6.17224 49.2606 8.18766C48.2022 6.49614 46.685 5.56042 44.4093 5.56042C42.8922 5.56042 41.375 6.02828 40.1754 7.7198V5.86633H37V20.6941H40.1754V12.5064C40.1754 9.87918 41.5338 8.63753 43.6507 8.63753C45.7677 8.63753 46.8261 10.0231 46.8261 12.5064V20.6941H50.0016V12.5064C50.0016 9.87918 51.5187 8.63753 53.4769 8.63753C55.5938 8.63753 56.6523 10.0231 56.6523 12.5064V20.6941H60.1629ZM107.265 5.86633H102.114V1.38561H98.9382V5.86633H96.0627V8.79949H98.9382V15.6015C98.9382 19.0026 100.297 21 103.931 21C105.289 21 106.806 20.5321 107.865 19.9203L106.947 17.1311C106.03 17.7429 104.971 17.9049 104.213 17.9049C102.696 17.9049 102.096 16.9691 102.096 15.4396V8.79949H107.247V5.86633H107.265ZM134.221 5.54241C132.404 5.54241 131.186 6.47815 130.428 7.7018V5.84833H127.252V20.6761H130.428V12.3265C130.428 9.86118 131.486 8.45758 133.462 8.45758C134.062 8.45758 134.82 8.61954 135.438 8.7635L136.355 5.66838C135.72 5.54242 134.82 5.54241 134.221 5.54241ZM93.4871 7.08998C91.9699 6.01029 89.853 5.54241 87.5773 5.54241C83.9432 5.54241 81.5264 7.39589 81.5264 10.3291C81.5264 12.7943 83.3434 14.1979 86.5188 14.6478L88.036 14.8098C89.6942 15.1157 90.6116 15.5836 90.6116 16.3573C90.6116 17.437 89.3943 18.2108 87.2774 18.2108C85.1604 18.2108 83.4845 17.437 82.4261 16.6632L80.9089 19.1285C82.5672 20.3702 84.8429 20.982 87.1186 20.982C91.3525 20.982 93.787 18.9666 93.787 16.1954C93.787 13.5681 91.8112 12.1825 88.7945 11.7147L87.2774 11.5527C85.919 11.3907 84.8605 11.0848 84.8605 10.1671C84.8605 9.0874 85.919 8.47558 87.5949 8.47558C89.412 8.47558 91.229 9.24936 92.1463 9.71722L93.4871 7.08998ZM177.971 5.54241C176.154 5.54241 174.936 6.47815 174.178 7.7018V5.84833H171.002V20.6761H174.178V12.3265C174.178 9.86118 175.236 8.45758 177.212 8.45758C177.812 8.45758 178.571 8.61954 179.188 8.7635L180.105 5.70437C179.488 5.54242 178.588 5.54241 177.971 5.54241ZM137.396 13.2802C137.396 17.7609 140.43 21 145.123 21C147.24 21 148.757 20.5321 150.274 19.3085L148.757 16.6812C147.54 17.617 146.34 18.0668 144.964 18.0668C142.388 18.0668 140.571 16.2134 140.571 13.2802C140.571 10.491 142.388 8.63753 144.964 8.49358C146.322 8.49358 147.54 8.96144 148.757 9.87918L150.274 7.25192C148.757 6.01028 147.24 5.56042 145.123 5.56042C140.43 5.54242 137.396 8.79948 137.396 13.2802ZM166.769 13.2802V5.86633H163.593V7.7198C162.535 6.33419 161.018 5.56042 159.042 5.56042C154.949 5.56042 151.774 8.79948 151.774 13.2802C151.774 17.7609 154.949 21 159.042 21C161.159 21 162.676 20.2262 163.593 18.8406V20.6941H166.769V13.2802ZM155.108 13.2802C155.108 10.653 156.766 8.49358 159.5 8.49358C162.076 8.49358 163.893 10.509 163.893 13.2802C163.893 15.9075 162.076 18.0668 159.5 18.0668C156.784 17.9049 155.108 15.8895 155.108 13.2802ZM117.109 5.54241C112.875 5.54241 109.84 8.63753 109.84 13.2622C109.84 17.9049 112.875 20.982 117.267 20.982C119.384 20.982 121.501 20.3702 123.177 18.9666L121.66 16.6452C120.443 17.581 118.926 18.1928 117.426 18.1928C115.45 18.1928 113.492 17.2571 113.034 14.6478H123.777C123.777 14.18 123.777 13.874 123.777 13.4062C123.918 8.63753 121.184 5.54241 117.109 5.54241ZM117.109 8.33162C119.084 8.33162 120.443 9.57326 120.743 11.8766H113.175C113.475 9.87918 114.833 8.33162 117.109 8.33162ZM196 13.2802V0H192.825V7.7198C191.766 6.33419 190.249 5.56042 188.273 5.56042C184.18 5.56042 181.005 8.79948 181.005 13.2802C181.005 17.7609 184.18 21 188.273 21C190.39 21 191.907 20.2262 192.825 18.8406V20.6941H196V13.2802ZM184.339 13.2802C184.339 10.653 185.997 8.49358 188.732 8.49358C191.307 8.49358 193.124 10.509 193.124 13.2802C193.124 15.9075 191.307 18.0668 188.732 18.0668C185.997 17.9049 184.339 15.8895 184.339 13.2802ZM78.0334 13.2802V5.86633H74.858V7.7198C73.7995 6.33419 72.2824 5.56042 70.3066 5.56042C66.2138 5.56042 63.0384 8.79948 63.0384 13.2802C63.0384 17.7609 66.2138 21 70.3066 21C72.4235 21 73.9406 20.2262 74.858 18.8406V20.6941H78.0334V13.2802ZM66.2314 13.2802C66.2314 10.653 67.8897 8.49358 70.6241 8.49358C73.1997 8.49358 75.0168 10.509 75.0168 13.2802C75.0168 15.9075 73.1997 18.0668 70.6241 18.0668C67.8897 17.9049 66.2314 15.8895 66.2314 13.2802Z" fill="black"/>
</g>
</svg>
