<svg width="22" height="22" viewBox="0 0 22 22" fill="none" xmlns="http://www.w3.org/2000/svg">
<path fill-rule="evenodd" clip-rule="evenodd" d="M8.62707 20.3827V8.83246H13.2322V20.3496C13.8407 20.2015 14.4274 19.9978 14.9865 19.7441V8.85439C15.6225 8.94211 16.1049 9.49034 16.1049 10.1482V19.1482C16.7404 18.7558 17.3287 18.2944 17.8593 17.7742V10.1701C17.8593 8.52545 16.5874 7.2097 14.9865 7.10005V4.87717C14.9865 4.39473 14.5918 4 14.1094 4H7.7499C7.26745 4 6.87273 4.39473 6.87273 4.87717V7.10005C5.27189 7.18777 4 8.52545 4 10.1482V17.9096C4.53293 18.4121 5.12107 18.8567 5.75434 19.2334V10.1482C5.75434 9.49034 6.23678 8.94211 6.87273 8.85439V19.8066C7.43272 20.0503 8.01936 20.2442 8.62707 20.3827ZM8.62707 7.07813V5.75434H13.2322V7.07813H8.62707Z" fill="#00A1D4" stroke="white" stroke-width="0.3"/>
<path d="M11 21C16.5228 21 21 16.5228 21 11C21 5.47715 16.5228 1 11 1C5.47715 1 1 5.47715 1 11C1 16.5228 5.47715 21 11 21Z" stroke="#00A1D4" stroke-width="1.67" stroke-linecap="round" stroke-linejoin="round"/>
</svg>
