<svg width="20" height="20" viewBox="0 0 20 20" fill="none" xmlns="http://www.w3.org/2000/svg">
<g id="piggy-bank-02">
<path id="Icon" d="M4.16645 10.8333C4.16645 8.07191 6.40502 5.83333 9.16645 5.83333M4.16645 10.8333C4.16645 12.207 4.72038 13.4513 5.61706 14.355C5.70354 14.4421 5.74678 14.4857 5.77231 14.5276C5.79666 14.5676 5.81084 14.602 5.82171 14.6475C5.83311 14.6953 5.83311 14.7496 5.83311 14.8582V16.8333C5.83311 17.0667 5.83311 17.1834 5.87853 17.2725C5.91847 17.3509 5.98222 17.4146 6.06062 17.4546C6.14975 17.5 6.26642 17.5 6.49978 17.5H8.08311C8.31647 17.5 8.43315 17.5 8.52228 17.4546C8.60068 17.4146 8.66442 17.3509 8.70437 17.2725C8.74978 17.1834 8.74978 17.0667 8.74978 16.8333V16.5C8.74978 16.2666 8.74978 16.15 8.79519 16.0608C8.83514 15.9824 8.89888 15.9187 8.97728 15.8787C9.06641 15.8333 9.18309 15.8333 9.41645 15.8333H10.5831C10.8165 15.8333 10.9331 15.8333 11.0223 15.8787C11.1007 15.9187 11.1644 15.9824 11.2044 16.0608C11.2498 16.15 11.2498 16.2666 11.2498 16.5V16.8333C11.2498 17.0667 11.2498 17.1834 11.2952 17.2725C11.3351 17.3509 11.3989 17.4146 11.4773 17.4546C11.5664 17.5 11.6831 17.5 11.9164 17.5H13.4998C13.7332 17.5 13.8499 17.5 13.939 17.4546C14.0174 17.4146 14.0811 17.3509 14.1211 17.2725C14.1665 17.1834 14.1665 17.0667 14.1665 16.8333V16.0203C14.1665 15.8519 14.1665 15.7677 14.1905 15.7001C14.2135 15.6353 14.2424 15.59 14.2915 15.5419C14.3427 15.4917 14.4294 15.4514 14.6029 15.3709C15.4214 14.9908 16.1199 14.3959 16.6258 13.6585C16.7147 13.5288 16.7592 13.464 16.8067 13.4257C16.8521 13.389 16.8929 13.3676 16.9488 13.3508C17.0072 13.3333 17.0767 13.3333 17.2155 13.3333H17.6665C17.8999 13.3333 18.0165 13.3333 18.1057 13.2879C18.1841 13.248 18.2478 13.1842 18.2878 13.1058C18.3332 13.0167 18.3332 12.9 18.3332 12.6667V9.82146C18.3332 9.5993 18.3332 9.48822 18.2919 9.40253C18.2509 9.3175 18.1823 9.24889 18.0973 9.20794C18.0116 9.16667 17.9005 9.16667 17.6784 9.16667C17.5176 9.16667 17.4372 9.16667 17.3724 9.14484C17.3026 9.1213 17.2536 9.08999 17.203 9.03648C17.156 8.98685 17.1176 8.90387 17.0409 8.73789C16.7947 8.20519 16.4575 7.72314 16.0492 7.3117C15.9627 7.22455 15.9195 7.18097 15.894 7.13906C15.8696 7.09908 15.8554 7.06466 15.8446 7.01912C15.8332 6.97139 15.8332 6.91709 15.8332 6.80848V5.88382C15.8332 5.58378 15.8332 5.43376 15.7707 5.33292C15.716 5.24459 15.6302 5.1799 15.5302 5.15154C15.4161 5.11916 15.2719 5.16037 14.9834 5.2428L13.0062 5.80768C12.9726 5.81728 12.9558 5.82208 12.9387 5.82545C12.9236 5.82845 12.9082 5.83059 12.8928 5.83188C12.8755 5.83333 12.8579 5.83333 12.8227 5.83333H9.16645M4.16645 10.8333H3.33317C2.4127 10.8333 1.6665 10.0871 1.6665 9.16667C1.6665 8.54976 2.00167 8.01115 2.49984 7.72297M9.16645 5.83333H12.4703C12.4898 5.69725 12.4998 5.55813 12.4998 5.41667C12.4998 3.80584 11.194 2.5 9.58317 2.5C7.97234 2.5 6.6665 3.80584 6.6665 5.41667C6.6665 5.76434 6.72734 6.0978 6.83893 6.40699C7.53412 6.04067 8.32604 5.83333 9.16645 5.83333Z" stroke="#98A2B3" stroke-width="2" stroke-linecap="round" stroke-linejoin="round"/>
</g>
</svg>
