<svg xmlns="http://www.w3.org/2000/svg" width="15.112" height="14.12" viewBox="0 0 15.112 14.12">
    <g data-name="Group 7386">
        <g data-name="Group 7308">
            <g data-name="Group 7307">
                <path data-name="Path 6173" d="M136.013 7.348a.5.5 0 0 0-.458-.3h-2.015V2.5a.5.5 0 0 0-.5-.5h-2.015a.5.5 0 0 0-.5.5v4.552H128.5a.5.5 0 0 0-.379.835l3.526 4.03a.5.5 0 0 0 .758 0l3.526-4.03a.5.5 0 0 0 .082-.539z" transform="translate(-124.472 -2)" style="fill:#00b8ef"/>
            </g>
        </g>
        <g data-name="Group 7310">
            <g data-name="Group 7309">
                <path data-name="Path 6174" d="M29.1 352v3.022H18.015V352H16v4.03a1.007 1.007 0 0 0 1.007 1.008H30.1a1.007 1.007 0 0 0 1.007-1.008V352z" transform="translate(-16 -342.918)" style="fill:#00b8ef"/>
            </g>
        </g>
    </g>
</svg>
