<svg xmlns="http://www.w3.org/2000/svg" width="18.524" height="18.431" viewBox="0 0 18.524 18.431">
    <path data-name="Path 1129" d="M17.1 48.943a.461.461 0 0 0-.461.461v4.1a1.385 1.385 0 0 1-1.384 1.384H2.307A1.385 1.385 0 0 1 .923 53.5V41.479a1.386 1.386 0 0 1 1.384-1.384H6.4a.461.461 0 1 0 0-.923H2.3A2.309 2.309 0 0 0 0 41.479V53.5a2.309 2.309 0 0 0 2.307 2.307h12.945a2.309 2.309 0 0 0 2.307-2.307v-4.1a.461.461 0 0 0-.459-.457zm0 0" transform="translate(0 -37.377)" style="fill:#50656e"/>
    <path data-name="Path 1130" d="M120.574.869a2.076 2.076 0 0 0-2.936 0L109.407 9.1a.461.461 0 0 0-.118.2l-1.082 3.908a.461.461 0 0 0 .568.568l3.908-1.083a.461.461 0 0 0 .2-.118l8.231-8.231a2.078 2.078 0 0 0 0-2.936zM110.413 9.4l6.736-6.736 2.172 2.172-6.736 6.736zm-.434.871 1.736 1.736-2.4.665zm10.485-6.576-.489.489L117.8 2.01l.489-.489a1.153 1.153 0 0 1 1.631 0l.542.541a1.155 1.155 0 0 1 .001 1.632zm0 0" transform="translate(-103.198 -.261)" style="fill:#50656e"/>
</svg>
