<svg width="13" height="17" viewBox="0 0 13 17" fill="none" xmlns="http://www.w3.org/2000/svg">
<path d="M9.9 0H2.7C1.206 0 0 1.305 0 2.907V16.028C0 16.613 0.441 17 0.909 17C1.134 17 1.359 16.91 1.539 16.712L5.67 12.275C5.85 12.086 6.075 11.987 6.309 11.987C6.543 11.987 6.768 12.086 6.948 12.275L11.079 16.712C11.259 16.91 11.484 17 11.709 17C12.168 17 12.618 16.613 12.618 16.028V2.907C12.618 1.305 11.412 0 9.918 0H9.9ZM11.25 14.93L7.929 11.357C7.506 10.907 6.912 10.646 6.3 10.646C5.688 10.646 5.094 10.907 4.671 11.357L1.35 14.93V2.907C1.35 2.052 1.953 1.35 2.7 1.35H9.9C10.647 1.35 11.25 2.052 11.25 2.907V14.93Z" fill="#00A1D4"/>
<path d="M6.5 4.25L6.5 8.75" stroke="#00A1D4" stroke-width="1.2" stroke-linecap="round"/>
<path d="M8.75 6.5L4.25 6.5" stroke="#00A1D4" stroke-width="1.2" stroke-linecap="round"/>
</svg>
